<svg xmlns="http://www.w3.org/2000/svg" width="464" height="422" fill="none"><path fill="#80E895" d="M390.32 70.71a210.387 210.387 0 0 0-57.34-40.24C301.36 15.68 266.5 8.56 231.7 8.13c-101.79-1.23-109.54 118.35-140.84 135-31.3 16.65-88 18.59-90 85.09-1.23 41.83 8.54 84.85 36 117.44 25.15 29.85 62.09 45 98.49 56.15 40.88 12.56 84.23 24.87 127.23 16.4 44.13-8.69 75.13-43.63 111.36-67.24 22.82-14.87 43.3-30.52 57.39-54.38 1.68-2.84 3.26-5.76 4.76-8.71 18.86-37.06 22.56-79.82 12.16-119.93-9.32-36.03-30.39-70.3-57.93-97.24Z"/><path fill="#fff" d="M390.32 70.71a210.387 210.387 0 0 0-57.34-40.24C301.36 15.68 266.5 8.56 231.7 8.13c-101.79-1.23-109.54 118.35-140.84 135-31.3 16.65-88 18.59-90 85.09-1.23 41.83 8.54 84.85 36 117.44 25.15 29.85 62.09 45 98.49 56.15 40.88 12.56 84.23 24.87 127.23 16.4 44.13-8.69 75.13-43.63 111.36-67.24 22.82-14.87 43.3-30.52 57.39-54.38 1.68-2.84 3.26-5.76 4.76-8.71 18.86-37.06 22.56-79.82 12.16-119.93-9.32-36.03-30.39-70.3-57.93-97.24Z" opacity=".7"/><path stroke="#263238" stroke-linecap="round" stroke-linejoin="round" d="M389.88 88.1c.066.21.103.43.11.65v.69a6.111 6.111 0 0 1-.19 1.57 3.475 3.475 0 0 1-.6 1.29 3.08 3.08 0 0 1-1.08.9c-.524.248-1.1.368-1.68.35a4.691 4.691 0 0 1-1.92-.42 22.975 22.975 0 0 1-2.33-1.2l-9.89-5.73a8 8 0 0 1-.65-7.15 4 4 0 0 1 1.62-1.66L385.96 70a5.71 5.71 0 0 1 3.07 1.64c.511.635.793 1.424.8 2.24a3.65 3.65 0 0 1-.8 2.51 7.874 7.874 0 0 1-2.38 1.69l-8.15 4.12 11.38 5.9ZM407.18 98.63c-.43.06-.84.09-1.24.11-.4.02-.77 0-1.11 0a4.659 4.659 0 0 1-3-.83 3.217 3.217 0 0 1-1-2.67c.003-.853.124-1.7.36-2.52.25-.84.47-1.59.65-2.24l8.12-29.3c.46-.06.89-.1 1.3-.12h1.1a4.85 4.85 0 0 1 2.93.79 2.873 2.873 0 0 1 1.09 2.53 8.775 8.775 0 0 1-.37 2.54c-.247.8-.477 1.6-.69 2.4l-8.14 29.31ZM427.3 75.46a2.433 2.433 0 0 1-.11-.65v-.69a6.639 6.639 0 0 1 .18-1.57c.109-.467.313-.906.6-1.29.29-.38.663-.688 1.09-.9a3.61 3.61 0 0 1 1.68-.35c.659.003 1.31.146 1.91.42.63.28 1.41.68 2.33 1.2l9.93 5.72a6.662 6.662 0 0 1 1.2 4.15 6.53 6.53 0 0 1-.56 3 4 4 0 0 1-1.61 1.67l-12.69 7.38a5.67 5.67 0 0 1-3.07-1.64 3.575 3.575 0 0 1-.81-2.24 3.621 3.621 0 0 1 .81-2.51 8.132 8.132 0 0 1 2.37-1.69l8.13-4.1-11.38-5.91ZM239.89 83.83v12.8h36.24v-29.7h29.69V30.7H289.1M225.13 30.7h-14.94v36.23h29.7v10.63M284.01 30.7h-7.88V1h-36.24v29.7h-7.59M258.01 56.35a7.54 7.54 0 1 0 0-15.08 7.54 7.54 0 0 0 0 15.08Z"/><path stroke="#263238" stroke-linecap="round" stroke-linejoin="round" d="m258.4 12.65-5.82 10.09h11.65l-5.83-10.09ZM258.4 87.3l5.83-10.1h-11.65l5.82 10.1ZM221.08 49.97l10.09 5.83V44.15l-10.09 5.82ZM295.73 49.97l-10.1-5.82V55.8l10.1-5.83ZM392.65 160.04a4.884 4.884 0 0 0-5.325-1.061 4.884 4.884 0 0 0-1.585 1.061l-1.58 1.58-1.58-1.58a4.89 4.89 0 0 0-6.91 6.91l8.33 8.34.16-.16.16.16 8.33-8.34a4.884 4.884 0 0 0 1.061-5.325 4.884 4.884 0 0 0-1.061-1.585ZM415.57 160.04a4.884 4.884 0 0 0-5.325-1.061 4.884 4.884 0 0 0-1.585 1.061l-1.58 1.58-1.58-1.58a4.896 4.896 0 0 0-3.495-1.572 4.892 4.892 0 0 0-3.415 8.482l8.33 8.34.16-.16.16.16 8.33-8.34a4.884 4.884 0 0 0 1.061-5.325 4.884 4.884 0 0 0-1.061-1.585ZM438.5 160.04a4.884 4.884 0 0 0-5.325-1.061 4.884 4.884 0 0 0-1.585 1.061l-1.58 1.58-1.58-1.58a4.89 4.89 0 0 0-6.91 6.91l8.33 8.34.16-.16.16.16 8.33-8.34a4.884 4.884 0 0 0 1.061-5.325 4.884 4.884 0 0 0-1.061-1.585ZM102.01 47.27a5.67 5.67 0 0 0-7.5 0l-1.71 1.57-1.72-1.57a5.67 5.67 0 0 0-7.5 0 4.57 4.57 0 0 0 0 6.86l9 8.27.18-.16.17.16 9-8.27a4.57 4.57 0 0 0 .08-6.86ZM126.87 47.27a5.67 5.67 0 0 0-7.5 0l-1.71 1.57-1.72-1.57a5.67 5.67 0 0 0-7.5 0 4.574 4.574 0 0 0 0 6.86l9.06 8.27.17-.16.17.16 9-8.27a4.572 4.572 0 0 0 .03-6.86ZM151.73 47.27a5.66 5.66 0 0 0-7.49 0l-1.74 1.57-1.71-1.57a5.67 5.67 0 0 0-7.5 0 4.574 4.574 0 0 0 0 6.86l9 8.27.21-.2.17.16 9-8.27a4.547 4.547 0 0 0 1.182-5.27 4.546 4.546 0 0 0-1.122-1.55Z"/><path fill="#fff" stroke="#263238" stroke-linecap="round" stroke-linejoin="round" d="M389.25 212.11h-20.76v7.28h20.76v-7.28Z"/><path fill="#80E895" stroke="#263238" stroke-linecap="round" stroke-linejoin="round" d="M389.43 219.39H368.3l2.64 27.86h15.85l2.64-27.86Z"/><path fill="#fff" stroke="#263238" stroke-linecap="round" stroke-linejoin="round" d="M391.51 218.11h-25.29v4.29h25.29v-4.29Z"/><path fill="#263238" stroke="#263238" stroke-linecap="round" stroke-linejoin="round" d="M358.81 129.77H235.15v96.75h123.66v-96.75Z"/><path fill="#fff" stroke="#263238" stroke-linecap="round" stroke-linejoin="round" d="M354.82 132.89H239.14v86.88h115.68v-86.88Z"/><path fill="#263238" stroke="#263238" stroke-linecap="round" stroke-linejoin="round" d="M354.82 132.89h-30.45v86.88h30.45v-86.88Z"/><path fill="#fff" stroke="#263238" stroke-linecap="round" stroke-linejoin="round" d="M354.82 132.89H239.14v4.75h115.68v-4.75ZM263.92 187.39h-12.47v25.07h12.47v-25.07Z"/><path fill="#fff" stroke="#263238" stroke-linecap="round" stroke-linejoin="round" d="M263.92 200.6h-12.47v11.86h12.47V200.6Z"/><path stroke="#263238" stroke-linecap="round" stroke-linejoin="round" d="M251.7 202.7h12.1M251.7 205.05h12.1M251.7 207.39h12.1M251.7 209.74h12.1"/><path fill="#fff" stroke="#263238" stroke-linecap="round" stroke-linejoin="round" d="M250.37 205.2h6.39v7.29h-12.47v-1.2a6.088 6.088 0 0 1 1.777-4.306 6.093 6.093 0 0 1 4.303-1.784ZM270.23 212.45h12.47v-25.07h-12.47v25.07Z"/><path fill="#fff" stroke="#263238" stroke-linecap="round" stroke-linejoin="round" d="M282.69 200.6h-12.47v11.86h12.47V200.6Z"/><path stroke="#263238" stroke-linecap="round" stroke-linejoin="round" d="M282.45 202.7h-12.1M282.45 205.05h-12.1M282.45 207.39h-12.1M282.45 209.74h-12.1"/><path fill="#fff" stroke="#263238" stroke-linecap="round" stroke-linejoin="round" d="M289.86 212.43h-12.47v-7.29h6.36a6.08 6.08 0 0 1 6.08 6.08v1.21h.03Z"/><path fill="#80E895" stroke="#263238" stroke-linecap="round" stroke-linejoin="round" d="M251.58 184.18v5.59l12.25 8.98h6.18l11.67-8.59v-5.98h-30.1Z"/><path fill="#fff" stroke="#263238" stroke-linecap="round" stroke-linejoin="round" d="M281.59 161.89h-30.01v22.29h30.01v-22.29Z"/><path fill="#263238" stroke="#263238" stroke-linecap="round" stroke-linejoin="round" d="M281.68 177.11h-29.62v7.53h29.62v-7.53Z"/><path fill="#fff" stroke="#263238" stroke-linecap="round" stroke-linejoin="round" d="M246.57 165.94s-3.05 4.38-3.05 8.09v21.95a1 1 0 0 0 1 1h7.83a.997.997 0 0 0 1-1 .997.997 0 0 1 1-1h1.15a.997.997 0 0 0 1-1v-28.17s-6.88-4.12-9.93.13Z"/><path fill="#263238" stroke="#263238" stroke-linecap="round" stroke-linejoin="round" d="M256.52 180.79h-13v8.36h13v-8.36Z"/><path fill="#fff" stroke="#263238" stroke-linecap="round" stroke-linejoin="round" d="M288.79 165.94s3 4.38 3 8.09v21.95a1 1 0 0 1-1 1h-7.83a.997.997 0 0 1-1-1 .997.997 0 0 0-1-1h-1.2a.997.997 0 0 1-1-1v-28.17s6.97-4.12 10.03.13Z"/><path fill="#263238" stroke="#263238" stroke-linecap="round" stroke-linejoin="round" d="M291.84 180.79h-13v8.36h13v-8.36Z"/><path fill="#fff" stroke="#263238" stroke-linecap="round" stroke-linejoin="round" d="M264.13 158.63a12.149 12.149 0 0 0-11.42.53c-5.87 3.52-5.44 7.58-4.48 9s3.09 1.6 5 .75c1.91-.85 3-4.16 6.94-4.59 3.94-.43 6-1.49 5.55-4.05-.45-2.56-1.59-1.64-1.59-1.64ZM271.4 158.63a12.149 12.149 0 0 1 11.42.53c5.87 3.52 5.44 7.58 4.48 9s-3.09 1.6-5 .75c-1.91-.85-3-4.16-6.94-4.59-3.94-.43-6-1.49-5.55-4.05.45-2.56 1.59-1.64 1.59-1.64ZM270.21 148.36h5.39l1.38-3.44a.249.249 0 0 1 .42-.065.251.251 0 0 1 .06.155v5.49a2.697 2.697 0 0 1-2.7 2.7h-4.55v-4.84ZM265.26 148.36h-5.39l-1.37-3.44a.249.249 0 0 0-.42-.065.251.251 0 0 0-.06.155v5.49a2.684 2.684 0 0 0 .784 1.908 2.693 2.693 0 0 0 1.906.792h4.56l-.01-4.84Z"/><path fill="#fff" stroke="#263238" stroke-linecap="round" stroke-linejoin="round" d="M263.81 153.38a7.2 7.2 0 0 0-.55 2.79c0 3.19 2 5.77 4.38 5.77s4.37-2.58 4.37-5.77a7.2 7.2 0 0 0-.55-2.79h-7.65Z"/><path fill="#263238" stroke="#263238" stroke-linecap="round" stroke-linejoin="round" d="M263.81 153.38s.58-7.81 4.3-7.62c3.72.19 3.35 7.62 3.35 7.62h-7.65Z"/><path fill="#80E895" stroke="#263238" stroke-linecap="round" stroke-linejoin="round" d="M263.81 156.26a7.2 7.2 0 0 0-.55 2.79c0 3.19 2 5.77 4.38 5.77s4.37-2.58 4.37-5.77a7.2 7.2 0 0 0-.55-2.79h-7.65Z"/><path fill="#fff" stroke="#263238" stroke-linecap="round" stroke-linejoin="round" d="M268.5 153.29h-1.92v4.37h1.92v-4.37Z"/><path stroke="#263238" stroke-linecap="round" stroke-linejoin="round" d="M267.64 164.82v12.12"/><path fill="#fff" stroke="#263238" stroke-linecap="round" stroke-linejoin="round" d="M326.42 137.63h-3.35v81.81h3.35v-81.81Z"/><path fill="#80E895" stroke="#263238" stroke-linecap="round" stroke-linejoin="round" d="M299.66 141.19h-5.95v5.95h5.95v-5.95Z"/><path fill="#263238" stroke="#263238" stroke-linecap="round" stroke-linejoin="round" d="M299.66 149.37h-5.95v5.95h5.95v-5.95Z"/><path fill="#fff" stroke="#263238" stroke-linecap="round" stroke-linejoin="round" d="M299.66 157.42h-5.95v5.95h5.95v-5.95Z"/><path fill="#80E895" d="M330.4 143.57h-1.53a.373.373 0 0 1-.262-.108.373.373 0 0 1 0-.527.381.381 0 0 1 .262-.115h1.53a.378.378 0 0 1 .265.112.358.358 0 0 1 .105.268.366.366 0 0 1-.105.265.37.37 0 0 1-.265.105Zm.37 1.37a.358.358 0 0 0-.105-.268.378.378 0 0 0-.265-.112h-1.53a.381.381 0 0 0-.342.522.4.4 0 0 0 .08.12.382.382 0 0 0 .262.108h1.53a.366.366 0 0 0 .265-.105.37.37 0 0 0 .105-.265Zm0 1.74a.358.358 0 0 0-.105-.268.378.378 0 0 0-.265-.112h-1.53a.382.382 0 0 0-.269.111.382.382 0 0 0 0 .538.382.382 0 0 0 .269.111h1.53a.378.378 0 0 0 .265-.112.358.358 0 0 0 .105-.268Zm0 1.74a.358.358 0 0 0-.105-.268.378.378 0 0 0-.265-.112h-1.53a.382.382 0 0 0-.269.111.382.382 0 0 0 0 .538.382.382 0 0 0 .269.111h1.53a.378.378 0 0 0 .265-.112.358.358 0 0 0 .105-.268Zm0 1.74a.366.366 0 0 0-.105-.265.37.37 0 0 0-.265-.105h-1.53a.373.373 0 0 0-.262.108.373.373 0 0 0 0 .527.381.381 0 0 0 .262.115h1.53a.373.373 0 0 0 .37-.34v-.04Zm0 1.74a.373.373 0 0 0-.108-.262.373.373 0 0 0-.262-.108h-1.53a.38.38 0 0 0 0 .75h1.53a.378.378 0 0 0 .265-.112.358.358 0 0 0 .105-.268Zm0 1.74a.373.373 0 0 0-.108-.262.373.373 0 0 0-.262-.108h-1.53a.38.38 0 0 0 0 .75h1.53a.378.378 0 0 0 .265-.112.358.358 0 0 0 .105-.268Zm0 1.75a.358.358 0 0 0-.105-.268.378.378 0 0 0-.265-.112h-1.53a.38.38 0 0 0 0 .75h1.53a.382.382 0 0 0 .262-.108.382.382 0 0 0 .108-.262Zm5.73-12.19a.358.358 0 0 0-.105-.268.378.378 0 0 0-.265-.112h-4a.382.382 0 0 0-.269.111.382.382 0 0 0-.082.413.358.358 0 0 0 .083.121.358.358 0 0 0 .268.105h4a.366.366 0 0 0 .265-.105.37.37 0 0 0 .105-.265Zm0 1.74a.358.358 0 0 0-.105-.268.378.378 0 0 0-.265-.112h-4a.382.382 0 0 0-.269.111.382.382 0 0 0-.082.413.358.358 0 0 0 .083.121.358.358 0 0 0 .268.105h4a.366.366 0 0 0 .265-.105.37.37 0 0 0 .105-.265Zm0 1.74a.358.358 0 0 0-.105-.268.378.378 0 0 0-.265-.112h-4a.382.382 0 0 0-.269.111.382.382 0 0 0 0 .538.382.382 0 0 0 .269.111h4a.378.378 0 0 0 .265-.112.358.358 0 0 0 .105-.268Zm0 1.74a.358.358 0 0 0-.105-.268.378.378 0 0 0-.265-.112h-4a.382.382 0 0 0-.269.111.382.382 0 0 0 0 .538.382.382 0 0 0 .269.111h4a.378.378 0 0 0 .265-.112.358.358 0 0 0 .105-.268Zm0 1.74a.366.366 0 0 0-.105-.265.37.37 0 0 0-.265-.105h-4a.358.358 0 0 0-.268.105.378.378 0 0 0 .268.645h4a.373.373 0 0 0 .37-.34v-.04Zm4.79 1.74a.383.383 0 0 0-.37-.37h-4a.374.374 0 0 0-.307.085.382.382 0 0 0 0 .58.392.392 0 0 0 .307.085h4a.377.377 0 0 0 .243-.125.376.376 0 0 0 .097-.255h.03Zm0 1.74a.383.383 0 0 0-.37-.37h-4a.374.374 0 0 0-.307.085.382.382 0 0 0 0 .58.392.392 0 0 0 .307.085h4a.377.377 0 0 0 .243-.125.376.376 0 0 0 .097-.255h.03Zm0 1.75a.38.38 0 0 0-.37-.38h-4a.374.374 0 0 0-.307.085.382.382 0 0 0 0 .58.392.392 0 0 0 .307.085h4a.384.384 0 0 0 .34-.37h.03Zm-3-12.19a.444.444 0 0 0-.125-.308.444.444 0 0 0-.305-.132.436.436 0 0 0-.311.129.436.436 0 0 0-.129.311c.003.115.05.224.132.305.083.08.193.125.308.125a.433.433 0 0 0 .37-.43h.06Zm1.31 0a.436.436 0 0 0-.129-.311.436.436 0 0 0-.311-.129.444.444 0 0 0-.305.132.444.444 0 0 0-.092.473.42.42 0 0 0 .232.232.43.43 0 0 0 .165.033.438.438 0 0 0 .34-.43h.1Zm1.3 0a.444.444 0 0 0-.125-.308.444.444 0 0 0-.305-.132.436.436 0 0 0-.311.129.436.436 0 0 0-.129.311c.003.115.05.224.132.305.083.08.193.125.308.125a.433.433 0 0 0 .37-.43h.06Zm1.31 0a.442.442 0 0 0-.251-.466.451.451 0 0 0-.368 0 .447.447 0 0 0-.239.278.442.442 0 0 0 .423.562.442.442 0 0 0 .435-.374Zm1.31 0a.436.436 0 0 0-.129-.311.436.436 0 0 0-.311-.129.444.444 0 0 0-.305.132.444.444 0 0 0-.125.308.43.43 0 0 0 .43.43.44.44 0 0 0 .42-.43h.02Zm1.3 0a.444.444 0 0 0-.125-.308.444.444 0 0 0-.305-.132.436.436 0 0 0-.311.129.436.436 0 0 0-.129.311c.003.115.05.224.132.305.083.08.193.125.308.125a.433.433 0 0 0 .37-.43h.06Zm-6.53 3.48a.444.444 0 0 0-.125-.308.444.444 0 0 0-.305-.132.436.436 0 0 0-.311.129.436.436 0 0 0-.129.311c.003.115.05.224.132.305.083.08.193.125.308.125a.433.433 0 0 0 .37-.43h.06Zm1.31 0a.436.436 0 0 0-.129-.311.436.436 0 0 0-.311-.129.444.444 0 0 0-.305.132.444.444 0 0 0-.125.308.43.43 0 0 0 .43.43.438.438 0 0 0 .34-.43h.1Zm1.3 0a.444.444 0 0 0-.125-.308.444.444 0 0 0-.305-.132.436.436 0 0 0-.311.129.436.436 0 0 0-.129.311c.003.115.05.224.132.305.083.08.193.125.308.125a.433.433 0 0 0 .37-.43h.06Zm1.31 0a.442.442 0 0 0-.251-.466.451.451 0 0 0-.368 0 .447.447 0 0 0-.239.278.442.442 0 0 0 .423.562.442.442 0 0 0 .435-.374Zm1.31 0a.436.436 0 0 0-.129-.311.436.436 0 0 0-.311-.129.444.444 0 0 0-.305.132.444.444 0 0 0-.125.308.43.43 0 0 0 .43.43.44.44 0 0 0 .42-.43h.02Zm1.3 0a.444.444 0 0 0-.125-.308.444.444 0 0 0-.305-.132.436.436 0 0 0-.311.129.436.436 0 0 0-.129.311c.003.115.05.224.132.305.083.08.193.125.308.125a.433.433 0 0 0 .37-.43h.06Zm-2.07 5a.442.442 0 0 0-.122-.311.423.423 0 0 0-.141-.095.42.42 0 0 0-.167-.034.442.442 0 0 0-.466.251.451.451 0 0 0 0 .368.447.447 0 0 0 .278.239.442.442 0 0 0 .451-.13.425.425 0 0 0 .107-.278l.06-.01Zm1.31 0a.436.436 0 0 0-.267-.414.433.433 0 0 0-.484.093.441.441 0 0 0 .321.751.43.43 0 0 0 .37-.42l.06-.01Zm1.31 0a.436.436 0 0 0-.129-.311.436.436 0 0 0-.311-.129.442.442 0 0 0-.374.435.442.442 0 0 0 .374.435.44.44 0 0 0 .38-.42l.06-.01Zm1.3 0a.442.442 0 0 0-.122-.311.423.423 0 0 0-.141-.095.42.42 0 0 0-.167-.034.442.442 0 0 0-.466.251.451.451 0 0 0 0 .368.447.447 0 0 0 .278.239.442.442 0 0 0 .451-.13.425.425 0 0 0 .107-.278l.06-.01Zm1.31 0a.436.436 0 0 0-.129-.311.436.436 0 0 0-.311-.129.442.442 0 0 0-.374.435.442.442 0 0 0 .374.435.44.44 0 0 0 .38-.42l.06-.01Zm1.3 0a.442.442 0 0 0-.122-.311.423.423 0 0 0-.141-.095.42.42 0 0 0-.167-.034.442.442 0 0 0-.466.251.451.451 0 0 0 0 .368.447.447 0 0 0 .278.239.442.442 0 0 0 .451-.13.425.425 0 0 0 .107-.278l.06-.01Zm-6.53 3.59a.444.444 0 0 0-.125-.308.444.444 0 0 0-.305-.132.436.436 0 0 0-.311.129.436.436 0 0 0-.129.311c.003.115.05.224.132.305.083.08.193.125.308.125a.43.43 0 0 0 .37-.42l.06-.01Zm1.31 0a.442.442 0 0 0-.251-.466.451.451 0 0 0-.368 0 .447.447 0 0 0-.239.278.442.442 0 0 0 .423.562.442.442 0 0 0 .435-.374Zm1.31 0a.436.436 0 0 0-.129-.311.436.436 0 0 0-.311-.129.444.444 0 0 0-.305.132.444.444 0 0 0-.092.473.42.42 0 0 0 .232.232.43.43 0 0 0 .165.033.44.44 0 0 0 .38-.42l.06-.01Zm1.3 0a.444.444 0 0 0-.125-.308.444.444 0 0 0-.305-.132.436.436 0 0 0-.311.129.436.436 0 0 0-.129.311c.003.115.05.224.132.305.083.08.193.125.308.125a.43.43 0 0 0 .37-.42l.06-.01Zm1.31 0a.436.436 0 0 0-.129-.311.436.436 0 0 0-.311-.129.444.444 0 0 0-.305.132.444.444 0 0 0-.125.308.43.43 0 0 0 .43.43.44.44 0 0 0 .38-.42l.06-.01Zm1.3 0a.444.444 0 0 0-.125-.308.444.444 0 0 0-.305-.132.436.436 0 0 0-.311.129.436.436 0 0 0-.129.311c.003.115.05.224.132.305.083.08.193.125.308.125a.43.43 0 0 0 .37-.42l.06-.01ZM330.4 157.84h-1.53a.38.38 0 0 1 0-.75h1.53a.38.38 0 0 1 0 .75Zm.37 1.37a.358.358 0 0 0-.105-.268.378.378 0 0 0-.265-.112h-1.53a.38.38 0 0 0 0 .75h1.53a.378.378 0 0 0 .265-.112.358.358 0 0 0 .105-.268v.01Zm0 1.74a.358.358 0 0 0-.105-.268.378.378 0 0 0-.265-.112h-1.53a.381.381 0 0 0-.37.38c0 .098.039.192.108.262.07.069.164.108.262.108h1.53a.366.366 0 0 0 .265-.105.37.37 0 0 0 .105-.265Zm0 1.74a.358.358 0 0 0-.105-.268.378.378 0 0 0-.265-.112h-1.53a.381.381 0 0 0-.37.38c0 .098.039.192.108.262.07.069.164.108.262.108h1.53a.366.366 0 0 0 .265-.105.37.37 0 0 0 .105-.265Zm0 1.74a.358.358 0 0 0-.105-.268.378.378 0 0 0-.265-.112h-1.53a.382.382 0 0 0-.269.111.382.382 0 0 0 0 .538.382.382 0 0 0 .269.111h1.53a.378.378 0 0 0 .265-.112.358.358 0 0 0 .105-.268Zm0 1.74a.366.366 0 0 0-.105-.265.37.37 0 0 0-.265-.105h-1.53a.373.373 0 0 0-.262.108.373.373 0 0 0 0 .527.381.381 0 0 0 .262.115h1.53a.371.371 0 0 0 .37-.35v-.03Zm0 1.74a.366.366 0 0 0-.105-.265.37.37 0 0 0-.265-.105h-1.53a.382.382 0 0 0-.262.108.382.382 0 0 0-.108.262.38.38 0 0 0 .37.38h1.53a.378.378 0 0 0 .265-.112.358.358 0 0 0 .105-.268Zm0 1.74a.373.373 0 0 0-.108-.262.373.373 0 0 0-.262-.108h-1.53a.38.38 0 0 0 0 .75h1.53a.378.378 0 0 0 .265-.112.358.358 0 0 0 .105-.268Zm5.7-12.18a.358.358 0 0 0-.105-.268.358.358 0 0 0-.265-.112h-4a.374.374 0 0 0-.307.085.382.382 0 0 0 0 .58.392.392 0 0 0 .307.085h4a.37.37 0 0 0 .4-.37h-.03Zm0 1.74a.358.358 0 0 0-.105-.268.358.358 0 0 0-.265-.112h-4a.374.374 0 0 0-.307.085.382.382 0 0 0 0 .58.392.392 0 0 0 .307.085h4a.362.362 0 0 0 .285-.101.347.347 0 0 0 .087-.127.36.36 0 0 0 .028-.152l-.03.01Zm0 1.74a.358.358 0 0 0-.105-.268.358.358 0 0 0-.265-.112h-4a.382.382 0 0 0-.269.111.382.382 0 0 0-.082.413.349.349 0 0 0 .083.121.358.358 0 0 0 .268.105h4a.363.363 0 0 0 .372-.219.356.356 0 0 0 .028-.151h-.03Zm0 1.74a.358.358 0 0 0-.105-.268.358.358 0 0 0-.265-.112h-4a.382.382 0 0 0-.269.111.382.382 0 0 0-.082.413.349.349 0 0 0 .083.121.358.358 0 0 0 .268.105h4a.363.363 0 0 0 .372-.219.356.356 0 0 0 .028-.151h-.03Zm0 1.74a.358.358 0 0 0-.105-.268.358.358 0 0 0-.265-.112h-4a.382.382 0 0 0-.269.111.382.382 0 0 0 0 .538.382.382 0 0 0 .269.111h4a.378.378 0 0 0 .285-.101.347.347 0 0 0 .087-.127.36.36 0 0 0 .028-.152h-.03Zm4.79 1.74a.373.373 0 0 0-.108-.262.373.373 0 0 0-.262-.108h-4a.358.358 0 0 0-.268.105.358.358 0 0 0-.112.265c0 .101.04.197.111.269a.382.382 0 0 0 .269.111h4a.376.376 0 0 0 .252-.104.373.373 0 0 0 .118-.246v-.03Zm0 1.74a.373.373 0 0 0-.108-.262.373.373 0 0 0-.262-.108h-4a.358.358 0 0 0-.268.105.358.358 0 0 0-.112.265c0 .101.04.197.111.269a.382.382 0 0 0 .269.111h4a.381.381 0 0 0 .37-.38Zm0 1.74a.383.383 0 0 0-.37-.37h-4a.374.374 0 0 0-.307.085.382.382 0 0 0 0 .58.392.392 0 0 0 .307.085h4a.381.381 0 0 0 .37-.38Zm-3-12.18a.444.444 0 0 0-.125-.308.444.444 0 0 0-.305-.132.436.436 0 0 0-.311.129.436.436 0 0 0-.129.311c.003.115.05.224.132.305.083.08.193.125.308.125a.43.43 0 0 0 .4-.43h.03Zm1.31 0a.436.436 0 0 0-.129-.311.436.436 0 0 0-.311-.129.444.444 0 0 0-.305.132.444.444 0 0 0-.125.308.43.43 0 0 0 .43.43.449.449 0 0 0 .264-.147.445.445 0 0 0 .106-.283h.07Zm1.3 0a.444.444 0 0 0-.125-.308.444.444 0 0 0-.305-.132.436.436 0 0 0-.311.129.436.436 0 0 0-.129.311c.003.115.05.224.132.305.083.08.193.125.308.125a.43.43 0 0 0 .4-.43h.03Zm1.31 0a.442.442 0 0 0-.251-.466.451.451 0 0 0-.368 0 .447.447 0 0 0-.239.278.442.442 0 0 0 .423.562.442.442 0 0 0 .435-.374Zm1.31 0a.436.436 0 0 0-.129-.311.436.436 0 0 0-.311-.129.444.444 0 0 0-.305.132.444.444 0 0 0-.125.308.43.43 0 0 0 .43.43.443.443 0 0 0 .45-.43h-.01Zm1.3 0a.444.444 0 0 0-.125-.308.444.444 0 0 0-.305-.132.436.436 0 0 0-.311.129.436.436 0 0 0-.129.311c.003.115.05.224.132.305.083.08.193.125.308.125a.43.43 0 0 0 .4-.43h.03Zm-6.53 3.48a.444.444 0 0 0-.125-.308.444.444 0 0 0-.305-.132.436.436 0 0 0-.311.129.436.436 0 0 0-.129.311c.003.115.05.224.132.305.083.08.193.125.308.125a.43.43 0 0 0 .4-.43h.03Zm1.31 0a.436.436 0 0 0-.129-.311.436.436 0 0 0-.311-.129.444.444 0 0 0-.305.132.444.444 0 0 0-.125.308.43.43 0 0 0 .43.43.449.449 0 0 0 .264-.147.445.445 0 0 0 .106-.283h.07Zm1.3 0a.444.444 0 0 0-.125-.308.444.444 0 0 0-.305-.132.436.436 0 0 0-.311.129.436.436 0 0 0-.129.311c.003.115.05.224.132.305.083.08.193.125.308.125a.43.43 0 0 0 .4-.43h.03Zm1.31 0a.442.442 0 0 0-.251-.466.451.451 0 0 0-.368 0 .447.447 0 0 0-.239.278.442.442 0 0 0 .423.562.442.442 0 0 0 .435-.374Zm1.31 0a.436.436 0 0 0-.129-.311.436.436 0 0 0-.311-.129.444.444 0 0 0-.305.132.444.444 0 0 0-.125.308.43.43 0 0 0 .43.43.443.443 0 0 0 .45-.43h-.01Zm1.3 0a.444.444 0 0 0-.125-.308.444.444 0 0 0-.305-.132.436.436 0 0 0-.311.129.436.436 0 0 0-.129.311c.003.115.05.224.132.305.083.08.193.125.308.125a.43.43 0 0 0 .4-.43h.03Zm-2.07 5a.43.43 0 0 0-.43-.43.444.444 0 0 0-.308.125.444.444 0 0 0-.132.305c0 .117.046.229.129.311a.436.436 0 0 0 .311.129.442.442 0 0 0 .4-.44h.03Zm1.31 0a.442.442 0 0 0-.435-.374.442.442 0 0 0-.184.84.451.451 0 0 0 .368 0 .447.447 0 0 0 .239-.278.442.442 0 0 0 .012-.188Zm1.31 0a.444.444 0 0 0-.132-.305.444.444 0 0 0-.473-.092.42.42 0 0 0-.232.232.444.444 0 0 0 .092.473c.081.082.19.129.305.132a.441.441 0 0 0 .41-.44h.03Zm1.3 0a.43.43 0 0 0-.43-.43.444.444 0 0 0-.308.125.444.444 0 0 0-.132.305c0 .117.046.229.129.311a.436.436 0 0 0 .311.129.442.442 0 0 0 .4-.44h.03Zm1.31 0a.444.444 0 0 0-.132-.305.444.444 0 0 0-.308-.125.43.43 0 0 0-.43.43c0 .115.045.225.125.308.081.082.19.129.305.132a.441.441 0 0 0 .41-.44h.03Zm1.3 0a.43.43 0 0 0-.43-.43.444.444 0 0 0-.308.125.444.444 0 0 0-.132.305c0 .117.046.229.129.311a.436.436 0 0 0 .311.129.442.442 0 0 0 .4-.44h.03Zm-6.53 3.59a.43.43 0 0 0-.43-.43.442.442 0 0 0-.466.251.451.451 0 0 0 0 .368.447.447 0 0 0 .278.239.442.442 0 0 0 .188.012.429.429 0 0 0 .4-.44h.03Zm1.31 0a.442.442 0 0 0-.435-.374.442.442 0 0 0-.184.84.451.451 0 0 0 .368 0 .447.447 0 0 0 .239-.278.442.442 0 0 0 .012-.188Zm1.31 0a.444.444 0 0 0-.132-.305.444.444 0 0 0-.308-.125.442.442 0 0 0-.374.435.442.442 0 0 0 .374.435.441.441 0 0 0 .41-.44h.03Zm1.3 0a.43.43 0 0 0-.43-.43.442.442 0 0 0-.466.251.451.451 0 0 0 0 .368.447.447 0 0 0 .278.239.442.442 0 0 0 .188.012.429.429 0 0 0 .4-.44h.03Zm1.31 0a.444.444 0 0 0-.132-.305.444.444 0 0 0-.308-.125.442.442 0 0 0-.374.435.442.442 0 0 0 .374.435.441.441 0 0 0 .41-.44h.03Zm1.3 0a.43.43 0 0 0-.43-.43.442.442 0 0 0-.466.251.451.451 0 0 0 0 .368.447.447 0 0 0 .278.239.442.442 0 0 0 .188.012.429.429 0 0 0 .4-.44h.03Z"/><path fill="#fff" stroke="#263238" stroke-linecap="round" stroke-linejoin="round" d="M320.08 167.97h-21.62v13.71h21.62v-13.71Z"/><path fill="#80E895" stroke="#263238" stroke-linecap="round" stroke-linejoin="round" d="M309.15 200.51c-.432 0-.847-.172-1.153-.477a1.635 1.635 0 0 1-.477-1.153v-30.91h3.26v30.91c0 .432-.172.847-.477 1.153a1.635 1.635 0 0 1-1.153.477Z"/><path stroke="#263238" stroke-linecap="round" stroke-linejoin="round" d="M307.76 183.32h2.55l-2.55 3.02h3.02l-3.02 3.25h3.02l-3.02 3.02h2.79l-3.03 2.79h2.56l-2.56 2.67h3.26"/><path fill="#fff" stroke="#263238" stroke-linecap="round" stroke-linejoin="round" d="M315.65 167.97h-12.78v13.71h12.78v-13.71Z"/><path fill="#263238" stroke="#263238" stroke-linecap="round" stroke-linejoin="round" d="M300.08 222.79h-12.56v25.69h12.56v-25.69ZM353.29 228.68l10.83 18.24h-23.66l12.83-18.24Z"/><path fill="#263238" stroke="#263238" stroke-linecap="round" stroke-linejoin="round" d="M364.34 211.86h-65.55l-20.4 35.63h65.56l20.39-35.63Z"/><path fill="#fff" stroke="#263238" stroke-linecap="round" stroke-linejoin="round" d="M354.88 215.57h-50.87l-16 27.93h50.88l15.99-27.93Z"/><path fill="#fff" stroke="#263238" stroke-linecap="round" stroke-linejoin="round" d="m323 243.21 6.64-11.6h-22.82l-6.64 11.6H323Z"/><path fill="#fff" stroke="#263238" stroke-linecap="round" stroke-linejoin="round" d="m323.07 243.21.02-.03h-22.53l-.02.03h22.53Z"/><path fill="#fff" stroke="#263238" stroke-linecap="round" stroke-linejoin="round" d="m303.93 243.2 4.94-8.63a5.88 5.88 0 0 0-7.62.1s-4.23 3.33-5.85 6.16l-1.36 2.37h9.89ZM330.79 243.2l1.36-2.37a11.114 11.114 0 0 0 1.21-6.16c-.48-3.22-7.51-.1-7.51-.1l-4.94 8.63h9.88Z"/><path fill="#fff" stroke="#263238" stroke-linecap="round" stroke-linejoin="round" d="M317.78 229.12s-2.91-2.27-8.91.41-7.44 5.76-7.31 6.82c.13 1.06 1.66 1.21 3.49.56 1.83-.65 4.08-3.16 7.27-3.49 3.19-.33 5.2-1.13 6-3.08.8-1.95-.54-1.22-.54-1.22ZM323.32 229.12s5.52-2.27 8.45.41c2.93 2.68.84 5.76-.49 6.82a3.812 3.812 0 0 1-4.14.56c-1.09-.65-.46-3.16-3.28-3.49-2.82-.33-3.89-1.13-2.46-3.08 1.43-1.95 1.92-1.22 1.92-1.22ZM326.88 221.32h4.1l2.52-2.62c.19-.2.44-.14.32.07l-2.32 4.17a4.187 4.187 0 0 1-3.22 2.05h-3.47l2.07-3.67ZM323.12 221.32h-4.11l.46-2.62c0-.2-.29-.14-.41.07l-2.39 4.17c-.65 1.14-.26 2.05.88 2.05h3.46l2.11-3.67Z"/><path fill="#fff" stroke="#263238" stroke-linecap="round" stroke-linejoin="round" d="M319.83 225.14a9.903 9.903 0 0 0-1.63 2.12c-1.39 2.42-1 4.38.81 4.38s4.45-2 5.84-4.38c.39-.654.66-1.372.8-2.12h-5.82ZM319.83 225.14s3.84-5.95 6.59-5.8c2.75.15-.77 5.8-.77 5.8h-5.82Z"/><path fill="#fff" stroke="#263238" stroke-linecap="round" stroke-linejoin="round" d="M318.57 227.33a10.524 10.524 0 0 0-1.63 2.12c-1.38 2.42-1 4.38.82 4.38 1.82 0 4.45-2 5.83-4.38.395-.651.667-1.37.8-2.12h-5.82Z"/><path fill="#fff" stroke="#263238" stroke-linecap="round" stroke-linejoin="round" d="M321.53 228.39h-1.46l1.9-3.32h1.47l-1.91 3.32Z"/><path fill="#fff" d="M317.76 233.83c-1.54 2.667-3.077 5.353-4.61 8.06Z"/><path stroke="#263238" stroke-linecap="round" stroke-linejoin="round" d="M317.76 233.83c-1.54 2.667-3.077 5.353-4.61 8.06"/><path fill="#263238" stroke="#263238" stroke-linecap="round" stroke-linejoin="round" d="M172.63 222.13h-9.61v20.25h9.61v-20.25Z"/><path fill="#fff" stroke="#263238" stroke-linecap="round" stroke-linejoin="round" d="M230.16 129.33H108.95v97.61h121.21v-97.61Z"/><path fill="#263238" stroke="#263238" stroke-linecap="round" stroke-linejoin="round" d="M223.68 134.41H115.43v84.67h108.25v-84.67Z"/><path fill="#80E895" d="M180.57 140.2h-2.79a.691.691 0 0 1 0-1.38h2.79a.691.691 0 0 1 0 1.38Zm.68 2.5a.675.675 0 0 0-.196-.487.683.683 0 0 0-.484-.203h-2.79a.691.691 0 0 0 0 1.38h2.79a.681.681 0 0 0 .68-.66v-.03Zm0 3.19a.675.675 0 0 0-.196-.487.683.683 0 0 0-.484-.203h-2.79a.691.691 0 0 0 0 1.38h2.79a.681.681 0 0 0 .68-.66v-.03Zm0 3.19a.675.675 0 0 0-.196-.487.683.683 0 0 0-.484-.203h-2.79a.691.691 0 0 0 0 1.38h2.79a.681.681 0 0 0 .68-.66v-.03Zm0 3.19a.675.675 0 0 0-.196-.487.683.683 0 0 0-.484-.203h-2.79a.691.691 0 0 0-.637.953.652.652 0 0 0 .15.221.675.675 0 0 0 .487.196h2.79a.667.667 0 0 0 .473-.186.664.664 0 0 0 .207-.464v-.03Zm0 3.19a.675.675 0 0 0-.196-.487.683.683 0 0 0-.484-.203h-2.79a.691.691 0 0 0-.637.953.652.652 0 0 0 .15.221.675.675 0 0 0 .487.196h2.79a.667.667 0 0 0 .473-.186.664.664 0 0 0 .207-.464v-.03Zm0 3.18a.67.67 0 0 0-.68-.68h-2.79a.684.684 0 0 0-.712.402.69.69 0 0 0 .712.968h2.79a.681.681 0 0 0 .68-.66v-.03Zm0 3.19a.67.67 0 0 0-.68-.68h-2.79a.675.675 0 0 0-.487.196.683.683 0 0 0-.001.972.691.691 0 0 0 .488.202h2.79a.681.681 0 0 0 .68-.66v-.03Zm10.44-22.32a.691.691 0 0 0-.69-.69h-7.32a.691.691 0 0 0 0 1.38H191a.692.692 0 0 0 .69-.66v-.03Zm0 3.19a.691.691 0 0 0-.69-.69h-7.32a.691.691 0 0 0 0 1.38H191a.692.692 0 0 0 .69-.66v-.03Zm0 3.19a.691.691 0 0 0-.69-.69h-7.32a.691.691 0 0 0 0 1.38H191a.692.692 0 0 0 .69-.66v-.03Zm0 3.19a.691.691 0 0 0-.69-.69h-7.32a.691.691 0 0 0 0 1.38H191a.692.692 0 0 0 .69-.66v-.03Zm0 3.19a.691.691 0 0 0-.69-.69h-7.32a.691.691 0 0 0-.637.953.652.652 0 0 0 .15.221.675.675 0 0 0 .487.196H191a.681.681 0 0 0 .69-.65v-.03Zm8.77 3.19a.691.691 0 0 0-.69-.69h-7.27a.693.693 0 0 0-.69.69.683.683 0 0 0 .69.68h7.32a.683.683 0 0 0 .471-.188.687.687 0 0 0 .209-.462l-.04-.03Zm0 3.18a.683.683 0 0 0-.69-.68h-7.27a.684.684 0 0 0-.712.402.69.69 0 0 0 .712.968h7.32a.69.69 0 0 0 .68-.66l-.04-.03Zm0 3.19a.683.683 0 0 0-.69-.68h-7.27a.675.675 0 0 0-.487.196.683.683 0 0 0-.001.972c.13.129.305.202.488.202h7.32a.69.69 0 0 0 .68-.66l-.04-.03Zm-5.54-22.32a.8.8 0 1 0-1.602 0 .8.8 0 0 0 1.602 0Zm2.39 0a.8.8 0 1 0-1.602 0 .8.8 0 0 0 1.602 0Zm2.39 0a.8.8 0 1 0-1.602 0 .8.8 0 0 0 1.602 0Zm2.39 0a.798.798 0 0 0-.235-.562.779.779 0 0 0-.565-.228.792.792 0 0 0-.733 1.095.779.779 0 0 0 .428.434.798.798 0 0 0 1.105-.709v-.03Zm2.39 0a.797.797 0 0 0-.494-.739.795.795 0 0 0-.872.173.803.803 0 0 0-.173.872.796.796 0 0 0 .739.494.798.798 0 0 0 .82-.77l-.02-.03Zm2.39 0a.792.792 0 0 0-1.095-.733.779.779 0 0 0-.434.428.798.798 0 0 0 1.291.881.792.792 0 0 0 .238-.546v-.03Zm-12 6.38a.797.797 0 0 0-.494-.739.795.795 0 0 0-.872.173.803.803 0 0 0-.173.872.796.796 0 0 0 .739.494.802.802 0 0 0 .776-.461.805.805 0 0 0 .074-.309l-.05-.03Zm2.39 0a.797.797 0 0 0-.494-.739.795.795 0 0 0-.872.173.803.803 0 0 0-.173.872.796.796 0 0 0 .739.494.802.802 0 0 0 .776-.461.805.805 0 0 0 .074-.309l-.05-.03Zm2.39 0a.797.797 0 0 0-.494-.739.795.795 0 0 0-.872.173.803.803 0 0 0-.173.872.796.796 0 0 0 .739.494.802.802 0 0 0 .776-.461.805.805 0 0 0 .074-.309l-.05-.03Zm2.39 0a.8.8 0 1 0-.8.8.802.802 0 0 0 .776-.461.805.805 0 0 0 .074-.309l-.05-.03Zm2.39 0a.797.797 0 0 0-.494-.739.795.795 0 0 0-.872.173.803.803 0 0 0-.173.872.796.796 0 0 0 .739.494.796.796 0 0 0 .794-.456.796.796 0 0 0 .076-.314l-.07-.03Zm2.39 0a.794.794 0 0 0-.485-.739.798.798 0 0 0-1.105.739.8.8 0 0 0 .8.8.792.792 0 0 0 .77-.462.782.782 0 0 0 .07-.308l-.05-.03Zm-3.78 9.17a.8.8 0 1 0-1.602 0 .8.8 0 0 0 1.602 0Zm2.39 0a.8.8 0 1 0-1.602 0 .8.8 0 0 0 1.602 0Zm2.39 0a.8.8 0 0 0-1.105-.739.779.779 0 0 0-.485.739.792.792 0 0 0 .79.79.797.797 0 0 0 .587-.199.789.789 0 0 0 .263-.561l-.05-.03Zm2.39 0a.803.803 0 0 0-.8-.8.798.798 0 0 0-.562.235.779.779 0 0 0-.228.565.792.792 0 0 0 .79.79.797.797 0 0 0 .587-.199.789.789 0 0 0 .263-.561l-.05-.03Zm2.39 0a.794.794 0 0 0-.485-.739.798.798 0 0 0-.87 1.301.779.779 0 0 0 .565.228.785.785 0 0 0 .581-.203.787.787 0 0 0 .259-.557l-.05-.03Zm2.4 0a.8.8 0 1 0-1.602 0 .8.8 0 0 0 1.602 0Zm-12 6.57a.8.8 0 1 0-1.602 0 .8.8 0 0 0 1.602 0Zm2.39 0a.8.8 0 1 0-1.602 0 .8.8 0 0 0 1.602 0Zm2.39 0a.798.798 0 0 0-.235-.562.779.779 0 0 0-.565-.228.792.792 0 0 0-.733 1.095.779.779 0 0 0 .428.434c.097.04.2.061.305.061a.805.805 0 0 0 .813-.451.8.8 0 0 0 .077-.319l-.09-.03Zm2.39 0a.798.798 0 0 0-.235-.562.779.779 0 0 0-.565-.228.792.792 0 0 0-.733 1.095.779.779 0 0 0 .428.434c.097.04.2.061.305.061a.805.805 0 0 0 .813-.451.8.8 0 0 0 .077-.319l-.09-.03Zm2.39 0a.792.792 0 0 0-1.095-.733.779.779 0 0 0-.434.428.798.798 0 0 0 .739 1.105.786.786 0 0 0 .88-.77l-.09-.03Zm2.4 0a.8.8 0 1 0-1.602 0 .8.8 0 0 0 1.602 0ZM180.57 165.75h-2.79a.691.691 0 0 1 0-1.38h2.79a.691.691 0 0 1 0 1.38Zm.68 2.5a.675.675 0 0 0-.196-.487.666.666 0 0 0-.484-.203h-2.79a.691.691 0 0 0 0 1.38h2.79a.683.683 0 0 0 .68-.69Zm0 3.19a.675.675 0 0 0-.196-.487.666.666 0 0 0-.484-.203h-2.79a.691.691 0 0 0-.637.953.652.652 0 0 0 .15.221.675.675 0 0 0 .487.196h2.79a.67.67 0 0 0 .68-.68Zm0 3.18a.67.67 0 0 0-.68-.68h-2.79a.684.684 0 0 0-.712.402.69.69 0 0 0 .712.968h2.79a.683.683 0 0 0 .68-.69Zm0 3.19a.67.67 0 0 0-.68-.68h-2.79a.675.675 0 0 0-.487.196.683.683 0 0 0-.001.972.691.691 0 0 0 .488.202h2.79a.683.683 0 0 0 .68-.69Zm0 3.19a.675.675 0 0 0-.196-.487.666.666 0 0 0-.484-.203h-2.79a.691.691 0 0 0 0 1.38h2.79a.683.683 0 0 0 .68-.69Zm0 3.19a.675.675 0 0 0-.196-.487.666.666 0 0 0-.484-.203h-2.79a.691.691 0 0 0 0 1.38h2.79c.18 0 .353-.072.481-.199a.684.684 0 0 0 .199-.481v-.01Zm0 3.19a.675.675 0 0 0-.196-.487.666.666 0 0 0-.484-.203h-2.79a.691.691 0 0 0 0 1.38h2.79a.683.683 0 0 0 .68-.69Zm10.44-22.32a.693.693 0 0 0-.69-.69h-7.32a.691.691 0 0 0 0 1.38H191a.693.693 0 0 0 .69-.69Zm0 3.19a.693.693 0 0 0-.69-.69h-7.32a.691.691 0 0 0 0 1.38H191a.693.693 0 0 0 .69-.69Zm0 3.19a.693.693 0 0 0-.69-.69h-7.32a.691.691 0 0 0-.637.953.652.652 0 0 0 .15.221.675.675 0 0 0 .487.196H191a.675.675 0 0 0 .487-.196.683.683 0 0 0 .203-.484Zm0 3.18a.683.683 0 0 0-.69-.68h-7.32a.684.684 0 0 0-.712.402.69.69 0 0 0 .712.968H191a.693.693 0 0 0 .69-.69Zm0 3.19a.683.683 0 0 0-.69-.68h-7.32a.675.675 0 0 0-.487.196.683.683 0 0 0-.001.972.691.691 0 0 0 .488.202H191a.693.693 0 0 0 .69-.69Zm8.81 3.19a.693.693 0 0 0-.69-.69h-7.31a.693.693 0 0 0-.69.69.691.691 0 0 0 .69.69h7.32a.687.687 0 0 0 .68-.69Zm0 3.19a.693.693 0 0 0-.69-.69h-7.31a.693.693 0 0 0-.69.69.691.691 0 0 0 .69.69h7.32a.69.69 0 0 0 .68-.68v-.01Zm0 3.19a.693.693 0 0 0-.69-.69h-7.31a.693.693 0 0 0-.69.69.691.691 0 0 0 .69.69h7.32a.687.687 0 0 0 .68-.69Zm-5.54-22.32a.797.797 0 0 0-.494-.739.803.803 0 0 0-.872.173.803.803 0 0 0-.173.872.796.796 0 0 0 .739.494.798.798 0 0 0 .76-.8h.04Zm2.39 0a.797.797 0 0 0-.494-.739.803.803 0 0 0-.872.173.803.803 0 0 0-.173.872.796.796 0 0 0 .739.494.798.798 0 0 0 .76-.8h.04Zm2.39 0a.797.797 0 0 0-.494-.739.803.803 0 0 0-.872.173.803.803 0 0 0-.173.872.796.796 0 0 0 .739.494.798.798 0 0 0 .76-.8h.04Zm2.39 0a.8.8 0 1 0-.8.8.798.798 0 0 0 .76-.8h.04Zm2.39 0a.797.797 0 0 0-.494-.739.803.803 0 0 0-.872.173.803.803 0 0 0-.173.872.796.796 0 0 0 .739.494.801.801 0 0 0 .78-.8h.02Zm2.39 0a.794.794 0 0 0-.485-.739.798.798 0 0 0-1.105.739.8.8 0 0 0 .8.8.787.787 0 0 0 .75-.8h.04Zm-12 6.38a.8.8 0 1 0-1.602 0 .8.8 0 0 0 1.602 0Zm2.39 0a.8.8 0 1 0-1.602 0 .8.8 0 0 0 1.602 0Zm2.39 0a.8.8 0 1 0-1.602 0 .8.8 0 0 0 1.602 0Zm2.39 0a.8.8 0 0 0-1.105-.739.79.79 0 0 0-.485.739.792.792 0 0 0 .79.79.791.791 0 0 0 .81-.79h-.01Zm2.39 0a.794.794 0 0 0-.199-.622.8.8 0 1 0 .199.622Zm2.39 0a.794.794 0 0 0-.485-.739.798.798 0 0 0-.87 1.301.779.779 0 0 0 .565.228.794.794 0 0 0 .739-.485c.04-.097.061-.2.061-.305h-.01Zm-3.78 9.16a.8.8 0 1 0-1.602 0 .8.8 0 0 0 1.602 0Zm2.39 0a.8.8 0 1 0-1.602 0 .8.8 0 0 0 1.602 0Zm2.39 0a.798.798 0 0 0-.235-.562.779.779 0 0 0-.565-.228.792.792 0 0 0-.733 1.095.779.779 0 0 0 .428.434c.097.04.2.061.305.061a.797.797 0 0 0 .748-.492.792.792 0 0 0 .062-.308h-.01Zm2.39 0a.798.798 0 0 0-.235-.562.779.779 0 0 0-.565-.228.792.792 0 0 0-.733 1.095.779.779 0 0 0 .428.434c.097.04.2.061.305.061a.797.797 0 0 0 .748-.492.792.792 0 0 0 .062-.308h-.01Zm2.39 0a.792.792 0 0 0-1.095-.733.779.779 0 0 0-.434.428.798.798 0 0 0 .739 1.105.795.795 0 0 0 .569-.231.795.795 0 0 0 .231-.569h-.01Zm2.4 0a.8.8 0 1 0-1.602 0 .8.8 0 0 0 1.602 0Zm-12 6.58a.797.797 0 0 0-.494-.739.803.803 0 0 0-.872.173.803.803 0 0 0-.173.872.796.796 0 0 0 .739.494.795.795 0 0 0 .779-.468.799.799 0 0 0 .071-.312l-.05-.02Zm2.39 0a.797.797 0 0 0-.494-.739.803.803 0 0 0-.872.173.803.803 0 0 0-.173.872.796.796 0 0 0 .739.494.787.787 0 0 0 .604-.201.793.793 0 0 0 .266-.579l-.07-.02Zm2.39 0a.8.8 0 1 0-.8.8.795.795 0 0 0 .779-.468.799.799 0 0 0 .071-.312l-.05-.02Zm2.39 0a.8.8 0 1 0-.8.8.795.795 0 0 0 .779-.468.799.799 0 0 0 .071-.312l-.05-.02Zm2.39 0a.794.794 0 0 0-.485-.739.798.798 0 0 0-1.105.739.8.8 0 0 0 .8.8.785.785 0 0 0 .773-.469.793.793 0 0 0 .067-.311l-.05-.02Zm2.4 0a.797.797 0 0 0-.494-.739.803.803 0 0 0-.872.173.803.803 0 0 0-.173.872.796.796 0 0 0 .739.494.795.795 0 0 0 .779-.468.799.799 0 0 0 .071-.312l-.05-.02ZM180.57 191.88h-2.79a.691.691 0 0 1 0-1.38h2.79a.691.691 0 0 1 0 1.38Zm.68 2.5a.675.675 0 0 0-.196-.487.683.683 0 0 0-.484-.203h-2.79a.691.691 0 0 0 0 1.38h2.79a.683.683 0 0 0 .68-.69Zm0 3.19a.675.675 0 0 0-.196-.487.683.683 0 0 0-.484-.203h-2.79a.702.702 0 0 0-.488.202.684.684 0 0 0 0 .976.684.684 0 0 0 .488.202h2.79a.683.683 0 0 0 .68-.69Zm0 3.19a.675.675 0 0 0-.196-.487.683.683 0 0 0-.484-.203h-2.79a.691.691 0 0 0 0 1.38h2.79a.683.683 0 0 0 .68-.69Zm0 3.19a.675.675 0 0 0-.196-.487.683.683 0 0 0-.484-.203h-2.79a.691.691 0 0 0-.69.69.674.674 0 0 0 .203.484.67.67 0 0 0 .487.196h2.79a.67.67 0 0 0 .68-.68Zm0 3.19a.675.675 0 0 0-.196-.487.683.683 0 0 0-.484-.203h-2.79a.691.691 0 0 0-.69.69.674.674 0 0 0 .203.484.67.67 0 0 0 .487.196h2.79a.67.67 0 0 0 .68-.68Zm0 3.18a.67.67 0 0 0-.68-.68h-2.79a.675.675 0 0 0-.487.195.683.683 0 0 0-.001.973.691.691 0 0 0 .488.202h2.79a.683.683 0 0 0 .68-.69Zm0 3.19a.675.675 0 0 0-.196-.487.683.683 0 0 0-.484-.203h-2.79a.691.691 0 0 0 0 1.38h2.79a.683.683 0 0 0 .68-.69Zm10.44-22.31a.691.691 0 0 0-.69-.69h-7.32a.691.691 0 0 0 0 1.38H191a.693.693 0 0 0 .69-.69Zm0 3.19a.691.691 0 0 0-.69-.69h-7.32a.691.691 0 0 0 0 1.38H191a.678.678 0 0 0 .64-.433.7.7 0 0 0 .05-.267v.01Zm0 3.19a.691.691 0 0 0-.69-.69h-7.32a.691.691 0 0 0 0 1.38H191a.678.678 0 0 0 .64-.433.7.7 0 0 0 .05-.267v.01Zm0 3.19a.691.691 0 0 0-.69-.69h-7.32a.691.691 0 0 0 0 1.38H191a.678.678 0 0 0 .64-.433.7.7 0 0 0 .05-.267v.01Zm0 3.19a.691.691 0 0 0-.69-.69h-7.32a.691.691 0 0 0-.69.69.674.674 0 0 0 .203.484.67.67 0 0 0 .487.196H191a.694.694 0 0 0 .491-.199.69.69 0 0 0 .199-.491v.01Zm8.77 3.19a.691.691 0 0 0-.69-.69h-7.27a.693.693 0 0 0-.69.69.674.674 0 0 0 .203.484.67.67 0 0 0 .487.196h7.32a.683.683 0 0 0 .68-.69l-.04.01Zm0 3.18a.679.679 0 0 0-.69-.68h-7.27a.675.675 0 0 0-.487.196.679.679 0 0 0-.203.484.693.693 0 0 0 .69.69h7.32a.697.697 0 0 0 .485-.209.686.686 0 0 0 .195-.491l-.04.01Zm0 3.19a.691.691 0 0 0-.69-.69h-7.27a.693.693 0 0 0-.69.69.693.693 0 0 0 .69.69h7.32a.697.697 0 0 0 .485-.209.686.686 0 0 0 .195-.491l-.04.01Zm-5.54-22.32a.803.803 0 0 0-.956-.785.803.803 0 0 0-.629.629.803.803 0 0 0 .785.956.8.8 0 0 0 .8-.8Zm2.39 0a.803.803 0 0 0-.956-.785.803.803 0 0 0-.629.629.803.803 0 0 0 .785.956.8.8 0 0 0 .8-.8Zm2.39 0a.803.803 0 0 0-.956-.785.803.803 0 0 0-.629.629.803.803 0 0 0 .785.956.803.803 0 0 0 .8-.8Zm2.39 0a.803.803 0 0 0-.8-.8.8.8 0 1 0 .8.8Zm2.39 0a.803.803 0 0 0-.956-.785.803.803 0 0 0-.629.629.803.803 0 0 0 .785.956.79.79 0 0 0 .579-.227.806.806 0 0 0 .241-.573h-.02Zm2.39 0a.794.794 0 0 0-.485-.739.798.798 0 0 0-1.105.739.8.8 0 0 0 1.105.739.79.79 0 0 0 .485-.739Zm-12 6.38a.803.803 0 0 0-.956-.785.803.803 0 0 0-.629.629.803.803 0 0 0 .785.956.796.796 0 0 0 .602-.219.8.8 0 0 0 .248-.591l-.05.01Zm2.39 0a.803.803 0 0 0-.956-.785.803.803 0 0 0-.629.629.803.803 0 0 0 .785.956.796.796 0 0 0 .602-.219.8.8 0 0 0 .248-.591l-.05.01Zm2.39 0a.803.803 0 0 0-.956-.785.803.803 0 0 0-.629.629.803.803 0 0 0 .785.956.796.796 0 0 0 .602-.219.8.8 0 0 0 .248-.591l-.05.01Zm2.39 0a.8.8 0 1 0-.8.8.796.796 0 0 0 .602-.219.8.8 0 0 0 .248-.591l-.05.01Zm2.39 0a.803.803 0 0 0-.956-.785.803.803 0 0 0-.629.629.795.795 0 0 0 .341.821.797.797 0 0 0 .444.135.803.803 0 0 0 .806-.484.794.794 0 0 0 .064-.326l-.07.01Zm2.39 0a.794.794 0 0 0-.485-.739.798.798 0 0 0-1.105.739.8.8 0 0 0 .8.8.784.784 0 0 0 .599-.22.793.793 0 0 0 .241-.59l-.05.01Zm-3.78 9.17a.8.8 0 1 0-1.602 0 .8.8 0 0 0 1.602 0Zm2.39 0a.8.8 0 1 0-1.602 0 .8.8 0 0 0 1.602 0Zm2.39 0a.8.8 0 0 0-1.105-.739.775.775 0 0 0-.257.174.794.794 0 0 0-.228.565.792.792 0 0 0 .79.79.786.786 0 0 0 .602-.213.789.789 0 0 0 .248-.587l-.05.01Zm2.39 0a.8.8 0 0 0-1.105-.739.775.775 0 0 0-.257.174.794.794 0 0 0-.228.565.792.792 0 0 0 .79.79.786.786 0 0 0 .602-.213.789.789 0 0 0 .248-.587l-.05.01Zm2.39 0a.794.794 0 0 0-.485-.739.798.798 0 0 0-.87 1.301.779.779 0 0 0 .565.228.79.79 0 0 0 .84-.8l-.05.01Zm2.4 0a.8.8 0 1 0-1.602 0 .8.8 0 0 0 1.602 0Zm-12 6.57a.8.8 0 1 0-1.602 0 .8.8 0 0 0 1.602 0Zm2.39 0a.8.8 0 1 0-1.602 0 .8.8 0 0 0 1.602 0Zm2.39 0a.798.798 0 0 0-.235-.562.779.779 0 0 0-.565-.228.792.792 0 0 0-.733 1.095.779.779 0 0 0 .428.434c.097.04.2.061.305.061a.797.797 0 0 0 .629-.203.81.81 0 0 0 .261-.607l-.09.01Zm2.39 0a.798.798 0 0 0-.235-.562.779.779 0 0 0-.565-.228.792.792 0 0 0-.733 1.095.779.779 0 0 0 .428.434c.097.04.2.061.305.061a.797.797 0 0 0 .629-.203.81.81 0 0 0 .261-.607l-.09.01Zm2.39 0a.79.79 0 0 0-.79-.79.794.794 0 0 0-.739.485.798.798 0 0 0 .739 1.105.792.792 0 0 0 .88-.81l-.09.01Zm2.4 0a.8.8 0 1 0-1.602 0 .8.8 0 0 0 1.602 0ZM137.5 140.2h-2.79a.691.691 0 0 1 0-1.38h2.79a.693.693 0 0 1 .69.69.693.693 0 0 1-.69.69Zm.68 2.5a.675.675 0 0 0-.196-.487.683.683 0 0 0-.484-.203h-2.79a.691.691 0 0 0 0 1.38h2.79a.678.678 0 0 0 .63-.66l.05-.03Zm0 3.19a.675.675 0 0 0-.196-.487.683.683 0 0 0-.484-.203h-2.79a.691.691 0 0 0 0 1.38h2.79a.678.678 0 0 0 .63-.66l.05-.03Zm0 3.19a.675.675 0 0 0-.196-.487.683.683 0 0 0-.484-.203h-2.79a.691.691 0 0 0 0 1.38h2.79a.678.678 0 0 0 .63-.66l.05-.03Zm0 3.19a.675.675 0 0 0-.196-.487.683.683 0 0 0-.484-.203h-2.79a.691.691 0 0 0-.637.953.666.666 0 0 0 .15.221.675.675 0 0 0 .487.196h2.79a.67.67 0 0 0 .63-.65l.05-.03Zm0 3.19a.675.675 0 0 0-.196-.487.683.683 0 0 0-.484-.203h-2.79a.691.691 0 0 0-.637.953.666.666 0 0 0 .15.221.675.675 0 0 0 .487.196h2.79a.67.67 0 0 0 .63-.65l.05-.03Zm0 3.18a.67.67 0 0 0-.68-.68h-2.79a.684.684 0 0 0-.712.402.69.69 0 0 0 .712.968h2.79a.678.678 0 0 0 .63-.66l.05-.03Zm0 3.19a.672.672 0 0 0-.68-.63h-2.79a.675.675 0 0 0-.487.196.666.666 0 0 0-.203.484.693.693 0 0 0 .69.69h2.79a.677.677 0 0 0 .63-.71l.05-.03Zm10.44-22.32a.691.691 0 0 0-.69-.69h-7.32a.693.693 0 0 0-.69.69.693.693 0 0 0 .69.69h7.32a.689.689 0 0 0 .64-.66l.05-.03Zm0 3.19a.691.691 0 0 0-.69-.69h-7.32a.693.693 0 0 0-.69.69.693.693 0 0 0 .69.69h7.32a.689.689 0 0 0 .64-.66l.05-.03Zm0 3.19a.691.691 0 0 0-.69-.69h-7.32a.693.693 0 0 0-.69.69.693.693 0 0 0 .69.69h7.32a.689.689 0 0 0 .64-.66l.05-.03Zm0 3.19a.691.691 0 0 0-.69-.69h-7.32a.693.693 0 0 0-.69.69.693.693 0 0 0 .69.69h7.32a.689.689 0 0 0 .64-.66l.05-.03Zm0 3.19a.691.691 0 0 0-.69-.69h-7.32a.693.693 0 0 0-.69.69.683.683 0 0 0 .69.68h7.32a.682.682 0 0 0 .64-.65l.05-.03Zm8.77 3.19a.691.691 0 0 0-.69-.69h-7.32a.691.691 0 0 0-.637.953.666.666 0 0 0 .15.221.675.675 0 0 0 .487.196h7.32a.682.682 0 0 0 .64-.65l.05-.03Zm0 3.18a.683.683 0 0 0-.69-.68h-7.32a.684.684 0 0 0-.712.402.69.69 0 0 0 .712.968h7.32a.689.689 0 0 0 .64-.66l.05-.03Zm0 3.19a.683.683 0 0 0-.69-.68h-7.32a.675.675 0 0 0-.487.196.666.666 0 0 0-.203.484.693.693 0 0 0 .69.69h7.32a.689.689 0 0 0 .64-.66l.05-.03Zm-5.54-22.32a.8.8 0 1 0-1.602 0 .8.8 0 0 0 1.602 0Zm2.39 0a.8.8 0 1 0-1.602 0 .8.8 0 0 0 1.602 0Zm2.39 0a.8.8 0 1 0-1.602 0 .8.8 0 0 0 1.602 0Zm2.39 0a.798.798 0 0 0-.235-.562.779.779 0 0 0-.565-.228.792.792 0 0 0-.733 1.095.779.779 0 0 0 .428.434c.097.04.2.061.305.061a.802.802 0 0 0 .75-.77l.05-.03Zm2.39 0a.798.798 0 0 0-.235-.562.779.779 0 0 0-.565-.228.792.792 0 0 0-.733 1.095.779.779 0 0 0 .428.434c.097.04.2.061.305.061a.802.802 0 0 0 .75-.77l.05-.03Zm2.39 0a.792.792 0 0 0-1.095-.733.779.779 0 0 0-.434.428.798.798 0 0 0 .739 1.105.792.792 0 0 0 .74-.77l.05-.03Zm-11.95 6.38a.797.797 0 0 0-.494-.739.795.795 0 0 0-.872.173.803.803 0 0 0-.173.872.796.796 0 0 0 .739.494.802.802 0 0 0 .75-.77l.05-.03Zm2.39 0a.797.797 0 0 0-.494-.739.795.795 0 0 0-.872.173.803.803 0 0 0-.173.872.796.796 0 0 0 .739.494.802.802 0 0 0 .75-.77l.05-.03Zm2.39 0a.797.797 0 0 0-.494-.739.795.795 0 0 0-.872.173.803.803 0 0 0-.173.872.796.796 0 0 0 .739.494.802.802 0 0 0 .75-.77l.05-.03Zm2.39 0a.803.803 0 0 0-.8-.8.8.8 0 1 0 0 1.6.802.802 0 0 0 .75-.77l.05-.03Zm2.39 0a.8.8 0 1 0-.8.8.802.802 0 0 0 .75-.77l.05-.03Zm2.39 0a.794.794 0 0 0-.485-.739.798.798 0 0 0-1.105.739.8.8 0 0 0 .8.8.787.787 0 0 0 .74-.77l.05-.03Zm-3.78 9.17a.8.8 0 1 0-1.602 0 .8.8 0 0 0 1.602 0Zm2.39 0a.803.803 0 0 0-.8-.8.803.803 0 0 0-.8.8.8.8 0 1 0 1.6 0Zm2.39 0a.8.8 0 0 0-1.105-.739.779.779 0 0 0-.485.739.792.792 0 0 0 .79.79.79.79 0 0 0 .75-.76l.05-.03Zm2.39 0a.8.8 0 0 0-1.105-.739.779.779 0 0 0-.485.739.792.792 0 0 0 .79.79.79.79 0 0 0 .75-.76l.05-.03Zm2.39 0a.794.794 0 0 0-.485-.739.798.798 0 0 0-.87 1.301.779.779 0 0 0 .565.228.79.79 0 0 0 .71-.76l.08-.03Zm2.39 0a.794.794 0 0 0-.485-.739.798.798 0 0 0-.87 1.301.779.779 0 0 0 .565.228.791.791 0 0 0 .74-.76l.05-.03Zm-11.95 6.57a.8.8 0 1 0-1.602 0 .8.8 0 0 0 1.602 0Zm2.39 0a.8.8 0 1 0-1.602 0 .8.8 0 0 0 1.602 0Zm2.39 0a.798.798 0 0 0-.235-.562.779.779 0 0 0-.565-.228.792.792 0 0 0-.733 1.095.779.779 0 0 0 .428.434c.097.04.2.061.305.061a.802.802 0 0 0 .75-.77l.05-.03Zm2.39 0a.798.798 0 0 0-.235-.562.779.779 0 0 0-.565-.228.792.792 0 0 0-.733 1.095.779.779 0 0 0 .428.434c.097.04.2.061.305.061a.802.802 0 0 0 .75-.77l.05-.03Zm2.39 0a.792.792 0 0 0-1.095-.733.779.779 0 0 0-.434.428.798.798 0 0 0 .739 1.105.79.79 0 0 0 .71-.77l.08-.03Zm2.39 0a.792.792 0 0 0-1.095-.733.779.779 0 0 0-.434.428.798.798 0 0 0 .739 1.105.787.787 0 0 0 .74-.77l.05-.03ZM137.5 166.36h-2.79a.684.684 0 0 1-.712-.402.69.69 0 0 1 .712-.968h2.79a.687.687 0 0 1 .607.685.691.691 0 0 1-.607.685Zm.68 2.5a.665.665 0 0 0-.423-.613.685.685 0 0 0-.257-.047h-2.79a.675.675 0 0 0-.487.196.666.666 0 0 0-.203.484.693.693 0 0 0 .69.69h2.79a.677.677 0 0 0 .63-.71h.05Zm0 3.19a.675.675 0 0 0-.196-.487.683.683 0 0 0-.484-.203h-2.79a.691.691 0 0 0 0 1.38h2.79a.678.678 0 0 0 .63-.69h.05Zm0 3.19a.675.675 0 0 0-.196-.487.683.683 0 0 0-.484-.203h-2.79a.691.691 0 0 0 0 1.38h2.79a.679.679 0 0 0 .63-.73l.05.04Zm0 3.19a.675.675 0 0 0-.196-.487.683.683 0 0 0-.484-.203h-2.79a.691.691 0 0 0 0 1.38h2.79a.678.678 0 0 0 .63-.69h.05Zm0 3.19a.675.675 0 0 0-.196-.487.683.683 0 0 0-.484-.203h-2.79a.691.691 0 0 0 0 1.38h2.79a.678.678 0 0 0 .63-.69h.05Zm0 3.19a.675.675 0 0 0-.196-.487.683.683 0 0 0-.484-.203h-2.79a.691.691 0 0 0 0 1.38h2.79a.678.678 0 0 0 .63-.69h.05Zm0 3.19a.675.675 0 0 0-.196-.487.683.683 0 0 0-.484-.203h-2.79a.691.691 0 0 0-.637.953.666.666 0 0 0 .15.221.675.675 0 0 0 .487.196h2.79a.672.672 0 0 0 .63-.68h.05Zm10.44-22.32a.691.691 0 0 0-.69-.69h-7.32a.684.684 0 0 0-.712.402.69.69 0 0 0 .712.968h7.32a.677.677 0 0 0 .64-.68h.05Zm0 3.18a.683.683 0 0 0-.69-.68h-7.32a.675.675 0 0 0-.487.196.683.683 0 0 0-.001.972c.13.129.305.202.488.202h7.32a.693.693 0 0 0 .64-.69h.05Zm0 3.19a.691.691 0 0 0-.69-.69h-7.32a.693.693 0 0 0-.69.69.693.693 0 0 0 .69.69h7.32a.693.693 0 0 0 .64-.69h.05Zm0 3.19a.691.691 0 0 0-.69-.69h-7.32a.693.693 0 0 0-.69.69.693.693 0 0 0 .69.69h7.32a.691.691 0 0 0 .64-.73l.05.04Zm0 3.19a.691.691 0 0 0-.69-.69h-7.32a.693.693 0 0 0-.69.69.691.691 0 0 0 .69.69h7.32a.693.693 0 0 0 .64-.69h.05Zm8.77 3.19a.691.691 0 0 0-.69-.69h-7.32a.691.691 0 0 0 0 1.38h7.32a.693.693 0 0 0 .64-.69h.05Zm0 3.19a.691.691 0 0 0-.69-.69h-7.32a.684.684 0 0 0-.488.202.684.684 0 0 0 0 .976.684.684 0 0 0 .488.202h7.32a.693.693 0 0 0 .64-.69h.05Zm0 3.19a.691.691 0 0 0-.69-.69h-7.32a.691.691 0 0 0-.637.953.666.666 0 0 0 .15.221.675.675 0 0 0 .487.196h7.32a.677.677 0 0 0 .64-.68h.05Zm-5.54-22.33a.797.797 0 0 0-.494-.739.803.803 0 0 0-.872.173.803.803 0 0 0-.173.872.796.796 0 0 0 .739.494.789.789 0 0 0 .75-.8h.05Zm2.39 0a.797.797 0 0 0-.494-.739.803.803 0 0 0-.872.173.803.803 0 0 0-.173.872.796.796 0 0 0 .739.494.789.789 0 0 0 .75-.8h.05Zm2.39 0a.797.797 0 0 0-.494-.739.803.803 0 0 0-.872.173.803.803 0 0 0-.173.872.796.796 0 0 0 .739.494.789.789 0 0 0 .75-.8h.05Zm2.39 0a.798.798 0 0 0-.235-.562.779.779 0 0 0-.565-.228.8.8 0 0 0 0 1.59.807.807 0 0 0 .534-.251.804.804 0 0 0 .216-.549h.05Zm2.39 0a.798.798 0 0 0-.235-.562.779.779 0 0 0-.565-.228.8.8 0 0 0 0 1.59.807.807 0 0 0 .534-.251.804.804 0 0 0 .216-.549h.05Zm2.39 0a.792.792 0 0 0-.79-.79.8.8 0 1 0 .79.79Zm-11.95 6.38a.8.8 0 1 0-1.602 0 .8.8 0 0 0 1.602 0Zm2.39 0a.8.8 0 1 0-1.602 0 .8.8 0 0 0 1.602 0Zm2.39 0a.8.8 0 1 0-1.602 0 .8.8 0 0 0 1.602 0Zm2.39 0a.798.798 0 0 0-.235-.562.779.779 0 0 0-.565-.228.792.792 0 0 0-.733 1.095.779.779 0 0 0 .428.434c.097.04.2.061.305.061a.807.807 0 0 0 .534-.251.804.804 0 0 0 .216-.549h.05Zm2.39 0a.798.798 0 0 0-.235-.562.779.779 0 0 0-.565-.228.792.792 0 0 0-.733 1.095.779.779 0 0 0 .428.434c.097.04.2.061.305.061a.807.807 0 0 0 .534-.251.804.804 0 0 0 .216-.549h.05Zm2.39 0a.792.792 0 0 0-1.095-.733.779.779 0 0 0-.434.428.798.798 0 0 0 .739 1.105.792.792 0 0 0 .74-.8h.05Zm-3.83 9.15a.797.797 0 0 0-.494-.739.795.795 0 0 0-.872.173.803.803 0 0 0-.173.872.796.796 0 0 0 .739.494.8.8 0 0 0 .8-.8Zm2.39 0a.797.797 0 0 0-.494-.739.795.795 0 0 0-.872.173.803.803 0 0 0-.173.872.796.796 0 0 0 .739.494.803.803 0 0 0 .8-.8Zm2.39 0a.8.8 0 1 0-1.602 0 .8.8 0 0 0 1.602 0Zm2.39 0a.803.803 0 0 0-.8-.8.8.8 0 1 0 .8.8Zm2.39 0a.794.794 0 0 0-.485-.739.798.798 0 0 0-1.105.739.8.8 0 0 0 .8.8.793.793 0 0 0 .76-.8h.03Zm2.39 0a.794.794 0 0 0-.485-.739.798.798 0 0 0-1.105.739.8.8 0 0 0 1.105.739.779.779 0 0 0 .485-.739Zm-11.95 6.58a.8.8 0 1 0-1.602 0 .8.8 0 0 0 1.602 0Zm2.39 0a.803.803 0 0 0-.8-.8.803.803 0 0 0-.8.8.8.8 0 1 0 1.6 0Zm2.39 0a.8.8 0 0 0-1.105-.739.779.779 0 0 0-.485.739.792.792 0 0 0 .79.79.79.79 0 0 0 .8-.77v-.02Zm2.39 0a.8.8 0 0 0-1.105-.739.779.779 0 0 0-.485.739.792.792 0 0 0 .79.79.79.79 0 0 0 .8-.77v-.02Zm2.39 0a.794.794 0 0 0-.485-.739.798.798 0 0 0-.87 1.301.779.779 0 0 0 .565.228.79.79 0 0 0 .76-.77l.03-.02Zm2.39 0a.794.794 0 0 0-.485-.739.798.798 0 0 0-.87 1.301.779.779 0 0 0 .565.228.791.791 0 0 0 .79-.77v-.02Z"/><path fill="#fff" stroke="#263238" stroke-linecap="round" stroke-linejoin="round" d="M207.29 243.62H203v1.43h4.29v-1.43ZM213.32 243.62h-4.29v1.43h4.29v-1.43ZM219.35 243.62h-4.29v1.43h4.29v-1.43ZM225.39 243.62h-4.29v1.43h4.29v-1.43ZM231.42 243.62h-4.29v1.43h4.29v-1.43ZM237.45 243.62h-4.29v1.43h4.29v-1.43ZM243.49 243.62h-4.29v1.43h4.29v-1.43ZM249.52 243.62h-4.29v1.43h4.29v-1.43ZM255.55 243.62h-4.29v1.43h4.29v-1.43ZM261.59 243.62h-4.29v1.43h4.29v-1.43ZM267.62 243.62h-4.29v1.43h4.29v-1.43ZM273.65 243.62h-4.29v1.43h4.29v-1.43ZM279.69 243.62h-4.29v1.43h4.29v-1.43Z"/><path stroke="#263238" stroke-linecap="round" stroke-linejoin="round" d="M285.72 243.62h-4.29v1.43h4.29v-1.43ZM291.75 243.62h-4.29v1.43h4.29v-1.43Z"/><path fill="#263238" stroke="#263238" stroke-linecap="round" stroke-linejoin="round" d="M293.12 244.83h-93.14v2.6h93.14v-2.6Z"/><path fill="#fff" stroke="#263238" stroke-linecap="round" stroke-linejoin="round" d="M293.12 244.83H261.9v2.6h31.22v-2.6ZM121.73 403.69a2.46 2.46 0 0 0 2.46-2.42l2.48-149.74h-9.88l2.48 149.74a2.461 2.461 0 0 0 2.46 2.42Z"/><path fill="#263238" stroke="#263238" stroke-linecap="round" stroke-linejoin="round" d="M116.96 261.76h9.54l.17-10.23h-9.88l.17 10.23Z"/><path fill="#fff" stroke="#263238" stroke-linecap="round" stroke-linejoin="round" d="M200.63 403.69a2.46 2.46 0 0 0 2.46-2.42l2.48-149.74h-9.88l2.48 149.74a2.457 2.457 0 0 0 2.46 2.42Z"/><path fill="#263238" stroke="#263238" stroke-linecap="round" stroke-linejoin="round" d="M195.86 261.76h9.54l.17-10.23h-9.88l.17 10.23Z"/><path fill="#fff" stroke="#263238" stroke-linecap="round" stroke-linejoin="round" d="M275.22 403.69a2.472 2.472 0 0 0 2.46-2.42l2.48-149.74h-9.88l2.48 149.74a2.461 2.461 0 0 0 2.46 2.42Z"/><path fill="#263238" stroke="#263238" stroke-linecap="round" stroke-linejoin="round" d="M270.44 261.76h9.55l.17-10.23h-9.88l.16 10.23Z"/><path fill="#fff" stroke="#263238" stroke-linecap="round" stroke-linejoin="round" d="M396.96 403.69a2.46 2.46 0 0 0 2.46-2.42l2.48-149.74h-9.88l2.48 149.74a2.472 2.472 0 0 0 2.46 2.42Z"/><path fill="#263238" stroke="#263238" stroke-linecap="round" stroke-linejoin="round" d="M392.19 261.76h9.55l.16-10.23h-9.88l.17 10.23Z"/><path fill="#263238" stroke="#263238" stroke-linecap="round" stroke-linejoin="round" d="M411.71 247.08H111.85v7.41h299.86v-7.41Z"/><path fill="#fff" stroke="#263238" stroke-linecap="round" stroke-linejoin="round" d="M411.71 247.08H289.05v7.41h122.66v-7.41ZM207.29 243.62H203v1.43h4.29v-1.43ZM213.32 243.62h-4.29v1.43h4.29v-1.43ZM219.35 243.62h-4.29v1.43h4.29v-1.43ZM225.39 243.62h-4.29v1.43h4.29v-1.43ZM231.42 243.62h-4.29v1.43h4.29v-1.43ZM237.45 243.62h-4.29v1.43h4.29v-1.43ZM243.49 243.62h-4.29v1.43h4.29v-1.43ZM249.52 243.62h-4.29v1.43h4.29v-1.43ZM255.55 243.62h-4.29v1.43h4.29v-1.43ZM261.59 243.62h-4.29v1.43h4.29v-1.43ZM267.62 243.62h-4.29v1.43h4.29v-1.43ZM273.65 243.62h-4.29v1.43h4.29v-1.43ZM279.69 243.62h-4.29v1.43h4.29v-1.43Z"/><path stroke="#263238" stroke-linecap="round" stroke-linejoin="round" d="M285.72 243.62h-4.29v1.43h4.29v-1.43ZM291.75 243.62h-4.29v1.43h4.29v-1.43Z"/><path fill="#263238" stroke="#263238" stroke-linecap="round" stroke-linejoin="round" d="M293.12 244.83h-93.14v2.6h93.14v-2.6Z"/><path fill="#fff" stroke="#263238" stroke-linecap="round" stroke-linejoin="round" d="M293.12 244.83H261.9v2.6h31.22v-2.6Z"/><path fill="#80E895" stroke="#263238" stroke-miterlimit="10" d="M410.12 292.44c4.904 0 8.88-10.427 8.88-23.29s-3.976-23.29-8.88-23.29c-4.904 0-8.88 10.427-8.88 23.29s3.976 23.29 8.88 23.29ZM382.5 254.79c2.77 8.74 8.1 14.84 11.91 13.63 3.81-1.21 4.63-9.27 1.86-18-2.77-8.73-8.11-14.84-11.91-13.63-3.8 1.21-4.61 9.26-1.86 18ZM447.68 307.47c9-1.53 15.83-6 15.16-9.89-.67-3.89-8.53-5.89-17.57-4.35-9.04 1.54-15.83 6-15.16 9.89.67 3.89 8.53 5.88 17.57 4.35ZM374.17 285.94c7.55 7.49 16.47 10.73 19.92 7.25 3.45-3.48.13-12.37-7.42-19.86s-16.47-10.73-19.92-7.25c-3.45 3.48-.13 12.37 7.42 19.86Z"/><path fill="#80E895" stroke="#263238" stroke-miterlimit="10" d="M426.18 265.4c-7.29 10.59-9.47 21.76-4.85 24.94 4.62 3.18 14.27-2.82 21.57-13.41 7.3-10.59 9.48-21.76 4.86-24.94-4.62-3.18-14.26 2.82-21.58 13.41Z"/><path stroke="#263238" stroke-linecap="round" stroke-miterlimit="10" d="m409.49 291.28-.68 70.85M410.32 260.49l-.83 30.79M410.26 255.47l.06 2.36M421.36 288.83a89.425 89.425 0 0 0-8.77 33.6v43.82M436.61 265.49a105.51 105.51 0 0 0-15.25 23.34M441.41 260.42s-.92.84-2.43 2.45M393.5 292.12a105.123 105.123 0 0 1 14.39 28.56M383.32 280.38a83.913 83.913 0 0 1 10.18 11.74M372.41 272.06a46.8 46.8 0 0 1 7.78 5.52"/><path stroke="#263238" stroke-linecap="round" stroke-miterlimit="10" d="M393.91 266.26c4.92 15.48 11.52 38.35 14.6 58.21M390.91 257.07c.88 2.61 1.9 5.71 3 9.19M387.84 248.2s.86 2.37 2.25 6.43M430.56 300.97c-6.14 2.34-14.55 8.84-17.46 17.35M441.92 298.67c-3.88.193-7.71.969-11.36 2.3M449.27 298.85s-1.09-.16-2.89-.23"/><path fill="#80E895" stroke="#263238" stroke-miterlimit="10" d="M429.95 341.53c8.31 3.88 16.41 4.09 18.1.47 1.69-3.62-3.68-9.69-12-13.56-8.32-3.87-16.4-4.1-18.09-.48-1.69 3.62 3.69 9.69 11.99 13.57Z"/><path stroke="#263238" stroke-linecap="round" stroke-miterlimit="10" d="M430.21 331.01a38.834 38.834 0 0 0-10.65-4.56 5.32 5.32 0 0 0-5.71.11c-1.13.75-.75 6.37-.75 6.37v29.2M436.16 335.34s-.81-.75-2.25-1.84"/><path fill="#80E895" stroke="#263238" stroke-miterlimit="10" d="M370.33 307.47c-9-1.53-15.82-6-15.16-9.89.66-3.89 8.54-5.89 17.58-4.35s15.82 6 15.16 9.89c-.66 3.89-8.54 5.88-17.58 4.35Z"/><path stroke="#263238" stroke-linecap="round" stroke-miterlimit="10" d="M387.26 300.9a28.4 28.4 0 0 1 3.22 1.42 22.51 22.51 0 0 1 12 20.08v38.61M375.15 298.62a39.75 39.75 0 0 1 12.11 2.28M368.74 298.85s.72-.1 2-.18"/><path fill="#80E895" stroke="#263238" stroke-miterlimit="10" d="M379.41 333.92c-8 4.58-16 5.48-18 2-2-3.48 2.83-10 10.77-14.55 7.94-4.55 16-5.49 18-2s-2.83 9.97-10.77 14.55Z"/><path stroke="#263238" stroke-linecap="round" stroke-miterlimit="10" d="M377.5 324.03a39.638 39.638 0 0 1 10.79-6s9.85-1.62 12.1 4.75M372.69 328.29s.49-.54 1.39-1.39"/><path fill="#80E895" stroke="#263238" stroke-miterlimit="10" d="M398.87 323.2s11.63-2.26 11.63 5.61-8.24 14.23-11.61 23.21c-3.37 8.98-9.74 9.37-13.11.38-3.37-8.99 1.48-25.47 13.09-29.2Z"/><path fill="#80E895" d="M406.73 323.56s-10.11 4.12-13.11 17.23Z"/><path stroke="#263238" stroke-miterlimit="10" d="M406.73 323.56s-10.11 4.12-13.11 17.23"/><path stroke="#263238" stroke-linecap="round" stroke-miterlimit="10" d="M405.98 340.79v21.34"/><path fill="#263238" d="M387.38 403.7a91.228 91.228 0 0 1-4.19-27.32 81.626 81.626 0 0 1 1.68-16.71h47.29a82.34 82.34 0 0 1 1.68 16.71 90.912 90.912 0 0 1-4.2 27.32h-42.26Z"/><path fill="#7A7A7A" d="M433.38 367.48c.13 1.29.24 2.59.31 3.91h-50.35c.07-1.32.18-2.62.31-3.91h49.73ZM383.87 387.44c-.16-1.29-.29-2.59-.4-3.9h50.09c-.11 1.31-.25 2.61-.4 3.9h-49.29Z"/><path fill="#8C8C8C" d="M427.73 376.6a1.997 1.997 0 0 0 1.235 1.848 2.002 2.002 0 0 0 2.727-1.458 2.002 2.002 0 0 0-1.962-2.39 2 2 0 0 0-2 2ZM417.5 376.6a1.997 1.997 0 0 0 1.235 1.848 2.002 2.002 0 0 0 2.727-1.458 2.002 2.002 0 0 0-1.962-2.39 2 2 0 0 0-2 2ZM407.35 376.6a1.997 1.997 0 0 0 1.235 1.848 2.002 2.002 0 0 0 2.727-1.458 2.002 2.002 0 0 0-1.962-2.39 2 2 0 0 0-2 2ZM397.16 376.6a1.997 1.997 0 0 0 1.235 1.848 2.002 2.002 0 0 0 2.727-1.458 2.002 2.002 0 0 0-1.962-2.39 2 2 0 0 0-2 2ZM386.97 376.6a1.997 1.997 0 0 0 1.235 1.848 2.002 2.002 0 0 0 2.727-1.458 2.002 2.002 0 0 0-1.962-2.39 2 2 0 0 0-2 2Z"/><path fill="#fff" stroke="#263238" stroke-linecap="round" stroke-linejoin="round" d="M125 168.74s8.28-5.27 6-11.79c-2.28-6.52-14.8-13.29-15.55-27.09s19.32-21.32 30.35-21.32c11.03 0 13.05.75 13.55 3.51.31 1.228.394 2.502.25 3.76a46.381 46.381 0 0 1 5 5.52c2.76 3.51 5.51 8.28 4.76 10.29a9.68 9.68 0 0 0-.25 6.52c.75 2.26 9.53 3.76 8 6.27a9.183 9.183 0 0 1-4.27 3.51 73.74 73.74 0 0 1-3 14.8c-2.25 6.52-2.25 9.28-7 9.28s-6.52-3-6.52-3l-10.79 10.79L125 168.74Z"/><path fill="#263238" stroke="#263238" stroke-linecap="round" stroke-linejoin="round" d="M162.88 172c4.77 0 4.77-2.76 7-9.28a72.31 72.31 0 0 0 3-14.25 13 13 0 0 0-4.46.69c-4.5 1.24-8.89 6-12.26 9.38-3.37 3.38-3.61.48-4.81-7.46a69.286 69.286 0 0 1-.24-16.11s5.29-4.57 6.73-10.1c1.44-5.53-7.93-4.33-11.06-6-3.13-1.67 12.86-3 12.86-3 .144-1.258.06-2.532-.25-3.76-.5-2.76-2.51-3.51-13.55-3.51-11.04 0-31.1 7.52-30.35 21.32s13.3 20.57 15.55 27.09a6.88 6.88 0 0 1 .37 1.79c3.21 1.07 6.62 1.21 8.15-1.4 2.41-4.09-1.68-9.14-1-15.16.68-6.02 7.7-1 7.7-.24s0 10.11.24 15.16c.24 5.05 9.84 11.89 9.84 11.89s1.77 2.95 6.54 2.95Z"/><path fill="#263238" d="M166.96 137.01c0 1.53-.38 2.77-.84 2.77-.46 0-.84-1.24-.84-2.77s.38-2.76.84-2.76c.46 0 .84 1.24.84 2.76Z"/><path stroke="#fff" stroke-linecap="round" stroke-linejoin="round" d="M169.61 157.34s-4.33.72-5.53-4.33"/><path stroke="#263238" stroke-linecap="round" stroke-linejoin="round" stroke-width="2" d="M168.4 132.56s-3.12-3.36-6.73 1.45M170.81 130.64l1.92 12.03M171.29 135.21l-26.7 5.53"/><path fill="#fff" d="M147.5 143.2s-5.53-9.62-9.14-5.53c-3.61 4.09-1.68 12.5.48 15.39 2.16 2.89 7.46 1.2 8.42 0"/><path stroke="#263238" stroke-linecap="round" stroke-linejoin="round" d="M147.5 143.2s-5.53-9.62-9.14-5.53c-3.61 4.09-1.68 12.5.48 15.39 2.16 2.89 7.46 1.2 8.42 0"/><path fill="#fff" stroke="#263238" stroke-linecap="round" stroke-linejoin="round" d="M214.58 233.82s10.58-3.62 14.19-2.62c3.61 1 8.42 4.57 8.42 4.57s2.16.48-2.89 1.68c-5.05 1.2-12 .25-16.11-.48-4.11-.73-6.25-.99-3.61-3.15ZM140.79 242.2l10.76 2.57s.25 4.87 4.87 5.63c4.62.76 7.47-4.55 8.86-4.58 1.39-.03 11.63.74 11.63.74l-11-15.63-21-5.64-4.12 16.91ZM250.65 234.36l5.53.43a4.992 4.992 0 0 1 3.84 3.09l1.19 3s.22 2.91-.67 3.13c-.89.22-.69.21-1.35-2.24a13.026 13.026 0 0 0-1.11-3.13l-3.58-.67 1.79 1.79.89 4.47a1.838 1.838 0 0 1-2.23-.44 16.128 16.128 0 0 1-2.24-3.36l-6-5.59 3.94-.48Z"/><path fill="#fff" stroke="#263238" stroke-linecap="round" stroke-linejoin="round" d="m186.5 229.65 46.55 5.45s7.8-.19 15.37-1.11c3.67-.44 8 3.72 8 3.72s4.82.37 5.58 1.8c.76 1.43 3.23 5 1.08 5.27-2.15.27-2.71-2.59-3.92-3-1.21-.41-4.82-.38-7.7.17s-7.64 2.34-12 2.19a13.345 13.345 0 0 1-7.28-2.48s-42.43 6.48-47.48 6.59a33.392 33.392 0 0 1-9.41-1.23l11.21-17.37Z"/><path fill="#fff" stroke="#263238" stroke-linecap="round" stroke-linejoin="round" d="M177.5 222.51s1-1.2 2.41.72c1.41 1.92 2.4 3.37 3.61 4.09 1.21.72 4.57-.24 2.88 4.57-1.69 4.81-7 15.15-12 17.56-5 2.41-8.18-1.2-9.14-3.61-.96-2.41-5.77-1.2-5.53-7 .24-5.8 17.77-16.33 17.77-16.33ZM175.86 383.93c2.341.003 4.68-.154 7-.47 2.63-.46 14.12-3.71 14.49-1.62.37 2.09.38 2.55-4.14 8.12-4.52 5.57-10.73 6-14.12 7.2-3.39 1.2-5.3 2.04-10.59 3.71s-6.4-9.28-6.4-12.77 13.76-4.17 13.76-4.17Z"/><path fill="#263238" stroke="#263238" stroke-linecap="round" stroke-linejoin="round" d="M142.19 305.97s11.51 66.75 14.64 74.69c3.13 7.94 5 11.79 5 11.79s1.68 1.2 7-1.21 11.31-7.69 11.31-7.69-1-3.37-2.65-4.57c-1.65-1.2-5.29-.72-5.29-3.37 0-2.65 2.2-73.73 2.2-73.73l-32.21 4.09Z"/><path fill="#fff" stroke="#263238" stroke-linecap="round" stroke-linejoin="round" d="M136.63 383.79s6.25 6.73 7.45 7.93c1.2 1.2 17.56 8.66 16.6 10.59-.96 1.93-21.41 1.68-25.5.48-2.07-.61-12.26-5.29-16.83-7.46-4.57-2.17 6.73-12.74 6.73-12.74l11.55 1.2Z"/><path fill="#263238" stroke="#263238" stroke-linecap="round" stroke-linejoin="round" d="M81.58 270.37v.71c-.27 4.32-1.49 27.19 2.21 31.76 4.09 5.05 18.76 6.25 32.22 6.25 13.46 0 50-3.36 50-3.36l-40.92 76.86 13.95 3.36s41.64-54.25 47.17-62.18c5.53-7.93 10.1-15.88 14-20.45 3.9-4.57 8.66-15.39 7.22-18.76-1.44-3.37-16.6-5.05-34.4-8.17-17.8-3.12-40.88-3.37-40.88-3.37s-3.85 2.4-21.17 2.4-29.4-5.05-29.4-5.05Z"/><path stroke="#7A7A7A" stroke-linecap="round" stroke-linejoin="round" d="M166 305.73s20.2-2.17 26.7-6.26M196.78 302.36a157.226 157.226 0 0 1-28.13 24.29"/><path stroke="#263238" stroke-linecap="round" stroke-linejoin="round" d="M120.06 278.55s-10.1 9.38-18 14.43M123.43 277.59s-5.53 9.14-9.62 14.91"/><path fill="#fff" stroke="#263238" stroke-linecap="round" stroke-linejoin="round" d="M120.3 169.36s-14.91 9.62-23.08 22.61c-8.17 12.99-9.87 28.14-10.59 30.06-.72 1.92-4.33 34.39-4.33 34.39s-5.47 8.57-2.4 13.47c2.4 3.85.72 3.85 7 5.29 2.35.54 21.89 3.85 33.67 2.41 11.78-1.44 15.64-6.49 16.84-9.86 1.2-3.37.48-10.34 1.2-14.43s10.34-19.48 10.34-19.48 11.31 8.17 13.23 8.9c1.92.73 7-3.13 12.51-10.59s4.09-7.45 1.44-11.06c-2.65-3.61-10.82-18.52-12.75-23.09-1.93-4.57-7.45-7.69-7.45-7.69s-21.92-21.41-35.63-20.93Z"/><path fill="#fff" stroke="#263238" stroke-linecap="round" stroke-linejoin="round" d="M117.66 170.8s5.29-.48 13 3.13 25.25 16.36 25.25 16.36l-1.41-11.09s-21.89-13.47-24.78-14.67c-2.89-1.2-4.81 0-7.93 2.89a25.137 25.137 0 0 1-4.13 3.38Z"/><path stroke="#263238" stroke-linecap="round" stroke-linejoin="round" d="m148.92 233.82-15.63-13.47M141.71 228.29s-11.79 3.12-18.28 3.12M143.15 228.29s-7.93 8.41-16.11 13"/><path fill="#fff" stroke="#263238" stroke-linecap="round" stroke-linejoin="round" d="M97.26 272.71s2.41-9.45-.74-10.93c-3.15-1.48-23.9.37-35.94 4.08s-16.67 11.67-15.37 11.67c1.3 0 43.35-7.6 52.05-4.82Z"/><path fill="#fff" stroke="#263238" stroke-linecap="round" stroke-linejoin="round" d="M97.86 263.68c-7.7 0-21.72 1.79-30.79 4.58a30.481 30.481 0 0 0-13.41 8c13.06-2 37.24-5.55 43.6-3.52 0-.03 1.48-5.84.6-9.06Z"/><path fill="#A1A1A1" stroke="#263238" stroke-linecap="round" stroke-linejoin="round" d="M51.13 274.93s-13.52 2.41-14.45 9.08c-.93 6.67 8.53 7.78 13.53 2s24.64-10.93 32.6-11.12c7.96-.19 8.71 1.49 8.15 6.67-.56 5.18-15.37 26.68-17 32.05-1.63 5.37 7.41 10 10.19 5.93 2.78-4.07 11.67-30.38 12-39.27.33-8.89-1.85-9.82-8.71-10.56-6.86-.74-27.41 1.89-36.31 5.22Z"/><path fill="#525252" stroke="#263238" stroke-linecap="round" stroke-linejoin="round" d="M53.36 274.93s-13.53 2.41-14.45 9.08c-.92 6.67 8.52 7.78 13.52 2s24.64-10.93 32.61-11.12c7.97-.19 8.7 1.49 8.15 6.67-.55 5.18-15.38 26.68-17 32.05-1.62 5.37 7.41 10 10.19 5.93 2.78-4.07 11.67-30.38 12-39.27.33-8.89-1.85-9.82-8.7-10.56-6.85-.74-27.43 1.89-36.32 5.22Z"/><path fill="#263238" stroke="#263238" stroke-linecap="round" stroke-linejoin="round" d="M106.4 361.08s-37.42 8.89-49.65 17c-12.23 8.11-12.25 15.6-12.25 15.6s0 2.6 5.18 0 7.41-9.26 14.08-11.85 41.48-8.91 41.48-8.91l1.16-11.84Z"/><path fill="#263238" stroke="#263238" stroke-linecap="round" stroke-linejoin="round" d="M57.5 397.31a5.92 5.92 0 1 0-11.841-.06 5.92 5.92 0 0 0 11.841.06Z"/><path fill="#fff" stroke="#263238" stroke-linecap="round" stroke-linejoin="round" d="M51.55 399.79a2.48 2.48 0 1 0 0-4.96 2.48 2.48 0 0 0 0 4.96Z"/><path fill="#263238" stroke="#263238" stroke-linecap="round" stroke-linejoin="round" d="M114.17 361.08s37.42 8.89 49.65 17c12.23 8.11 12.23 15.56 12.23 15.56s0 2.6-5.19 0-7.41-9.26-14.08-11.85-41.48-8.91-41.48-8.91l-1.13-11.8Z"/><path fill="#263238" stroke="#263238" stroke-linecap="round" stroke-linejoin="round" d="M163.11 397.31a5.924 5.924 0 0 1 3.648-5.477 5.926 5.926 0 0 1 6.455 1.277 5.92 5.92 0 1 1-10.103 4.2Z"/><path fill="#fff" stroke="#263238" stroke-linecap="round" stroke-linejoin="round" d="M166.55 397.31a2.476 2.476 0 0 1 1.531-2.291 2.475 2.475 0 0 1 2.703.537 2.481 2.481 0 0 1-3.508 3.508 2.482 2.482 0 0 1-.726-1.754Z"/><path fill="#263238" stroke="#263238" stroke-linecap="round" stroke-linejoin="round" d="M116.63 332.28h-11.36v40.64h11.36v-40.64ZM139.91 323.59H85.12v8.61h54.79v-8.61Z"/><path fill="#80E895" stroke="#263238" stroke-linecap="round" stroke-linejoin="round" d="M168.28 299.94c-4.94-9.38-14.82-14.32-25.2-9.38-10.38 4.94-25.69 12.84-25.69 12.84s0-26.68-4.44-39.52c-4.44-12.84-9.39-15.31-5.45-25.68 3.94-10.37 9.92-9.76 8.4-25.69-1.01-10.7-10.4-16.31-10.4-16.31s-15.32-10.37-21.25-27.17c-5.93-16.8-2.47-20.75-20.25-23.71-17.78-2.96-22.68 10.88-24.17 27.17-1.49 16.29-16.79 32.6-13.33 46.93 3.46 14.33 8.39 19.27 10.86 26.68 2.47 7.41 13.34 69.16 15.32 73.6 1.98 4.44 11.36 5.44 12.84 5.44h99.79s7.91-15.81 2.97-25.2ZM49.64 195.2a4.367 4.367 0 0 1-4.106-2.887 4.368 4.368 0 0 1 1.316-4.843l6.75-5.61 4.7-.49 1.29 13.83h-9.95Zm26.35 0h-10l-2-13.83 4.83.49 8.07 5.61a5.846 5.846 0 0 1 2.38 3.36 3.348 3.348 0 0 1-3.28 4.37Z"/><path fill="#263238" stroke="#263238" stroke-linecap="round" stroke-linejoin="round" d="M101.86 325.14c1-17.18-2.69-50.56-9.67-82.09-7.34-33.19-3.39-57.4-2.28-63-.27-.4-.54-.81-.8-1.23H38.63c-1.58 5.7-4.34 11.36-6.88 16.91 0 2.34.07 4.89.25 7.64 1 15.47 4.71 40.69 4.71 40.69s0 .18.1.51c.19.5.38 1 .55 1.53 2.47 7.41 13.34 69.16 15.32 73.6 1.98 4.44 11.36 5.44 12.84 5.44h36.34ZM49.64 195.2a4.367 4.367 0 0 1-4.106-2.886 4.371 4.371 0 0 1 1.316-4.844l6.75-5.61 4.7-.49 1.29 13.83h-9.95Zm19.24-13.34 8.07 5.61a5.852 5.852 0 0 1 2.38 3.36 3.35 3.35 0 0 1-3.34 4.37h-10l-2-13.83 4.89.49Z"/><path fill="#525252" stroke="#263238" stroke-linecap="round" stroke-linejoin="round" d="M86.82 292.82H52.18v3.7h34.64v-3.7Z"/><path fill="#525252" stroke="#263238" stroke-linecap="round" stroke-linejoin="round" d="m64.52 296.47 6.42 28.22h4.48L69 296.47h-4.48Z"/><path fill="#525252" stroke="#263238" stroke-linecap="round" stroke-linejoin="round" d="M79.44 338.07a9.16 9.16 0 1 0 0-18.32 9.16 9.16 0 0 0 0 18.32Z"/><path fill="#263238" stroke="#263238" stroke-linecap="round" stroke-linejoin="round" d="M83.1 335.14a6.23 6.23 0 1 0 0-12.46 6.23 6.23 0 0 0 0 12.46ZM113.53 360.29h-5.92v21.37l1.72 4.39v9.54h2.48v-9.54l1.72-4.39v-21.37Z"/><path fill="#263238" stroke="#263238" stroke-linecap="round" stroke-linejoin="round" d="M110.57 403.41a1.909 1.909 0 0 1-1.91-1.91v-8.2c.003-.506.205-.99.562-1.348a1.925 1.925 0 0 1 2.709-.007 1.929 1.929 0 0 1 .569 1.355v8.2a1.913 1.913 0 0 1-1.193 1.77 1.898 1.898 0 0 1-.737.14Z"/><path fill="#A1A1A1" stroke="#263238" stroke-linecap="round" stroke-linejoin="round" d="M164.94 272.71s2.41-7.22-.74-8.71c-3.15-1.49-23.9-1.85-35.94 1.86s-16.67 11.67-15.37 11.67c1.3 0 43.35-7.6 52.05-4.82Z"/><path fill="#525252" stroke="#263238" stroke-linecap="round" stroke-linejoin="round" d="M131.95 266.82c-8.72 2.68-13.56 7.6-15.06 10.11 10.94-1.74 40.86-6.51 48.05-4.22 0 0 2.15-6.46-.28-8.41-7.06-.82-22.82-.53-32.71 2.52Z"/><path fill="#A1A1A1" stroke="#263238" stroke-linecap="round" stroke-linejoin="round" d="M118.81 274.93s-13.52 2.41-14.45 9.08c-.93 6.67 8.53 7.78 13.53 2s24.61-10.89 32.61-11.08c8-.19 8.71 1.49 8.15 6.67-.56 5.18-15.37 26.68-17 32.05-1.63 5.37 7.41 10 10.19 5.93 2.78-4.07 11.67-30.38 12-39.27.33-8.89-1.85-9.82-8.71-10.56-6.86-.74-27.42 1.85-36.32 5.18Z"/><path fill="#525252" stroke="#263238" stroke-linecap="round" stroke-linejoin="round" d="M121.04 274.93s-13.53 2.41-14.45 9.08c-.92 6.67 8.52 7.78 13.52 2s24.64-10.93 32.61-11.12c7.97-.19 8.7 1.49 8.15 6.67-.55 5.18-15.37 26.72-17.05 32.09-1.68 5.37 7.41 10 10.19 5.93 2.78-4.07 11.67-30.38 12-39.27.33-8.89-1.85-9.82-8.7-10.56-6.85-.74-27.38 1.85-36.27 5.18Z"/><path stroke="#263238" stroke-linecap="round" stroke-linejoin="round" d="M321.031 403.79 457 403.7M5 404l311.358-.207"/></svg>