<svg width="106" height="109" viewBox="0 0 106 109" fill="none" xmlns="http://www.w3.org/2000/svg">
<g opacity="0.2">
<path d="M99.7752 62C101.075 63.3 103.275 63.3 104.675 62C105.975 60.7 105.975 58.5 104.675 57.1C103.375 55.8 101.175 55.8 99.7752 57.1C98.4752 58.4 98.4752 60.6 99.7752 62Z" fill="#5B9279"/>
<path d="M91.1751 51.8C93.0529 51.8 94.5751 50.2778 94.5751 48.4C94.5751 46.5222 93.0529 45 91.1751 45C89.2974 45 87.7751 46.5222 87.7751 48.4C87.7751 50.2778 89.2974 51.8 91.1751 51.8Z" fill="#5B9279"/>
<path d="M77.5751 39.8001C78.8751 41.1001 81.0751 41.1001 82.4751 39.8001C83.7751 38.5001 83.7751 36.3 82.4751 34.9C81.1751 33.6 78.9751 33.6 77.5751 34.9C76.2751 36.2 76.2751 38.4001 77.5751 39.8001Z" fill="#5B9279"/>
<path d="M66.4751 28.7002C67.7751 30.0002 69.9751 30.0002 71.3751 28.7002C72.6751 27.4002 72.6751 25.2002 71.3751 23.8002C70.0751 22.5002 67.8751 22.5002 66.4751 23.8002C65.1751 25.1002 65.1751 27.3002 66.4751 28.7002Z" fill="#5B9279"/>
<path d="M60.2751 12.7001C58.9751 11.4001 56.7751 11.4001 55.3751 12.7001C54.0751 14.0001 54.0751 16.2001 55.3751 17.6001C56.6751 18.9001 58.8751 18.9001 60.2751 17.6001C61.5751 16.2001 61.5751 14.0001 60.2751 12.7001Z" fill="#5B9279"/>
<path d="M88.2752 73.5001C89.5752 74.8001 91.7752 74.8001 93.1752 73.5001C94.4752 72.2001 94.4752 70.0001 93.1752 68.6001C91.8752 67.3001 89.6752 67.3001 88.2752 68.6001C86.9752 69.9001 86.9752 72.1001 88.2752 73.5001Z" fill="#5B9279"/>
<path d="M77.1751 62.4001C78.4751 63.7001 80.6751 63.7001 82.0751 62.4001C83.3751 61.1001 83.3751 58.9001 82.0751 57.5001C80.7751 56.2001 78.5751 56.2001 77.1751 57.5001C75.8751 58.8001 75.8751 61.0001 77.1751 62.4001Z" fill="#5B9279"/>
<path d="M66.0751 51.3001C67.3751 52.6001 69.5751 52.6001 70.9751 51.3001C72.2751 50.0001 72.2751 47.8 70.9751 46.4C69.6751 45.1 67.4751 45.1 66.0751 46.4C64.7751 47.7 64.7751 49.9001 66.0751 51.3001Z" fill="#5B9279"/>
<path d="M54.9751 40.2002C56.2751 41.5002 58.4751 41.5002 59.8751 40.2002C61.1751 38.9002 61.1751 36.7002 59.8751 35.3002C58.5751 34.0002 56.3751 34.0002 54.9751 35.3002C53.6751 36.6002 53.6751 38.8002 54.9751 40.2002Z" fill="#5B9279"/>
<path d="M46.2751 30.0002C48.1529 30.0002 49.6751 28.478 49.6751 26.6002C49.6751 24.7224 48.1529 23.2002 46.2751 23.2002C44.3973 23.2002 42.8751 24.7224 42.8751 26.6002C42.8751 28.478 44.3973 30.0002 46.2751 30.0002Z" fill="#5B9279"/>
<path d="M76.7752 85.0001C78.0752 86.3001 80.2752 86.3001 81.6752 85.0001C82.9752 83.7001 82.9752 81.5001 81.6752 80.1001C80.3752 78.8001 78.1752 78.8001 76.7752 80.1001C75.3752 81.4001 75.4752 83.6001 76.7752 85.0001Z" fill="#5B9279"/>
<path d="M65.6751 73.9001C66.9751 75.2001 69.1751 75.2001 70.5751 73.9001C71.8751 72.6001 71.8751 70.4001 70.5751 69.0001C69.2751 67.7001 67.0751 67.7001 65.6751 69.0001C64.3751 70.3001 64.3751 72.5001 65.6751 73.9001Z" fill="#5B9279"/>
<path d="M54.5751 62.8001C55.8751 64.1001 58.0751 64.1001 59.4751 62.8001C60.7751 61.5001 60.7751 59.3 59.4751 57.9C58.1751 56.6 55.9751 56.6 54.5751 57.9C53.2751 59.2 53.2751 61.4001 54.5751 62.8001Z" fill="#5B9279"/>
<path d="M43.4751 51.7002C44.7751 53.0002 46.9751 53.0002 48.3751 51.7002C49.6751 50.4002 49.6751 48.2002 48.3751 46.8002C47.0751 45.5002 44.8751 45.5002 43.4751 46.8002C42.1751 48.1002 42.1751 50.3002 43.4751 51.7002Z" fill="#5B9279"/>
<path d="M37.2751 35.7001C35.9751 34.4001 33.7751 34.4001 32.3751 35.7001C31.0751 37.0001 31.0751 39.2001 32.3751 40.6001C33.6751 41.9001 35.8751 41.9001 37.2751 40.6001C38.5751 39.2001 38.5751 37.0001 37.2751 35.7001Z" fill="#5B9279"/>
<path d="M65.2752 96.5001C66.5752 97.8001 68.7752 97.8001 70.1752 96.5001C71.4752 95.2001 71.4752 93.0001 70.1752 91.6001C68.8752 90.3001 66.6752 90.3001 65.2752 91.6001C63.9752 93.0001 63.9752 95.1001 65.2752 96.5001Z" fill="#5B9279"/>
<path d="M56.5752 86.3001C58.4529 86.3001 59.9752 84.7779 59.9752 82.9001C59.9752 81.0223 58.4529 79.5001 56.5752 79.5001C54.6974 79.5001 53.1752 81.0223 53.1752 82.9001C53.1752 84.7779 54.6974 86.3001 56.5752 86.3001Z" fill="#5B9279"/>
<path d="M45.4751 75.2001C47.3529 75.2001 48.8752 73.6779 48.8752 71.8002C48.8752 69.9224 47.3529 68.4001 45.4751 68.4001C43.5974 68.4001 42.0751 69.9224 42.0751 71.8002C42.0751 73.6779 43.5974 75.2001 45.4751 75.2001Z" fill="#5B9279"/>
<path d="M31.9752 63.2001C33.2752 64.5001 35.4752 64.5001 36.8752 63.2001C38.1752 61.9001 38.1752 59.7001 36.8752 58.3001C35.5752 57.0001 33.3752 57.0001 31.9752 58.3001C30.5752 59.7001 30.5752 61.8001 31.9752 63.2001Z" fill="#5B9279"/>
<path d="M25.7751 47.2001C24.4751 45.9001 22.2751 45.9001 20.8751 47.2001C19.5751 48.5001 19.5751 50.7001 20.8751 52.1001C22.1751 53.4001 24.3751 53.4001 25.7751 52.1001C27.0751 50.7001 27.0751 48.6001 25.7751 47.2001Z" fill="#5B9279"/>
<path d="M56.1751 109C58.0529 109 59.5751 107.478 59.5751 105.6C59.5751 103.722 58.0529 102.2 56.1751 102.2C54.2974 102.2 52.7751 103.722 52.7751 105.6C52.7751 107.478 54.2974 109 56.1751 109Z" fill="#5B9279"/>
<path d="M47.5751 92.0001C46.2751 90.7001 44.0751 90.7001 42.6751 92.0001C41.3751 93.3001 41.3751 95.5001 42.6751 96.9001C43.9751 98.2001 46.1751 98.2001 47.5751 96.9001C48.8751 95.5001 48.8751 93.4001 47.5751 92.0001Z" fill="#5B9279"/>
<path d="M33.9751 86.8001C35.8529 86.8001 37.3752 85.2779 37.3752 83.4001C37.3752 81.5223 35.8529 80.0001 33.9751 80.0001C32.0974 80.0001 30.5751 81.5223 30.5751 83.4001C30.5751 85.2779 32.0974 86.8001 33.9751 86.8001Z" fill="#5B9279"/>
<path d="M25.3751 69.8001C24.0751 68.5001 21.8751 68.5001 20.4751 69.8001C19.1751 71.1001 19.1751 73.3001 20.4751 74.7001C21.7751 76.0001 23.9751 76.0001 25.3751 74.7001C26.6751 73.3001 26.6751 71.2001 25.3751 69.8001Z" fill="#5B9279"/>
<path d="M14.2751 58.7001C12.9751 57.4001 10.7751 57.4001 9.37515 58.7001C8.07515 60.0001 8.07515 62.2001 9.37515 63.6001C10.6751 64.9001 12.8751 64.9001 14.2751 63.6001C15.5751 62.2001 15.5751 60.1001 14.2751 58.7001Z" fill="#5B9279"/>
<path d="M93.875 51.1999C95.7528 51.1999 97.275 49.6777 97.275 47.7999C97.275 45.9221 95.7528 44.3999 93.875 44.3999C91.9972 44.3999 90.475 45.9221 90.475 47.7999C90.475 49.6777 91.9972 51.1999 93.875 51.1999Z" fill="#80E895"/>
<path d="M80.3751 39.1999C81.6751 40.4999 83.8751 40.4999 85.2751 39.1999C86.5751 37.8999 86.5751 35.7 85.2751 34.3C83.9751 33 81.7751 33 80.3751 34.3C78.9751 35.6 78.9751 37.7999 80.3751 39.1999Z" fill="#80E895"/>
<path d="M69.275 28.1001C70.575 29.4001 72.775 29.4001 74.175 28.1001C75.475 26.8001 75.475 24.6001 74.175 23.2001C72.875 21.9001 70.675 21.9001 69.275 23.2001C67.875 24.5001 67.875 26.7001 69.275 28.1001Z" fill="#80E895"/>
<path d="M58.175 17C59.475 18.3 61.675 18.3 63.075 17C64.375 15.7 64.375 13.5 63.075 12.1C61.775 10.8 59.575 10.8 58.175 12.1C56.775 13.4 56.775 15.6 58.175 17Z" fill="#80E895"/>
<path d="M49.475 6.8C51.3528 6.8 52.875 5.27777 52.875 3.4C52.875 1.52223 51.3528 0 49.475 0C47.5972 0 46.075 1.52223 46.075 3.4C46.075 5.27777 47.5972 6.8 49.475 6.8Z" fill="#80E895"/>
<path d="M79.975 61.8001C81.275 63.1001 83.4751 63.1001 84.8751 61.8001C86.1751 60.5001 86.1751 58.3 84.8751 56.9C83.5751 55.6 81.375 55.6 79.975 56.9C78.575 58.2 78.575 60.4001 79.975 61.8001Z" fill="#80E895"/>
<path d="M71.275 51.6C73.1528 51.6 74.675 50.0778 74.675 48.2C74.675 46.3223 73.1528 44.8 71.275 44.8C69.3972 44.8 67.875 46.3223 67.875 48.2C67.875 50.0778 69.3972 51.6 71.275 51.6Z" fill="#80E895"/>
<path d="M57.775 39.6001C59.075 40.9001 61.275 40.9001 62.675 39.6001C63.975 38.3001 63.975 36.1001 62.675 34.7001C61.375 33.4001 59.175 33.4001 57.775 34.7001C56.375 36.0001 56.375 38.2001 57.775 39.6001Z" fill="#80E895"/>
<path d="M46.675 28.5C47.975 29.8 50.175 29.8 51.575 28.5C52.875 27.2 52.875 25 51.575 23.6C50.275 22.3 48.075 22.3 46.675 23.6C45.275 24.9 45.275 27.1 46.675 28.5Z" fill="#80E895"/>
<path d="M37.975 18.3C39.8528 18.3 41.375 16.7778 41.375 14.9C41.375 13.0222 39.8528 11.5 37.975 11.5C36.0972 11.5 34.575 13.0222 34.575 14.9C34.575 16.7778 36.0972 18.3 37.975 18.3Z" fill="#80E895"/>
<path d="M68.375 73.3001C69.675 74.6001 71.875 74.6001 73.275 73.3001C74.575 72.0001 74.575 69.8001 73.275 68.4001C71.975 67.0001 69.775 67.1001 68.375 68.4001C67.075 69.7001 67.075 71.9001 68.375 73.3001Z" fill="#80E895"/>
<path d="M59.775 63.1C61.6528 63.1 63.175 61.5778 63.175 59.7C63.175 57.8223 61.6528 56.3 59.775 56.3C57.8972 56.3 56.375 57.8223 56.375 59.7C56.375 61.5778 57.8972 63.1 59.775 63.1Z" fill="#80E895"/>
<path d="M46.175 51.1001C47.475 52.4001 49.675 52.4001 51.075 51.1001C52.375 49.8001 52.375 47.6001 51.075 46.2001C49.775 44.9001 47.575 44.9001 46.175 46.2001C44.875 47.5001 44.875 49.7001 46.175 51.1001Z" fill="#80E895"/>
<path d="M37.575 40.9001C39.4528 40.9001 40.975 39.3779 40.975 37.5001C40.975 35.6223 39.4528 34.1001 37.575 34.1001C35.6973 34.1001 34.175 35.6223 34.175 37.5001C34.175 39.3779 35.6973 40.9001 37.575 40.9001Z" fill="#80E895"/>
<path d="M28.875 23.9999C27.575 22.6999 25.375 22.6999 23.975 23.9999C22.675 25.2999 22.675 27.4999 23.975 28.8999C25.275 30.1999 27.475 30.1999 28.875 28.8999C30.275 27.4999 30.275 25.2999 28.875 23.9999Z" fill="#80E895"/>
<path d="M56.875 84.8001C58.175 86.1001 60.375 86.1001 61.775 84.8001C63.075 83.5001 63.075 81.3 61.775 79.9C60.475 78.6 58.275 78.6 56.875 79.9C55.575 81.2 55.575 83.4001 56.875 84.8001Z" fill="#80E895"/>
<path d="M48.275 74.6001C50.1528 74.6001 51.675 73.0778 51.675 71.2C51.675 69.3223 50.1528 67.8 48.275 67.8C46.3972 67.8 44.875 69.3223 44.875 71.2C44.875 73.0778 46.3972 74.6001 48.275 74.6001Z" fill="#80E895"/>
<path d="M37.175 63.5C39.0528 63.5 40.575 61.9777 40.575 60.1C40.575 58.2222 39.0528 56.7 37.175 56.7C35.2973 56.7 33.775 58.2222 33.775 60.1C33.775 61.9777 35.2973 63.5 37.175 63.5Z" fill="#80E895"/>
<path d="M23.575 51.5C24.875 52.8 27.075 52.8 28.475 51.5C29.775 50.2 29.775 48 28.475 46.6C27.175 45.3 24.975 45.3 23.575 46.6C22.275 47.9 22.275 50.1 23.575 51.5Z" fill="#80E895"/>
<path d="M17.375 35.4999C16.075 34.1999 13.875 34.1999 12.475 35.4999C11.075 36.7999 11.175 38.9999 12.475 40.3999C13.775 41.7999 15.975 41.6999 17.375 40.3999C18.775 38.9999 18.775 36.7999 17.375 35.4999Z" fill="#80E895"/>
<path d="M50.275 96.3001C51.575 95.0001 51.575 92.8 50.275 91.4C48.975 90.1 46.775 90.1 45.375 91.4C44.075 92.7 44.075 94.9001 45.375 96.3001C46.775 97.6001 48.975 97.6001 50.275 96.3001Z" fill="#80E895"/>
<path d="M36.775 86.1001C38.6528 86.1001 40.175 84.5778 40.175 82.7C40.175 80.8223 38.6528 79.3 36.775 79.3C34.8972 79.3 33.375 80.8223 33.375 82.7C33.375 84.5778 34.8972 86.1001 36.775 86.1001Z" fill="#80E895"/>
<path d="M28.075 69.2C26.775 67.9 24.575 67.9 23.175 69.2C21.875 70.5 21.875 72.7 23.175 74.1C24.475 75.4 26.675 75.4 28.075 74.1C29.475 72.7 29.475 70.5 28.075 69.2Z" fill="#80E895"/>
<path d="M16.975 58.1C15.675 56.8 13.475 56.8 12.075 58.1C10.775 59.4 10.775 61.6 12.075 63C13.375 64.3 15.575 64.3 16.975 63C18.375 61.6 18.375 59.4 16.975 58.1Z" fill="#80E895"/>
<path d="M5.87502 46.9999C4.57502 45.6999 2.375 45.6999 0.975 46.9999C-0.325 48.2999 -0.325 50.4999 0.975 51.8999C2.275 53.1999 4.47502 53.1999 5.87502 51.8999C7.27502 50.4999 7.27502 48.2999 5.87502 46.9999Z" fill="#80E895"/>
</g>
</svg>
