<svg width="464" height="397" fill="none" xmlns="http://www.w3.org/2000/svg"><path d="M463.72 194.83a119.505 119.505 0 0 1-3.33 28.48 105.317 105.317 0 0 1-3.6 11.68c-.26.7-.53 1.4-.8 2.09l-.23.57c-.29.72-.58 1.44-.89 2.15l-.15.35c-.3.7-.61 1.4-.92 2.09l-.42.91c-.28.62-.57 1.23-.87 1.84-.3.61-.63 1.29-.95 1.93-.12.23-.23.46-.35.68l-.85 1.65-.69 1.27c-1.06 1.96-2.17 3.893-3.33 5.8-.47.78-.95 1.56-1.44 2.33-.11.19-.23.38-.35.57-.56.88-1.13 1.76-1.71 2.64-.47.71-.94 1.42-1.43 2.13l-1.27 1.85-.28.39c-.44.64-.9 1.28-1.35 1.92-.56.79-1.13 1.56-1.7 2.34-.12.16-.23.32-.35.47-.65.89-1.32 1.77-2 2.64-.4.52-.8 1-1.21 1.56-.72.95-1.46 1.89-2.21 2.83-.75.94-1.43 1.79-2.16 2.68l-.24.29c-.72.89-1.44 1.77-2.18 2.65-.21.27-.44.54-.66.8-.67.81-1.35 1.62-2 2.42-1.96 2.32-3.937 4.62-5.93 6.9a665.284 665.284 0 0 1-12.41 13.89c-3.51 3.8-7.07 7.58-10.7 11.29-17.42 17.89-36.28 34.58-56.79 47.88-2.55 1.65-5.12 3.26-7.72 4.79l-2.85 1.67-.49.28c-1 .56-2 1.11-2.95 1.65-.95.54-2 1.11-3 1.64l-1.38.72c-2 1.04-4 2.04-6 3-1.09.52-2.18 1-3.28 1.51-1.1.51-2 .91-3.05 1.35l-1.25.53c-.93.4-1.87.78-2.81 1.16a147.34 147.34 0 0 1-5.48 2.09l-2.12.76-1.2.41-2 .65-1.72.55h-.06c-1.127.353-2.257.687-3.39 1-1.79.52-3.58 1-5.38 1.46-1.19.3-2.38.58-3.58.85-1.2.27-2.26.5-3.4.74l-.27.05c-1.18.24-2.37.47-3.56.68l-1.82.31-1.84.29c-.55.09-1.11.17-1.66.24l-2 .28a154.506 154.506 0 0 1-21.37 1.21h-1.28a176.91 176.91 0 0 1-19.35-1.45l-1.41-.19-2.43-.34-1.89-.3c-2.67-.42-5.32-.9-8-1.44-.59-.11-1.17-.23-1.75-.36-1.78-.37-3.57-.77-5.34-1.19-1.19-.28-2.37-.57-3.55-.87l-1.77-.46-1.77-.47c-2.35-.63-4.69-1.31-7-2-2.707-.82-5.4-1.69-8.08-2.61l-2.92-1c-3-1.07-6-2.2-9-3.37l-1.63-.66-1.31-.57-.88-.4c-1.94-.88-4-1.91-6.32-3.07l-1.16-.6c-1.39-.73-2.84-1.5-4.33-2.32-3.13-1.72-6.48-3.62-10-5.69-40-23.54-101.26-67.72-115.64-84.47-.73-.85-1.44-1.71-2.15-2.58-.55-.68-1.1-1.37-1.63-2.07-.53-.7-1-1.26-1.44-1.91-.44-.65-.83-1.13-1.23-1.71-.4-.58-.76-1.07-1.13-1.61l-.08-.12c-.45-.67-.9-1.34-1.34-2-.44-.66-.84-1.3-1.24-2-.2-.31-.39-.63-.58-.95-.447-.74-.887-1.48-1.32-2.22-.46-.82-.92-1.64-1.37-2.47-.78-1.45-1.53-2.91-2.23-4.39l-.54-1.15a91.435 91.435 0 0 1-3.74-9.29c-.39-1.1-.74-2.21-1.08-3.32a94.89 94.89 0 0 1-1.18-4.31c-.07-.29-.14-.57-.2-.86-.18-.75-.35-1.51-.5-2.27a68.89 68.89 0 0 1-.6-3.19c0-.26-.09-.52-.12-.78-.09-.55-.17-1.1-.24-1.66-.07-.56-.17-1.33-.24-2 0-.23-.05-.45-.07-.67-.06-.57-.1-1.14-.15-1.7a.61.61 0 0 0 0-.14c-.05-.68-.09-1.35-.11-2a1.282 1.282 0 0 1 0-.19c0-.707-.02-1.417-.06-2.13v-2c0-1 .05-2.09.11-3.13 0-.68.09-1.36.15-2 .12-1.34.28-2.68.48-4 .1-.68.21-1.36.34-2 .24-1.333.53-2.683.87-4.05a69.707 69.707 0 0 1 3.45-10.25 72.264 72.264 0 0 1 3.59-7.34c.1-.2.22-.41.34-.61 5.39-9.49 12.72-17.91 21-25.71.88-.84 1.77-1.66 2.68-2.47.91-.81 1.91-1.72 2.88-2.58l.18-.16a421.944 421.944 0 0 1 4.71-4c2.45-2.05 4.94-4.06 7.45-6.06l.25-.2c2.15-1.7 4.32-3.39 6.48-5.07 3.4-2.63 6.81-5.25 10.15-7.86l2.64-2.07c1-.76 1.92-1.52 2.87-2.28a213.686 213.686 0 0 0 23.86-22.64c1.387-1.52 2.767-3.05 4.14-4.59.65-.74 1.3-1.47 1.94-2.21 9.13-10.4 17.62-20.92 27.07-30.85 2.253-2.367 4.56-4.7 6.92-7 2-1.91 4-3.79 6.14-5.63A90.77 90.77 0 0 1 149 50c3.55-2.76 7.29-5.41 11.29-7.94 1-.63 2-1.24 2.93-1.84 99.71-62 173.1-41.74 222.06 0A236.363 236.363 0 0 1 396 50c2.08 2 4.09 4.09 6 6.19.22.22.42.45.63.69 1.373 1.46 2.707 2.93 4 4.41l1.15 1.32c.57.66 1.14 1.32 1.7 2 .56.68 1.37 1.63 2.05 2.45l1.27 1.56c2.73 3.36 5.33 6.77 7.81 10.2.5.68 1 1.37 1.48 2.06 3.42 4.8 6.6 9.65 9.55 14.47l1.25 2.06c.42.667.83 1.357 1.23 2.07l1.19 2.05c.4.69.79 1.37 1.17 2.05l1.14 2c.39.68.76 1.36 1.11 2l1.09 2c.36.67.71 1.35 1.06 2l1 2 1 2a225.784 225.784 0 0 1 3.73 7.82c.58 1.3 1.16 2.59 1.71 3.86 2.49 5.72 4.62 11.19 6.36 16.28a.206.206 0 0 1 0 .07c.17.49.33 1 .49 1.45.16.45.33 1 .49 1.48.16.48.25.75.36 1.13.18.56.36 1.12.53 1.69.17.57.37 1.22.54 1.83.33 1.12.65 2.24 1 3.37.26.95.51 1.9.75 2.86 0 .18.1.35.14.53.04.18.07.3.11.45.14.56.28 1.12.41 1.69.36 1.49.69 3 1 4.49.17.82.34 1.63.49 2.45l.09.46c.153.767.293 1.537.42 2.31.18 1 .35 2.07.5 3.1.13.78.24 1.57.35 2.36 0 .11 0 .23.05.35.07.52.14 1 .2 1.58.06.58.11.88.16 1.31.18 1.59.34 3.17.47 4.76l.09 1.08.12 1.81c0 .67.08 1.34.11 2 0 .52.05 1 .07 1.55 0 .76.05 1.53.06 2.29.01.76.04 1.95.04 2.84Z" fill="#80E895"/><path d="M463.72 194.83a119.505 119.505 0 0 1-3.33 28.48 105.317 105.317 0 0 1-3.6 11.68c-.26.7-.53 1.4-.8 2.09l-.23.57c-.29.72-.58 1.44-.89 2.15l-.15.35c-.3.7-.61 1.4-.92 2.09l-.42.91c-.28.62-.57 1.23-.87 1.84-.3.61-.63 1.29-.95 1.93-.12.23-.23.46-.35.68l-.85 1.65-.69 1.27c-1.06 1.96-2.17 3.893-3.33 5.8-.47.78-.95 1.56-1.44 2.33-.11.19-.23.38-.35.57-.56.88-1.13 1.76-1.71 2.64-.47.71-.94 1.42-1.43 2.13l-1.27 1.85-.28.39c-.44.64-.9 1.28-1.35 1.92-.56.79-1.13 1.56-1.7 2.34-.12.16-.23.32-.35.47-.65.89-1.32 1.77-2 2.64-.4.52-.8 1-1.21 1.56-.72.95-1.46 1.89-2.21 2.83-.75.94-1.43 1.79-2.16 2.68l-.24.29c-.72.89-1.44 1.77-2.18 2.65-.21.27-.44.54-.66.8-.67.81-1.35 1.62-2 2.42-1.96 2.32-3.937 4.62-5.93 6.9a665.284 665.284 0 0 1-12.41 13.89c-3.51 3.8-7.07 7.58-10.7 11.29-17.42 17.89-36.28 34.58-56.79 47.88-2.55 1.65-5.12 3.26-7.72 4.79l-2.85 1.67-.49.28c-1 .56-2 1.11-2.95 1.65-.95.54-2 1.11-3 1.64l-1.38.72c-2 1.04-4 2.04-6 3-1.09.52-2.18 1-3.28 1.51-1.1.51-2 .91-3.05 1.35l-1.25.53c-.93.4-1.87.78-2.81 1.16a147.34 147.34 0 0 1-5.48 2.09l-2.12.76-1.2.41-2 .65-1.72.55h-.06c-1.127.353-2.257.687-3.39 1-1.79.52-3.58 1-5.38 1.46-1.19.3-2.38.58-3.58.85-1.2.27-2.26.5-3.4.74l-.27.05c-1.18.24-2.37.47-3.56.68l-1.82.31-1.84.29c-.55.09-1.11.17-1.66.24l-2 .28a154.506 154.506 0 0 1-21.37 1.21h-1.28a176.91 176.91 0 0 1-19.35-1.45l-1.41-.19-2.43-.34-1.89-.3c-2.67-.42-5.32-.9-8-1.44-.59-.11-1.17-.23-1.75-.36-1.78-.37-3.57-.77-5.34-1.19-1.19-.28-2.37-.57-3.55-.87l-1.77-.46-1.77-.47c-2.35-.63-4.69-1.31-7-2-2.707-.82-5.4-1.69-8.08-2.61l-2.92-1c-3-1.07-6-2.2-9-3.37l-1.63-.66-1.31-.57-.88-.4c-1.94-.88-4-1.91-6.32-3.07l-1.16-.6c-1.39-.73-2.84-1.5-4.33-2.32-3.13-1.72-6.48-3.62-10-5.69-40-23.54-101.26-67.72-115.64-84.47-.73-.85-1.44-1.71-2.15-2.58-.55-.68-1.1-1.37-1.63-2.07-.53-.7-1-1.26-1.44-1.91-.44-.65-.83-1.13-1.23-1.71-.4-.58-.76-1.07-1.13-1.61l-.08-.12c-.45-.67-.9-1.34-1.34-2-.44-.66-.84-1.3-1.24-2-.2-.31-.39-.63-.58-.95-.447-.74-.887-1.48-1.32-2.22-.46-.82-.92-1.64-1.37-2.47-.78-1.45-1.53-2.91-2.23-4.39l-.54-1.15a91.435 91.435 0 0 1-3.74-9.29c-.39-1.1-.74-2.21-1.08-3.32a94.89 94.89 0 0 1-1.18-4.31c-.07-.29-.14-.57-.2-.86-.18-.75-.35-1.51-.5-2.27-.23-1.06-.43-2.12-.6-3.19 0-.26-.09-.52-.12-.78-.09-.55-.17-1.1-.24-1.66-.07-.56-.17-1.33-.24-2 0-.23-.05-.45-.07-.67-.06-.57-.1-1.14-.15-1.7a.61.61 0 0 0 0-.14c-.05-.68-.09-1.35-.11-2a1.282 1.282 0 0 1 0-.19c0-.707-.02-1.417-.06-2.13 0-1.73 0-3.45.11-5.17 0-.68.09-1.36.15-2 .12-1.34.28-2.68.48-4 .1-.68.21-1.36.34-2 .24-1.333.53-2.683.87-4.05a69.707 69.707 0 0 1 3.45-10.25 72.264 72.264 0 0 1 3.59-7.34c.1-.2.22-.41.34-.61 5.39-9.49 12.72-17.91 21-25.71l1.42-1.33 1.26-1.14c1-.87 1.91-1.72 2.88-2.58l.18-.16a421.944 421.944 0 0 1 4.71-4c2.45-2.05 4.94-4.06 7.45-6.06l.25-.2c2.15-1.7 4.32-3.39 6.48-5.07l3.26-2.52c2.31-1.78 4.62-3.56 6.89-5.34l2.64-2.07c1-.76 1.92-1.52 2.87-2.28a213.686 213.686 0 0 0 23.86-22.64c1.387-1.52 2.767-3.05 4.14-4.59.65-.74 1.3-1.47 1.94-2.21 9.13-10.4 17.62-20.92 27.07-30.85 2.253-2.367 4.56-4.7 6.92-7 2-1.91 4-3.79 6.14-5.63C144 54.11 146.43 52 149 50c3.55-2.76 7.29-5.41 11.29-7.94 1-.63 2-1.24 2.93-1.84 99.71-62 173.1-41.74 222.06 0A236.363 236.363 0 0 1 396 50c2.08 2 4.09 4.09 6 6.19.22.22.42.45.63.69 1.373 1.46 2.707 2.93 4 4.41l1.15 1.32c.57.66 1.14 1.32 1.7 2 .56.68 1.37 1.63 2.05 2.45l1.27 1.56c2.73 3.36 5.33 6.77 7.81 10.2.5.68 1 1.37 1.48 2.06 3.42 4.8 6.6 9.65 9.55 14.47l1.25 2.06c.42.667.83 1.357 1.23 2.07l1.19 2.05c.4.69.79 1.37 1.17 2.05l1.14 2c.39.68.76 1.36 1.11 2l1.09 2c.36.67.71 1.35 1.06 2l1 2 1 2a225.784 225.784 0 0 1 3.73 7.82c.58 1.3 1.16 2.59 1.71 3.86 2.49 5.72 4.62 11.19 6.36 16.28a.206.206 0 0 1 0 .07c.17.49.33 1 .49 1.45.16.45.33 1 .49 1.48.16.48.25.75.36 1.13.18.56.36 1.12.53 1.69.17.57.37 1.22.54 1.83.33 1.12.65 2.24 1 3.37.26.95.51 1.9.75 2.86 0 .18.1.35.14.53.04.18.07.3.11.45.14.56.28 1.12.41 1.69.36 1.49.69 3 1 4.49.17.82.34 1.63.49 2.45l.09.46c.153.767.293 1.537.42 2.31.18 1 .35 2.07.5 3.1.13.78.24 1.57.35 2.36 0 .11 0 .23.05.35.07.52.14 1 .2 1.58.06.58.11.88.16 1.31.18 1.59.34 3.17.47 4.76l.09 1.08.12 1.81c0 .67.08 1.34.11 2 0 .52.05 1 .07 1.55 0 .76.05 1.53.06 2.29.01.76.04 1.95.04 2.84Z" fill="#fff" opacity=".7"/><path opacity=".2" d="M14.14 211.26c-.15-.22-.2-.13 0 0Z" fill="#263238"/><path opacity=".2" d="M107.67 202.44a18.32 18.32 0 0 1-12.57 14.47l-2.48.81c-8.92 12.63-24.56 18-37.89 10.19l-3.9-2.29-10.92-13h-.13c-3.46.72-7.37.19-9.93-2.25a3.4 3.4 0 1 1-5.51-3.25c-2.2 1.94-5.6 1.05-7.72-1.07a66.698 66.698 0 0 1 2-17.29 69.716 69.716 0 0 1 3.38-10.2 72.279 72.279 0 0 1 3.59-7.34c.1-.2.22-.41.34-.61a87.898 87.898 0 0 1 6.65-10l1.26-1.14c1-.87 1.91-1.72 2.88-2.58l.18-.16a421.944 421.944 0 0 1 4.71-4c2.45-2.05 4.94-4.06 7.45-6.06l.25-.2c2.15-1.7 4.32-3.39 6.48-5.07l3.26-2.52c.655.079 1.299.23 1.92.45 2.67.93 3.13 3.38 5 5.06 2.46 2.25 4.82-1.53 8.61-1.41 11.65.36 7.13 12.31 12.82 10.81 24.57-6.48 20.44 24.95 9.76 31.85 6.3 5.17 11.73 8.62 10.51 16.8Z" fill="#000"/><path d="M54.84 232.32c22.887 0 41.44-18.325 41.44-40.93s-18.553-40.93-41.44-40.93c-22.887 0-41.44 18.325-41.44 40.93s18.553 40.93 41.44 40.93Z" fill="#fff" stroke="#263238" stroke-miterlimit="10"/><path d="M54.84 227.05c20.865 0 37.78-16.709 37.78-37.32s-16.915-37.32-37.78-37.32c-20.865 0-37.78 16.709-37.78 37.32s16.915 37.32 37.78 37.32Z" fill="#263238" stroke="#fff" stroke-miterlimit="10"/><path d="M14.24 204.44c-2.38 1.48-3.06 6.45-1.19 8.61 1.87 2.16 5.46.49 6.19-2.87a1.12 1.12 0 0 0 2 .28 2.301 2.301 0 0 0 .14-2.1c-.11-.26-.18-.15 0 0 1.22 1 3.32-.09 3.61-2.16-.89 5.5 4.11 10.3 7.79 7.5-1.09 2.34.34 5.41 2.24 6 1.9.59 3.94-.53 5.76-1.77 1.82-1.24 3.69-2.67 5.68-2.76 1.73-.08 3.34.9 5 1.48 5.26 1.83 11.42-.6 15.44-6.11 2.66 4.55 9.21 2.87 11-2.79.37 2.65 2.18 4.67 4.21 4.69 2.03.02 4.06-1.94 4.76-4.57 0 2.51 2.28 3.74 3.88 2.13a9.378 9.378 0 0 0 2.31-8.87c2.72-.11 5.36-3.27 5.77-6.93.41-3.66-1.43-7.34-4.06-8.06 4.52-1.87 8-8 8.22-14.29.22-6.29-3.06-12.09-7.49-13.55a4.704 4.704 0 0 0-5.08 1.06c-.53-3.57-2.15-6.76-4.54-8.36-3.8-2.57-9.09-.81-11.92 4a9.41 9.41 0 0 0 .22-8.38c-1.26-2.33-3.76-3.27-5.88-2.17-.45-3.83-3.41-6.55-6.3-5.81-2.89.74-5.22 4.84-5 8.71-.27-3.12-4-3.89-5.28-1.27.11.24-.06.1 0 0-1.84-3.86-5.58-5.84-9.05-4.71-3.69 1.21-6.79 5.84-7.27 10.9a6.512 6.512 0 0 0-9 .25c-2.73 2.46-4.31 7.14-3.83 11.32-2.87-2.83-7.7-1.28-9.67 3.1-1.97 4.38-.62 10.58 2.71 12.42-2.29.35-4.31 3.39-4.31 6.47 0 3.08 2 5.72 4.33 5.64-2.32.2-4.51 2.94-4.85 6.05-.34 3.11 1.22 6.24 3.46 6.92Z" fill="#80E895"/><g opacity=".2" fill="#fff"><path d="M52.33 190.1a4.322 4.322 0 0 0-4-1 4.816 4.816 0 0 0-3 3.72c-.32 1.81.52 3.81 1.9 4.15 1.69.42 3.42-1.47 5.14-1.26a11.22 11.22 0 0 1 1.77.58c2.47.69 5-1.53 7.06-3.61a9.806 9.806 0 0 0 2-2.49 4.063 4.063 0 0 0 .26-3.29c-.6-1.35-2.1-1.46-3.36-1.2a13.44 13.44 0 0 0-7 4.1c.07-.51.14-1 .22-1.52l-.99 1.82ZM88.45 185.17a5.692 5.692 0 0 0-2.14-1.32 2.056 2.056 0 0 0-2.26 1 3.279 3.279 0 0 0 .56 3.76 5.212 5.212 0 0 0 3.13 1.17c1.14.15 2.58.12 3.17-1.21a2.879 2.879 0 0 0-.48-2.88 4.936 4.936 0 0 0-2.22-1.27l.24.75ZM31.91 164.74a11.002 11.002 0 0 0-4.74 7.32c-.18.94-.18 2.12.46 2.58a1.674 1.674 0 0 0 1.55 0l6.64-2.4a9.995 9.995 0 0 0-3 2.19 5.01 5.01 0 0 0-1.2 3.92 2.878 2.878 0 0 0 3 2.44 6.44 6.44 0 0 0 3.67-2.08 6.75 6.75 0 0 0 2.38-4.45c0-1.8-1.7-3.37-2.81-2.15a24.489 24.489 0 0 0 7.14-4.59 8.586 8.586 0 0 0 2.09-2.58 4.327 4.327 0 0 0 .27-3.44c-2.16-5.09-5.15 2.75-6.55 3.52-2.63 1.46-5.53-2.26-8.9-.28ZM21.23 187.69a3.172 3.172 0 0 0 .53 2.88 1.3 1.3 0 0 0 2.12-.68 8.102 8.102 0 0 0-4 3.09c-1 1.64-.77 4.39.69 4.91.91.33 1.89-.31 2.75-.95a56.857 56.857 0 0 0 6.93-6.15 3.162 3.162 0 0 0 2.48 4.14c1.64.08 3.2-1.14 4.63-2.32 1.75-1.45 3.77-3.61 3.36-6.09a3.001 3.001 0 0 0-4.23-2.26c-1.7.75-3 2.56-4.21 4.3 1-1.78-.31-4.25-1.93-4.43-1.62-.18-3.16 1.14-4.17 2.68 1.86-1.4 2.33-4.77-.12-5-1.62-.16-4.41 4.19-4.83 5.88ZM71.77 177.09c-1.38-.58-3.14.68-3.54 2.53-.4 1.85.63 3.87 2.08 4.06a4.424 4.424 0 0 0-2.83 2 3.56 3.56 0 0 0-.63 2.14 2.002 2.002 0 0 0 1.94 1.8 5.36 5.36 0 0 0 2.59-1.08c-.946.078-1.84.46-2.55 1.09a2.572 2.572 0 0 0-.43 3c.52.64 1.39.47 2.11.17a11.314 11.314 0 0 0 4.38-3.37 3.534 3.534 0 0 0 3.59 1.73 3.467 3.467 0 0 0 2.14-3.9 2.51 2.51 0 0 0-2.2-1.94 5.777 5.777 0 0 0-2.88.75 7.405 7.405 0 0 0 2.37-3.38c.37-1.44-.35-3.29-1.51-3.11-1.31.21-2 2.52-3.06 3.4-1.25-1.43 1.19-4.74-1.57-5.89ZM48.36 171.6c-1.5 1.37-2.07 3.93-2 6.21.06 2.52.91 5.16 2.71 6.06 2.36 1.18 5.39-1.53 5.89-4.83a8.081 8.081 0 0 0-3.41-7.92 2.874 2.874 0 0 0-3.19.48ZM65.08 167.86l.6.64a2.625 2.625 0 0 0-2.125-1.238 2.615 2.615 0 0 0-2.215 1.068 4.752 4.752 0 0 0-.12 5.56 2.707 2.707 0 0 0 3.53.309c.35-.252.635-.584.83-.969.909.45 1.954.538 2.925.246a3.996 3.996 0 0 0 2.305-1.816c1.25-1.93 1-5.17-.59-6.26-1.59-1.09-4.18.85-4 3.25l-.7-1-.44.21ZM83.41 170.52a13.717 13.717 0 0 0-2.93 5.27c-.47 2.07.19 4.62 1.79 5 1.6.38 3.12-1.35 4.07-3.15a8.06 8.06 0 0 0 1.07-5.4c-.44-1.77-2.45-2.71-3.49-1.26l-.51-.46ZM57.12 159.83a2.305 2.305 0 0 0-1.565-1.557 2.295 2.295 0 0 0-2.155.477 5.112 5.112 0 0 0-1.26 5 3.93 3.93 0 0 0 3.35 2.91 3.686 3.686 0 0 0 3.46-2.574 3.685 3.685 0 0 0 .15-1.516 3.213 3.213 0 0 0 3.43 1.46 8.935 8.935 0 0 0 3.63-1.94c1.54-1.21 3.19-3 3.07-5.25a3.199 3.199 0 0 0-2.8-3.12 5.13 5.13 0 0 0-3.86 2.05c-.85.95-1.56 2.12-2.48 3-.92.88-2.15 1.35-3.1.75l.13.31Z"/></g><path d="M358.35 221.76H127.68v97.15h230.67v-97.15Z" fill="#80E895" stroke="#263238" stroke-linecap="round" stroke-linejoin="round"/><path d="M154.2 227.64h-21.7v12.01h21.7v-12.01ZM353.01 286.2h-34.18v12.01h34.18V286.2ZM353.01 242.64h-21.1v12.01h21.1v-12.01ZM154.2 271.39h-21.7v12.01h21.7v-12.01ZM150.07 256.92H132.5v12.01h17.57v-12.01ZM144.51 242.28H132.5v12.01h12.01v-12.01ZM159.85 242.28h-12.01v12.01h12.01v-12.01ZM175.18 242.28h-12.01v12.01h12.01v-12.01ZM190.51 242.28H178.5v12.01h12.01v-12.01ZM205.85 242.28h-12.01v12.01h12.01v-12.01ZM221.18 242.28h-12.01v12.01h12.01v-12.01ZM236.51 242.28H224.5v12.01h12.01v-12.01ZM251.85 242.28h-12.01v12.01h12.01v-12.01ZM267.18 242.28h-12.01v12.01h12.01v-12.01ZM282.51 242.28H270.5v12.01h12.01v-12.01ZM297.85 242.28h-12.01v12.01h12.01v-12.01ZM313.18 242.28h-12.01v12.01h12.01v-12.01ZM328.52 242.28h-12.01v12.01h12.01v-12.01ZM144.51 301.02H132.5v12.01h12.01v-12.01ZM159.85 301.02h-12.01v12.01h12.01v-12.01ZM175.18 301.02h-12.01v12.01h12.01v-12.01ZM193.16 301.02H178.5v12.01h14.66v-12.01ZM269.83 301.02h-73.35v12.01h73.35v-12.01ZM306.5 301.02h-12.01v12.01h12.01v-12.01ZM321.83 301.02h-12.01v12.01h12.01v-12.01ZM337.19 301.02h-12.01v12.01h12.01v-12.01ZM291.48 301.02h-18.65v12.01h18.65v-12.01ZM353.01 301.02H341v12.01h12.01v-12.01ZM165.49 256.92h-12.01v12.01h12.01v-12.01ZM180.82 256.92h-12.01v12.01h12.01v-12.01ZM196.16 256.92h-12.01v12.01h12.01v-12.01ZM211.49 256.92h-12.01v12.01h12.01v-12.01ZM226.83 256.92h-12.01v12.01h12.01v-12.01ZM242.16 256.92h-12.01v12.01h12.01v-12.01ZM257.49 256.92h-12.01v12.01h12.01v-12.01ZM272.83 256.92h-12.01v12.01h12.01v-12.01ZM288.16 256.92h-12.01v12.01h12.01v-12.01ZM303.49 256.92h-12.01v12.01h12.01v-12.01ZM318.83 256.92h-12.01v12.01h12.01v-12.01ZM334.16 256.92h-12.01v12.01h12.01v-12.01ZM353.01 256.92v26.66H341v-14.64h-3.52v-12.02h15.53ZM169.01 271.56H157v12.01h12.01v-12.01ZM184.34 271.56h-12.01v12.01h12.01v-12.01ZM199.67 271.56h-12.01v12.01h12.01v-12.01ZM215.01 271.56H203v12.01h12.01v-12.01ZM230.34 271.56h-12.01v12.01h12.01v-12.01ZM245.68 271.56h-12.01v12.01h12.01v-12.01ZM261.01 271.56H249v12.01h12.01v-12.01ZM276.34 271.56h-12.01v12.01h12.01v-12.01ZM291.68 271.56h-12.01v12.01h12.01v-12.01ZM307.01 271.56H295v12.01h12.01v-12.01ZM322.34 271.56h-12.01v12.01h12.01v-12.01ZM337.68 271.56h-12.01v12.01h12.01v-12.01ZM162.49 286.2h-12.01v12.01h12.01V286.2ZM177.82 286.2h-12.01v12.01h12.01V286.2ZM193.16 286.2h-12.01v12.01h12.01V286.2ZM208.49 286.2h-12.01v12.01h12.01V286.2ZM223.82 286.2h-12.01v12.01h12.01V286.2ZM239.16 286.2h-12.01v12.01h12.01V286.2ZM254.49 286.2h-12.01v12.01h12.01V286.2ZM269.83 286.2h-12.01v12.01h12.01V286.2ZM285.16 286.2h-12.01v12.01h12.01V286.2ZM300.49 286.2h-12.01v12.01h12.01V286.2ZM315.83 286.2h-12.01v12.01h12.01V286.2ZM169.01 228.36H157v12.01h12.01v-12.01ZM184.34 228.36h-12.01v12.01h12.01v-12.01ZM199.67 228.36h-12.01v12.01h12.01v-12.01ZM215.01 228.36H203v12.01h12.01v-12.01ZM230.34 228.36h-12.01v12.01h12.01v-12.01ZM245.68 228.36h-12.01v12.01h12.01v-12.01ZM261.01 228.36H249v12.01h12.01v-12.01ZM276.34 228.36h-12.01v12.01h12.01v-12.01ZM291.68 228.36h-12.01v12.01h12.01v-12.01ZM307.01 228.36H295v12.01h12.01v-12.01ZM322.34 228.36h-12.01v12.01h12.01v-12.01ZM337.68 228.36h-12.01v12.01h12.01v-12.01ZM353.01 228.36H341v12.01h12.01v-12.01ZM147.05 286.2H132.5v12.01h14.55V286.2Z" fill="#fff" stroke="#263238" stroke-miterlimit="10"/><path d="m127.68 222.38 4.82-1.6h222.72l3.17 1.58-230.71.02Z" fill="#263238"/><path opacity=".2" d="m292.33 389-4.69-28.25a23.068 23.068 0 0 0-6.35-11.06c-9.33-9-21.66-18.24-22.19-30-.81-18-3.62-17.49-3.32-21.94a54.093 54.093 0 0 0 3.21-6.6 38.513 38.513 0 0 0 1.36-5.34 3.64 3.64 0 0 1 4-2.85 6.19 6.19 0 0 1 3.39 1.59 9.39 9.39 0 0 1 2.54 6.5 27.81 27.81 0 0 1-1 7.06 46.148 46.148 0 0 1 3 12.41c1.07-3.3 1.88-6.63 2.95-9.92.22-.12.14-.38.35-.5-1.51-3.24-.23-3.06-3.22-10.19-5-12-10.64-23.57-14.65-38.65a8.563 8.563 0 0 1 .09-4.24c1.45-4.31 5.89-3.32 7.83-.81a8.268 8.268 0 0 1 1.2 2.18 116.46 116.46 0 0 0 9.57 18.45l10.89 16.6s3.79-3.11 4.37-4.5c.57-1.4.85-12.67.85-12.67s-.86 2.11-2.77 2c-1.38-.1-4.18.7-6.17-1.54a5.21 5.21 0 0 1-.18-6.54l4.93-6.66a7.477 7.477 0 0 1 7.74-.93 36.824 36.824 0 0 1 8.71 6.1c2.603-.073 5.19.425 7.58 1.46 3.49 1.68 7.15 6.5 7.15 6.5s4.07.25 5.9 1.58c.46.33 6.67 10 4.43 17.53-1.33 4.49-2.15 11-2.75 12.76l-3.05 44.09 6.15 29-13.15 7.33a93.937 93.937 0 0 1-15.03 6.73l-9.67 3.32Z" fill="#000"/><path d="m329.67 337.48.12-44.21c.48-1.78.87-8.34 1.89-12.91 1.74-7.66-5.1-16.9-5.58-17.2-1.92-1.19-6-1.17-6-1.17s-4-4.57-7.57-6a17.87 17.87 0 0 0-7.66-1 36.624 36.624 0 0 0-9.1-5.51 7.49 7.49 0 0 0-7.66 1.44l-4.47 7a5.212 5.212 0 0 0 .61 6.52c2.14 2.11 4.88 1.12 6.26 1.12 1.91 0 2.63-2.16 2.63-2.16s.47 11.26 0 12.69c-.49 1.43-4.07 4.78-4.07 4.78l-12-15.83a114.445 114.445 0 0 1-10.77-17.78 8.509 8.509 0 0 0-1.35-2.09c-2.1-2.38-6.59-3.07-7.76 1.32a8.7 8.7 0 0 0 .19 4.24c5 14.78 11.38 25.95 17.19 37.59 3.45 6.91 2.17 6.83 3.89 9.95-.2.14-.1.4-.32.53-.84 3.36-1.43 6.73-2.28 10.09a45.979 45.979 0 0 0-3.83-12.18c.485-2.34.663-4.734.53-7.12a9.38 9.38 0 0 0-3-6.31 6.172 6.172 0 0 0-3.49-1.36 3.642 3.642 0 0 0-3.84 3.12 37.489 37.489 0 0 1-1 5.41 54.436 54.436 0 0 1-2.76 6.8c0 4.46 2.76 3.73 4.77 21.67 1.56 14 19.56 23.21 29.36 33.3l10.44 32.86A202.348 202.348 0 0 0 338 366.79l-8.33-29.31Z" fill="#fff"/><mask id="a" style="mask-type:luminance" maskUnits="userSpaceOnUse" x="257" y="243" width="81" height="143"><path d="m329.67 337.48.12-44.21c.48-1.78.87-8.34 1.89-12.91 1.74-7.66-5.1-16.9-5.58-17.2-1.92-1.19-6-1.17-6-1.17s-4-4.57-7.57-6a17.87 17.87 0 0 0-7.66-1 36.624 36.624 0 0 0-9.1-5.51 7.49 7.49 0 0 0-7.66 1.44l-4.47 7a5.212 5.212 0 0 0 .61 6.52c2.14 2.11 4.88 1.12 6.26 1.12 1.91 0 2.63-2.16 2.63-2.16s.47 11.26 0 12.69c-.49 1.43-4.07 4.78-4.07 4.78l-12-15.83a114.445 114.445 0 0 1-10.77-17.78 8.509 8.509 0 0 0-1.35-2.09c-2.1-2.38-6.59-3.07-7.76 1.32a8.7 8.7 0 0 0 .19 4.24c5 14.78 11.38 25.95 17.19 37.59 3.45 6.91 2.17 6.83 3.89 9.95-.2.14-.1.4-.32.53-.84 3.36-1.43 6.73-2.28 10.09a45.979 45.979 0 0 0-3.83-12.18c.485-2.34.663-4.734.53-7.12a9.38 9.38 0 0 0-3-6.31 6.172 6.172 0 0 0-3.49-1.36 3.642 3.642 0 0 0-3.84 3.12 37.489 37.489 0 0 1-1 5.41 54.436 54.436 0 0 1-2.76 6.8c0 4.46 2.76 3.73 4.77 21.67 1.56 14 19.56 23.21 29.36 33.3l10.44 32.86A202.348 202.348 0 0 0 338 366.79l-8.33-29.31Z" fill="#fff"/></mask><g mask="url(#a)"><path d="M324.55 277.41a7.694 7.694 0 0 1 2.29-3.46 2.929 2.929 0 0 1 3.83.13 184.736 184.736 0 0 0-2.38-6.83 10.559 10.559 0 0 0-2.78-4.68c-1.42-1.16-3.76-1.4-5 0a54.053 54.053 0 0 1 .28 15.81c-.37 2.84-.85 6.1 1.06 8.23.53.43 1.45-.34 1.11-.93-.16-.28-.72-.3-1-.28a50.811 50.811 0 0 1 2.59-7.99Z" fill="#80E895"/><path d="M324.55 277.41a7.694 7.694 0 0 1 2.29-3.46 2.929 2.929 0 0 1 3.83.13 184.736 184.736 0 0 0-2.38-6.83 10.559 10.559 0 0 0-2.78-4.68c-1.42-1.16-3.76-1.4-5 0a54.053 54.053 0 0 1 .28 15.81c-.37 2.84-.85 6.1 1.06 8.23.53.43 1.45-.34 1.11-.93-.16-.28-.72-.3-1-.28a50.811 50.811 0 0 1 2.59-7.99Z" fill="#80E895"/><path opacity=".5" d="M324.55 277.41a7.694 7.694 0 0 1 2.29-3.46 2.929 2.929 0 0 1 3.83.13 184.736 184.736 0 0 0-2.38-6.83 10.559 10.559 0 0 0-2.78-4.68c-1.42-1.16-3.76-1.4-5 0a54.053 54.053 0 0 1 .28 15.81c-.37 2.84-.85 6.1 1.06 8.23.53.43 1.45-.34 1.11-.93-.16-.28-.72-.3-1-.28a50.811 50.811 0 0 1 2.59-7.99Z" fill="#fff"/><path d="M308.59 272.67c-.016 1.927.165 3.85.54 5.74a7.142 7.142 0 0 0 3.2 4.61c-1-3.72-.46-7.67.08-11.48l1-7a5.17 5.17 0 0 1 .71-2.32 1.8 1.8 0 0 1 2.11-.76c-1 .58-2.27-.2-2.87-1.18a29.41 29.41 0 0 0-1.53-3.08c-1.34-1.72-4.2-2.1-6.18-1.64.59 5.75 2.71 11.21 2.94 17.11Z" fill="#80E895"/><path d="M308.59 272.67c-.016 1.927.165 3.85.54 5.74a7.142 7.142 0 0 0 3.2 4.61c-1-3.72-.46-7.67.08-11.48l1-7a5.17 5.17 0 0 1 .71-2.32 1.8 1.8 0 0 1 2.11-.76c-1 .58-2.27-.2-2.87-1.18a29.41 29.41 0 0 0-1.53-3.08c-1.34-1.72-4.2-2.1-6.18-1.64.59 5.75 2.71 11.21 2.94 17.11Z" fill="#80E895"/><path d="M308.59 272.67c-.016 1.927.165 3.85.54 5.74a7.142 7.142 0 0 0 3.2 4.61c-1-3.72-.46-7.67.08-11.48l1-7a5.17 5.17 0 0 1 .71-2.32 1.8 1.8 0 0 1 2.11-.76c-1 .58-2.27-.2-2.87-1.18a29.41 29.41 0 0 0-1.53-3.08c-1.34-1.72-4.2-2.1-6.18-1.64.59 5.75 2.71 11.21 2.94 17.11Z" fill="#fff" opacity=".5"/><path d="M292.27 257.25a3.51 3.51 0 0 1-1.06-2.1 3.011 3.011 0 0 0-1.17-2c-3.07 1.95-1.39 7.66-4.5 9.55-.6.37-1.37.58-1.7 1.2-.13.292-.167.617-.108.931.058.314.211.603.438.829a2.998 2.998 0 0 0 1.7.8 6.847 6.847 0 0 0 6.54-2.84c1.22-1.68 2.06-4.38 1.46-6.37a1.545 1.545 0 0 1-1.6 0ZM260.34 294.64c0 .21-.09.48.08.62.17.14.61-.12.81-.4a5.35 5.35 0 0 1 5.95-1.93c.81 0 1.09-1.25.56-1.86a2.9 2.9 0 0 0-2.24-.72 4.37 4.37 0 0 1-2.36-.39 2.337 2.337 0 0 1-1-2.52c-.51 2.41-1.14 4.8-1.8 7.2Z" fill="#80E895"/><g opacity=".5" fill="#fff"><path d="M292.27 257.25a3.51 3.51 0 0 1-1.06-2.1 3.011 3.011 0 0 0-1.17-2c-3.07 1.95-1.39 7.66-4.5 9.55-.6.37-1.37.58-1.7 1.2-.13.292-.167.617-.108.931.058.314.211.603.438.829a2.998 2.998 0 0 0 1.7.8 6.847 6.847 0 0 0 6.54-2.84c1.22-1.68 2.06-4.38 1.46-6.37a1.545 1.545 0 0 1-1.6 0ZM260.34 294.64c0 .21-.09.48.08.62.17.14.61-.12.81-.4a5.35 5.35 0 0 1 5.95-1.93c.81 0 1.09-1.25.56-1.86a2.9 2.9 0 0 0-2.24-.72 4.37 4.37 0 0 1-2.36-.39 2.337 2.337 0 0 1-1-2.52c-.51 2.41-1.14 4.8-1.8 7.2Z"/></g><path d="M301.06 256.49c-1.75-.23-3.6-.28-5.13-1.17-1.9-1.12-3.21-3.5-5.42-3.6-2-.09-3.43 1.71-4.54 3.33a6.064 6.064 0 0 1 1.097-3.426 6.064 6.064 0 0 1 2.843-2.204 9.782 9.782 0 0 1 7.15.28 26.818 26.818 0 0 1 6.2 3.87 8.287 8.287 0 0 1 2.1 2c2.47 3.93-2.76 1.13-4.3.92Z" fill="#80E895"/><path opacity=".5" d="M301.06 256.49c-1.75-.23-3.6-.28-5.13-1.17-1.9-1.12-3.21-3.5-5.42-3.6-2-.09-3.43 1.71-4.54 3.33a6.064 6.064 0 0 1 1.097-3.426 6.064 6.064 0 0 1 2.843-2.204 9.782 9.782 0 0 1 7.15.28 26.818 26.818 0 0 1 6.2 3.87 8.287 8.287 0 0 1 2.1 2c2.47 3.93-2.76 1.13-4.3.92Z" fill="#fff"/><path d="M269.78 313.28c.119-.218.225-.441.32-.67a.762.762 0 0 0-.32.67ZM272.75 297.79c-.2-2.46.15-4.94.05-7.41-.1-2.47-.75-5.07-2.55-6.77-2.58-2.43-9.65-1.19-7.28 3.43a3.003 3.003 0 0 0 3.67 1.37 2.671 2.671 0 0 0 1.25-3.61 12.808 12.808 0 0 1-.61 14.56 11.625 11.625 0 0 1 3.541 6.171 11.631 11.631 0 0 1-.721 7.079c.243-.166.531-.256.825-.256.294 0 .582.09.825.256a4.99 4.99 0 0 1 1.27 2.26c.35.81 1 1.65 1.88 1.59 1.2-2.95.81-6.3 0-9.38-.81-3.08-1.9-6.08-2.15-9.29ZM298.62 251.42a9.996 9.996 0 0 0-4.73-2l4.73 2ZM310.38 282.71c-.38-1.7-1.17-3.28-1.64-5-1.09-3.91-.4-8.09-.9-12.12a20.919 20.919 0 0 0-7.43-13.45l-1.79-.76a10.091 10.091 0 0 1 3.6 5.24c1.39 4.78 1.82 9.76 2.44 14.7a197.163 197.163 0 0 0 4.15 22.68c1.19-3.68 2.4-7.54 1.57-11.29ZM291.34 264.93a6.294 6.294 0 0 0 2.11-4.11 16.984 16.984 0 0 0-.11-4.22 1.401 1.401 0 0 1-1.58.95 3.551 3.551 0 0 1-1.89-1.72l-.36 1.25-.15-.68-.48.61c.71 2 1.4 4.33.3 6.16a7.238 7.238 0 0 1-2.25 2.08 3.798 3.798 0 0 0 4.41-.32Z" fill="#80E895"/><path d="m293.28 256.1.06.5a.804.804 0 0 0-.06-.5ZM288.05 276.34c-3.5-6.89-7-13.78-10.87-20.48a66.306 66.306 0 0 0-7.64-11.17c-1.34-1.49-5.16-4.95-7.27-2.67-1.41 1.52.44 4.28-1.29 5.93.4 0 2.35-.19 2.56.07a30.413 30.413 0 0 1 6.71 19.39c1.41-1.11 3.35.43 4.45 1.85a326.233 326.233 0 0 1 19 27.1c-1.14-4.13-1.17-8.52-2.39-12.62a45 45 0 0 0-3.26-7.4ZM328.79 293.13a43.815 43.815 0 0 0 3.13-13.84 22.645 22.645 0 0 0-3.14-12.53c-.58-.93-3-4.77-4.29-4.46-2.35.56.73 4.64 1.27 5.66 2 3.85 4.11 7.92 4 12.27-.1 3.35-1.51 6.5-2.64 9.65a20.783 20.783 0 0 0-1.41 6.86c-.17.26-.33.53-.52.77a10.274 10.274 0 0 1-6.28 4.15c1-3 1.93-6 2.9-9 .35-1.07.47-2.53-.15-3.27.207-.402.313-.848.31-1.3a6.608 6.608 0 0 0-.85-2.3c-1.34-2.88-.89-6.23-.56-9.39.4-3.9.55-7.91-.59-11.66-1.14-3.75-3.79-7.23-7.51-8.47l1 1-1.26-.92 2.34 4.88-.86 1.23c1.29-.68 2.94.3 3.53 1.63a8.581 8.581 0 0 1 .29 4.31 86.201 86.201 0 0 0 1.18 24.26 11.786 11.786 0 0 1-1.44 5.33 5.258 5.258 0 0 1-2.101 2.091 5.258 5.258 0 0 1-2.899.619 5.258 5.258 0 0 0-1.93-5.33c-2 2.8-.82 7.15-.52 10.34a112.422 112.422 0 0 0 2.33 14.36 46.408 46.408 0 0 1 2.55-12c1.08 3.947 2.167 7.897 3.26 11.85a7 7 0 0 1 .62-3.23 2.41 2.41 0 0 1 2.76-1.28c.398.216.749.51 1.032.864.284.354.494.76.618 1.196a36.75 36.75 0 0 1 2 21.63c1.34.75 3.12-.15 3.87-1.49a8.998 8.998 0 0 0 .71-4.5c-.273-13.313-.523-26.64-.75-39.98ZM294.89 297.36c-.64 1.12 2 5.58 2.41 6.64 2.2 5.38 4.403 10.763 6.61 16.15a76.454 76.454 0 0 0-5.12-20.68c-.45-1.11-2.63-4.34-3.9-2.11ZM298.31 268.84c-.38.57-.91 1.27-1.56 1.07-.65-.2-.72-1-.71-1.63.067-3.74.13-7.483.19-11.23-3 2.17-2.64 5-2.85 8.24-.12 1.87.42 10.8-.86 11.89a33.325 33.325 0 0 0 7.44-9.06c-.52-.43-1.28.15-1.65.72Z" fill="#80E895"/><g opacity=".5" fill="#fff"><path d="M269.78 313.28c.119-.218.225-.441.32-.67a.762.762 0 0 0-.32.67ZM272.75 297.79c-.2-2.46.15-4.94.05-7.41-.1-2.47-.75-5.07-2.55-6.77-2.58-2.43-9.65-1.19-7.28 3.43a3.003 3.003 0 0 0 3.67 1.37 2.671 2.671 0 0 0 1.25-3.61 12.808 12.808 0 0 1-.61 14.56 11.625 11.625 0 0 1 3.541 6.171 11.631 11.631 0 0 1-.721 7.079c.243-.166.531-.256.825-.256.294 0 .582.09.825.256a4.99 4.99 0 0 1 1.27 2.26c.35.81 1 1.65 1.88 1.59 1.2-2.95.81-6.3 0-9.38-.81-3.08-1.9-6.08-2.15-9.29ZM298.62 251.42a9.996 9.996 0 0 0-4.73-2l4.73 2ZM310.38 282.71c-.38-1.7-1.17-3.28-1.64-5-1.09-3.91-.4-8.09-.9-12.12a20.919 20.919 0 0 0-7.43-13.45l-1.79-.76a10.091 10.091 0 0 1 3.6 5.24c1.39 4.78 1.82 9.76 2.44 14.7a197.163 197.163 0 0 0 4.15 22.68c1.19-3.68 2.4-7.54 1.57-11.29ZM291.34 264.93a6.294 6.294 0 0 0 2.11-4.11 16.984 16.984 0 0 0-.11-4.22 1.401 1.401 0 0 1-1.58.95 3.551 3.551 0 0 1-1.89-1.72l-.36 1.25-.15-.68-.48.61c.71 2 1.4 4.33.3 6.16a7.238 7.238 0 0 1-2.25 2.08 3.798 3.798 0 0 0 4.41-.32Z"/><path d="m293.28 256.1.06.5a.804.804 0 0 0-.06-.5ZM288.05 276.34c-3.5-6.89-7-13.78-10.87-20.48a66.306 66.306 0 0 0-7.64-11.17c-1.34-1.49-5.16-4.95-7.27-2.67-1.41 1.52.44 4.28-1.29 5.93.4 0 2.35-.19 2.56.07a30.413 30.413 0 0 1 6.71 19.39c1.41-1.11 3.35.43 4.45 1.85a326.233 326.233 0 0 1 19 27.1c-1.14-4.13-1.17-8.52-2.39-12.62a45 45 0 0 0-3.26-7.4ZM328.79 293.13a43.815 43.815 0 0 0 3.13-13.84 22.645 22.645 0 0 0-3.14-12.53c-.58-.93-3-4.77-4.29-4.46-2.35.56.73 4.64 1.27 5.66 2 3.85 4.11 7.92 4 12.27-.1 3.35-1.51 6.5-2.64 9.65a20.783 20.783 0 0 0-1.41 6.86c-.17.26-.33.53-.52.77a10.274 10.274 0 0 1-6.28 4.15c1-3 1.93-6 2.9-9 .35-1.07.47-2.53-.15-3.27.207-.402.313-.848.31-1.3a6.608 6.608 0 0 0-.85-2.3c-1.34-2.88-.89-6.23-.56-9.39.4-3.9.55-7.91-.59-11.66-1.14-3.75-3.79-7.23-7.51-8.47l1 1-1.26-.92 2.34 4.88-.86 1.23c1.29-.68 2.94.3 3.53 1.63a8.581 8.581 0 0 1 .29 4.31 86.201 86.201 0 0 0 1.18 24.26 11.786 11.786 0 0 1-1.44 5.33 5.258 5.258 0 0 1-2.101 2.091 5.258 5.258 0 0 1-2.899.619 5.258 5.258 0 0 0-1.93-5.33c-2 2.8-.82 7.15-.52 10.34a112.422 112.422 0 0 0 2.33 14.36 46.408 46.408 0 0 1 2.55-12c1.08 3.947 2.167 7.897 3.26 11.85a7 7 0 0 1 .62-3.23 2.41 2.41 0 0 1 2.76-1.28c.398.216.749.51 1.032.864.284.354.494.76.618 1.196a36.75 36.75 0 0 1 2 21.63c1.34.75 3.12-.15 3.87-1.49a8.998 8.998 0 0 0 .71-4.5c-.273-13.313-.523-26.64-.75-39.98ZM294.89 297.36c-.64 1.12 2 5.58 2.41 6.64 2.2 5.38 4.403 10.763 6.61 16.15a76.454 76.454 0 0 0-5.12-20.68c-.45-1.11-2.63-4.34-3.9-2.11ZM298.31 268.84c-.38.57-.91 1.27-1.56 1.07-.65-.2-.72-1-.71-1.63.067-3.74.13-7.483.19-11.23-3 2.17-2.64 5-2.85 8.24-.12 1.87.42 10.8-.86 11.89a33.325 33.325 0 0 0 7.44-9.06c-.52-.43-1.28.15-1.65.72Z"/></g></g><path d="M261.57 294.09a12.765 12.765 0 0 0-2.93 3.29l2.93-3.29Z" fill="#fff"/><path d="m303.11 385.09-10.44-32.86c-9.8-10.09-27.8-19.32-29.36-33.3-2-17.94-4.77-17.21-4.77-21.67a54.436 54.436 0 0 0 2.76-6.8c.465-1.776.8-3.585 1-5.41a3.641 3.641 0 0 1 3.84-3.12 6.172 6.172 0 0 1 3.49 1.36 9.38 9.38 0 0 1 3 6.31 27.535 27.535 0 0 1-.53 7.12 45.979 45.979 0 0 1 3.83 12.18c.85-3.36 1.44-6.73 2.28-10.09.22-.13.12-.39.32-.53-1.72-3.12-.44-3-3.89-9.95-5.81-11.64-12.18-22.81-17.19-37.59a8.7 8.7 0 0 1-.19-4.24c1.17-4.39 5.66-3.7 7.76-1.32a8.509 8.509 0 0 1 1.35 2.09 114.445 114.445 0 0 0 10.77 17.78l12 15.83s3.58-3.35 4.07-4.78c.47-1.43 0-12.69 0-12.69s-.72 2.16-2.63 2.16c-1.38 0-4.12 1-6.26-1.12a5.21 5.21 0 0 1-.61-6.52l4.47-7a7.492 7.492 0 0 1 7.66-1.44 36.624 36.624 0 0 1 9.1 5.51 17.87 17.87 0 0 1 7.66 1c3.6 1.45 7.57 6 7.57 6s4.07 0 6 1.17c.48.3 7.32 9.54 5.58 17.2-1 4.57-1.41 11.13-1.89 12.91l-.12 44.21 8.26 29.3" stroke="#263238" stroke-miterlimit="10"/><path d="M306 256.59a78.736 78.736 0 0 1 2.72 20 10.818 10.818 0 0 0 .36 3.36 3.334 3.334 0 0 0 2.29 2.29M320.11 263.16c3 6.26-.07 20.25.15 21.23a3.523 3.523 0 0 0 1.69 2.4M294.33 255.74c-.35 2-.64 4.29-1 6.28a11.532 11.532 0 0 1-4-8M275.17 309.09 273 310M275.72 310.82a12.498 12.498 0 0 0 0 5.06M288.36 292.14c.8 1.43 1.59 2.87 2.39 4.31M293 276.36l2.38-3.36M326.43 292.14l-.72 2.63" stroke="#263238" stroke-miterlimit="10"/><path d="M320.61 284.93c.667-2.24 1.37-4.48 2.11-6.72M327.65 273a2.707 2.707 0 0 1 3.64 1.13M313.28 261.53a5.173 5.173 0 0 1 4.81 1.1M268.74 268.2a7.309 7.309 0 0 1 6.2-2.34M259.71 249.34a6.69 6.69 0 0 1 5-1.18M261.57 294.09a12.765 12.765 0 0 0-2.93 3.29M262.53 289.55c1.58-1.13 4.1 1.39 5.55.1a2.306 2.306 0 0 0 .49-2.16 7.51 7.51 0 0 1-.29-2.29M307.12 282.61a18.107 18.107 0 0 1 1.1 12.82M318.74 288.78a8.33 8.33 0 0 1-1 5.5" stroke="#263238" stroke-miterlimit="10"/><path opacity=".2" d="M222.05 303.79a6.06 6.06 0 0 1-.09 2.08c-.65 3-2.53 11.78-3.22 16.58-.82 5.86-10.29 24-10.29 24s-8.72 10.84-13.16 16.48c-2.18 2.77-5.63 14-8.56 24.66-3.7-1.12-7.367-2.327-11-3.62-3-1.07-6-2.2-9-3.37a146.927 146.927 0 0 1-15.62-7.6c1.66-6 2.77-10.67 2.75-10.94-.05-.63 3.56-7.58 3.56-7.58L154.27 313l-1.86-6.31a47.401 47.401 0 0 1-1.83-10 48.33 48.33 0 0 1 1.29-15.33l5.43-8.06 2.54-.19 7.86-11s4.25-1.28 5.34 1.92c1.09 3.2-3.54 9.18-3.54 9.18l-1.59 9.87 3.78 9.24 2 .72s.66-16.27.21-19.52l4.1-14.79a70.635 70.635 0 0 0 3.26-7.46c.76-2.49 5.23-5 7.8-.59a6.421 6.421 0 0 1 .4 5.27c-1.05 3.05-1.92 5.45-1.92 5.45s-1 12.58-1.25 12.93c-.25.35 1.85 18.73 1.85 18.73l1.64.73.58-17.55 3.41-16.49s-.28-7.93 5.31-7a4.318 4.318 0 0 1 4.11 2.56c1.49 2.85.07 21.83.07 21.83l1.38 19.62 2.21 15.13 2.6-10.37s.15-14.86 9.53-16.13c0 0 2.79-.5 3.36 1.44.57 1.94-1.39 5.9-1.11 9.7.25 2.7.63 5.71.82 7.26Z" fill="#000"/><path d="M219.2 285.42c-.43-2-3.24-1.69-3.24-1.69-9.45.56-10.72 15.37-10.72 15.37l-3.39 10.14-1-15.26.1-19.67s2.86-18.82 1.59-21.77a4.308 4.308 0 0 0-3.91-2.86c-5.5-1.38-5.82 6.55-5.82 6.55l-4.64 16.18-1.91 17.45-1.58-.84s-.75-18.52-.43-18.83c.32-.31 2.22-12.79 2.22-12.79s1.05-2.33 2.33-5.29a6.432 6.432 0 0 0 0-5.29c-2.23-4.54-6.87-2.42-7.83 0a70.36 70.36 0 0 1-3.8 7.19l-5.3 14.49c.2 3.28-1.68 19.46-1.68 19.46l-1.91-.87-3.07-9.5 2.34-9.73s5.07-5.6 4.22-8.88c-.85-3.28-5.18-2.32-5.18-2.32L157.88 267h-2.55l-6 7.61a48.271 48.271 0 0 0-1.38 25.29l1.38 6.43v41.56s-4.12 6.66-4.12 7.29c0 .29-1.7 5.54-4.07 12.09 10.37 6.1 19.3 10.82 25.63 13.31 3 1.18 6 2.3 9 3.37 3.8-10.67 8.24-22.08 10.69-24.75 4.86-5.28 14.38-15.44 14.38-15.44s10.81-17.37 12.08-23.14c1-4.74 3.58-13.35 4.46-16.3.205-.67.286-1.371.24-2.07-.07-1.56-.22-4.59-.22-7.26-.04-3.79 2.22-7.6 1.8-9.57Z" fill="#fff"/><mask id="b" style="mask-type:luminance" maskUnits="userSpaceOnUse" x="141" y="244" width="79" height="140"><path d="M219.2 285.42c-.43-2-3.24-1.69-3.24-1.69-9.45.56-10.72 15.37-10.72 15.37l-3.39 10.14-1-15.26.1-19.67s2.86-18.82 1.59-21.77a4.308 4.308 0 0 0-3.91-2.86c-5.5-1.38-5.82 6.55-5.82 6.55l-4.64 16.18-1.91 17.45-1.58-.84s-.75-18.52-.43-18.83c.32-.31 2.22-12.79 2.22-12.79s1.05-2.33 2.33-5.29a6.432 6.432 0 0 0 0-5.29c-2.23-4.54-6.87-2.42-7.83 0a70.36 70.36 0 0 1-3.8 7.19l-5.3 14.49c.2 3.28-1.68 19.46-1.68 19.46l-1.91-.87-3.07-9.5 2.34-9.73s5.07-5.6 4.22-8.88c-.85-3.28-5.18-2.32-5.18-2.32L157.88 267h-2.55l-6 7.61a48.271 48.271 0 0 0-1.38 25.29l1.38 6.43v41.56s-4.12 6.66-4.12 7.29c0 .29-1.7 5.54-4.07 12.09 10.37 6.1 19.3 10.82 25.63 13.31 3 1.18 6 2.3 9 3.37 3.8-10.67 8.24-22.08 10.69-24.75 4.86-5.28 14.38-15.44 14.38-15.44s10.81-17.37 12.08-23.14c1-4.74 3.58-13.35 4.46-16.3.205-.67.286-1.371.24-2.07-.07-1.56-.22-4.59-.22-7.26-.04-3.79 2.22-7.6 1.8-9.57Z" fill="#fff"/></mask><g mask="url(#b)"><path d="M154.3 281.24c1.62-2 4.94-2.79 6.82-1a7.167 7.167 0 0 1 1.71 4 8.523 8.523 0 0 0 1.51 4.12c1 1.13 2.89 1.57 3.9.49.14 2.19.27 4.38.41 6.57a26.046 26.046 0 0 0 3.44-13.42c0-2.27-.39-4.58.14-6.8.53-2.22 2.24-4.36 4.52-4.47 2.52-.11 4.51 2.34 5 4.82.49 2.48-.08 5-.23 7.54a22.943 22.943 0 0 0 2.16 11.21l1.59-3.22c.48 2.16 1 4.31 1.43 6.46l1.24-14.21c.034-1.344.33-2.669.87-3.9a3.457 3.457 0 0 1 3.21-2c1.8.18 2.84 2.1 3.44 3.8 4.51 12.75 2.65 26.74.74 40.12 1.25.23 2.31-1 2.62-2.27.141-1.26.365-2.509.67-3.74.47-1.19 1.91-2.16 3-1.48 1.58 1 .48 4.06 2.13 4.91a22.82 22.82 0 0 1 4.53-10.93c1.11-1.44 2.77-2.87 4.53-2.41a3.56 3.56 0 0 1 2.37 3c.19 1.34 2.13-4.2 1.79-2.89.76-7.71-.76-8.52 0-16.24.14-1.39 2.39-3.8 1.43-4.82-.96-1.02-3.63-2.4-4.84-1.84-1.21.56-5.13 2.52-5.91 3.59-4.92 6.79-4.58 16.61-6.11 24.85-1.31-12.56-2.6-25.33-.3-37.74 1.27-6.85 3.61-14 1.4-20.59-1-3-3.69-6-6.82-5.46-2.52.46-4 3-5.07 5.36-3.44 7.9-5 16.48-6.48 25l5.62-25.65a17.34 17.34 0 0 0 .58-6.74c-.41-2.24-1.94-4.43-4.16-4.9-2.22-.47-4.4.84-6.06 2.36-6 5.44-8.16 13.74-10.1 21.56.822-2 1.217-4.149 1.16-6.31-.21-2.14-1.57-4.32-3.67-4.79-2.73-.59-5.2 1.84-6.4 4.35-1.2 2.51-1.78 5.42-3.69 7.45-1.39-1.56-4-1.47-5.74-.31a11.084 11.084 0 0 0-3.65 5 46.512 46.512 0 0 0-3.87 22.48 8.233 8.233 0 0 1 8.21-4.68c-.2-1.7-.39-3.4-.59-5.11" fill="#80E895"/><path d="M160.89 297.51c-.09 1.26-.17 2.52-.26 3.78a1.822 1.822 0 0 1 2.77-.7 4.14 4.14 0 0 1 .63-2.34c.32-.76.35-1.84-.39-2.2-.74-.36-1.74.58-2.21 1.44 0-.31-.07-.62-.11-.94l-.43.96ZM175.23 295.25a8.846 8.846 0 0 0-2 4.18 4.308 4.308 0 0 1 1.47-1.08 1.482 1.482 0 0 1 1.66.38c.22.3.3.74.64.91a.79.79 0 0 0 1-.36c.174-.34.26-.718.25-1.1.091-.725.05-1.46-.12-2.17a2.103 2.103 0 0 0-1.44-1.51 1.303 1.303 0 0 0-1.393.595 1.314 1.314 0 0 0-.177.505l.11-.35ZM189.12 298.69a11.364 11.364 0 0 0-2.1 5 4.38 4.38 0 0 0 1.95-1.05 3.862 3.862 0 0 1 2-1 1.4 1.4 0 0 1 1.029.287 1.395 1.395 0 0 1 .521.933 9.439 9.439 0 0 1 .08-2.54 5.355 5.355 0 0 0-.18-2.52 2.128 2.128 0 0 0-1.93-1.42 1.334 1.334 0 0 0-1.043.603 1.338 1.338 0 0 0-.137 1.197l-.19.51ZM150.91 303.71a10.002 10.002 0 0 0-1.17 4.7 1.64 1.64 0 0 1 1.47-1.46 3.277 3.277 0 0 1 2.13.57c.201-.75.248-1.532.14-2.3a2 2 0 0 0-1.46-1.6c-.77-.12-1.61.61-1.4 1.35l-.23-.57.52-.69Z" fill="#80E895"/><path opacity=".5" d="M154.3 281.24c1.62-2 4.94-2.79 6.82-1a7.167 7.167 0 0 1 1.71 4 8.523 8.523 0 0 0 1.51 4.12c1 1.13 2.89 1.57 3.9.49.14 2.19.27 4.38.41 6.57a26.046 26.046 0 0 0 3.44-13.42c0-2.27-.39-4.58.14-6.8.53-2.22 2.24-4.36 4.52-4.47 2.52-.11 4.51 2.34 5 4.82.49 2.48-.08 5-.23 7.54a22.943 22.943 0 0 0 2.16 11.21l1.59-3.22c.48 2.16 1 4.31 1.43 6.46l1.24-14.21c.034-1.344.33-2.669.87-3.9a3.457 3.457 0 0 1 3.21-2c1.8.18 2.84 2.1 3.44 3.8 4.51 12.75 2.65 26.74.74 40.12 1.25.23 2.31-1 2.62-2.27.141-1.26.365-2.509.67-3.74.47-1.19 1.91-2.16 3-1.48 1.58 1 .48 4.06 2.13 4.91a22.82 22.82 0 0 1 4.53-10.93c1.11-1.44 2.77-2.87 4.53-2.41a3.56 3.56 0 0 1 2.37 3c.19 1.34 2.13-4.2 1.79-2.89.76-7.71-.76-8.52 0-16.24.14-1.39 2.39-3.8 1.43-4.82-.96-1.02-3.63-2.4-4.84-1.84-1.21.56-5.13 2.52-5.91 3.59-4.92 6.79-4.58 16.61-6.11 24.85-1.31-12.56-2.6-25.33-.3-37.74 1.27-6.85 3.61-14 1.4-20.59-1-3-3.69-6-6.82-5.46-2.52.46-4 3-5.07 5.36-3.44 7.9-5 16.48-6.48 25l5.62-25.65a17.34 17.34 0 0 0 .58-6.74c-.41-2.24-1.94-4.43-4.16-4.9-2.22-.47-4.4.84-6.06 2.36-6 5.44-8.16 13.74-10.1 21.56.822-2 1.217-4.149 1.16-6.31-.21-2.14-1.57-4.32-3.67-4.79-2.73-.59-5.2 1.84-6.4 4.35-1.2 2.51-1.78 5.42-3.69 7.45-1.39-1.56-4-1.47-5.74-.31a11.084 11.084 0 0 0-3.65 5 46.512 46.512 0 0 0-3.87 22.48 8.233 8.233 0 0 1 8.21-4.68c-.2-1.7-.39-3.4-.59-5.11" fill="#fff"/><g opacity=".5" fill="#fff"><path d="M160.89 297.51c-.09 1.26-.17 2.52-.26 3.78a1.813 1.813 0 0 1 1.215-1.021 1.81 1.81 0 0 1 1.555.321 4.14 4.14 0 0 1 .63-2.34c.32-.76.35-1.84-.39-2.2-.74-.36-1.74.58-2.21 1.44 0-.31-.07-.62-.11-.94l-.43.96ZM175.23 295.25a8.846 8.846 0 0 0-2 4.18 4.308 4.308 0 0 1 1.47-1.08 1.482 1.482 0 0 1 1.66.38c.22.3.3.74.64.91a.79.79 0 0 0 1-.36c.174-.34.26-.718.25-1.1.091-.725.05-1.46-.12-2.17a2.103 2.103 0 0 0-1.44-1.51 1.303 1.303 0 0 0-1.393.595 1.314 1.314 0 0 0-.177.505l.11-.35ZM189.12 298.69a11.364 11.364 0 0 0-2.1 5 4.38 4.38 0 0 0 1.95-1.05 3.862 3.862 0 0 1 2-1 1.4 1.4 0 0 1 1.029.287 1.395 1.395 0 0 1 .521.933 9.439 9.439 0 0 1 .08-2.54 5.355 5.355 0 0 0-.18-2.52 2.128 2.128 0 0 0-1.93-1.42 1.334 1.334 0 0 0-1.043.603 1.338 1.338 0 0 0-.137 1.197l-.19.51ZM150.91 303.71a10.002 10.002 0 0 0-1.17 4.7 1.64 1.64 0 0 1 1.47-1.46 3.277 3.277 0 0 1 2.13.57c.201-.75.248-1.532.14-2.3a2 2 0 0 0-1.46-1.6c-.77-.12-1.61.61-1.4 1.35l-.23-.57.52-.69Z"/></g></g><path d="M141.11 367.29c2.37-6.55 4.07-11.8 4.07-12.09 0-.63 4.12-7.29 4.12-7.29v-41.56l-1.38-6.43a48.271 48.271 0 0 1 1.38-25.29l6-7.61h2.55l8.66-10.36s4.34-1 5.18 2.32c.84 3.32-4.22 8.88-4.22 8.88l-2.34 9.73 3.07 9.5 1.91.87s1.88-16.18 1.68-19.46l5.3-14.49a70.36 70.36 0 0 0 3.8-7.19c1-2.42 5.6-4.54 7.83 0a6.432 6.432 0 0 1 0 5.29c-1.28 3-2.33 5.29-2.33 5.29s-1.9 12.47-2.22 12.79c-.32.32.43 18.83.43 18.83l1.58.84 1.91-17.45 4.64-16.18s.32-7.93 5.82-6.55a4.31 4.31 0 0 1 3.91 2.86c1.27 2.95-1.59 21.77-1.59 21.77L200.8 294l1 15.26 3.39-10.14s1.27-14.81 10.72-15.37c0 0 2.81-.29 3.24 1.69.43 1.98-1.84 5.78-1.84 9.59 0 2.67.15 5.7.22 7.26.046.699-.035 1.4-.24 2.07-.88 3-3.42 11.56-4.46 16.3-1.27 5.77-12.08 23.14-12.08 23.14s-9.52 10.16-14.38 15.44c-2.45 2.67-6.89 14.08-10.69 24.75" stroke="#263238" stroke-miterlimit="10"/><path d="M170 289.52a5.995 5.995 0 0 1-1.42 5.7" fill="#fff"/><path d="M170 289.52a5.995 5.995 0 0 1-1.42 5.7" stroke="#263238" stroke-miterlimit="10"/><path d="M153.84 303.5c1.37-2.12 2.71-5.05 2.34-7.55-.72-4.91-3-10.56-2-15.42.64-3.1 1.28-6.21 1.93-9.31" fill="#fff"/><path d="M153.84 303.5c1.37-2.12 2.71-5.05 2.34-7.55-.72-4.91-3-10.56-2-15.42.64-3.1 1.28-6.21 1.93-9.31M193.71 257.12a9.807 9.807 0 0 1 5 0c0-.47 0-.93.05-1.4M180.58 250.88a3.203 3.203 0 0 0 3.307.177 3.211 3.211 0 0 0 1.244-1.187 3.209 3.209 0 0 0 .449-1.66M216.72 285.59a6.135 6.135 0 0 0-4.59 6.33l2.45.74" stroke="#263238" stroke-miterlimit="10"/><path d="M184.54 286.81c.11 1.68-.1 5.69 0 7.37Z" fill="#fff"/><path d="M184.54 286.81c.11 1.68-.1 5.69 0 7.37" stroke="#263238" stroke-miterlimit="10"/><path d="M186.38 289.14c-.2 2.74-.403 5.487-.61 8.24v-1.05" fill="#fff"/><path d="M186.38 289.14c-.2 2.74-.403 5.487-.61 8.24v-1.05" stroke="#263238" stroke-miterlimit="10"/><path d="M201.64 312.31a13.742 13.742 0 0 1-.94 9.06Z" fill="#fff"/><path d="M201.64 312.31a13.742 13.742 0 0 1-.94 9.06M176.29 297.9c-2.18 2.39-1.86 8.13-.32 11.28M192.4 301.85a11.235 11.235 0 0 1-2.67 7.33M160.41 299a10.221 10.221 0 0 0 1.49 7M151.13 306.51a8.531 8.531 0 0 0 1.54 5.34M163.85 260.41a3.169 3.169 0 0 1 3.5.56l1.23-1.63M174.11 267.75a4.159 4.159 0 0 1 5.29.89M190.13 272.75a6.694 6.694 0 0 1 5.69.12M154.48 281.14a5.407 5.407 0 0 1 5.24-2.6M147.77 290.7a2.84 2.84 0 0 1 2.37-2.66" stroke="#263238" stroke-miterlimit="10"/><path d="M405.44 218.84c22.892 0 41.45-18.558 41.45-41.45 0-22.892-18.558-41.45-41.45-41.45-22.892 0-41.45 18.558-41.45 41.45 0 22.892 18.558 41.45 41.45 41.45Z" stroke="#263238" stroke-linecap="round" stroke-linejoin="round"/><path opacity=".2" d="M452.36 178.48c-8.84 14.49-12 12.53-42.12 27-15.31 7.34-30.1-16.23-20.09-40.42.49-1.18 4.81-7.15 4.81-7.15a22.08 22.08 0 0 1 38.58-9.12 23.84 23.84 0 0 1 21.18-5.06c.35 1 .68 2 1 3 .12.38.25.75.36 1.13.38 1.17.74 2.34 1.07 3.52.667 2.24 1.28 4.493 1.84 6.76a13.55 13.55 0 0 0-9.84.59c-2.21 1.08-4.06 2.86-6.36 3.74-2.3.88-5.48.38-6.36-1.92 1.11 4.62 6 3.24 10.62 4.15 7.2 1.39 9.03 7.68 5.31 13.78Z" fill="#000"/><path d="M438.75 171.33s7.42-1 10.94-.47a6.752 6.752 0 0 1 4.31 2.44c.302.381.48.845.51 1.33l.4 5.8a2.368 2.368 0 0 1-.64 1.79c-1.45 1.51-5.82 4.26-18.76 5.25-18.23 1.39 3.24-16.14 3.24-16.14Z" fill="#fff" stroke="#263238" stroke-linecap="round" stroke-linejoin="round"/><path d="M433.32 156.34A27.688 27.688 0 0 1 439.4 174c0 6.91-8 30.51-28.49 33.39-21.69 3-39.13-15.52-35.41-37.86 2.58-15.48 40.41-34.83 57.82-13.19Z" fill="#fff" stroke="#263238" stroke-linecap="round" stroke-linejoin="round"/><path d="M406.82 202.2c17.38 0 31.47-13.337 31.47-29.79 0-16.452-14.09-29.79-31.47-29.79s-31.47 13.338-31.47 29.79c0 16.453 14.09 29.79 31.47 29.79Z" fill="#fff"/><path d="M406.76 198.42c14.271 0 25.84-10.947 25.84-24.45s-11.569-24.45-25.84-24.45c-14.271 0-25.84 10.947-25.84 24.45s11.569 24.45 25.84 24.45Z" fill="#263238"/><path d="M438.29 172.41c0-16.45-14.09-29.78-31.47-29.78s-31.47 13.37-31.47 29.78M430 192.57a28.793 28.793 0 0 0 8.3-20.16M384.78 193.67a32.278 32.278 0 0 0 22 8.53 32.839 32.839 0 0 0 14.61-3.39M380.24 188.36c.41.62.85 1.22 1.3 1.8M375.35 172.41a28.395 28.395 0 0 0 3 12.71" stroke="#263238" stroke-linecap="round" stroke-linejoin="round"/><path d="M453 180.57s-5.61-3.93-14.72-.37Z" fill="#fff"/><path d="M453 180.57s-5.61-3.93-14.72-.37" stroke="#263238" stroke-linecap="round" stroke-linejoin="round"/><path d="M448.18 183.29a57.089 57.089 0 0 1-11.64 1.83Z" fill="#fff"/><path d="M448.18 183.29a57.089 57.089 0 0 1-11.64 1.83" stroke="#263238" stroke-linecap="round" stroke-linejoin="round"/><path d="M451.09 182.05c-.429.31-.9.556-1.4.73Z" fill="#fff"/><path d="M451.09 182.05c-.429.31-.9.556-1.4.73" stroke="#263238" stroke-linecap="round" stroke-linejoin="round"/><path d="M456.08 147.83c-.11-.38-.24-.75-.36-1.13-1.91-5.92-4.37-12.42-7.36-19.28-.55-1.27-1.13-2.56-1.71-3.86l-.67.06c-2.87.29-5.89.65-8.25 2.28-2.36 1.63-3.77 5.07-2.24 7.52 1.53 2.45 5.43 3.78 4.81 6.55-6.41 3.61-14.23 3.19-21.36 5A34.769 34.769 0 0 0 407 150.6a36.89 36.89 0 0 0-3.24 2.72c-.475.439-.917.914-1.32 1.42a4.896 4.896 0 0 0-1.13 2.54c-.25 2.67 2.18 4.49 4.77 5.65a.578.578 0 0 1 .368.54.577.577 0 0 1-.368.54 14.88 14.88 0 0 0-4.67 2.7 1.157 1.157 0 0 0-.261 1.381 1.156 1.156 0 0 0 1.261.619h.4a7.556 7.556 0 0 1 3 .36 3.632 3.632 0 0 1 2.71 2.86c.16 2-2.15 3.86-5.15 4.09-.73.07-.17.94.9 1.12 2.147.261 4.324.084 6.4-.52 2.51-.6 5.19-1.47 6.61-3.62a4.52 4.52 0 0 0 .6-3.18 3.219 3.219 0 0 0-2.66-2.92 87.466 87.466 0 0 0 13.72-2.75l1.41-.43a13.15 13.15 0 0 0 3.87-1.69 5.385 5.385 0 0 0 1.69-1.86c1-2-.43-5.19-2.65-4.77 6.45-2.53 13.27-4 19.79-6.34.95-.39 2.01-.79 3.03-1.23Z" fill="#fff"/><path opacity=".2" d="M406.64 61.33a127.004 127.004 0 0 1-19.9 14c-36.41 21.54-77.54 34.44-119.38 40.73-41.84 6.29-84.44 6.1-126.6 2.63-8.28-.68-16.7-1.52-24.31-4.86-6.45-2.84-12.3-7.78-15-14.17 9.13-10.4 17.62-20.92 27.07-30.85 2.253-2.367 4.56-4.7 6.92-7 2-1.91 4-3.79 6.14-5.63C144 54.11 146.43 52 149 50c3.55-2.76 7.29-5.41 11.29-7.94 1-.63 2-1.24 2.93-1.84 99.71-62 173.1-41.74 222.06 0A236.363 236.363 0 0 1 396 50c2.08 2 4.09 4.09 6 6.19.22.22.42.45.63.69 1.38 1.487 2.717 2.97 4.01 4.45Z" fill="#000"/><path d="M410.58 51.39 75.11 52.92l5.07-7.61a13.17 13.17 0 0 1 10.94-5.85h303.56a13.14 13.14 0 0 1 10.24 4.91l5.66 7.02Z" fill="#fff" stroke="#263238" stroke-linecap="round" stroke-linejoin="round"/><path d="M248.69 101.67h-18.38c-18.861 0-34.15 15.29-34.15 34.15v18.38c0 18.861 15.289 34.15 34.15 34.15h18.38c18.86 0 34.15-15.289 34.15-34.15v-18.38c0-18.86-15.29-34.15-34.15-34.15Z" fill="#757575" stroke="#263238" stroke-linecap="round" stroke-linejoin="round"/><path d="M211.91 152.34v12.32a6.999 6.999 0 0 0 7 7h42.27a6.998 6.998 0 0 0 7-6.95c.05-5.55.35-12.37.35-12.37h-56.62Z" fill="#999" stroke="#263238" stroke-linecap="round" stroke-linejoin="round"/><path d="M366.62 156.45H119.41a6.33 6.33 0 0 1-5.9-4L75.38 54.56A3.9 3.9 0 0 1 79 49.24h328a3.902 3.902 0 0 1 3.64 5.32l-38.13 97.86a6.332 6.332 0 0 1-5.89 4.03Z" fill="#BFBFBF" stroke="#263238" stroke-linecap="round" stroke-linejoin="round"/><path d="M368.45 147.93H116.98l-34.6-92.49h320.51l-34.44 92.49ZM268.24 156.32h-56.06v3.84h56.06v-3.84Z" fill="#263238"/><path d="M331.72 144H154.14c-1 0-1.9-.44-2.08-1L126.8 62.71c-.28-.9.51-1.63 1.77-1.63h228.72c1.26 0 2 .73 1.76 1.63L333.8 143c-.18.51-1.11 1-2.08 1Z" fill="#80E895"/><path d="M331.06 142.13H154.8l-21.47-70.51h219.2l-21.47 70.51Z" fill="#263238"/><path d="M180.1 89.13h-33.37c-.83 0-1.37.44-1.21 1a1.81 1.81 0 0 0 1.76 1h33.18c.82 0 1.4-.44 1.31-1-.09-.56-.85-1-1.67-1ZM181.21 95.22h-28.38c-.81 0-1.35.43-1.2 1a1.77 1.77 0 0 0 1.71.95h28.22c.81 0 1.38-.43 1.29-.95-.09-.52-.85-1-1.64-1Z" fill="#fff"/><path opacity=".5" d="M182.29 101.1h-32.2c-.8 0-1.32.42-1.18.92a1.76 1.76 0 0 0 1.7.92h32c.79 0 1.36-.41 1.27-.92-.09-.51-.79-.92-1.59-.92Z" fill="#fff"/><path d="M183.33 106.78h-18.91c-.78 0-1.32.4-1.2.89.12.49.85.89 1.63.89h18.81c.78 0 1.34-.4 1.25-.89-.09-.49-.8-.89-1.58-.89ZM184.34 112.26h-31.12c-.76 0-1.28.39-1.14.87.14.48.86.85 1.63.85h30.94c.77 0 1.32-.38 1.24-.85-.08-.47-.78-.87-1.55-.87ZM185.31 117.57h-25.12c-.76 0-1.27.37-1.15.83.12.46.83.83 1.58.83h25c.75 0 1.29-.37 1.21-.83-.08-.46-.76-.83-1.52-.83ZM186.25 122.7h-24.71c-.75 0-1.25.36-1.13.8.12.44.81.81 1.55.81h24.59c.74 0 1.27-.36 1.19-.81-.08-.45-.74-.8-1.49-.8ZM187.16 127.66h-27c-.73 0-1.23.35-1.11.78.12.43.8.78 1.53.78h26.83c.73 0 1.26-.35 1.18-.78-.08-.43-.69-.78-1.43-.78Z" fill="#fff"/><path opacity=".5" d="M188.05 132.47h-17.42c-.72 0-1.22.34-1.12.76.1.42.77.75 1.48.75h17.33c.72 0 1.24-.34 1.17-.75-.07-.41-.72-.76-1.44-.76ZM178.94 82.81h-24.87c-.84 0-1.4.46-1.25 1a1.8 1.8 0 0 0 1.77 1h24.72c.84 0 1.43-.45 1.33-1a1.658 1.658 0 0 0-1.7-1Z" fill="#fff"/><path d="M177.73 76.26h-34.62c-.85 0-1.41.48-1.24 1.07a1.918 1.918 0 0 0 1.84 1.06h34.41c.85 0 1.46-.48 1.35-1.06a1.693 1.693 0 0 0-1.74-1.07ZM188.9 137.13h-28.69c-.71 0-1.19.33-1.08.73.11.4.78.73 1.49.73h28.55c.7 0 1.22-.32 1.15-.73-.07-.41-.71-.73-1.42-.73Z" fill="#fff"/><path opacity=".5" d="M191.82 91.35h6.47l-.32-2.47h-6.52l.37 2.47ZM192.72 97.37h6.36l-.31-2.39h-6.41l.36 2.39ZM193.59 103.17h6.25l-.3-2.3h-6.29l.34 2.3ZM194.43 108.78h6.15l-.3-2.22h-6.18l.33 2.22ZM195.25 114.2h6.04l-.29-2.15h-6.07l.32 2.15ZM196.03 119.44h5.94l-.27-2.08h-5.98l.31 2.08ZM196.8 124.51h5.84l-.26-2.01h-5.88l.3 2.01ZM197.53 129.41h5.75l-.25-1.94h-5.79l.29 1.94ZM198.25 134.17h5.66l-.25-1.89h-5.7l.29 1.89ZM190.88 85.12h6.59l-.33-2.56h-6.64l.38 2.56ZM189.91 78.65h6.71l-.34-2.66h-6.77l.4 2.66ZM198.94 138.78h5.57l-.24-1.83h-5.61l.28 1.83Z" fill="#fff"/><path d="M233.05 128.44c0-.43.56-.78 1.29-.78h95.82c.73 0 1.22.35 1.1.78a1.62 1.62 0 0 1-1.54.78h-95.33c-.73 0-1.33-.35-1.34-.78ZM331.13 124.31h-53.06c-.74 0-1.3-.36-1.25-.81.05-.45.69-.8 1.44-.8h53.33c.74 0 1.24.36 1.11.8a1.627 1.627 0 0 1-1.57.81Z" fill="#fff"/><path opacity=".5" d="M265.48 124.31H249c-.74 0-1.34-.36-1.33-.81.01-.45.61-.8 1.36-.8h16.57c.74 0 1.32.36 1.28.8-.04.44-.66.81-1.4.81Z" fill="#fff"/><path d="M299.92 119.23h-74.84c-.75 0-1.38-.37-1.41-.83-.03-.46.56-.83 1.32-.83h75.24c.75 0 1.3.37 1.21.83-.09.46-.76.83-1.52.83Z" fill="#fff"/><path opacity=".5" d="M209.43 117.57h5.34c.75 0 1.4.37 1.44.83.04.46-.54.83-1.29.83h-5.31c-.75 0-1.4-.37-1.45-.83-.05-.46.52-.83 1.27-.83Z" fill="#fff"/><path d="M310.75 113.13c-.1.47-.8.85-1.57.85h-70.52c-.77 0-1.39-.38-1.4-.85-.01-.47.61-.87 1.37-.87h70.91c.77 0 1.31.39 1.21.87ZM208.87 112.26h20c.77 0 1.41.39 1.43.87.02.48-.59.85-1.35.85h-19.9c-.76 0-1.42-.38-1.48-.85-.06-.47.53-.87 1.3-.87ZM208.28 106.78h76.94c.78 0 1.36.4 1.29.89-.07.49-.75.89-1.53.89h-76.51c-.77 0-1.45-.4-1.5-.89-.05-.49.53-.89 1.31-.89ZM258.23 102.94c-.79 0-1.41-.41-1.39-.92.02-.51.68-.92 1.48-.92h40.59c.8 0 1.37.42 1.28.92-.09.5-.8.92-1.59.92h-40.37ZM207.68 101.1h35.13c.8 0 1.44.42 1.44.92s-.65.92-1.44.92h-34.93c-.8 0-1.48-.41-1.54-.92-.06-.51.54-.92 1.34-.92ZM338.93 97.13h-96.71c-.8 0-1.46-.43-1.46-.95s.65-1 1.46-1h97.25c.81 0 1.34.43 1.19 1a1.807 1.807 0 0 1-1.73.95ZM340.65 91.11h-85.09c-.82 0-1.47-.44-1.45-1 .02-.56.7-1 1.52-1h85.59c.82 0 1.36.44 1.2 1a1.829 1.829 0 0 1-1.77 1Z" fill="#fff"/><path opacity=".5" d="M342.45 84.86h-17.82c-.84 0-1.41-.45-1.28-1a1.769 1.769 0 0 1 1.76-1H343c.84 0 1.39.46 1.22 1a1.86 1.86 0 0 1-1.77 1Z" fill="#fff"/><path d="M312.16 84.86h-65.43c-.83 0-1.51-.45-1.5-1 .01-.55.68-1 1.52-1h65.82c.84 0 1.42.46 1.31 1a1.71 1.71 0 0 1-1.72 1ZM211 132.47h60.43c.72 0 1.27.34 1.22.76-.05.42-.65.75-1.37.75h-60.09c-.72 0-1.34-.34-1.39-.75-.05-.41.5-.76 1.2-.76ZM211.52 137.13h92.84c.7 0 1.21.33 1.12.73-.09.4-.72.73-1.43.73h-92.37c-.71 0-1.32-.32-1.36-.73-.04-.41.49-.73 1.2-.73ZM308.91 78.39h-47.26c-.85 0-1.51-.48-1.48-1.06.03-.58.74-1.07 1.6-1.07h47.54c.86 0 1.46.48 1.35 1.07a1.735 1.735 0 0 1-1.75 1.06Z" fill="#fff"/><path opacity=".5" d="M248.25 78.39h-43c-.85 0-1.6-.48-1.66-1.06-.06-.58.57-1.07 1.43-1.07h43.25c.85 0 1.54.48 1.53 1.07-.01.59-.7 1.06-1.55 1.06ZM284.85 132.47c.72 0 1.26.34 1.2.76-.06.42-.69.75-1.41.75H280c-.71 0-1.25-.34-1.2-.75.05-.41.67-.76 1.39-.76h4.66ZM227.54 128.44c0 .43-.55.78-1.28.78h-6.36c-.73 0-1.35-.35-1.38-.78-.03-.43.53-.78 1.26-.78h6.39c.73 0 1.35.34 1.37.78ZM304.29 107.67c-.09.49-.8.89-1.57.89h-7.44c-.78 0-1.34-.4-1.27-.89.07-.49.78-.89 1.56-.89h7.48c.78 0 1.34.4 1.24.89ZM327.5 112.26c.77 0 1.29.39 1.16.87a1.657 1.657 0 0 1-1.61.85h-5.93c-.77 0-1.29-.38-1.18-.85a1.62 1.62 0 0 1 1.6-.87h5.96ZM230.51 97.13c-.8 0-1.47-.43-1.5-.95-.03-.52.62-1 1.43-1h6.31c.81 0 1.47.43 1.48 1 .01.57-.64.95-1.44.95h-6.28Z" fill="#fff"/><path d="M144.57 66.34a2.123 2.123 0 0 1-.197 2.097 2.12 2.12 0 0 1-1.903.903 4.441 4.441 0 0 1-3.94-3 2.135 2.135 0 0 1 .192-2.088 2.127 2.127 0 0 1 1.888-.912 4.418 4.418 0 0 1 3.96 3ZM152.71 66.39a2.197 2.197 0 0 1-.273 2.106 2.203 2.203 0 0 1-1.927.894 4.268 4.268 0 0 1-3.84-3 2.213 2.213 0 0 1 1.112-2.788 2.21 2.21 0 0 1 1.068-.212 4.24 4.24 0 0 1 3.86 3ZM160.94 66.34a2.266 2.266 0 0 1-1.206 2.8 2.27 2.27 0 0 1-1.084.2 4.091 4.091 0 0 1-3.75-3 2.271 2.271 0 0 1-.087-1.094 2.27 2.27 0 0 1 1.289-1.697 2.28 2.28 0 0 1 1.078-.209 4.057 4.057 0 0 1 3.76 3Z" fill="#fff"/><path opacity=".1" d="m82.38 55.44 26.95 72.03 32.51-72.03H82.38ZM127.85 147.93l53.93-92.49h56.45l-79.37 92.49h-31.01ZM262.56 54.98l-84.06 92.95h12.95l87.07-92.49-15.96-.46ZM279.16 147.93l92.38-92.49h13.04l-95.25 92.49h-10.17Z" fill="#fff"/><path d="M153.9 188.07h-21.09a5.001 5.001 0 0 0-5 5v10.26c0 1.326.527 2.598 1.464 3.536a5.004 5.004 0 0 0 3.536 1.464h5.51l4.18 9.47 5.89-9.47h5.51a5.004 5.004 0 0 0 3.536-1.464 5.004 5.004 0 0 0 1.464-3.536V193a5 5 0 0 0-5-4.93Z" fill="#fff" stroke="#263238" stroke-linecap="round" stroke-linejoin="round"/><path d="M140.42 193.94a.997.997 0 0 1 1-1 .998.998 0 0 1 1 .93.997.997 0 0 1-1 1 .998.998 0 0 1-1-.93Zm.22 2.09h1.61v6.86h-1.61v-6.86ZM146.12 195.67v.41H148v1.29h-1.83v5.52h-1.61v-5.52h-1.13v-1.29h1.13v-.43a2.229 2.229 0 0 1 .666-1.765 2.216 2.216 0 0 1 1.784-.615 2.644 2.644 0 0 1 1.46.37l-.45 1.21a1.59 1.59 0 0 0-.89-.28c-.66 0-1.01.37-1.01 1.1Z" fill="#263238"/><path d="M218.12 189.5H197a5.004 5.004 0 0 0-3.536 1.464A5.004 5.004 0 0 0 192 194.5v10.27c0 1.326.527 2.598 1.464 3.536A5.004 5.004 0 0 0 197 209.77h5.52l4.17 9.47 5.89-9.47h5.52a5.004 5.004 0 0 0 3.536-1.464 5.004 5.004 0 0 0 1.464-3.536v-10.31a5.003 5.003 0 0 0-4.98-4.96Z" fill="#fff" stroke="#263238" stroke-linecap="round" stroke-linejoin="round"/><path d="M201.46 201.41h-5.39a2.079 2.079 0 0 0 2.23 1.65 2.46 2.46 0 0 0 1.86-.75l.86 1a3.855 3.855 0 0 1-4.039.885 3.854 3.854 0 0 1-2.511-3.285 3.42 3.42 0 0 1 1.007-2.524 3.41 3.41 0 0 1 2.533-.986 3.336 3.336 0 0 1 3.268 2.176c.163.439.232.907.202 1.374 0 .12-.01.31-.02.46Zm-5.4-1.06H200a1.86 1.86 0 0 0-1.94-1.67 1.891 1.891 0 0 0-2 1.67ZM203 194.8h1.6v9.53H203v-9.53ZM206 203.65l.61-1.22c.72.441 1.546.676 2.39.68 1 0 1.44-.28 1.44-.76 0-1.31-4.24-.08-4.24-2.81 0-1.3 1.17-2.15 3-2.15a5.509 5.509 0 0 1 2.57.59l-.62 1.22a3.78 3.78 0 0 0-2-.51c-1 0-1.44.32-1.44.77 0 1.39 4.24.15 4.24 2.84 0 1.28-1.18 2.12-3.11 2.12a5.397 5.397 0 0 1-2.84-.77ZM219.77 201.41h-5.39a2.079 2.079 0 0 0 2.23 1.65 2.46 2.46 0 0 0 1.86-.75l.86 1a3.855 3.855 0 0 1-4.039.885 3.854 3.854 0 0 1-2.511-3.285 3.42 3.42 0 0 1 1.007-2.524 3.41 3.41 0 0 1 2.533-.986 3.336 3.336 0 0 1 3.268 2.176c.163.439.232.907.202 1.374 0 .12-.01.31-.02.46Zm-5.4-1.06h3.89a1.86 1.86 0 0 0-1.94-1.67 1.893 1.893 0 0 0-1.95 1.67Z" fill="#263238"/><path d="M280.38 188.9h-21.1a5 5 0 0 0-5 4.95v10.27a5.001 5.001 0 0 0 5 5h5.52l4.17 9.47 5.89-9.47h5.52a5.004 5.004 0 0 0 3.536-1.464 5.004 5.004 0 0 0 1.464-3.536v-10.27a5 5 0 0 0-5-4.95Z" fill="#fff" stroke="#263238" stroke-linecap="round" stroke-linejoin="round"/><path d="M264.12 196.5v.41H266v1.29h-1.84v5.52h-1.6v-5.52h-1.13v-1.29h1.13v-.43a2.215 2.215 0 0 1 .663-1.761A2.224 2.224 0 0 1 265 194.1a2.54 2.54 0 0 1 1.45.37l-.45 1.21a1.541 1.541 0 0 0-.88-.28c-.65 0-1 .37-1 1.1ZM266.42 200.29a3.66 3.66 0 1 1 3.65 3.52 3.464 3.464 0 0 1-3.388-2.132 3.455 3.455 0 0 1-.262-1.388Zm5.69 0a2 2 0 1 0-3.99.3 2 2 0 0 0 3.99-.3ZM279.23 196.78v1.53a2.539 2.539 0 0 0-.37 0 1.879 1.879 0 0 0-1.508.581 1.86 1.86 0 0 0-.492 1.539v3.33h-1.61v-6.86h1.53v1a2.712 2.712 0 0 1 2.45-1.12Z" fill="#263238"/><path d="M341.74 188.07h-21.1a5.001 5.001 0 0 0-5 5v10.26c0 1.326.527 2.598 1.464 3.536a5.004 5.004 0 0 0 3.536 1.464h5.52l4.17 9.47 5.89-9.47h5.52a5.004 5.004 0 0 0 3.536-1.464 5.004 5.004 0 0 0 1.464-3.536V193a5 5 0 0 0-5-4.93Z" fill="#fff" stroke="#263238" stroke-linecap="round" stroke-linejoin="round"/><path d="M328.45 195.69h5.92V197h-5.92v-1.31Zm0 3.11h5.92v1.29h-5.92v-1.29Z" fill="#263238"/><path d="M186.06 176.19H165a5.001 5.001 0 0 0-5 5v10.26c0 1.326.527 2.598 1.464 3.536A5.004 5.004 0 0 0 165 196.45h5.52l4.17 9.47 5.89-9.47h5.52a5.004 5.004 0 0 0 3.536-1.464 5.004 5.004 0 0 0 1.464-3.536v-10.3a4.992 4.992 0 0 0-1.493-3.524 5.007 5.007 0 0 0-3.547-1.436Z" fill="#fff" stroke="#263238" stroke-linecap="round" stroke-linejoin="round"/><path d="M170.55 180.45h3.07v1.29h-1.47v9.45h1.47v1.29h-3.07v-12.03ZM177.6 192.48v-1.29h1.45v-9.45h-1.45v-1.29h3.05v12l-3.05.03Z" fill="#263238"/><path d="M248.78 175.14h-21.1a5.004 5.004 0 0 0-3.536 1.464 5.004 5.004 0 0 0-1.464 3.536v10.26c0 1.326.527 2.598 1.464 3.536a5.004 5.004 0 0 0 3.536 1.464h5.52l4.18 9.47 5.89-9.47h5.51a5.004 5.004 0 0 0 3.536-1.464 5.004 5.004 0 0 0 1.464-3.536v-10.3a5.001 5.001 0 0 0-5-4.96Z" fill="#fff" stroke="#263238" stroke-linecap="round" stroke-linejoin="round"/><path d="M233.94 185.38c.51.16.76.51.76 1.31v2.44a.862.862 0 0 0 .59.975c.132.041.273.05.41.025h.27v1.29h-.65a1.911 1.911 0 0 1-2.18-2.1v-2.64c0-.43-.22-.62-.58-.62h-.42v-1.31h.42c.36 0 .58-.19.58-.62v-2.64a1.92 1.92 0 0 1 .573-1.586 1.91 1.91 0 0 1 1.607-.514h.65v1.29h-.27a.862.862 0 0 0-.975.59.862.862 0 0 0-.025.41v2.44c0 .74-.25 1.09-.76 1.26ZM243.74 184.72V186h-.44c-.35 0-.57.19-.57.62v2.64a1.904 1.904 0 0 1-.576 1.591 1.91 1.91 0 0 1-1.614.509h-.65v-1.26h.27a.869.869 0 0 0 1-1v-2.44c0-.8.23-1.15.74-1.31-.51-.17-.74-.52-.74-1.32v-2.44a.869.869 0 0 0-1-1h-.27v-1.29h.65a1.91 1.91 0 0 1 2.19 2.1v2.64c0 .43.22.62.57.62l.44.06Z" fill="#263238"/><path d="M310.84 173.06h-21.1a5.001 5.001 0 0 0-5 5v10.26c0 1.326.527 2.598 1.464 3.536a5.004 5.004 0 0 0 3.536 1.464h5.51l4.18 9.47 5.89-9.47h5.52a5.004 5.004 0 0 0 3.536-1.464 5.004 5.004 0 0 0 1.464-3.536V178a5.002 5.002 0 0 0-5-4.94Z" fill="#fff" stroke="#263238" stroke-linecap="round" stroke-linejoin="round"/><path d="M299.45 180.66a1.057 1.057 0 0 1 .626-1.072 1.056 1.056 0 0 1 1.214.257 1.056 1.056 0 0 1 .27.815 1.057 1.057 0 0 1-.626 1.072 1.056 1.056 0 0 1-1.214-.257 1.048 1.048 0 0 1-.27-.815Zm2.11 4.89a3.001 3.001 0 0 1-.3 1.11l-.66 1.81h-1l.52-2a.993.993 0 0 1-.61-.95 1.045 1.045 0 1 1 2.09 0l-.04.03Z" fill="#263238"/><path d="M228.36 352.5h21.09a5.004 5.004 0 0 0 3.536-1.464 5.004 5.004 0 0 0 1.464-3.536v-10.22a5 5 0 0 0-5-5h-5.51l-1.61-9.47-8.46 9.47h-5.51a5.001 5.001 0 0 0-5 5v10.26a5.001 5.001 0 0 0 5 4.96Z" fill="#fff" stroke="#263238" stroke-linecap="round" stroke-linejoin="round"/><path d="m235.77 340.3-4.43 1.7 4.43 1.65V345l-5.92-2.3v-1.39l5.92-2.3v1.29ZM240.45 335.63h1.43l-4.24 12.11h-1.43l4.24-12.11ZM248.11 341.26v1.39l-5.92 2.3v-1.34l4.43-1.65-4.43-1.66V339l5.92 2.26Z" fill="#263238"/><path d="M94.24 277.75h21.09a5 5 0 0 0 5-4.95v-10.27a5 5 0 0 0-5-5h-5.51l1.2-9.47-11.27 9.47h-5.51a4.999 4.999 0 0 0-5 5v10.27a5 5 0 0 0 5 4.95Z" fill="#fff" stroke="#263238" stroke-linecap="round" stroke-linejoin="round"/><path d="M100.49 271.25a.997.997 0 0 1 1-1 .997.997 0 0 1 1 1 .997.997 0 0 1-1 1 .997.997 0 0 1-1-1Zm.09-8.09h1.9l-.32 6h-1.27l-.31-6ZM104.14 265.46h5.92v1.29h-5.92v-1.29Zm0 3.11h5.92v1.29h-5.92v-1.29Z" fill="#263238"/><path d="M432 266.12a71.853 71.853 0 0 1-1 11.86c-2.9 17.31-12 29.93-22.76 29.93-.961.001-1.92-.1-2.86-.3-11.75-2.49-20.86-20.11-20.86-41.49 0-23.08 10.62-31.25 23.72-31.25S432 243 432 266.12Z" fill="#fff"/><mask id="c" style="mask-type:luminance" maskUnits="userSpaceOnUse" x="384" y="234" width="48" height="74"><path d="M432 266.12a71.853 71.853 0 0 1-1 11.86c-2.9 17.31-12 29.93-22.76 29.93-.961.001-1.92-.1-2.86-.3-11.75-2.49-20.86-20.11-20.86-41.49 0-23.08 10.62-31.25 23.72-31.25S432 243 432 266.12Z" fill="#fff"/></mask><g mask="url(#c)"><path d="M423.43 266.38c.88 12.38-1.24 24.82-4.81 36.71 8.94-7.34 13.05-18.88 16.77-29.83 2.7-7.95 5.43-16.15 4.94-24.53-.49-8.38-5-17.11-12.84-20a17.132 17.132 0 0 0-12.13.19c-6.59 2.65-3 4.79-.21 9.53a64.588 64.588 0 0 1 8.28 27.93Z" fill="#80E895"/><path opacity=".5" d="M423.43 266.38c.88 12.38-1.24 24.82-4.81 36.71 8.94-7.34 13.05-18.88 16.77-29.83 2.7-7.95 5.43-16.15 4.94-24.53-.49-8.38-5-17.11-12.84-20a17.132 17.132 0 0 0-12.13.19c-6.59 2.65-3 4.79-.21 9.53a64.588 64.588 0 0 1 8.28 27.93Z" fill="#fff"/></g><path d="M432 266.12a71.853 71.853 0 0 1-1 11.86c-2.9 17.31-12 29.93-22.76 29.93-.961.001-1.92-.1-2.86-.3-11.75-2.49-20.86-20.11-20.86-41.49 0-23.08 10.62-31.25 23.72-31.25S432 243 432 266.12Z" stroke="#263238" stroke-miterlimit="10"/><path d="M421.05 287.35a40.995 40.995 0 0 1-7.79 14.6Z" fill="#fff"/><path d="M421.05 287.35a40.995 40.995 0 0 1-7.79 14.6M421.8 284.45c-.12.56-.26 1.12-.41 1.68" stroke="#263238" stroke-miterlimit="10"/><path d="M421.74 266.06a40.768 40.768 0 0 1 .47 16.28Z" fill="#fff"/><path d="M421.74 266.06a40.768 40.768 0 0 1 .47 16.28" stroke="#263238" stroke-miterlimit="10"/><path d="M384.57 266.12s27-10.66 47.46 0" stroke="#263238" stroke-miterlimit="10"/><path d="M408.3 234.87s2.7 10 3 26.27Z" fill="#fff"/><path d="M408.3 234.87s2.7 10 3 26.27" stroke="#263238" stroke-miterlimit="10"/><path d="M412.07 247c.34 3.11-.2 5.75-1.21 5.91-1.01.16-2.11-2.23-2.45-5.33-.34-3.1.19-5.76 1.2-5.92 1.01-.16 2.11 2.27 2.46 5.34Z" fill="#BFBFBF" stroke="#263238" stroke-linecap="round" stroke-linejoin="round"/><path d="M397.66 315.91H366a7.75 7.75 0 0 1-7.69-6.71 5.333 5.333 0 0 1-.09-1.07v-74.59a5.586 5.586 0 0 1 .09-1.08 7.743 7.743 0 0 1 7.69-6.7h89.72a7.663 7.663 0 0 1 3.73 1" stroke="#263238" stroke-miterlimit="10"/></svg>