<svg width="809" height="621" fill="none" xmlns="http://www.w3.org/2000/svg"><g opacity=".08"><path fill="#fff" d="M0 0h809v621H0z"/><path d="M59.064 86.75c0-.3.1-.5.2-.7.4-.8 1.4-1 2.1-.6l16 8.8 16.8-9.2 16.8 9.1 16.8-9.2 16.8 9.2 16.8-9.2 17.5 9.6c.8.4 1 1.4.6 2.1-.4.8-1.4 1-2.1.6l-16-8.8-16.8 9.2-16.8-9.2-16.8 9.2-16.8-9.2-16.8 9.2-17.5-9.5c-.6-.3-.8-.8-.8-1.4ZM59.064 72.95c0-.3.1-.5.2-.7.4-.8 1.4-1 2.1-.6l16 8.8 16.8-9.2 16.8 9.2 16.8-9.2 16.8 9.2 16.8-9.2 17.5 9.6c.8.4 1 1.4.6 2.1-.4.8-1.4 1-2.1.6l-16-8.8-16.8 9.2-16.8-9.2-16.8 9.2-16.8-9.2-16.8 9.2-17.5-9.6c-.6-.3-.8-.8-.8-1.4ZM59.064 59.15c0-.3.1-.5.2-.7.4-.8 1.4-1 2.1-.6l16 8.8 16.8-9.2 16.8 9.2 16.8-9.2 16.8 9.2 16.8-9.2 17.5 9.6c.8.4 1 1.4.6 2.1-.4.8-1.4 1-2.1.6l-16-8.8-16.8 9.2-16.8-9.2-16.8 9.2-16.8-9.2-16.8 9.2-17.5-9.6c-.6-.3-.8-.8-.8-1.4ZM59.064 45.35c0-.3.1-.5.2-.7.4-.8 1.4-1 2.1-.6l16 8.8 16.8-9.2 16.8 9.2 16.8-9.2 16.8 9.2 16.8-9.2 17.5 9.6c.8.4 1 1.4.6 2.1-.4.8-1.4 1-2.1.6l-16-8.8-16.8 9.2-16.8-9.2-16.8 9.2-16.8-9.2-16.8 9.2-17.5-9.6c-.6-.3-.8-.8-.8-1.4Z" fill="#5B9279"/><path d="M50.664 75.05c0-.3.1-.5.2-.7.4-.8 1.4-1 2.1-.6l16 8.8 16.8-9.2 16.8 9.2 16.8-9.2 16.8 9.2 16.8-9.2 17.5 9.6c.8.4 1 1.4.6 2.1-.4.8-1.4 1-2.1.6l-16-8.8-16.8 9.2-16.8-9.2-16.8 9.2-16.8-9.2-16.8 9.2-17.5-9.6c-.5-.3-.8-.9-.8-1.4ZM50.664 61.25c0-.3.1-.5.2-.7.4-.8 1.4-1 2.1-.6l16 8.8 16.8-9.2 16.8 9.2 16.8-9.2 16.8 9.2 16.8-9.2 17.5 9.6c.8.4 1 1.4.6 2.1-.4.8-1.4 1-2.1.6l-16-8.8-16.8 9.2-16.8-9.2-16.8 9.2-16.8-9.2-16.8 9.2-17.5-9.6c-.5-.3-.8-.8-.8-1.4ZM50.664 47.45c0-.3.1-.5.2-.7.4-.8 1.4-1 2.1-.6l16 8.8 16.8-9.2 16.8 9.2 16.8-9.2 16.8 9.2 16.8-9.2 17.5 9.6c.8.4 1 1.4.6 2.1-.4.8-1.4 1-2.1.6l-16-8.8-16.8 9.2-16.8-9.2-16.8 9.2-16.8-9.2-16.8 9.2-17.5-9.6c-.5-.3-.8-.8-.8-1.4ZM50.664 33.65c0-.3.1-.5.2-.7.4-.8 1.4-1 2.1-.6l16 8.8 16.8-9.2 16.8 9.2 16.8-9.2 16.8 9.2 16.8-9.2 17.5 9.6c.8.4 1 1.4.6 2.1-.4.8-1.4 1-2.1.6l-16-8.8-16.8 9.2-16.8-9.2-16.8 9.2-16.8-9.2-16.8 9.2-17.5-9.6c-.5-.3-.8-.8-.8-1.4Z" fill="#80E895"/><path d="m274 109.5-37.7-37.7c-1.1.1-2.2.3-3.3.6l40.5 40.5c.2-1.2.4-2.3.5-3.4ZM264.3 81.5c-3.1-3.1-6.7-5.5-10.7-7.2l18 18c-1.8-4.1-4.2-7.7-7.3-10.8ZM216.1 129.6c3.1 3.1 6.7 5.5 10.7 7.2l-18-18c1.8 4.1 4.2 7.7 7.3 10.8ZM260.3 133l-47.6-47.6c-.5.7-1.1 1.5-1.6 2.3l46.8 46.8c.9-.4 1.7-.9 2.4-1.5ZM247.4 138.8l-40.5-40.5-.6 3.3 37.8 37.8c1.1-.1 2.2-.3 3.3-.6ZM269.2 123.3l-46.8-46.8c-.8.5-1.6 1-2.3 1.6l47.6 47.6 1.5-2.4Z" fill="#5B9279"/><path d="M265.7 97.7 228 60c-1.1.1-2.2.3-3.3.6l40.4 40.5c.2-1.1.4-2.2.6-3.4ZM255.9 69.8c-3.1-3.1-6.7-5.5-10.7-7.2l18 18c-1.7-4.1-4.2-7.7-7.3-10.8ZM207.8 117.9c3.1 3.1 6.7 5.5 10.7 7.2l-18-18c1.7 4.1 4.2 7.7 7.3 10.8ZM251.9 121.3l-47.6-47.6c-.5.7-1.1 1.5-1.6 2.3l46.8 46.8c.9-.4 1.7-.9 2.4-1.5ZM239.1 127.1l-40.5-40.5-.6 3.3 37.7 37.7c1.1-.1 2.3-.2 3.4-.5ZM260.9 111.6l-46.8-46.8c-.8.5-1.6 1-2.3 1.6l47.6 47.6 1.5-2.4Z" fill="#80E895"/><path d="M338.766 125.8c1.293-.141 2.505.834 2.645 2.126.141 1.293-.834 2.505-2.126 2.646-1.293.14-2.505-.835-2.646-2.127-.14-1.293.735-2.494 2.127-2.645ZM349.702 124.612c1.292-.141 2.505.834 2.645 2.127.14 1.292-.834 2.504-2.127 2.645-1.292.14-2.505-.835-2.645-2.127-.14-1.293.834-2.505 2.127-2.645ZM360.737 123.413c1.292-.14 2.505.834 2.645 2.127.141 1.292-.834 2.505-2.127 2.645-1.292.14-2.504-.834-2.645-2.127-.14-1.292.835-2.505 2.127-2.645ZM371.772 122.214c1.292-.14 2.505.835 2.645 2.127.141 1.292-.834 2.505-2.127 2.645-1.292.141-2.504-.834-2.645-2.127-.14-1.292.735-2.494 2.127-2.645ZM382.708 121.026c1.292-.14 2.504.835 2.645 2.127.14 1.292-.835 2.505-2.127 2.645-1.292.141-2.505-.834-2.645-2.127-.141-1.292.834-2.504 2.127-2.645ZM393.743 119.828c1.292-.141 2.505.834 2.645 2.126.14 1.293-.834 2.505-2.127 2.645-1.292.141-2.505-.834-2.645-2.126-.14-1.293.735-2.494 2.127-2.645ZM404.678 118.64c1.293-.141 2.505.834 2.646 2.126.14 1.293-.835 2.505-2.127 2.645-1.293.141-2.505-.834-2.645-2.126-.141-1.293.834-2.505 2.126-2.645ZM337.535 114.466c1.292-.14 2.505.835 2.645 2.127.141 1.293-.834 2.505-2.127 2.645-1.292.141-2.504-.834-2.645-2.126-.14-1.293.735-2.494 2.127-2.646ZM348.471 113.278c1.292-.14 2.504.835 2.645 2.127.14 1.293-.834 2.505-2.127 2.645-1.292.141-2.505-.834-2.645-2.126-.14-1.293.834-2.505 2.127-2.646ZM359.506 112.08c1.292-.141 2.505.834 2.645 2.127.14 1.292-.834 2.504-2.127 2.645-1.292.14-2.505-.835-2.645-2.127-.14-1.293.834-2.505 2.127-2.645ZM370.541 110.881c1.292-.14 2.505.834 2.645 2.127.14 1.292-.834 2.505-2.127 2.645-1.292.14-2.505-.834-2.645-2.127-.14-1.292.735-2.494 2.127-2.645ZM381.477 109.693c1.292-.14 2.504.834 2.645 2.127.14 1.292-.835 2.505-2.127 2.645-1.293.14-2.505-.834-2.645-2.127-.141-1.292.834-2.505 2.127-2.645ZM392.512 108.494c1.292-.14 2.504.835 2.645 2.127.14 1.292-.835 2.505-2.127 2.645-1.292.141-2.505-.834-2.645-2.127-.141-1.292.735-2.494 2.127-2.645ZM403.447 107.306c1.293-.14 2.505.835 2.645 2.127.141 1.292-.834 2.505-2.126 2.645-1.293.141-2.505-.834-2.645-2.127-.141-1.292.834-2.504 2.126-2.645ZM336.293 103.034c1.293-.141 2.505.834 2.645 2.126.141 1.293-.834 2.505-2.127 2.646-1.292.14-2.504-.835-2.645-2.127-.14-1.293.735-2.494 2.127-2.645ZM347.229 101.846c1.292-.141 2.505.834 2.645 2.126.14 1.293-.834 2.505-2.127 2.646-1.292.14-2.505-.835-2.645-2.127-.14-1.293.834-2.505 2.127-2.645ZM358.264 100.647c1.292-.141 2.505.834 2.645 2.127.14 1.292-.834 2.504-2.127 2.645-1.292.14-2.505-.835-2.645-2.127-.14-1.292.834-2.505 2.127-2.645ZM369.299 99.448c1.292-.14 2.505.835 2.645 2.127.14 1.292-.834 2.505-2.127 2.645-1.292.14-2.504-.834-2.645-2.127-.24-1.281.735-2.494 2.127-2.645ZM380.235 98.26c1.292-.14 2.504.834 2.645 2.127.14 1.292-.835 2.505-2.127 2.645-1.292.14-2.505-.834-2.645-2.127-.141-1.292.834-2.504 2.127-2.645ZM391.27 97.061c1.292-.14 2.504.835 2.645 2.127.14 1.293-.835 2.505-2.127 2.645-1.292.141-2.505-.834-2.645-2.126-.24-1.282.735-2.494 2.127-2.646ZM402.205 95.873c1.293-.14 2.505.835 2.645 2.127.141 1.293-.834 2.505-2.126 2.645-1.293.141-2.505-.834-2.645-2.126-.141-1.293.834-2.505 2.126-2.646Z" fill="#5B9279"/><path d="M349.501 116.285c1.293-.141 2.505.834 2.646 2.127.14 1.292-.835 2.504-2.127 2.645-1.293.14-2.505-.835-2.645-2.127-.141-1.292.834-2.505 2.126-2.645ZM360.536 115.086c1.293-.14 2.505.834 2.646 2.127.14 1.292-.835 2.505-2.127 2.645-1.293.14-2.505-.834-2.645-2.127-.141-1.292.735-2.494 2.126-2.645ZM371.472 113.898c1.293-.14 2.505.834 2.645 2.127.141 1.292-.834 2.505-2.126 2.645-1.293.14-2.505-.834-2.646-2.127-.14-1.292.835-2.505 2.127-2.645ZM382.507 112.699c1.293-.14 2.505.835 2.645 2.127.141 1.293-.834 2.505-2.126 2.645-1.293.141-2.505-.834-2.646-2.126-.14-1.293.735-2.494 2.127-2.646ZM393.443 111.511c1.292-.14 2.505.835 2.645 2.127.14 1.293-.834 2.505-2.127 2.645-1.292.141-2.505-.834-2.645-2.126-.14-1.293.834-2.505 2.127-2.646ZM404.478 110.313c1.292-.141 2.505.834 2.645 2.126.14 1.293-.834 2.505-2.127 2.646-1.292.14-2.504-.835-2.645-2.127-.14-1.293.735-2.494 2.127-2.645ZM415.414 109.125c1.292-.141 2.504.834 2.645 2.126.14 1.293-.835 2.505-2.127 2.646-1.292.14-2.505-.835-2.645-2.127-.141-1.293.834-2.505 2.127-2.645ZM348.259 104.852c1.293-.14 2.505.835 2.646 2.127.14 1.292-.835 2.505-2.127 2.645-1.293.141-2.505-.834-2.645-2.127-.141-1.292.834-2.504 2.126-2.645ZM359.295 103.653c1.292-.14 2.504.835 2.645 2.127.14 1.293-.835 2.505-2.127 2.645-1.292.141-2.505-.834-2.645-2.126-.24-1.282.735-2.494 2.127-2.646ZM370.23 102.465c1.293-.14 2.505.835 2.645 2.127.141 1.293-.834 2.505-2.126 2.645-1.293.141-2.505-.834-2.646-2.126-.14-1.293.835-2.505 2.127-2.646ZM381.265 101.267c1.293-.141 2.505.834 2.645 2.127.141 1.292-.834 2.504-2.126 2.645-1.293.14-2.505-.835-2.646-2.127-.239-1.282.735-2.494 2.127-2.645ZM392.201 100.079c1.292-.14 2.505.834 2.645 2.127.14 1.292-.834 2.504-2.127 2.645-1.292.14-2.504-.835-2.645-2.127-.14-1.292.834-2.505 2.127-2.645ZM403.236 98.88c1.292-.14 2.505.834 2.645 2.127.141 1.292-.834 2.505-2.127 2.645-1.292.14-2.504-.834-2.645-2.127-.24-1.281.735-2.494 2.127-2.645ZM414.172 97.692c1.292-.14 2.504.834 2.645 2.127.14 1.292-.835 2.505-2.127 2.645-1.292.14-2.505-.834-2.645-2.127-.141-1.292.834-2.505 2.127-2.645ZM347.017 93.42c1.293-.141 2.505.834 2.646 2.126.14 1.292-.835 2.505-2.127 2.645-1.293.14-2.505-.834-2.645-2.127-.141-1.292.834-2.504 2.126-2.645ZM358.053 92.22c1.292-.14 2.504.835 2.645 2.127.14 1.293-.835 2.505-2.127 2.646-1.292.14-2.505-.835-2.645-2.127-.24-1.282.735-2.494 2.127-2.645ZM368.988 91.033c1.293-.14 2.505.834 2.645 2.126.141 1.293-.834 2.505-2.126 2.646-1.293.14-2.505-.835-2.646-2.127-.14-1.293.835-2.505 2.127-2.645ZM380.023 89.834c1.293-.14 2.505.834 2.645 2.127.141 1.292-.834 2.504-2.126 2.645-1.293.14-2.505-.835-2.645-2.127-.24-1.281.734-2.494 2.126-2.645ZM390.959 88.646c1.292-.14 2.505.834 2.645 2.127.14 1.292-.834 2.504-2.127 2.645-1.292.14-2.504-.835-2.645-2.127-.14-1.292.835-2.505 2.127-2.645ZM401.994 87.447c1.292-.14 2.505.835 2.645 2.127.141 1.292-.834 2.505-2.127 2.645-1.292.14-2.504-.834-2.645-2.127-.24-1.281.735-2.494 2.127-2.645ZM412.93 86.26c1.292-.141 2.504.834 2.645 2.126.14 1.292-.835 2.505-2.127 2.645-1.292.14-2.505-.834-2.645-2.127-.14-1.292.834-2.504 2.127-2.645Z" fill="#80E895"/><path d="m483.689 157.849 8.218-10.45-2.124-1.76-6.569 8.238-8.325-6.457-1.649 2.211 10.449 8.218ZM481.873 142.657l8.205-10.549-2.112-1.661-6.568 8.238-8.326-6.457-1.661 2.112 10.462 8.317ZM480.056 127.465l8.206-10.549-2.113-1.661-6.568 8.238-8.325-6.457-1.661 2.112 10.461 8.317ZM478.228 112.174l8.217-10.45-2.124-1.76-6.557 8.338-8.337-6.557-1.649 2.212 10.45 8.217ZM476.411 96.982l8.217-10.45-2.124-1.76-6.556 8.338-8.338-6.556-1.649 2.21 10.45 8.218ZM474.594 81.79l8.218-10.45-2.124-1.76-6.557 8.338-8.337-6.556-1.649 2.211 10.449 8.218Z" fill="#5B9279"/><path d="m473.959 147.229 8.317-10.462-2.223-1.748-6.569 8.238-8.226-6.469-1.748 2.223 10.449 8.218ZM472.143 132.037l8.305-10.561-2.212-1.649-6.568 8.238-8.226-6.469-1.761 2.124 10.462 8.317ZM470.326 116.845l8.305-10.56-2.223-1.749-6.557 8.338-8.238-6.569-1.748 2.224 10.461 8.316ZM468.498 101.554l8.316-10.461-2.223-1.749-6.556 8.338-8.238-6.569-1.749 2.224 10.45 8.217ZM466.681 86.362l8.317-10.461-2.223-1.748-6.557 8.337-8.238-6.568-1.748 2.223 10.449 8.218ZM464.865 71.17l8.316-10.46-2.223-1.75-6.568 8.239-8.227-6.47-1.748 2.224 10.45 8.218Z" fill="#80E895"/><path d="M457.353 237.785c1.459 1.118 3.64.83 4.858-.642 1.118-1.459.83-3.64-.642-4.858-1.459-1.118-3.64-.83-4.858.642-1.118 1.459-.83 3.64.642 4.858ZM447.491 228.799a3.4 3.4 0 1 0-.89-6.74 3.4 3.4 0 0 0 .89 6.74ZM432.436 218.684c1.459 1.119 3.64.831 4.858-.642 1.118-1.459.83-3.64-.642-4.857-1.459-1.119-3.64-.831-4.858.641-1.118 1.46-.83 3.641.642 4.858ZM419.978 209.134c1.459 1.119 3.64.83 4.858-.642 1.118-1.459.83-3.64-.642-4.858-1.459-1.118-3.641-.83-4.858.642-1.119 1.459-.83 3.641.642 4.858ZM411.735 194.084c-1.459-1.118-3.64-.83-4.858.642-1.118 1.459-.83 3.64.642 4.858 1.459 1.118 3.64.83 4.858-.642 1.105-1.558.817-3.739-.642-4.858ZM447.459 250.692c1.459 1.119 3.64.831 4.857-.642 1.119-1.459.831-3.64-.641-4.857-1.46-1.119-3.641-.831-4.858.641-1.119 1.46-.831 3.641.642 4.858ZM435 241.142c1.459 1.118 3.64.83 4.858-.642 1.118-1.459.83-3.64-.642-4.858-1.459-1.118-3.64-.83-4.858.642-1.118 1.459-.83 3.64.642 4.858ZM422.542 231.592c1.459 1.118 3.64.83 4.858-.642 1.118-1.459.83-3.64-.642-4.858-1.459-1.118-3.64-.83-4.858.642-1.119 1.459-.83 3.64.642 4.858ZM410.083 222.041c1.459 1.119 3.64.831 4.858-.642 1.119-1.459.83-3.64-.642-4.857-1.459-1.119-3.64-.831-4.858.642-1.118 1.459-.83 3.64.642 4.857ZM400.122 213.069a3.4 3.4 0 1 0-.89-6.74 3.4 3.4 0 0 0 .89 6.74ZM437.564 263.6c1.459 1.118 3.64.83 4.858-.642 1.118-1.459.83-3.64-.642-4.858-1.459-1.119-3.64-.83-4.858.642-1.217 1.472-.83 3.64.642 4.858ZM425.106 254.049c1.459 1.119 3.64.831 4.858-.642 1.118-1.459.83-3.64-.642-4.857-1.459-1.119-3.64-.831-4.858.642-1.119 1.459-.83 3.64.642 4.857ZM412.647 244.499c1.459 1.119 3.64.83 4.858-.642 1.119-1.459.83-3.64-.642-4.858-1.459-1.118-3.64-.83-4.858.642-1.118 1.459-.83 3.641.642 4.858ZM400.189 234.949c1.459 1.118 3.64.83 4.858-.642 1.118-1.459.83-3.64-.642-4.858-1.459-1.118-3.64-.83-4.858.642-1.118 1.459-.83 3.64.642 4.858ZM391.946 219.899c-1.459-1.119-3.64-.83-4.857.642-1.119 1.459-.831 3.64.641 4.858 1.46 1.118 3.641.83 4.858-.642 1.106-1.559.817-3.74-.642-4.858ZM427.67 276.507c1.459 1.118 3.64.83 4.858-.642 1.118-1.459.83-3.64-.642-4.858-1.459-1.118-3.64-.83-4.858.642a3.567 3.567 0 0 0 .642 4.858ZM417.709 267.535a3.4 3.4 0 1 0-.893-6.743 3.4 3.4 0 0 0 .893 6.743ZM405.25 257.984a3.4 3.4 0 1 0-.89-6.74 3.4 3.4 0 0 0 .89 6.74ZM390.295 247.856c1.459 1.119 3.64.831 4.857-.642 1.119-1.459.831-3.64-.642-4.857-1.459-1.119-3.64-.831-4.857.641-1.205 1.572-.93 3.654.642 4.858ZM382.052 232.806c-1.459-1.118-3.64-.83-4.858.642-1.118 1.459-.83 3.64.642 4.858 1.459 1.118 3.64.83 4.858-.642a3.567 3.567 0 0 0-.642-4.858ZM420.286 290.091a3.4 3.4 0 1 0-.891-6.741 3.4 3.4 0 0 0 .891 6.741ZM409.533 274.364c-1.459-1.118-3.64-.83-4.858.642-1.118 1.459-.83 3.64.642 4.858 1.459 1.119 3.64.83 4.858-.642a3.567 3.567 0 0 0-.642-4.858ZM395.369 270.991a3.4 3.4 0 1 0-.892-6.742 3.4 3.4 0 0 0 .892 6.742ZM384.616 255.264c-1.459-1.119-3.64-.83-4.858.642-1.118 1.459-.83 3.64.642 4.858 1.459 1.118 3.64.83 4.858-.642a3.567 3.567 0 0 0-.642-4.858ZM372.158 245.714c-1.46-1.119-3.641-.831-4.858.642-1.119 1.459-.831 3.64.642 4.857 1.459 1.119 3.64.831 4.857-.642a3.564 3.564 0 0 0-.641-4.857Z" fill="#5B9279"/><path d="M450.089 227.851a3.4 3.4 0 1 0-.89-6.74 3.4 3.4 0 0 0 .89 6.74ZM435.133 217.723c1.459 1.118 3.641.83 4.858-.642 1.119-1.459.83-3.64-.642-4.858-1.459-1.118-3.64-.83-4.858.642-1.217 1.472-.929 3.653.642 4.858ZM422.675 208.173c1.459 1.118 3.64.83 4.858-.642 1.118-1.459.83-3.64-.642-4.858-1.459-1.119-3.64-.83-4.858.642-1.218 1.472-.929 3.653.642 4.858ZM410.217 198.622c1.459 1.119 3.64.831 4.857-.642 1.119-1.459.831-3.64-.642-4.857-1.459-1.119-3.64-.831-4.857.642-1.218 1.472-.93 3.653.642 4.857ZM400.255 189.65a3.4 3.4 0 1 0-.89-6.742 3.4 3.4 0 0 0 .89 6.742ZM437.697 240.18c1.459 1.119 3.641.831 4.858-.641 1.119-1.46.83-3.641-.642-4.858-1.459-1.119-3.64-.83-4.858.642-1.217 1.472-.929 3.653.642 4.857ZM427.736 231.208a3.4 3.4 0 1 0-.89-6.74 3.4 3.4 0 0 0 .89 6.74ZM412.781 221.08c1.459 1.118 3.64.83 4.857-.642 1.119-1.459.831-3.64-.642-4.858-1.459-1.118-3.64-.83-4.857.642-1.218 1.472-.93 3.653.642 4.858ZM400.322 211.53c1.459 1.118 3.64.83 4.858-.642 1.118-1.459.83-3.64-.642-4.858-1.459-1.119-3.64-.83-4.858.642-1.217 1.472-.929 3.653.642 4.858ZM390.361 202.557a3.4 3.4 0 1 0-.891-6.741 3.4 3.4 0 0 0 .891 6.741ZM427.704 253.101c1.459 1.118 3.64.83 4.858-.642 1.118-1.459.83-3.64-.642-4.858-1.473-1.217-3.64-.83-4.858.642-1.119 1.459-.83 3.64.642 4.858ZM417.842 244.115a3.4 3.4 0 1 0-.891-6.741 3.4 3.4 0 0 0 .891 6.741ZM402.787 234c1.459 1.119 3.64.831 4.858-.641 1.118-1.46.83-3.641-.642-4.858-1.459-1.119-3.64-.83-4.858.642-1.118 1.459-.83 3.64.642 4.857ZM392.925 225.015a3.4 3.4 0 1 0-.892-6.742 3.4 3.4 0 0 0 .892 6.742ZM382.086 209.4c-1.459-1.118-3.64-.83-4.858.642-1.118 1.459-.83 3.64.642 4.858 1.459 1.119 3.64.83 4.858-.642 1.204-1.571.916-3.752-.642-4.858ZM417.809 266.008c1.459 1.119 3.641.831 4.858-.642 1.119-1.459.83-3.64-.642-4.857-1.459-1.119-3.64-.831-4.857.642-1.119 1.459-.831 3.64.641 4.857ZM407.947 257.023a3.4 3.4 0 1 0-.89-6.742 3.4 3.4 0 0 0 .89 6.742ZM395.489 247.473a3.4 3.4 0 1 0-.893-6.743 3.4 3.4 0 0 0 .893 6.743ZM380.434 237.358c1.459 1.118 3.64.83 4.858-.642 1.118-1.459.83-3.64-.642-4.858-1.459-1.119-3.64-.83-4.858.642-1.118 1.459-.83 3.64.642 4.858ZM372.192 222.308c-1.46-1.119-3.641-.831-4.858.642-1.218 1.472-.831 3.64.642 4.857 1.472 1.218 3.64.831 4.857-.642 1.205-1.571.917-3.752-.641-4.857ZM412.773 278.274c1.118-1.459.83-3.64-.642-4.858-1.459-1.119-3.64-.83-4.858.642-1.118 1.459-.83 3.64.642 4.858 1.558 1.105 3.739.817 4.858-.642ZM398.053 269.93a3.4 3.4 0 1 0-.89-6.74 3.4 3.4 0 0 0 .89 6.74ZM387.214 254.316c-1.459-1.119-3.64-.831-4.858.641-1.118 1.46-.83 3.641.642 4.858 1.459 1.119 3.64.83 4.858-.642 1.204-1.571.916-3.752-.642-4.857ZM374.756 244.765c-1.46-1.118-3.641-.83-4.858.642-1.119 1.459-.831 3.64.642 4.858 1.459 1.118 3.64.83 4.857-.642 1.205-1.571.917-3.752-.641-4.858ZM362.297 235.215c-1.459-1.118-3.64-.83-4.858.642-1.118 1.459-.83 3.64.642 4.858 1.459 1.118 3.64.83 4.858-.642 1.205-1.572.916-3.753-.642-4.858Z" fill="#80E895"/><path d="M116.417 358.194c-.167-1.29-1.4-2.239-2.689-2.072-1.289.167-2.239 1.399-2.071 2.689.167 1.289 1.399 2.238 2.688 2.071 1.289-.167 2.239-1.399 2.072-2.688ZM114.99 347.186c-.167-1.29-1.4-2.239-2.689-2.072-1.289.167-2.239 1.4-2.071 2.689.167 1.289 1.399 2.238 2.688 2.071 1.302-.068 2.252-1.3 2.072-2.688ZM113.576 336.277c-.168-1.289-1.4-2.239-2.689-2.072-1.289.168-2.239 1.4-2.072 2.689.167 1.289 1.4 2.239 2.689 2.072 1.289-.167 2.239-1.4 2.072-2.689ZM105.012 359.672c-.167-1.289-1.399-2.239-2.689-2.071-1.289.167-2.238 1.399-2.071 2.688.167 1.289 1.399 2.239 2.689 2.072 1.289-.167 2.238-1.4 2.071-2.689ZM103.585 348.664c-.167-1.289-1.399-2.238-2.689-2.071-1.289.167-2.238 1.399-2.071 2.688.167 1.29 1.399 2.239 2.689 2.072 1.289-.167 2.251-1.3 2.071-2.689ZM102.171 337.755c-.167-1.289-1.4-2.238-2.689-2.071-1.289.167-2.238 1.399-2.071 2.689.167 1.289 1.4 2.238 2.688 2.071 1.29-.167 2.239-1.399 2.072-2.689ZM91.536 363.839a2.4 2.4 0 1 0-.616-4.76 2.4 2.4 0 0 0 .616 4.76ZM90.109 352.831a2.4 2.4 0 1 0-.616-4.76 2.4 2.4 0 0 0 .616 4.76ZM88.695 341.923a2.401 2.401 0 1 0-.62-4.762 2.401 2.401 0 0 0 .62 4.762ZM82.302 362.616c-.167-1.289-1.4-2.239-2.689-2.071-1.289.167-2.238 1.399-2.071 2.688.167 1.289 1.4 2.239 2.689 2.072 1.289-.167 2.238-1.4 2.071-2.689ZM80.875 351.608c-.167-1.289-1.4-2.238-2.689-2.071-1.289.167-2.238 1.399-2.071 2.688.167 1.29 1.4 2.239 2.689 2.072 1.289-.167 2.251-1.3 2.071-2.689ZM79.46 340.699c-.166-1.289-1.398-2.238-2.688-2.071-1.289.167-2.238 1.399-2.071 2.689.167 1.289 1.4 2.238 2.688 2.071 1.29-.167 2.239-1.399 2.072-2.689ZM70.898 364.095c-.167-1.29-1.4-2.239-2.689-2.072-1.29.167-2.239 1.4-2.072 2.689.168 1.289 1.4 2.238 2.69 2.071 1.288-.167 2.238-1.399 2.07-2.688ZM69.47 353.087c-.167-1.29-1.399-2.239-2.688-2.072-1.29.167-2.239 1.4-2.072 2.689.168 1.289 1.4 2.238 2.689 2.071 1.302-.068 2.251-1.3 2.072-2.688ZM68.056 342.178c-.167-1.289-1.399-2.239-2.688-2.072-1.29.168-2.239 1.4-2.072 2.689.167 1.289 1.4 2.239 2.689 2.072 1.29-.167 2.239-1.4 2.071-2.689ZM121.508 435.581c.167 1.289 1.4 2.239 2.689 2.072 1.289-.167 2.238-1.4 2.071-2.689-.167-1.289-1.399-2.239-2.688-2.071-1.29.167-2.252 1.3-2.072 2.688ZM124.94 423.943c-.167-1.289-1.399-2.238-2.688-2.071-1.289.167-2.239 1.399-2.072 2.688.167 1.29 1.4 2.239 2.689 2.072 1.289-.167 2.251-1.3 2.071-2.689ZM123.526 413.035c-.167-1.29-1.399-2.239-2.688-2.072-1.29.167-2.239 1.4-2.072 2.689.167 1.289 1.399 2.238 2.689 2.071 1.289-.167 2.238-1.399 2.071-2.688ZM122.099 402.027c-.167-1.289-1.399-2.239-2.688-2.072-1.29.167-2.239 1.4-2.072 2.689.167 1.289 1.399 2.239 2.689 2.071 1.289-.167 2.251-1.3 2.071-2.688ZM120.685 391.118c-.167-1.289-1.399-2.239-2.689-2.071-1.289.167-2.238 1.399-2.071 2.688.167 1.289 1.399 2.239 2.688 2.072 1.29-.167 2.239-1.4 2.072-2.689ZM119.258 380.11c-.167-1.289-1.399-2.239-2.689-2.071-1.289.167-2.238 1.399-2.071 2.688.167 1.289 1.399 2.239 2.688 2.072 1.29-.167 2.239-1.4 2.072-2.689ZM117.831 369.102c-.167-1.289-1.4-2.238-2.689-2.071-1.289.167-2.238 1.399-2.071 2.688.167 1.29 1.399 2.239 2.688 2.072 1.302-.068 2.252-1.3 2.072-2.689ZM114.963 436.43c-.167-1.289-1.399-2.239-2.689-2.072-1.289.167-2.238 1.4-2.071 2.689.167 1.289 1.399 2.238 2.688 2.071 1.29-.167 2.239-1.399 2.072-2.688ZM113.536 425.422c-.167-1.289-1.4-2.239-2.689-2.072-1.289.167-2.238 1.4-2.071 2.689.167 1.289 1.399 2.239 2.688 2.071 1.29-.167 2.252-1.3 2.072-2.688ZM112.122 414.513c-.167-1.289-1.4-2.239-2.689-2.071-1.289.167-2.239 1.399-2.071 2.688.167 1.289 1.399 2.239 2.688 2.072 1.289-.167 2.239-1.4 2.072-2.689ZM110.695 403.505c-.167-1.289-1.4-2.238-2.689-2.071-1.289.167-2.239 1.399-2.072 2.688.168 1.29 1.4 2.239 2.689 2.072 1.289-.167 2.252-1.3 2.072-2.689ZM109.28 392.596c-.167-1.289-1.399-2.238-2.688-2.071-1.289.167-2.239 1.399-2.072 2.689.167 1.289 1.4 2.238 2.689 2.071 1.289-.167 2.239-1.399 2.071-2.689ZM107.853 381.589c-.167-1.29-1.399-2.239-2.688-2.072-1.289.167-2.239 1.4-2.072 2.689.167 1.289 1.4 2.238 2.689 2.071 1.289-.167 2.239-1.399 2.071-2.688ZM106.426 370.581c-.167-1.289-1.399-2.239-2.688-2.072-1.29.167-2.239 1.4-2.072 2.689.167 1.289 1.4 2.239 2.689 2.071 1.289-.167 2.251-1.3 2.071-2.688ZM103.558 437.908c-.167-1.289-1.399-2.238-2.688-2.071-1.29.167-2.239 1.399-2.072 2.688.167 1.29 1.4 2.239 2.689 2.072 1.289-.167 2.238-1.4 2.071-2.689ZM102.131 426.9c-.167-1.289-1.399-2.238-2.688-2.071-1.29.167-2.239 1.399-2.072 2.688.167 1.29 1.4 2.239 2.689 2.072 1.289-.167 2.251-1.3 2.071-2.689ZM100.717 415.992c-.167-1.29-1.4-2.239-2.689-2.072-1.289.167-2.238 1.4-2.071 2.689.167 1.289 1.4 2.238 2.689 2.071 1.289-.167 2.238-1.399 2.071-2.688ZM99.29 404.984c-.167-1.29-1.4-2.239-2.689-2.072-1.289.167-2.238 1.4-2.071 2.689.167 1.289 1.4 2.238 2.689 2.071 1.289-.167 2.251-1.3 2.071-2.688ZM95.804 396.764a2.4 2.4 0 1 0-.619-4.762 2.4 2.4 0 0 0 .62 4.762ZM96.449 383.067c-.167-1.289-1.4-2.239-2.689-2.071-1.289.167-2.239 1.399-2.071 2.688.167 1.289 1.4 2.239 2.688 2.072 1.29-.167 2.239-1.4 2.072-2.689ZM95.022 372.059c-.167-1.289-1.4-2.238-2.689-2.071-1.29.167-2.239 1.399-2.071 2.688.167 1.29 1.399 2.239 2.688 2.072 1.302-.068 2.252-1.3 2.072-2.689ZM92.253 439.374c-.167-1.289-1.4-2.239-2.689-2.072-1.289.167-2.238 1.4-2.071 2.689.167 1.289 1.4 2.239 2.688 2.071 1.29-.167 2.24-1.399 2.072-2.688ZM90.826 428.366c-.167-1.289-1.4-2.239-2.689-2.072-1.289.167-2.238 1.4-2.071 2.689.167 1.289 1.4 2.239 2.688 2.072 1.29-.168 2.252-1.301 2.072-2.689ZM89.412 417.457c-.167-1.289-1.4-2.238-2.689-2.071-1.29.167-2.239 1.399-2.071 2.688.167 1.29 1.399 2.239 2.688 2.072 1.29-.167 2.239-1.4 2.072-2.689ZM87.985 406.449c-.168-1.289-1.4-2.238-2.689-2.071-1.29.167-2.239 1.399-2.072 2.688.168 1.29 1.4 2.239 2.69 2.072 1.288-.167 2.25-1.3 2.07-2.689ZM86.57 395.541c-.167-1.29-1.399-2.239-2.688-2.072-1.29.167-2.239 1.399-2.072 2.689.168 1.289 1.4 2.238 2.689 2.071 1.29-.167 2.239-1.399 2.072-2.688ZM85.143 384.533c-.167-1.289-1.399-2.239-2.688-2.072-1.29.167-2.239 1.4-2.072 2.689.167 1.289 1.4 2.239 2.689 2.071 1.29-.167 2.239-1.399 2.071-2.688ZM83.716 373.525c-.167-1.289-1.4-2.239-2.688-2.072-1.29.167-2.239 1.4-2.072 2.689.167 1.289 1.4 2.239 2.689 2.071 1.289-.167 2.251-1.3 2.071-2.688ZM80.848 440.852c-.167-1.289-1.399-2.238-2.688-2.071-1.29.167-2.239 1.399-2.072 2.688.167 1.29 1.4 2.239 2.689 2.072 1.29-.167 2.239-1.399 2.071-2.689ZM79.421 429.844c-.167-1.289-1.4-2.238-2.688-2.071-1.29.167-2.239 1.399-2.072 2.688.167 1.29 1.4 2.239 2.689 2.072 1.29-.167 2.251-1.3 2.071-2.689ZM78.007 418.936c-.167-1.29-1.4-2.239-2.688-2.072-1.29.167-2.24 1.4-2.072 2.689.167 1.289 1.4 2.238 2.689 2.071 1.289-.167 2.238-1.399 2.071-2.688ZM76.58 407.928c-.167-1.289-1.4-2.239-2.689-2.072-1.289.167-2.238 1.4-2.071 2.689.167 1.289 1.4 2.239 2.689 2.071 1.289-.167 2.251-1.3 2.071-2.688ZM75.166 397.019c-.167-1.289-1.4-2.239-2.689-2.071-1.289.167-2.238 1.399-2.071 2.688.167 1.289 1.4 2.239 2.688 2.072 1.29-.167 2.24-1.4 2.072-2.689ZM73.739 386.011c-.167-1.289-1.4-2.239-2.689-2.071-1.289.167-2.238 1.399-2.071 2.688.167 1.289 1.4 2.239 2.688 2.072 1.29-.167 2.239-1.4 2.072-2.689ZM72.312 375.003c-.167-1.289-1.4-2.238-2.689-2.071-1.289.167-2.239 1.399-2.071 2.688.167 1.29 1.4 2.239 2.688 2.072 1.302-.068 2.252-1.3 2.072-2.689Z" fill="#5B9279"/><path d="M106.582 347.671c-.167-1.29-1.399-2.239-2.688-2.072-1.29.167-2.239 1.4-2.072 2.689.167 1.289 1.399 2.238 2.689 2.071 1.289-.167 2.238-1.399 2.071-2.688ZM105.155 336.663c-.167-1.289-1.399-2.239-2.688-2.072-1.29.167-2.239 1.4-2.072 2.689.167 1.289 1.399 2.239 2.689 2.071 1.289-.167 2.251-1.3 2.071-2.688ZM103.741 325.754c-.167-1.289-1.399-2.239-2.689-2.071-1.289.167-2.238 1.399-2.071 2.688.167 1.289 1.399 2.239 2.688 2.072 1.29-.167 2.239-1.4 2.072-2.689ZM95.178 349.149c-.168-1.289-1.4-2.239-2.689-2.071-1.29.167-2.239 1.399-2.072 2.688.168 1.289 1.4 2.239 2.69 2.072 1.288-.167 2.238-1.4 2.07-2.689ZM93.75 338.141c-.166-1.289-1.399-2.238-2.688-2.071-1.29.167-2.239 1.399-2.072 2.688.168 1.29 1.4 2.239 2.69 2.072 1.288-.167 2.25-1.3 2.07-2.689ZM92.336 327.233c-.167-1.29-1.4-2.239-2.688-2.072-1.29.167-2.239 1.399-2.072 2.689.167 1.289 1.4 2.238 2.689 2.071 1.289-.167 2.239-1.399 2.071-2.688ZM83.872 350.615c-.167-1.289-1.4-2.239-2.688-2.072-1.29.167-2.24 1.4-2.072 2.689.167 1.289 1.4 2.239 2.689 2.071 1.289-.167 2.238-1.399 2.071-2.688ZM82.445 339.607c-.167-1.289-1.4-2.239-2.688-2.072-1.29.167-2.24 1.4-2.072 2.689.167 1.289 1.4 2.239 2.689 2.071 1.289-.167 2.251-1.3 2.071-2.688ZM81.031 328.698c-.167-1.289-1.4-2.239-2.689-2.071-1.289.167-2.238 1.399-2.071 2.688.167 1.289 1.4 2.239 2.689 2.072 1.289-.167 2.238-1.4 2.071-2.689ZM72.468 352.093c-.168-1.289-1.4-2.238-2.689-2.071-1.29.167-2.239 1.399-2.072 2.688.168 1.289 1.4 2.239 2.69 2.072 1.288-.167 2.238-1.4 2.07-2.689ZM71.04 341.085c-.166-1.289-1.399-2.238-2.688-2.071-1.29.167-2.239 1.399-2.072 2.688.168 1.29 1.4 2.239 2.69 2.072 1.288-.167 2.25-1.3 2.07-2.689ZM69.626 330.177c-.167-1.29-1.399-2.239-2.688-2.072-1.29.167-2.239 1.4-2.072 2.689.167 1.289 1.4 2.238 2.689 2.071 1.29-.167 2.238-1.399 2.071-2.688ZM61.162 353.559c-.167-1.289-1.4-2.239-2.688-2.072-1.29.167-2.239 1.4-2.072 2.689.167 1.289 1.4 2.239 2.689 2.072 1.289-.168 2.238-1.4 2.071-2.689ZM59.735 342.551c-.167-1.289-1.4-2.239-2.688-2.072-1.29.168-2.24 1.4-2.072 2.689.167 1.289 1.4 2.239 2.689 2.072 1.289-.168 2.251-1.301 2.071-2.689ZM58.321 331.642c-.167-1.289-1.4-2.238-2.689-2.071-1.289.167-2.238 1.399-2.071 2.688.167 1.29 1.4 2.239 2.688 2.072 1.29-.167 2.24-1.4 2.072-2.689ZM111.674 425.058c.167 1.29 1.399 2.239 2.688 2.072 1.289-.167 2.239-1.4 2.072-2.689-.167-1.289-1.4-2.238-2.689-2.071-1.289.167-2.251 1.3-2.071 2.688ZM113.034 416.109a2.4 2.4 0 1 0-.616-4.76 2.4 2.4 0 0 0 .616 4.76ZM113.692 402.512c-.167-1.289-1.4-2.239-2.689-2.072-1.289.167-2.239 1.4-2.071 2.689.167 1.289 1.399 2.239 2.688 2.071 1.289-.167 2.239-1.399 2.072-2.688ZM110.193 394.192a2.4 2.4 0 1 0-.616-4.76 2.4 2.4 0 0 0 .616 4.76ZM108.766 383.185a2.401 2.401 0 0 0-.617-4.761 2.401 2.401 0 0 0 .617 4.761ZM109.423 369.587c-.167-1.289-1.399-2.238-2.688-2.071-1.289.167-2.239 1.399-2.072 2.688.167 1.29 1.4 2.239 2.689 2.072 1.289-.167 2.239-1.399 2.071-2.689ZM105.925 361.268a2.4 2.4 0 1 0-.617-4.759 2.4 2.4 0 0 0 .617 4.759ZM105.128 425.907c-.167-1.289-1.399-2.239-2.688-2.072-1.289.167-2.239 1.4-2.072 2.689.167 1.289 1.4 2.239 2.689 2.071 1.289-.167 2.239-1.399 2.071-2.688ZM101.63 417.588a2.4 2.4 0 1 0-.62-4.76 2.4 2.4 0 0 0 .62 4.76ZM102.287 403.99c-.167-1.289-1.399-2.238-2.689-2.071-1.289.167-2.238 1.399-2.071 2.688.167 1.29 1.4 2.239 2.689 2.072 1.289-.167 2.238-1.4 2.071-2.689ZM98.789 395.671a2.4 2.4 0 1 0-.618-4.76 2.4 2.4 0 0 0 .618 4.76ZM97.362 384.663a2.4 2.4 0 1 0-.617-4.76 2.4 2.4 0 0 0 .617 4.76ZM98.019 371.066c-.167-1.29-1.4-2.239-2.689-2.072-1.289.167-2.238 1.4-2.071 2.689.167 1.289 1.4 2.238 2.688 2.071 1.29-.167 2.239-1.399 2.072-2.688ZM94.52 362.747a2.401 2.401 0 1 0-.619-4.762 2.401 2.401 0 0 0 .62 4.762ZM93.823 427.372c-.167-1.289-1.4-2.238-2.689-2.071-1.289.167-2.238 1.399-2.071 2.689.167 1.289 1.4 2.238 2.688 2.071 1.29-.167 2.24-1.399 2.072-2.689ZM92.396 416.365c-.167-1.29-1.4-2.239-2.689-2.072-1.289.167-2.238 1.399-2.071 2.689.167 1.289 1.4 2.238 2.689 2.071 1.289-.167 2.251-1.3 2.071-2.688ZM90.982 405.456c-.167-1.289-1.4-2.239-2.689-2.072-1.29.167-2.239 1.4-2.071 2.689.167 1.289 1.399 2.239 2.688 2.072 1.29-.168 2.239-1.4 2.072-2.689ZM89.555 394.448c-.167-1.289-1.4-2.239-2.689-2.072-1.29.168-2.239 1.4-2.071 2.689.167 1.289 1.399 2.239 2.688 2.072 1.29-.168 2.239-1.4 2.072-2.689ZM88.128 383.44c-.168-1.289-1.4-2.239-2.689-2.071-1.29.167-2.239 1.399-2.071 2.688.167 1.289 1.399 2.239 2.688 2.072 1.302-.068 2.252-1.301 2.072-2.689ZM86.713 372.531c-.167-1.289-1.399-2.238-2.688-2.071-1.29.167-2.239 1.399-2.072 2.689.168 1.289 1.4 2.238 2.689 2.071 1.29-.167 2.239-1.399 2.072-2.689ZM85.286 361.523c-.167-1.289-1.399-2.238-2.688-2.071-1.29.167-2.239 1.399-2.072 2.689.167 1.289 1.4 2.238 2.689 2.071 1.302-.068 2.251-1.3 2.071-2.689ZM82.418 428.851c-.167-1.289-1.399-2.239-2.688-2.072-1.29.167-2.239 1.4-2.072 2.689.167 1.289 1.4 2.239 2.689 2.071 1.29-.167 2.239-1.399 2.071-2.688ZM80.991 417.843c-.167-1.289-1.399-2.239-2.688-2.071-1.29.167-2.239 1.399-2.072 2.688.167 1.289 1.4 2.239 2.689 2.072 1.29-.167 2.251-1.301 2.071-2.689ZM79.577 406.934c-.167-1.289-1.4-2.238-2.688-2.071-1.29.167-2.24 1.399-2.072 2.688.167 1.29 1.4 2.239 2.689 2.072 1.289-.167 2.238-1.399 2.071-2.689ZM78.15 395.926c-.167-1.289-1.4-2.238-2.689-2.071-1.289.167-2.238 1.399-2.071 2.689.167 1.289 1.4 2.238 2.689 2.071 1.289-.167 2.238-1.399 2.071-2.689ZM76.723 384.918c-.167-1.289-1.4-2.238-2.689-2.071-1.289.167-2.238 1.399-2.071 2.689.167 1.289 1.4 2.238 2.689 2.071 1.302-.068 2.251-1.3 2.071-2.689ZM75.309 374.01c-.167-1.289-1.4-2.239-2.689-2.072-1.289.167-2.238 1.4-2.071 2.689.167 1.289 1.4 2.239 2.688 2.071 1.29-.167 2.239-1.399 2.072-2.688ZM73.882 363.002c-.167-1.289-1.4-2.239-2.689-2.072-1.289.168-2.238 1.4-2.071 2.689.167 1.289 1.4 2.239 2.688 2.072 1.302-.068 2.252-1.301 2.072-2.689ZM71.113 430.317c-.167-1.29-1.4-2.239-2.689-2.072-1.289.167-2.238 1.399-2.071 2.689.167 1.289 1.4 2.238 2.689 2.071 1.289-.167 2.238-1.399 2.071-2.688ZM69.686 419.309c-.167-1.29-1.4-2.239-2.689-2.072-1.289.167-2.238 1.4-2.071 2.689.167 1.289 1.4 2.238 2.689 2.071 1.289-.167 2.251-1.3 2.071-2.688ZM68.272 408.4c-.167-1.289-1.4-2.239-2.689-2.072-1.289.168-2.239 1.4-2.071 2.689.167 1.289 1.4 2.239 2.688 2.072 1.29-.168 2.239-1.4 2.072-2.689ZM66.845 397.392c-.167-1.289-1.4-2.239-2.689-2.072-1.29.168-2.239 1.4-2.071 2.689.167 1.289 1.399 2.239 2.688 2.072 1.29-.167 2.239-1.4 2.072-2.689ZM65.418 386.384c-.167-1.289-1.4-2.238-2.689-2.071-1.29.167-2.239 1.399-2.072 2.688.168 1.29 1.4 2.239 2.69 2.072 1.288-.167 2.25-1.3 2.07-2.689ZM64.004 375.476c-.168-1.29-1.4-2.239-2.69-2.072-1.288.167-2.238 1.399-2.07 2.689.166 1.289 1.399 2.238 2.688 2.071 1.29-.167 2.239-1.399 2.072-2.688ZM62.577 364.468c-.168-1.29-1.4-2.239-2.69-2.072-1.288.167-2.238 1.399-2.07 2.689.166 1.289 1.399 2.238 2.688 2.071 1.29-.167 2.251-1.3 2.072-2.688Z" fill="#80E895"/><path d="M307.575 187.897c1.3 1.3 3.5 1.3 4.9 0 1.3-1.3 1.3-3.5 0-4.9-1.3-1.3-3.5-1.3-4.9 0-1.3 1.4-1.3 3.5 0 4.9ZM296.475 176.797c1.3 1.3 3.5 1.3 4.9 0 1.3-1.3 1.3-3.5 0-4.9-1.3-1.3-3.5-1.3-4.9 0-1.3 1.4-1.3 3.5 0 4.9ZM290.275 160.797c-1.3-1.3-3.5-1.3-4.9 0-1.3 1.3-1.3 3.5 0 4.9 1.3 1.3 3.5 1.3 4.9 0 1.3-1.4 1.3-3.5 0-4.9ZM296.075 199.397c1.3 1.3 3.5 1.3 4.9 0 1.4-1.3 1.3-3.5 0-4.9-1.3-1.3-3.5-1.3-4.9 0-1.4 1.4-1.4 3.6 0 4.9ZM284.975 188.297c1.3 1.3 3.5 1.3 4.9 0 1.3-1.3 1.3-3.5 0-4.9-1.3-1.3-3.5-1.3-4.9 0-1.4 1.4-1.4 3.6 0 4.9ZM278.775 172.297c-1.3-1.3-3.5-1.3-4.9 0-1.3 1.3-1.3 3.5 0 4.9 1.3 1.3 3.5 1.3 4.9 0 1.3-1.3 1.3-3.5 0-4.9ZM289.475 210.897c1.3-1.3 1.3-3.5 0-4.9-1.3-1.3-3.5-1.3-4.9 0-1.3 1.3-1.3 3.5 0 4.9 1.3 1.4 3.5 1.3 4.9 0ZM278.375 194.897c-1.3-1.3-3.5-1.3-4.9 0-1.3 1.3-1.3 3.5 0 4.9 1.3 1.3 3.5 1.3 4.9 0 1.3-1.3 1.3-3.5 0-4.9ZM267.275 183.797c-1.3-1.3-3.5-1.3-4.9 0-1.3 1.3-1.3 3.5 0 4.9 1.3 1.3 3.5 1.3 4.9 0 1.3-1.3 1.3-3.5 0-4.9Z" fill="#5B9279"/><path d="M299.175 176.197c1.3 1.3 3.5 1.3 4.9 0 1.4-1.3 1.3-3.5 0-4.9-1.3-1.3-3.5-1.3-4.9 0-1.3 1.4-1.3 3.5 0 4.9ZM288.075 165.097c1.3 1.3 3.5 1.3 4.9 0 1.3-1.3 1.3-3.5 0-4.9-1.3-1.3-3.5-1.3-4.9 0-1.3 1.4-1.3 3.5 0 4.9ZM281.875 149.097c-1.3-1.3-3.5-1.3-4.9 0-1.3 1.3-1.3 3.5 0 4.9 1.3 1.3 3.5 1.3 4.9 0 1.4-1.4 1.4-3.5 0-4.9ZM287.675 187.697c1.3 1.3 3.5 1.3 4.9 0 1.3-1.3 1.3-3.5 0-4.9-1.3-1.4-3.5-1.3-4.9 0-1.3 1.4-1.3 3.5 0 4.9ZM276.575 176.597c1.3 1.3 3.5 1.3 4.9 0 1.3-1.3 1.3-3.5 0-4.9-1.3-1.3-3.5-1.3-4.9 0-1.3 1.4-1.3 3.5 0 4.9ZM270.375 160.597c-1.3-1.3-3.5-1.3-4.9 0-1.3 1.3-1.3 3.5 0 4.9 1.3 1.3 3.5 1.3 4.9 0 1.4-1.4 1.4-3.5 0-4.9ZM281.075 199.197c1.3-1.3 1.3-3.5 0-4.9-1.3-1.3-3.5-1.3-4.9 0-1.4 1.3-1.3 3.5 0 4.9 1.4 1.3 3.6 1.3 4.9 0ZM267.575 189.097a3.4 3.4 0 1 0 0-6.8 3.4 3.4 0 0 0 0 6.8ZM258.875 172.097c-1.3-1.3-3.5-1.3-4.9 0-1.3 1.3-1.3 3.5 0 4.9 1.3 1.3 3.5 1.3 4.9 0 1.4-1.3 1.4-3.5 0-4.9Z" fill="#80E895"/><path d="m117.3 173.622-58.3 58.2c1.6.3 3.2.6 4.8.8l54.2-54.2c-.1-1.6-.4-3.2-.7-4.8ZM113.9 163.522l-64.9 65c1.3.6 2.6 1.1 4 1.6l62.6-62.6c-.5-1.3-1.1-2.7-1.7-4ZM104.1 149.422c-.4-.4-.9-.8-1.4-1.4l-69.2 69.2c.5.6 1 1 1.4 1.4.4.4.9.8 1.4 1.4l69.2-69.2-1.4-1.4ZM104.1 218.622c4.5-4.5 8-9.6 10.4-15.4l-25.8 25.8c5.7-2.4 10.9-5.9 15.4-10.4ZM77.6 232.222l40.1-40.1c.3-2.1.6-4.2.6-6.2l-47 47c2.2-.1 4.2-.3 6.3-.7ZM85.9 137.922l-62.6 62.6c.5 1.3 1 2.7 1.6 4l64.9-64.9c-1.2-.7-2.5-1.2-3.9-1.7ZM61.2 135.622l-40.2 40.1c-.4 2.3-.6 4.5-.7 6.7l47.6-47.6c-2.2.2-4.5.4-6.7.8ZM34.8 149.422c-4.5 4.5-8 9.6-10.4 15.4l25.8-25.8c-5.7 2.4-10.9 5.9-15.4 10.4ZM95 142.222l-67.3 67.3c.7 1.2 1.5 2.3 2.2 3.3l68.4-68.4c-1-.7-2.1-1.4-3.3-2.2ZM75 135.422l-54.2 54.2c.2 1.6.4 3.2.8 4.8l58.2-58.2c-1.5-.4-3.2-.6-4.8-.8ZM108.9 155.122l-68.4 68.4c1.1.8 2.2 1.5 3.3 2.2l67.3-67.3c-.6-1.1-1.4-2.3-2.2-3.3Z" fill="#5B9279"/><path d="m108.9 161.922-58.2 58.2c1.6.3 3.2.6 4.8.8l54.2-54.2c-.2-1.6-.5-3.2-.8-4.8ZM105.6 151.822l-64.9 64.9c1.3.6 2.6 1.1 4 1.6l62.6-62.6c-.6-1.3-1.1-2.6-1.7-3.9ZM95.7 137.722c-.4-.4-.9-.8-1.4-1.4l-69.2 69.2c.5.6 1 1 1.4 1.4.4.4.9.8 1.4 1.4l69.2-69.2-1.4-1.4ZM95.7 206.922c4.5-4.5 8-9.6 10.4-15.4l-25.8 25.8c5.8-2.4 10.9-5.9 15.4-10.4ZM69.2 220.522l40.1-40.1c.3-2.1.6-4.1.6-6.2l-47 47c2.2-.1 4.3-.3 6.3-.7ZM77.6 126.222l-62.6 62.6c.5 1.3 1 2.7 1.6 4l64.9-64.9c-1.3-.7-2.6-1.2-3.9-1.7ZM52.8 123.922l-40.1 40.1c-.4 2.3-.6 4.5-.7 6.7l47.6-47.6c-2.3.2-4.6.4-6.8.8ZM26.5 137.722c-4.5 4.5-8 9.6-10.4 15.4l25.8-25.8c-5.8 2.4-11 5.9-15.4 10.4ZM86.6 130.522l-67.3 67.3c.7 1.2 1.5 2.3 2.2 3.3l68.5-68.3c-1.1-.8-2.2-1.6-3.4-2.3ZM66.7 123.722l-54.2 54.2c.2 1.6.5 3.2.8 4.8l58.2-58.2c-1.6-.4-3.2-.7-4.8-.8ZM100.6 143.422l-68.4 68.4c1.1.8 2.2 1.5 3.3 2.2l67.3-67.3c-.7-1.1-1.4-2.3-2.2-3.3Z" fill="#80E895"/><path d="m211.412 200.609-13.211-1.479-.315 2.811 10.479 1.102-1.18 10.54 2.811.315 1.416-13.289ZM199.457 210.157l-13.211-1.478-.314 2.811 10.4 1.164-1.101 10.478 2.811.314 1.415-13.289ZM187.503 219.706l-13.289-1.416-.237 2.749 10.401 1.163-1.102 10.479 2.733.377 1.494-13.352ZM175.47 229.317l-13.211-1.478-.315 2.811 10.479 1.101-1.179 10.541 2.81.314 1.416-13.289ZM163.516 238.866l-13.212-1.478-.314 2.811 10.478 1.101-1.179 10.541 2.811.314 1.416-13.289ZM151.561 248.414l-13.211-1.478-.315 2.811 10.479 1.101-1.18 10.541 2.811.315 1.416-13.29Z" fill="#5B9279"/><path d="m197.547 196.709-13.211-1.478-.315 2.811 10.479 1.101-1.18 10.541 2.749.236 1.478-13.211ZM185.592 206.258l-13.211-1.478-.315 2.811 10.479 1.101-1.179 10.541 2.748.236 1.478-13.211ZM173.638 215.807l-13.212-1.479-.314 2.811 10.478 1.102-1.179 10.54 2.749.237 1.478-13.211ZM161.683 225.355l-13.211-1.478-.315 2.811 10.401 1.164-1.102 10.478 2.749.237 1.478-13.212ZM149.728 234.904l-13.289-1.416-.236 2.749 10.4 1.164-1.101 10.478 2.67.299 1.556-13.274ZM137.774 244.453l-13.289-1.416-.237 2.749 10.4 1.163-1.101 10.479 2.671.298 1.556-13.273Z" fill="#80E895"/><path d="m237.15 362.817 4.186-18.691-13.493-13.594 4.377-19.475c.163-.879 1.068-1.348 1.851-1.158.88.163 1.349 1.068 1.159 1.852l-4.024 17.811 13.493 13.594-4.186 18.692 13.493 13.594-4.187 18.691 13.494 13.594-4.377 19.475c-.163.879-1.068 1.348-1.852 1.158-.879-.163-1.349-1.068-1.158-1.852l4.024-17.811-13.494-13.595 4.187-18.691-13.493-13.594ZM223.889 366.639l4.187-18.691-13.493-13.594 4.377-19.474c.162-.88 1.068-1.349 1.851-1.159.88.163 1.349 1.069 1.159 1.852l-4.024 17.812 13.493 13.594-4.186 18.691 13.493 13.594-4.187 18.691 13.494 13.595-4.377 19.474c-.163.879-1.069 1.349-1.852 1.158-.879-.163-1.349-1.068-1.158-1.852l4.024-17.811-13.494-13.594 4.187-18.691-13.494-13.595ZM210.629 370.462l4.187-18.691-13.493-13.595 4.377-19.474c.162-.879 1.068-1.349 1.851-1.158.88.163 1.349 1.068 1.159 1.851l-4.024 17.812 13.493 13.594-4.186 18.691 13.493 13.595-4.187 18.691 13.494 13.594-4.377 19.474c-.163.88-1.069 1.349-1.852 1.159-.879-.163-1.349-1.069-1.158-1.852l4.024-17.812-13.494-13.594 4.187-18.691-13.494-13.594ZM197.369 374.284l4.187-18.691-13.493-13.594 4.377-19.474c.162-.88 1.068-1.349 1.851-1.159.88.163 1.349 1.069 1.158 1.852l-4.023 17.811 13.493 13.595-4.187 18.691 13.494 13.594-4.187 18.691 13.494 13.594-4.377 19.475c-.163.879-1.069 1.349-1.852 1.158-.88-.163-1.349-1.068-1.158-1.852l4.024-17.811-13.494-13.594 4.187-18.691-13.494-13.595Z" fill="#5B9279"/><path d="m225.837 353.902 4.187-18.691-13.494-13.595 4.378-19.474c.162-.88 1.068-1.349 1.851-1.158.88.162 1.349 1.068 1.158 1.851l-4.023 17.812 13.493 13.594-4.187 18.691 13.494 13.594-4.187 18.691 13.494 13.595-4.377 19.474c-.163.88-1.069 1.349-1.852 1.158-.88-.162-1.349-1.068-1.158-1.851l4.024-17.812-13.494-13.594 4.187-18.691-13.494-13.594ZM212.577 357.724l4.187-18.691-13.494-13.594 4.377-19.475c.163-.879 1.069-1.348 1.852-1.158.88.163 1.349 1.068 1.158 1.852l-4.024 17.811 13.494 13.595-4.187 18.69 13.494 13.595-4.187 18.691 13.493 13.594-4.377 19.475c-.162.879-1.068 1.348-1.851 1.158-.88-.163-1.349-1.069-1.158-1.852l4.023-17.811-13.493-13.595 4.187-18.691-13.494-13.594ZM199.317 361.546l4.187-18.691-13.494-13.594 4.377-19.474c.163-.88 1.069-1.349 1.852-1.158.88.162 1.349 1.068 1.158 1.851l-4.024 17.812 13.494 13.594-4.187 18.691 13.494 13.594-4.187 18.691 13.493 13.595-4.377 19.474c-.162.88-1.068 1.349-1.851 1.158-.88-.162-1.349-1.068-1.158-1.851l4.023-17.812-13.493-13.594 4.187-18.691-13.494-13.595ZM186.057 365.369l4.187-18.691-13.494-13.595 4.377-19.474c.163-.879 1.069-1.349 1.852-1.158.88.163 1.349 1.068 1.158 1.852l-4.024 17.811 13.494 13.594-4.187 18.691 13.494 13.595-4.187 18.691 13.493 13.594-4.377 19.474c-.162.88-1.068 1.349-1.851 1.159-.88-.163-1.349-1.069-1.158-1.852l4.023-17.811-13.493-13.595 4.187-18.691-13.494-13.594Z" fill="#80E895"/><path d="M519.52 79.45v-14.7h16.4v-16.3h14.7v16.4h16.4v14.7h-16.4v16.4h-14.7v-16.4h-16.4v-.1Zm3.1-11.5v8.4h16.4v16.4h8.4v-16.4h16.4v-8.4h-16.4v-16.4h-8.4v16.4h-16.4Z" fill="#5B9279"/><path d="M511.12 67.75v-14.7h16.4v-16.3h14.7v16.4h16.4v14.7h-16.4v16.4h-14.7v-16.4h-16.4v-.1Zm3.1-11.6v8.4h16.4v16.4h8.4v-16.4h16.4v-8.4h-16.4v-16.3h-8.4v16.4h-16.4v-.1Z" fill="#80E895"/><path d="M648.3 96.6c0-18.1 14.7-32.9 32.9-32.9 18.1 0 32.9 14.7 32.9 32.9 0 18.1-14.7 32.9-32.9 32.9-18.1-.1-32.9-14.8-32.9-32.9Zm62.6 0c0-16.4-13.3-29.7-29.7-29.7s-29.7 13.3-29.7 29.7 13.3 29.7 29.7 29.7 29.7-13.3 29.7-29.7Zm-54.2 0c0-13.5 11-24.5 24.5-24.5s24.5 11 24.5 24.5-11 24.5-24.5 24.5-24.5-11-24.5-24.5Zm45.9 0c0-11.8-9.6-21.4-21.4-21.4-11.8 0-21.4 9.6-21.4 21.4 0 11.8 9.6 21.4 21.4 21.4 11.8-.1 21.4-9.6 21.4-21.4Z" fill="#5B9279"/><path d="M640 84.9c0-18.1 14.7-32.9 32.9-32.9 18.1 0 32.9 14.7 32.9 32.9 0 18.1-14.7 32.9-32.9 32.9-18.2-.1-32.9-14.8-32.9-32.9Zm62.6 0c0-16.4-13.3-29.7-29.7-29.7s-29.7 13.3-29.7 29.7 13.3 29.7 29.7 29.7 29.7-13.4 29.7-29.7Zm-54.3 0c0-13.5 11-24.5 24.5-24.5s24.5 11 24.5 24.5-11 24.5-24.5 24.5-24.5-11-24.5-24.5Zm45.9 0c0-11.8-9.6-21.4-21.4-21.4-11.8 0-21.4 9.6-21.4 21.4 0 11.8 9.6 21.4 21.4 21.4 11.8-.1 21.4-9.7 21.4-21.4Z" fill="#80E895"/><path d="m308.578 555.029-73.769-9.031 9.031-73.769 73.769 9.031-9.031 73.769Zm-68.198-13.246 63.964 7.831 7.831-63.965-63.965-7.83-7.83 63.964Z" fill="#5B9279"/><path d="M288.769 565.873 215 556.842l9.031-73.769 73.769 9.031-9.031 73.769Zm-68.198-13.245 63.964 7.83 7.831-63.964-63.965-7.831-7.83 63.965Z" fill="#80E895"/><path d="M522.366 201.934c0-24.109 19.645-43.754 43.754-43.754 24.109 0 43.754 19.645 43.754 43.754 0 24.109-19.645 43.754-43.754 43.754-24.109 0-43.754-19.645-43.754-43.754Zm81.972 0c0-21.073-17.145-38.218-38.218-38.218-21.073 0-38.217 17.145-38.217 38.218 0 21.073 17.144 38.218 38.217 38.218s38.218-17.145 38.218-38.218Z" fill="#5B9279"/><path d="M507.365 181.039c0-24.109 19.645-43.753 43.754-43.753 24.109 0 43.754 19.644 43.754 43.753 0 24.11-19.645 43.754-43.754 43.754-24.109 0-43.754-19.644-43.754-43.754Zm81.972 0c0-21.073-17.145-38.217-38.218-38.217-21.073 0-38.218 17.144-38.218 38.217 0 21.074 17.145 38.218 38.218 38.218 21.073 0 38.218-17.144 38.218-38.218Z" fill="#80E895"/><path d="m471.445 525.201-38.1-38.1 38.1-38.101 38.101 38.101-38.101 38.1Zm-31.201-38.1 31.201 31.202 31.202-31.202-31.202-31.202-31.201 31.202Z" fill="#5B9279"/><path d="M453.101 538.372 415 500.272l38.101-38.101 38.1 38.101-38.1 38.1Zm-31.202-38.257 31.202 31.202 31.201-31.202-31.201-31.202-31.202 31.202Z" fill="#80E895"/><path d="m705.071 261.098 10.741-16.302-16.303-10.741 10.895-16.536 16.302 10.741 10.742-16.302 16.535 10.894-10.741 16.303 16.302 10.741-10.894 16.535-16.303-10.741-10.741 16.303-16.535-10.895Zm19.24-18.05L713.57 259.35l6.288 4.143 10.741-16.302 16.303 10.741 4.143-6.288-16.303-10.741 10.741-16.303-6.288-4.143-10.741 16.303-16.302-10.741-4.143 6.288 16.302 10.741Z" fill="#5B9279"/><path d="m684.197 241.834 10.741-16.302-16.303-10.741 10.895-16.536 16.302 10.742 10.741-16.303 16.536 10.895-10.741 16.302 16.302 10.741-10.894 16.536-16.303-10.741-10.741 16.302-16.535-10.895Zm19.24-18.05-10.741 16.303 6.288 4.143 10.741-16.303 16.303 10.741 4.143-6.288-16.303-10.741 10.741-16.303-6.288-4.143-10.741 16.303-16.302-10.741-4.143 6.288 16.302 10.741Z" fill="#80E895"/><path d="M330.487 378.705v-61.6l53.3 30.8-53.3 30.8Zm3.1-56.1v50.7l43.9-25.4-43.9-25.3Z" fill="#5B9279"/><path d="M322.187 367.005v-61.5l53.3 30.8-53.3 30.7Zm3.1-56.2v50.7l43.9-25.4-43.9-25.3Z" fill="#80E895"/><path d="m441.542 382.644 73.95 9.826M442.424 376.002l73.95 9.826M443.32 369.261l73.95 9.826M444.216 362.52l73.95 9.826M445.111 355.78l73.95 9.826M445.994 349.138l73.95 9.826M446.889 342.397l73.95 9.826M447.785 335.656l73.95 9.827M448.681 328.916l73.95 9.826M449.563 322.274l73.95 9.826M450.459 315.533l73.95 9.826M451.355 308.793l73.95 9.826" stroke="#5B9279" stroke-miterlimit="10"/><path d="m471.319 331.972-10.116 76.13 76.131 10.116 10.116-76.131-76.131-10.115Z" stroke="#80E895" stroke-miterlimit="10"/><path d="M598.641 332.641c-1.2 1.3-3.3 1.4-4.6.2-1.3-1.2-1.4-3.3-.2-4.6 1.2-1.3 3.3-1.4 4.6-.2 1.4 1.2 1.5 3.3.2 4.6ZM640.741 371.441c-1.2 1.3-3.3 1.4-4.6.2-1.3-1.2-1.4-3.3-.2-4.6 1.2-1.3 3.3-1.4 4.6-.2 1.3 1.2 1.4 3.3.2 4.6Z" fill="#80E895"/><path d="M654.741 384.441c-1.2 1.3-3.3 1.4-4.6.2-1.3-1.2-1.4-3.3-.2-4.6 1.2-1.3 3.3-1.4 4.6-.2 1.4 1.2 1.4 3.2.2 4.6Z" fill="#5B9279"/><path d="M624.441 332.841c-1.2 1.3-3.3 1.4-4.6.2-1.3-1.2-1.4-3.3-.2-4.6 1.2-1.3 3.3-1.4 4.6-.2 1.4 1.2 1.4 3.3.2 4.6ZM638.441 345.741c-1.2 1.3-3.3 1.4-4.6.2-1.3-1.2-1.4-3.3-.2-4.6 1.2-1.3 3.3-1.4 4.6-.2 1.4 1.3 1.5 3.3.2 4.6ZM622.141 307.141c-1.2 1.3-3.3 1.4-4.6.2-1.3-1.2-1.4-3.3-.2-4.6 1.2-1.3 3.3-1.4 4.6-.2 1.4 1.2 1.5 3.3.2 4.6Z" fill="#80E895"/><path d="M636.241 320.141c-1.2 1.3-3.3 1.4-4.6.2-1.3-1.2-1.4-3.3-.2-4.6 1.2-1.3 3.3-1.4 4.6-.2 1.3 1.2 1.4 3.3.2 4.6Z" fill="#5B9279"/><path d="M650.241 333.041c-1.2 1.3-3.3 1.4-4.6.2-1.3-1.2-1.4-3.3-.2-4.6 1.2-1.3 3.3-1.4 4.6-.2 1.3 1.2 1.4 3.3.2 4.6ZM664.241 346.041c-1.2 1.3-3.3 1.4-4.6.2-1.3-1.2-1.4-3.3-.2-4.6 1.2-1.3 3.3-1.4 4.6-.2 1.3 1.2 1.4 3.2.2 4.6ZM678.241 358.941c-1.2 1.3-3.3 1.4-4.6.2-1.3-1.2-1.4-3.3-.2-4.6 1.2-1.3 3.3-1.4 4.6-.2 1.4 1.2 1.4 3.3.2 4.6Z" fill="#80E895"/><path d="M633.941 294.441c-1.2 1.3-3.3 1.4-4.6.2-1.3-1.2-1.4-3.3-.2-4.6 1.2-1.3 3.3-1.4 4.6-.2 1.3 1.2 1.4 3.3.2 4.6Z" fill="#5B9279"/><path d="M661.941 320.341c-1.2 1.3-3.3 1.4-4.6.2-1.3-1.2-1.4-3.3-.2-4.6 1.2-1.3 3.3-1.4 4.6-.2 1.4 1.2 1.5 3.3.2 4.6Z" fill="#80E895"/><path d="M676.041 333.241c-1.2 1.3-3.3 1.4-4.6.2-1.3-1.2-1.4-3.3-.2-4.6 1.2-1.3 3.3-1.4 4.6-.2 1.3 1.2 1.4 3.3.2 4.6Z" fill="#5B9279"/><path d="m680.617 592.705-80.313-32.583c-1.326-.538-1.945-2.002-1.351-3.195l32.583-80.313c.538-1.326 2.002-1.945 3.195-1.351l80.313 32.583c1.326.537 1.945 2.002 1.351 3.195l-32.582 80.313c-.538 1.326-2.003 1.945-3.196 1.351Z" stroke="#80E895" stroke-width="1.771" stroke-miterlimit="10"/><path d="M626.958 457.991a1.446 1.446 0 1 0-1.127-2.664 1.446 1.446 0 0 0 1.127 2.664ZM648.614 465.784c-.308.758-1.107 1.096-1.864.788-.758-.307-1.096-1.106-.788-1.864.307-.757 1.106-1.095 1.864-.788.701.175 1.095 1.106.788 1.864ZM669.45 474.237c-.308.758-1.107 1.096-1.864.788-.758-.307-1.096-1.106-.788-1.864.307-.757 1.106-1.095 1.864-.788.701.175 1.095 1.106.788 1.864ZM690.286 482.69c-.308.758-1.107 1.096-1.864.788-.758-.307-1.096-1.106-.788-1.864.307-.757 1.106-1.095 1.864-.788.701.175 1.095 1.106.788 1.864ZM710.358 491.937a1.445 1.445 0 1 0-1.123-2.662 1.445 1.445 0 0 0 1.123 2.662ZM620.113 475.951c-.307.757-1.106 1.095-1.863.788-.758-.308-1.096-1.107-.788-1.864.307-.758 1.106-1.096 1.863-.788.758.307 1.096 1.106.788 1.864ZM640.186 485.197a1.445 1.445 0 1 0-1.123-2.662 1.445 1.445 0 0 0 1.123 2.662ZM661.022 493.65a1.445 1.445 0 1 0-1.123-2.662 1.445 1.445 0 0 0 1.123 2.662ZM681.858 502.103a1.445 1.445 0 1 0-1.123-2.662 1.445 1.445 0 0 0 1.123 2.662ZM702.827 510.5a1.445 1.445 0 1 0-1.123-2.662 1.445 1.445 0 0 0 1.123 2.662ZM612.582 494.513c-.307.758-1.106 1.096-1.863.788-.758-.307-1.096-1.106-.788-1.863.307-.758 1.106-1.096 1.863-.788.758.307 1.096 1.106.788 1.863ZM632.655 503.76a1.445 1.445 0 1 0-1.123-2.662 1.445 1.445 0 0 0 1.123 2.662ZM653.491 512.213a1.445 1.445 0 1 0-1.123-2.662 1.445 1.445 0 0 0 1.123 2.662ZM674.327 520.666a1.445 1.445 0 1 0-1.123-2.662 1.445 1.445 0 0 0 1.123 2.662ZM695.926 528.326c-.307.757-1.106 1.095-1.863.788-.758-.308-1.096-1.107-.788-1.864.307-.758 1.106-1.096 1.863-.788.758.307 1.096 1.106.788 1.864ZM605.052 513.076c-.308.758-1.107 1.096-1.864.788-.758-.307-1.096-1.106-.788-1.863.307-.758 1.106-1.096 1.864-.788.757.307 1.151 1.239.788 1.863ZM625.944 521.662c-.307.758-1.106 1.096-1.864.788-.758-.307-1.095-1.106-.788-1.863.307-.758 1.106-1.096 1.864-.788.701.174 1.095 1.106.788 1.863ZM646.017 530.909a1.445 1.445 0 1 0-1.126-2.662 1.445 1.445 0 0 0 1.126 2.662ZM667.616 538.569c-.307.757-1.106 1.095-1.864.788-.758-.308-1.095-1.107-.788-1.864.308-.758 1.106-1.096 1.864-.788.701.174 1.095 1.106.788 1.864ZM688.452 547.022c-.307.757-1.106 1.095-1.864.788-.758-.308-1.095-1.107-.788-1.864.308-.758 1.106-1.096 1.864-.788.758.307 1.095 1.106.788 1.864ZM597.444 531.829c-.307.758-1.106 1.095-1.864.788-.758-.308-1.095-1.106-.788-1.864.307-.758 1.106-1.095 1.864-.788.758.307 1.095 1.106.788 1.864ZM617.517 541.075a1.445 1.445 0 1 0-1.125-2.662 1.445 1.445 0 0 0 1.125 2.662ZM638.353 549.528a1.445 1.445 0 1 0-1.125-2.662 1.445 1.445 0 0 0 1.125 2.662ZM659.189 557.981a1.445 1.445 0 1 0-1.125-2.662 1.445 1.445 0 0 0 1.125 2.662ZM680.921 565.585c-.307.758-1.106 1.095-1.864.788-.757-.308-1.095-1.106-.788-1.864.308-.758 1.106-1.095 1.864-.788.625.364.962 1.162.788 1.864ZM589.913 550.392c-.307.757-1.106 1.095-1.864.788-.758-.308-1.095-1.106-.788-1.864.307-.758 1.106-1.095 1.864-.788.758.307 1.095 1.106.788 1.864ZM609.986 559.638a1.445 1.445 0 1 0-1.126-2.662 1.445 1.445 0 0 0 1.126 2.662ZM630.822 568.091a1.445 1.445 0 1 0-1.126-2.662 1.445 1.445 0 0 0 1.126 2.662ZM651.658 576.544a1.445 1.445 0 1 0-1.126-2.662 1.445 1.445 0 0 0 1.126 2.662ZM673.257 584.204c-.307.758-1.106 1.095-1.864.788-.758-.307-1.095-1.106-.788-1.864.307-.758 1.106-1.095 1.864-.788.758.307 1.095 1.106.788 1.864Z" fill="#5B9279"/><path d="M121.5 460h51.3c.8 0 1.5.7 1.5 1.5v51.3c0 .8-.7 1.5-1.5 1.5h-51.3c-.8 0-1.5-.7-1.5-1.5v-51.3c.1-.8.7-1.5 1.5-1.5Z" stroke="#80E895" stroke-width="2" stroke-miterlimit="10"/><path d="M179 523.3c0-.5.4-.8.8-.8.5 0 .8.4.8.8 0 .5-.4.8-.8.8-.4.1-.8-.3-.8-.8ZM165.7 523.3c0-.5.4-.8.8-.8s.8.4.8.8c0 .5-.4.8-.8.8s-.8-.3-.8-.8ZM152.4 523.3c0-.5.4-.8.8-.8.5 0 .8.4.8.8 0 .5-.4.8-.8.8-.4.1-.8-.3-.8-.8ZM139.1 523.3c0-.5.4-.8.8-.8.5 0 .8.4.8.8 0 .5-.4.8-.8.8-.4.1-.8-.3-.8-.8ZM125.8 523.3c0-.5.4-.8.8-.8.5 0 .8.4.8.8 0 .5-.4.8-.8.8-.5.1-.8-.3-.8-.8ZM179 511.4c0-.5.4-.8.8-.8.5 0 .8.4.8.8 0 .5-.4.8-.8.8-.4.1-.8-.3-.8-.8ZM165.7 511.4c0-.5.4-.8.8-.8s.8.4.8.8c0 .5-.4.8-.8.8s-.8-.3-.8-.8ZM152.4 511.4c0-.5.4-.8.8-.8.5 0 .8.4.8.8 0 .5-.4.8-.8.8-.4.1-.8-.3-.8-.8ZM139.1 511.4c0-.5.4-.8.8-.8.5 0 .8.4.8.8 0 .5-.4.8-.8.8-.4.1-.8-.3-.8-.8ZM125.8 511.4c0-.5.4-.8.8-.8.5 0 .8.4.8.8 0 .5-.4.8-.8.8-.5.1-.8-.3-.8-.8ZM179 499.5c0-.5.4-.8.8-.8.5 0 .8.4.8.8 0 .5-.4.8-.8.8-.4.1-.8-.3-.8-.8ZM166.5 500.3a.8.8 0 1 0 0-1.6.8.8 0 0 0 0 1.6ZM153.2 500.3a.8.8 0 1 0 0-1.6.8.8 0 0 0 0 1.6ZM139.1 499.5c0-.5.4-.8.8-.8.5 0 .8.4.8.8 0 .5-.4.8-.8.8-.4.1-.8-.3-.8-.8ZM125.8 499.5c0-.5.4-.8.8-.8.5 0 .8.4.8.8 0 .5-.4.8-.8.8-.5.1-.8-.3-.8-.8ZM179 487.7c0-.5.4-.8.8-.8.5 0 .8.4.8.8s-.4.8-.8.8-.8-.4-.8-.8ZM166.5 488.5a.8.8 0 1 0 0-1.6.8.8 0 0 0 0 1.6ZM153.2 488.5a.8.8 0 1 0 0-1.6.8.8 0 0 0 0 1.6ZM139.1 487.7c0-.5.4-.8.8-.8.5 0 .8.4.8.8s-.4.8-.8.8-.8-.4-.8-.8ZM125.8 487.7c0-.5.4-.8.8-.8.5 0 .8.4.8.8s-.4.8-.8.8c-.5 0-.8-.4-.8-.8ZM179 475.8c0-.5.4-.8.8-.8.5 0 .8.4.8.8s-.4.8-.8.8-.8-.4-.8-.8ZM166.5 476.6a.8.8 0 1 0 0-1.6.8.8 0 0 0 0 1.6ZM153.2 476.6a.8.8 0 1 0 0-1.6.8.8 0 0 0 0 1.6ZM139.1 475.8c0-.5.4-.8.8-.8.5 0 .8.4.8.8s-.4.8-.8.8-.8-.4-.8-.8ZM125.8 475.8c0-.5.4-.8.8-.8.5 0 .8.4.8.8s-.4.8-.8.8c-.5 0-.8-.4-.8-.8ZM179 463.9c0-.5.4-.8.8-.8.5 0 .8.4.8.8 0 .5-.4.8-.8.8s-.8-.4-.8-.8ZM165.7 463.9c0-.5.4-.8.8-.8s.8.4.8.8c0 .5-.4.8-.8.8s-.8-.4-.8-.8ZM152.4 463.9c0-.5.4-.8.8-.8.5 0 .8.4.8.8 0 .5-.4.8-.8.8s-.8-.4-.8-.8ZM139.1 463.9c0-.5.4-.8.8-.8.5 0 .8.4.8.8 0 .5-.4.8-.8.8s-.8-.4-.8-.8ZM125.8 463.9c0-.5.4-.8.8-.8.5 0 .8.4.8.8 0 .5-.4.8-.8.8-.5 0-.8-.4-.8-.8Z" fill="#5B9279"/></g></svg>