<svg width="809" height="621" viewBox="0 0 809 621" fill="none" xmlns="http://www.w3.org/2000/svg">
<g opacity="0.08">
<rect width="809" height="621" fill="white"/>
<path d="M59.0643 86.7497C59.0643 86.4497 59.1643 86.2497 59.2643 86.0497C59.6643 85.2497 60.6643 85.0497 61.3643 85.4497L77.3643 94.2497L94.1643 85.0497L110.964 94.1497L127.764 84.9497L144.564 94.1497L161.364 84.9497L178.864 94.5497C179.664 94.9497 179.864 95.9497 179.464 96.6497C179.064 97.4497 178.064 97.6497 177.364 97.2497L161.364 88.4497L144.564 97.6497L127.764 88.4497L110.964 97.6497L94.1643 88.4497L77.3643 97.6497L59.8643 88.1497C59.2643 87.8497 59.0643 87.3497 59.0643 86.7497Z" fill="#5B9279"/>
<path d="M59.0643 72.9498C59.0643 72.6498 59.1643 72.4498 59.2643 72.2498C59.6643 71.4498 60.6643 71.2498 61.3643 71.6498L77.3643 80.4498L94.1643 71.2498L110.964 80.4498L127.764 71.2498L144.564 80.4498L161.364 71.2498L178.864 80.8498C179.664 81.2498 179.864 82.2498 179.464 82.9498C179.064 83.7498 178.064 83.9498 177.364 83.5498L161.364 74.7498L144.564 83.9498L127.764 74.7498L110.964 83.9498L94.1643 74.7498L77.3643 83.9498L59.8643 74.3498C59.2643 74.0498 59.0643 73.5498 59.0643 72.9498Z" fill="#5B9279"/>
<path d="M59.0643 59.1497C59.0643 58.8497 59.1643 58.6497 59.2643 58.4497C59.6643 57.6497 60.6643 57.4497 61.3643 57.8497L77.3643 66.6497L94.1643 57.4497L110.964 66.6497L127.764 57.4497L144.564 66.6497L161.364 57.4497L178.864 67.0497C179.664 67.4497 179.864 68.4497 179.464 69.1497C179.064 69.9497 178.064 70.1497 177.364 69.7497L161.364 60.9497L144.564 70.1497L127.764 60.9497L110.964 70.1497L94.1643 60.9497L77.3643 70.1497L59.8643 60.5497C59.2643 60.2497 59.0643 59.7497 59.0643 59.1497Z" fill="#5B9279"/>
<path d="M59.0643 45.3497C59.0643 45.0497 59.1643 44.8497 59.2643 44.6497C59.6643 43.8497 60.6643 43.6497 61.3643 44.0497L77.3643 52.8497L94.1643 43.6497L110.964 52.8497L127.764 43.6497L144.564 52.8497L161.364 43.6497L178.864 53.2497C179.664 53.6497 179.864 54.6497 179.464 55.3497C179.064 56.1497 178.064 56.3497 177.364 55.9497L161.364 47.1497L144.564 56.3497L127.764 47.1497L110.964 56.3497L94.1643 47.1497L77.3643 56.3497L59.8643 46.7497C59.2643 46.4497 59.0643 45.9497 59.0643 45.3497Z" fill="#5B9279"/>
<path d="M50.6642 75.0496C50.6642 74.7496 50.7642 74.5496 50.8642 74.3496C51.2642 73.5496 52.2642 73.3496 52.9642 73.7496L68.9642 82.5496L85.7642 73.3496L102.564 82.5496L119.364 73.3496L136.164 82.5496L152.964 73.3496L170.464 82.9496C171.264 83.3496 171.464 84.3496 171.064 85.0496C170.664 85.8496 169.664 86.0496 168.964 85.6496L152.964 76.8496L136.164 86.0496L119.364 76.8496L102.564 86.0496L85.7642 76.8496L68.9642 86.0496L51.4642 76.4496C50.9642 76.1496 50.6642 75.5496 50.6642 75.0496Z" fill="#80E895"/>
<path d="M50.6642 61.2498C50.6642 60.9498 50.7642 60.7498 50.8642 60.5498C51.2642 59.7498 52.2642 59.5498 52.9642 59.9498L68.9642 68.7498L85.7642 59.5498L102.564 68.7498L119.364 59.5498L136.164 68.7498L152.964 59.5498L170.464 69.1498C171.264 69.5498 171.464 70.5498 171.064 71.2498C170.664 72.0498 169.664 72.2498 168.964 71.8498L152.964 63.0498L136.164 72.2498L119.364 63.0498L102.564 72.2498L85.7642 63.0498L68.9642 72.2498L51.4642 62.6498C50.9642 62.3498 50.6642 61.8498 50.6642 61.2498Z" fill="#80E895"/>
<path d="M50.6642 47.4498C50.6642 47.1498 50.7642 46.9498 50.8642 46.7498C51.2642 45.9498 52.2642 45.7498 52.9642 46.1498L68.9642 54.9498L85.7642 45.7498L102.564 54.9498L119.364 45.7498L136.164 54.9498L152.964 45.7498L170.464 55.3498C171.264 55.7498 171.464 56.7498 171.064 57.4498C170.664 58.2498 169.664 58.4498 168.964 58.0498L152.964 49.2498L136.164 58.4498L119.364 49.2498L102.564 58.4498L85.7642 49.2498L68.9642 58.4498L51.4642 48.8498C50.9642 48.5498 50.6642 48.0498 50.6642 47.4498Z" fill="#80E895"/>
<path d="M50.6642 33.6497C50.6642 33.3497 50.7642 33.1497 50.8642 32.9497C51.2642 32.1497 52.2642 31.9497 52.9642 32.3497L68.9642 41.1497L85.7642 31.9497L102.564 41.1497L119.364 31.9497L136.164 41.1497L152.964 31.9497L170.464 41.5497C171.264 41.9497 171.464 42.9497 171.064 43.6497C170.664 44.4497 169.664 44.6497 168.964 44.2497L152.964 35.4497L136.164 44.6497L119.364 35.4497L102.564 44.6497L85.7642 35.4497L68.9642 44.6497L51.4642 35.0497C50.9642 34.7497 50.6642 34.2497 50.6642 33.6497Z" fill="#80E895"/>
<path d="M274 109.5L236.3 71.7998C235.2 71.8998 234.1 72.0998 233 72.3998L273.5 112.9C273.7 111.7 273.9 110.6 274 109.5Z" fill="#5B9279"/>
<path d="M264.3 81.4998C261.2 78.3998 257.6 75.9998 253.6 74.2998L271.6 92.2998C269.8 88.1998 267.4 84.5998 264.3 81.4998Z" fill="#5B9279"/>
<path d="M216.1 129.6C219.2 132.7 222.8 135.1 226.8 136.8L208.8 118.8C210.6 122.9 213 126.5 216.1 129.6Z" fill="#5B9279"/>
<path d="M260.3 133L212.7 85.3999C212.2 86.0999 211.6 86.8999 211.1 87.6999L257.9 134.5C258.8 134.1 259.6 133.6 260.3 133Z" fill="#5B9279"/>
<path d="M247.4 138.8L206.9 98.2998C206.7 99.3998 206.5 100.5 206.3 101.6L244.1 139.4C245.2 139.3 246.3 139.1 247.4 138.8Z" fill="#5B9279"/>
<path d="M269.2 123.3L222.4 76.4998C221.6 76.9998 220.8 77.4997 220.1 78.0997L267.7 125.7C268.2 124.9 268.7 124.1 269.2 123.3Z" fill="#5B9279"/>
<path d="M265.7 97.7L228 60C226.9 60.1 225.8 60.3 224.7 60.6L265.1 101.1C265.3 100 265.5 98.9 265.7 97.7Z" fill="#80E895"/>
<path d="M255.9 69.8001C252.8 66.7001 249.2 64.3001 245.2 62.6001L263.2 80.6001C261.5 76.5001 259 72.9001 255.9 69.8001Z" fill="#80E895"/>
<path d="M207.8 117.9C210.9 121 214.5 123.4 218.5 125.1L200.5 107.1C202.2 111.2 204.7 114.8 207.8 117.9Z" fill="#80E895"/>
<path d="M251.9 121.3L204.3 73.7C203.8 74.4 203.2 75.2 202.7 76L249.5 122.8C250.4 122.4 251.2 121.9 251.9 121.3Z" fill="#80E895"/>
<path d="M239.1 127.1L198.6 86.6001C198.4 87.7001 198.2 88.8001 198 89.9001L235.7 127.6C236.8 127.5 238 127.4 239.1 127.1Z" fill="#80E895"/>
<path d="M260.9 111.6L214.1 64.8C213.3 65.3 212.5 65.8 211.8 66.4L259.4 114C259.9 113.2 260.4 112.4 260.9 111.6Z" fill="#80E895"/>
<path d="M338.766 125.8C340.059 125.659 341.271 126.634 341.411 127.926C341.552 129.219 340.577 130.431 339.285 130.572C337.992 130.712 336.78 129.737 336.639 128.445C336.499 127.152 337.374 125.951 338.766 125.8Z" fill="#5B9279"/>
<path d="M349.702 124.612C350.994 124.471 352.207 125.446 352.347 126.739C352.487 128.031 351.513 129.243 350.22 129.384C348.928 129.524 347.715 128.549 347.575 127.257C347.435 125.964 348.409 124.752 349.702 124.612Z" fill="#5B9279"/>
<path d="M360.737 123.413C362.029 123.273 363.242 124.247 363.382 125.54C363.523 126.832 362.548 128.045 361.255 128.185C359.963 128.325 358.751 127.351 358.61 126.058C358.47 124.766 359.445 123.553 360.737 123.413Z" fill="#5B9279"/>
<path d="M371.772 122.214C373.064 122.074 374.277 123.049 374.417 124.341C374.558 125.633 373.583 126.846 372.29 126.986C370.998 127.127 369.786 126.152 369.645 124.859C369.505 123.567 370.38 122.365 371.772 122.214Z" fill="#5B9279"/>
<path d="M382.708 121.026C384 120.886 385.212 121.861 385.353 123.153C385.493 124.445 384.518 125.658 383.226 125.798C381.934 125.939 380.721 124.964 380.581 123.671C380.44 122.379 381.415 121.167 382.708 121.026Z" fill="#5B9279"/>
<path d="M393.743 119.828C395.035 119.687 396.248 120.662 396.388 121.954C396.528 123.247 395.554 124.459 394.261 124.599C392.969 124.74 391.756 123.765 391.616 122.473C391.476 121.18 392.351 119.979 393.743 119.828Z" fill="#5B9279"/>
<path d="M404.678 118.64C405.971 118.499 407.183 119.474 407.324 120.766C407.464 122.059 406.489 123.271 405.197 123.411C403.904 123.552 402.692 122.577 402.552 121.285C402.411 119.992 403.386 118.78 404.678 118.64Z" fill="#5B9279"/>
<path d="M337.535 114.466C338.827 114.326 340.04 115.301 340.18 116.593C340.321 117.886 339.346 119.098 338.053 119.238C336.761 119.379 335.549 118.404 335.408 117.112C335.268 115.819 336.143 114.618 337.535 114.466Z" fill="#5B9279"/>
<path d="M348.471 113.278C349.763 113.138 350.975 114.113 351.116 115.405C351.256 116.698 350.282 117.91 348.989 118.05C347.697 118.191 346.484 117.216 346.344 115.924C346.204 114.631 347.178 113.419 348.471 113.278Z" fill="#5B9279"/>
<path d="M359.506 112.08C360.798 111.939 362.011 112.914 362.151 114.207C362.291 115.499 361.317 116.711 360.024 116.852C358.732 116.992 357.519 116.017 357.379 114.725C357.239 113.432 358.213 112.22 359.506 112.08Z" fill="#5B9279"/>
<path d="M370.541 110.881C371.833 110.741 373.046 111.715 373.186 113.008C373.326 114.3 372.352 115.513 371.059 115.653C369.767 115.793 368.554 114.819 368.414 113.526C368.274 112.234 369.149 111.032 370.541 110.881Z" fill="#5B9279"/>
<path d="M381.477 109.693C382.769 109.553 383.981 110.527 384.122 111.82C384.262 113.112 383.287 114.325 381.995 114.465C380.702 114.605 379.49 113.631 379.35 112.338C379.209 111.046 380.184 109.833 381.477 109.693Z" fill="#5B9279"/>
<path d="M392.512 108.494C393.804 108.354 395.016 109.329 395.157 110.621C395.297 111.913 394.322 113.126 393.03 113.266C391.738 113.407 390.525 112.432 390.385 111.139C390.244 109.847 391.12 108.645 392.512 108.494Z" fill="#5B9279"/>
<path d="M403.447 107.306C404.74 107.166 405.952 108.141 406.092 109.433C406.233 110.725 405.258 111.938 403.966 112.078C402.673 112.219 401.461 111.244 401.321 109.951C401.18 108.659 402.155 107.447 403.447 107.306Z" fill="#5B9279"/>
<path d="M336.293 103.034C337.586 102.893 338.798 103.868 338.938 105.16C339.079 106.453 338.104 107.665 336.811 107.806C335.519 107.946 334.307 106.971 334.166 105.679C334.026 104.386 334.901 103.185 336.293 103.034Z" fill="#5B9279"/>
<path d="M347.229 101.846C348.521 101.705 349.734 102.68 349.874 103.972C350.014 105.265 349.04 106.477 347.747 106.618C346.455 106.758 345.242 105.783 345.102 104.491C344.962 103.198 345.936 101.986 347.229 101.846Z" fill="#5B9279"/>
<path d="M358.264 100.647C359.556 100.506 360.769 101.481 360.909 102.774C361.049 104.066 360.075 105.278 358.782 105.419C357.49 105.559 356.277 104.584 356.137 103.292C355.997 102 356.971 100.787 358.264 100.647Z" fill="#5B9279"/>
<path d="M369.299 99.4482C370.591 99.3078 371.804 100.283 371.944 101.575C372.084 102.867 371.11 104.08 369.817 104.22C368.525 104.36 367.313 103.386 367.172 102.093C366.932 100.812 367.907 99.5993 369.299 99.4482Z" fill="#5B9279"/>
<path d="M380.235 98.2602C381.527 98.1198 382.739 99.0945 382.88 100.387C383.02 101.679 382.045 102.892 380.753 103.032C379.461 103.172 378.248 102.198 378.108 100.905C377.967 99.6129 378.942 98.4006 380.235 98.2602Z" fill="#5B9279"/>
<path d="M391.27 97.0614C392.562 96.921 393.774 97.8958 393.915 99.1882C394.055 100.481 393.08 101.693 391.788 101.833C390.496 101.974 389.283 100.999 389.143 99.7066C388.903 98.425 389.878 97.2126 391.27 97.0614Z" fill="#5B9279"/>
<path d="M402.205 95.8734C403.498 95.7331 404.71 96.7078 404.85 98.0002C404.991 99.2926 404.016 100.505 402.724 100.645C401.431 100.786 400.219 99.811 400.079 98.5186C399.938 97.2262 400.913 96.0138 402.205 95.8734Z" fill="#5B9279"/>
<path d="M349.501 116.285C350.794 116.144 352.006 117.119 352.147 118.412C352.287 119.704 351.312 120.916 350.02 121.057C348.727 121.197 347.515 120.222 347.375 118.93C347.234 117.638 348.209 116.425 349.501 116.285Z" fill="#80E895"/>
<path d="M360.536 115.086C361.829 114.946 363.041 115.92 363.182 117.213C363.322 118.505 362.347 119.718 361.055 119.858C359.762 119.998 358.55 119.024 358.41 117.731C358.269 116.439 359.145 115.237 360.536 115.086Z" fill="#80E895"/>
<path d="M371.472 113.898C372.765 113.758 373.977 114.732 374.117 116.025C374.258 117.317 373.283 118.53 371.991 118.67C370.698 118.81 369.486 117.836 369.345 116.543C369.205 115.251 370.18 114.038 371.472 113.898Z" fill="#80E895"/>
<path d="M382.507 112.699C383.8 112.559 385.012 113.534 385.152 114.826C385.293 116.119 384.318 117.331 383.026 117.471C381.733 117.612 380.521 116.637 380.38 115.345C380.24 114.052 381.115 112.851 382.507 112.699Z" fill="#80E895"/>
<path d="M393.443 111.511C394.735 111.371 395.948 112.346 396.088 113.638C396.228 114.931 395.254 116.143 393.961 116.283C392.669 116.424 391.456 115.449 391.316 114.157C391.176 112.864 392.15 111.652 393.443 111.511Z" fill="#80E895"/>
<path d="M404.478 110.313C405.77 110.172 406.983 111.147 407.123 112.439C407.263 113.732 406.289 114.944 404.996 115.085C403.704 115.225 402.492 114.25 402.351 112.958C402.211 111.665 403.086 110.464 404.478 110.313Z" fill="#80E895"/>
<path d="M415.414 109.125C416.706 108.984 417.918 109.959 418.059 111.251C418.199 112.544 417.224 113.756 415.932 113.897C414.64 114.037 413.427 113.062 413.287 111.77C413.146 110.477 414.121 109.265 415.414 109.125Z" fill="#80E895"/>
<path d="M348.259 104.852C349.552 104.712 350.764 105.687 350.905 106.979C351.045 108.271 350.07 109.484 348.778 109.624C347.485 109.765 346.273 108.79 346.133 107.497C345.992 106.205 346.967 104.993 348.259 104.852Z" fill="#80E895"/>
<path d="M359.295 103.653C360.587 103.513 361.799 104.488 361.94 105.78C362.08 107.073 361.105 108.285 359.813 108.425C358.521 108.566 357.308 107.591 357.168 106.299C356.928 105.017 357.903 103.805 359.295 103.653Z" fill="#80E895"/>
<path d="M370.23 102.465C371.523 102.325 372.735 103.3 372.875 104.592C373.016 105.885 372.041 107.097 370.749 107.237C369.456 107.378 368.244 106.403 368.103 105.111C367.963 103.818 368.938 102.606 370.23 102.465Z" fill="#80E895"/>
<path d="M381.265 101.267C382.558 101.126 383.77 102.101 383.91 103.394C384.051 104.686 383.076 105.898 381.784 106.039C380.491 106.179 379.279 105.204 379.138 103.912C378.899 102.63 379.873 101.418 381.265 101.267Z" fill="#80E895"/>
<path d="M392.201 100.079C393.493 99.9384 394.706 100.913 394.846 102.206C394.986 103.498 394.012 104.71 392.719 104.851C391.427 104.991 390.215 104.016 390.074 102.724C389.934 101.432 390.908 100.219 392.201 100.079Z" fill="#80E895"/>
<path d="M403.236 98.88C404.528 98.7396 405.741 99.7144 405.881 101.007C406.022 102.299 405.047 103.512 403.754 103.652C402.462 103.792 401.25 102.818 401.109 101.525C400.869 100.244 401.844 99.0312 403.236 98.88Z" fill="#80E895"/>
<path d="M414.172 97.692C415.464 97.5517 416.676 98.5264 416.817 99.8188C416.957 101.111 415.982 102.324 414.69 102.464C413.398 102.604 412.185 101.63 412.045 100.337C411.904 99.0448 412.879 97.8324 414.172 97.692Z" fill="#80E895"/>
<path d="M347.017 93.4193C348.31 93.279 349.522 94.2537 349.663 95.5461C349.803 96.8385 348.828 98.0509 347.536 98.1913C346.243 98.3317 345.031 97.3569 344.891 96.0645C344.75 94.7721 345.725 93.5597 347.017 93.4193Z" fill="#80E895"/>
<path d="M358.053 92.2206C359.345 92.0802 360.557 93.055 360.698 94.3474C360.838 95.6398 359.863 96.8521 358.571 96.9925C357.279 97.1329 356.066 96.1582 355.926 94.8658C355.686 93.5842 356.661 92.3718 358.053 92.2206Z" fill="#80E895"/>
<path d="M368.988 91.0326C370.281 90.8922 371.493 91.867 371.633 93.1594C371.774 94.4518 370.799 95.6642 369.507 95.8046C368.214 95.9449 367.002 94.9702 366.861 93.6778C366.721 92.3854 367.696 91.173 368.988 91.0326Z" fill="#80E895"/>
<path d="M380.023 89.8339C381.316 89.6935 382.528 90.6683 382.668 91.9607C382.809 93.2531 381.834 94.4654 380.542 94.6058C379.249 94.7462 378.037 93.7714 377.897 92.4791C377.657 91.1975 378.631 89.9851 380.023 89.8339Z" fill="#80E895"/>
<path d="M390.959 88.6459C392.251 88.5055 393.464 89.4803 393.604 90.7727C393.744 92.0651 392.77 93.2774 391.477 93.4178C390.185 93.5582 388.973 92.5835 388.832 91.2911C388.692 89.9987 389.667 88.7863 390.959 88.6459Z" fill="#80E895"/>
<path d="M401.994 87.4472C403.286 87.3068 404.499 88.2816 404.639 89.574C404.78 90.8663 403.805 92.0787 402.512 92.2191C401.22 92.3595 400.008 91.3847 399.867 90.0923C399.627 88.8107 400.602 87.5984 401.994 87.4472Z" fill="#80E895"/>
<path d="M412.93 86.2592C414.222 86.1188 415.434 87.0936 415.575 88.386C415.715 89.6784 414.74 90.8907 413.448 91.0311C412.156 91.1715 410.943 90.1967 410.803 88.9043C410.663 87.6119 411.637 86.3996 412.93 86.2592Z" fill="#80E895"/>
<path d="M483.689 157.849L491.907 147.399L489.783 145.639L483.214 153.877L474.889 147.42L473.24 149.631L483.689 157.849Z" fill="#5B9279"/>
<path d="M481.873 142.657L490.078 132.108L487.966 130.447L481.398 138.685L473.072 132.228L471.411 134.34L481.873 142.657Z" fill="#5B9279"/>
<path d="M480.056 127.465L488.262 116.916L486.149 115.255L479.581 123.493L471.256 117.036L469.595 119.148L480.056 127.465Z" fill="#5B9279"/>
<path d="M478.228 112.174L486.445 101.724L484.321 99.9642L477.764 108.302L469.427 101.745L467.778 103.957L478.228 112.174Z" fill="#5B9279"/>
<path d="M476.411 96.9824L484.628 86.5328L482.504 84.7725L475.948 93.1099L467.61 86.5535L465.961 88.7649L476.411 96.9824Z" fill="#5B9279"/>
<path d="M474.594 81.7905L482.812 71.3409L480.688 69.5806L474.131 77.918L465.794 71.3616L464.145 73.573L474.594 81.7905Z" fill="#5B9279"/>
<path d="M473.959 147.229L482.276 136.767L480.053 135.019L473.484 143.257L465.258 136.788L463.51 139.011L473.959 147.229Z" fill="#80E895"/>
<path d="M472.143 132.037L480.448 121.476L478.236 119.827L471.668 128.065L463.442 121.596L461.681 123.72L472.143 132.037Z" fill="#80E895"/>
<path d="M470.326 116.845L478.631 106.285L476.408 104.536L469.851 112.874L461.613 106.305L459.865 108.529L470.326 116.845Z" fill="#80E895"/>
<path d="M468.498 101.554L476.814 91.0927L474.591 89.3443L468.035 97.6817L459.797 91.1134L458.048 93.3367L468.498 101.554Z" fill="#80E895"/>
<path d="M466.681 86.3625L474.998 75.901L472.775 74.1526L466.218 82.4901L457.98 75.9217L456.232 78.145L466.681 86.3625Z" fill="#80E895"/>
<path d="M464.865 71.1706L473.181 60.7091L470.958 58.9607L464.39 67.1989L456.163 60.7298L454.415 62.9531L464.865 71.1706Z" fill="#80E895"/>
<path d="M457.353 237.785C458.812 238.903 460.993 238.615 462.211 237.143C463.329 235.684 463.041 233.503 461.569 232.285C460.11 231.167 457.929 231.455 456.711 232.927C455.593 234.386 455.881 236.567 457.353 237.785Z" fill="#5B9279"/>
<path d="M447.491 228.799C449.353 228.553 450.662 226.845 450.416 224.983C450.17 223.122 448.462 221.812 446.6 222.058C444.739 222.304 443.429 224.012 443.675 225.874C443.921 227.736 445.629 229.045 447.491 228.799Z" fill="#5B9279"/>
<path d="M432.436 218.684C433.895 219.803 436.076 219.515 437.294 218.042C438.412 216.583 438.124 214.402 436.652 213.185C435.193 212.066 433.012 212.354 431.794 213.826C430.676 215.286 430.964 217.467 432.436 218.684Z" fill="#5B9279"/>
<path d="M419.978 209.134C421.437 210.253 423.618 209.964 424.836 208.492C425.954 207.033 425.666 204.852 424.194 203.634C422.735 202.516 420.553 202.804 419.336 204.276C418.217 205.735 418.506 207.917 419.978 209.134Z" fill="#5B9279"/>
<path d="M411.735 194.084C410.276 192.966 408.095 193.254 406.877 194.726C405.759 196.185 406.047 198.366 407.519 199.584C408.978 200.702 411.159 200.414 412.377 198.942C413.482 197.384 413.194 195.203 411.735 194.084Z" fill="#5B9279"/>
<path d="M447.459 250.692C448.918 251.811 451.099 251.523 452.316 250.05C453.435 248.591 453.147 246.41 451.675 245.193C450.215 244.074 448.034 244.362 446.817 245.834C445.698 247.294 445.986 249.475 447.459 250.692Z" fill="#5B9279"/>
<path d="M435 241.142C436.459 242.26 438.64 241.972 439.858 240.5C440.976 239.041 440.688 236.86 439.216 235.642C437.757 234.524 435.576 234.812 434.358 236.284C433.24 237.743 433.528 239.924 435 241.142Z" fill="#5B9279"/>
<path d="M422.542 231.592C424.001 232.71 426.182 232.422 427.4 230.95C428.518 229.491 428.23 227.31 426.758 226.092C425.299 224.974 423.118 225.262 421.9 226.734C420.781 228.193 421.07 230.374 422.542 231.592Z" fill="#5B9279"/>
<path d="M410.083 222.041C411.542 223.16 413.723 222.872 414.941 221.399C416.06 219.94 415.771 217.759 414.299 216.542C412.84 215.423 410.659 215.711 409.441 217.184C408.323 218.643 408.611 220.824 410.083 222.041Z" fill="#5B9279"/>
<path d="M400.122 213.069C401.984 212.823 403.293 211.114 403.047 209.253C402.801 207.391 401.093 206.082 399.231 206.328C397.37 206.574 396.06 208.282 396.306 210.144C396.552 212.005 398.261 213.315 400.122 213.069Z" fill="#5B9279"/>
<path d="M437.564 263.6C439.023 264.718 441.204 264.43 442.422 262.958C443.54 261.499 443.252 259.318 441.78 258.1C440.321 256.981 438.14 257.27 436.922 258.742C435.705 260.214 436.092 262.382 437.564 263.6Z" fill="#5B9279"/>
<path d="M425.106 254.049C426.565 255.168 428.746 254.88 429.964 253.407C431.082 251.948 430.794 249.767 429.322 248.55C427.863 247.431 425.682 247.719 424.464 249.192C423.345 250.651 423.634 252.832 425.106 254.049Z" fill="#5B9279"/>
<path d="M412.647 244.499C414.106 245.618 416.287 245.329 417.505 243.857C418.624 242.398 418.335 240.217 416.863 238.999C415.404 237.881 413.223 238.169 412.005 239.641C410.887 241.1 411.175 243.282 412.647 244.499Z" fill="#5B9279"/>
<path d="M400.189 234.949C401.648 236.067 403.829 235.779 405.047 234.307C406.165 232.848 405.877 230.667 404.405 229.449C402.946 228.331 400.765 228.619 399.547 230.091C398.429 231.55 398.717 233.731 400.189 234.949Z" fill="#5B9279"/>
<path d="M391.946 219.899C390.487 218.78 388.306 219.069 387.089 220.541C385.97 222 386.258 224.181 387.73 225.399C389.19 226.517 391.371 226.229 392.588 224.757C393.694 223.198 393.405 221.017 391.946 219.899Z" fill="#5B9279"/>
<path d="M427.67 276.507C429.129 277.625 431.31 277.337 432.528 275.865C433.646 274.406 433.358 272.225 431.886 271.007C430.427 269.889 428.246 270.177 427.028 271.649C425.923 273.207 426.198 275.289 427.67 276.507Z" fill="#5B9279"/>
<path d="M417.709 267.535C419.57 267.289 420.88 265.58 420.634 263.718C420.388 261.857 418.679 260.547 416.818 260.793C414.956 261.039 413.646 262.748 413.892 264.609C414.138 266.471 415.847 267.781 417.709 267.535Z" fill="#5B9279"/>
<path d="M405.25 257.984C407.112 257.738 408.421 256.03 408.175 254.168C407.929 252.307 406.221 250.997 404.359 251.243C402.498 251.489 401.188 253.197 401.434 255.059C401.68 256.921 403.389 258.23 405.25 257.984Z" fill="#5B9279"/>
<path d="M390.295 247.856C391.754 248.975 393.935 248.687 395.152 247.214C396.271 245.755 395.983 243.574 394.51 242.357C393.051 241.238 390.87 241.526 389.653 242.998C388.448 244.57 388.723 246.652 390.295 247.856Z" fill="#5B9279"/>
<path d="M382.052 232.806C380.593 231.688 378.412 231.976 377.194 233.448C376.076 234.907 376.364 237.088 377.836 238.306C379.295 239.424 381.476 239.136 382.694 237.664C383.799 236.106 383.524 234.024 382.052 232.806Z" fill="#5B9279"/>
<path d="M420.286 290.091C422.147 289.845 423.457 288.137 423.211 286.275C422.965 284.414 421.257 283.104 419.395 283.35C417.533 283.596 416.224 285.304 416.47 287.166C416.716 289.028 418.424 290.337 420.286 290.091Z" fill="#5B9279"/>
<path d="M409.533 274.364C408.074 273.246 405.893 273.534 404.675 275.006C403.557 276.465 403.845 278.646 405.317 279.864C406.776 280.983 408.957 280.694 410.175 279.222C411.28 277.664 411.005 275.582 409.533 274.364Z" fill="#5B9279"/>
<path d="M395.369 270.991C397.23 270.745 398.54 269.036 398.294 267.175C398.048 265.313 396.34 264.003 394.478 264.249C392.616 264.495 391.307 266.204 391.553 268.066C391.799 269.927 393.507 271.237 395.369 270.991Z" fill="#5B9279"/>
<path d="M384.616 255.264C383.157 254.145 380.976 254.434 379.758 255.906C378.64 257.365 378.928 259.546 380.4 260.764C381.859 261.882 384.04 261.594 385.258 260.122C386.363 258.563 386.088 256.482 384.616 255.264Z" fill="#5B9279"/>
<path d="M372.158 245.714C370.698 244.595 368.517 244.883 367.3 246.356C366.181 247.815 366.469 249.996 367.942 251.213C369.401 252.332 371.582 252.044 372.799 250.571C373.905 249.013 373.63 246.931 372.158 245.714Z" fill="#5B9279"/>
<path d="M450.089 227.851C451.951 227.605 453.26 225.896 453.014 224.035C452.768 222.173 451.06 220.864 449.198 221.11C447.337 221.356 446.027 223.064 446.273 224.926C446.519 226.787 448.227 228.097 450.089 227.851Z" fill="#80E895"/>
<path d="M435.133 217.723C436.592 218.841 438.774 218.553 439.991 217.081C441.11 215.622 440.821 213.441 439.349 212.223C437.89 211.105 435.709 211.393 434.491 212.865C433.274 214.337 433.562 216.518 435.133 217.723Z" fill="#80E895"/>
<path d="M422.675 208.173C424.134 209.291 426.315 209.003 427.533 207.531C428.651 206.072 428.363 203.891 426.891 202.673C425.432 201.554 423.251 201.843 422.033 203.315C420.815 204.787 421.104 206.968 422.675 208.173Z" fill="#80E895"/>
<path d="M410.217 198.622C411.676 199.741 413.857 199.453 415.074 197.98C416.193 196.521 415.905 194.34 414.432 193.123C412.973 192.004 410.792 192.292 409.575 193.765C408.357 195.237 408.645 197.418 410.217 198.622Z" fill="#80E895"/>
<path d="M400.255 189.65C402.117 189.404 403.427 187.695 403.181 185.834C402.935 183.972 401.226 182.662 399.364 182.908C397.503 183.154 396.193 184.863 396.439 186.724C396.685 188.586 398.394 189.896 400.255 189.65Z" fill="#80E895"/>
<path d="M437.697 240.18C439.156 241.299 441.338 241.011 442.555 239.539C443.674 238.079 443.385 235.898 441.913 234.681C440.454 233.562 438.273 233.851 437.055 235.323C435.838 236.795 436.126 238.976 437.697 240.18Z" fill="#80E895"/>
<path d="M427.736 231.208C429.598 230.962 430.907 229.253 430.661 227.392C430.415 225.53 428.707 224.221 426.845 224.467C424.984 224.713 423.674 226.421 423.92 228.283C424.166 230.144 425.875 231.454 427.736 231.208Z" fill="#80E895"/>
<path d="M412.781 221.08C414.24 222.198 416.421 221.91 417.638 220.438C418.757 218.979 418.469 216.798 416.996 215.58C415.537 214.462 413.356 214.75 412.139 216.222C410.921 217.694 411.209 219.875 412.781 221.08Z" fill="#80E895"/>
<path d="M400.322 211.53C401.781 212.648 403.962 212.36 405.18 210.888C406.298 209.429 406.01 207.248 404.538 206.03C403.079 204.911 400.898 205.2 399.68 206.672C398.463 208.144 398.751 210.325 400.322 211.53Z" fill="#80E895"/>
<path d="M390.361 202.557C392.222 202.311 393.532 200.603 393.286 198.741C393.04 196.88 391.332 195.57 389.47 195.816C387.608 196.062 386.299 197.77 386.545 199.632C386.791 201.494 388.499 202.803 390.361 202.557Z" fill="#80E895"/>
<path d="M427.704 253.101C429.163 254.219 431.344 253.931 432.562 252.459C433.68 251 433.392 248.819 431.92 247.601C430.447 246.384 428.28 246.771 427.062 248.243C425.943 249.702 426.232 251.883 427.704 253.101Z" fill="#80E895"/>
<path d="M417.842 244.115C419.703 243.869 421.013 242.161 420.767 240.299C420.521 238.438 418.813 237.128 416.951 237.374C415.089 237.62 413.78 239.329 414.026 241.19C414.272 243.052 415.98 244.361 417.842 244.115Z" fill="#80E895"/>
<path d="M402.787 234C404.246 235.119 406.427 234.831 407.645 233.359C408.763 231.899 408.475 229.718 407.003 228.501C405.544 227.382 403.363 227.671 402.145 229.143C401.027 230.602 401.315 232.783 402.787 234Z" fill="#80E895"/>
<path d="M392.925 225.015C394.786 224.769 396.096 223.06 395.85 221.199C395.604 219.337 393.896 218.028 392.034 218.274C390.172 218.52 388.863 220.228 389.109 222.09C389.355 223.951 391.063 225.261 392.925 225.015Z" fill="#80E895"/>
<path d="M382.086 209.4C380.627 208.282 378.446 208.57 377.228 210.042C376.11 211.501 376.398 213.682 377.87 214.9C379.329 216.019 381.51 215.73 382.728 214.258C383.932 212.687 383.644 210.506 382.086 209.4Z" fill="#80E895"/>
<path d="M417.809 266.008C419.268 267.127 421.45 266.839 422.667 265.366C423.786 263.907 423.497 261.726 422.025 260.509C420.566 259.39 418.385 259.678 417.168 261.151C416.049 262.61 416.337 264.791 417.809 266.008Z" fill="#80E895"/>
<path d="M407.947 257.023C409.809 256.777 411.119 255.068 410.873 253.207C410.627 251.345 408.918 250.035 407.057 250.281C405.195 250.527 403.885 252.236 404.131 254.098C404.377 255.959 406.086 257.269 407.947 257.023Z" fill="#80E895"/>
<path d="M395.489 247.473C397.35 247.227 398.66 245.518 398.414 243.656C398.168 241.795 396.46 240.485 394.598 240.731C392.737 240.977 391.427 242.686 391.673 244.547C391.919 246.409 393.627 247.719 395.489 247.473Z" fill="#80E895"/>
<path d="M380.434 237.358C381.893 238.476 384.074 238.188 385.292 236.716C386.41 235.257 386.122 233.076 384.65 231.858C383.191 230.739 381.01 231.028 379.792 232.5C378.674 233.959 378.962 236.14 380.434 237.358Z" fill="#80E895"/>
<path d="M372.192 222.308C370.732 221.189 368.551 221.477 367.334 222.95C366.116 224.422 366.503 226.59 367.976 227.807C369.448 229.025 371.616 228.638 372.833 227.165C374.038 225.594 373.75 223.413 372.192 222.308Z" fill="#80E895"/>
<path d="M412.773 278.274C413.891 276.815 413.603 274.634 412.131 273.416C410.672 272.297 408.491 272.586 407.273 274.058C406.155 275.517 406.443 277.698 407.915 278.916C409.473 280.021 411.654 279.733 412.773 278.274Z" fill="#80E895"/>
<path d="M398.053 269.93C399.915 269.684 401.224 267.976 400.978 266.114C400.732 264.252 399.024 262.943 397.162 263.189C395.301 263.435 393.991 265.143 394.237 267.005C394.483 268.866 396.191 270.176 398.053 269.93Z" fill="#80E895"/>
<path d="M387.214 254.316C385.755 253.197 383.574 253.485 382.356 254.957C381.238 256.417 381.526 258.598 382.998 259.815C384.457 260.934 386.638 260.645 387.856 259.173C389.06 257.602 388.772 255.421 387.214 254.316Z" fill="#80E895"/>
<path d="M374.756 244.765C373.296 243.647 371.115 243.935 369.898 245.407C368.779 246.866 369.067 249.047 370.54 250.265C371.999 251.383 374.18 251.095 375.397 249.623C376.602 248.052 376.314 245.871 374.756 244.765Z" fill="#80E895"/>
<path d="M362.297 235.215C360.838 234.097 358.657 234.385 357.439 235.857C356.321 237.316 356.609 239.497 358.081 240.715C359.54 241.833 361.721 241.545 362.939 240.073C364.144 238.501 363.855 236.32 362.297 235.215Z" fill="#80E895"/>
<path d="M116.417 358.194C116.25 356.904 115.017 355.955 113.728 356.122C112.439 356.289 111.489 357.521 111.657 358.811C111.824 360.1 113.056 361.049 114.345 360.882C115.634 360.715 116.584 359.483 116.417 358.194Z" fill="#5B9279"/>
<path d="M114.99 347.186C114.823 345.896 113.59 344.947 112.301 345.114C111.012 345.281 110.062 346.514 110.23 347.803C110.397 349.092 111.629 350.041 112.918 349.874C114.22 349.806 115.17 348.574 114.99 347.186Z" fill="#5B9279"/>
<path d="M113.576 336.277C113.408 334.988 112.176 334.038 110.887 334.205C109.598 334.373 108.648 335.605 108.815 336.894C108.982 338.183 110.215 339.133 111.504 338.966C112.793 338.799 113.743 337.566 113.576 336.277Z" fill="#5B9279"/>
<path d="M105.012 359.672C104.845 358.383 103.613 357.433 102.323 357.601C101.034 357.768 100.085 359 100.252 360.289C100.419 361.578 101.651 362.528 102.941 362.361C104.23 362.194 105.179 360.961 105.012 359.672Z" fill="#5B9279"/>
<path d="M103.585 348.664C103.418 347.375 102.186 346.426 100.896 346.593C99.6072 346.76 98.6578 347.992 98.8249 349.281C98.992 350.571 100.224 351.52 101.514 351.353C102.803 351.186 103.765 350.053 103.585 348.664Z" fill="#5B9279"/>
<path d="M102.171 337.755C102.004 336.466 100.771 335.517 99.4822 335.684C98.193 335.851 97.2436 337.083 97.4107 338.373C97.5779 339.662 98.8101 340.611 100.099 340.444C101.389 340.277 102.338 339.045 102.171 337.755Z" fill="#5B9279"/>
<path d="M91.5361 363.839C92.8505 363.669 93.778 362.465 93.6076 361.151C93.4372 359.836 92.2334 358.909 90.919 359.079C89.6045 359.249 88.677 360.453 88.8474 361.768C89.0178 363.082 90.2216 364.01 91.5361 363.839Z" fill="#5B9279"/>
<path d="M90.109 352.831C91.4235 352.661 92.351 351.457 92.1806 350.143C92.0101 348.828 90.8064 347.901 89.4919 348.071C88.1774 348.241 87.25 349.445 87.4204 350.76C87.5908 352.074 88.7945 353.002 90.109 352.831Z" fill="#5B9279"/>
<path d="M88.6948 341.923C90.0093 341.752 90.9368 340.548 90.7664 339.234C90.596 337.919 89.3922 336.992 88.0777 337.162C86.7632 337.333 85.8358 338.537 86.0062 339.851C86.1766 341.166 87.3803 342.093 88.6948 341.923Z" fill="#5B9279"/>
<path d="M82.3022 362.616C82.135 361.327 80.9027 360.377 79.6135 360.545C78.3243 360.712 77.3749 361.944 77.542 363.233C77.7091 364.522 78.9414 365.472 80.2306 365.305C81.5199 365.138 82.4693 363.905 82.3022 362.616Z" fill="#5B9279"/>
<path d="M80.8752 351.608C80.708 350.319 79.4757 349.37 78.1865 349.537C76.8973 349.704 75.9479 350.936 76.115 352.225C76.2821 353.515 77.5144 354.464 78.8036 354.297C80.0928 354.13 81.0552 352.997 80.8752 351.608Z" fill="#5B9279"/>
<path d="M79.4609 340.699C79.2938 339.41 78.0615 338.461 76.7723 338.628C75.4831 338.795 74.5336 340.027 74.7008 341.317C74.8679 342.606 76.1002 343.555 77.3894 343.388C78.6786 343.221 79.628 341.989 79.4609 340.699Z" fill="#5B9279"/>
<path d="M70.8976 364.095C70.7305 362.805 69.4982 361.856 68.209 362.023C66.9198 362.19 65.9703 363.423 66.1375 364.712C66.3046 366.001 67.5369 366.95 68.8261 366.783C70.1153 366.616 71.0648 365.384 70.8976 364.095Z" fill="#5B9279"/>
<path d="M69.4706 353.087C69.3034 351.797 68.0711 350.848 66.7819 351.015C65.4927 351.182 64.5433 352.415 64.7104 353.704C64.8775 354.993 66.1098 355.942 67.399 355.775C68.7011 355.707 69.6505 354.475 69.4706 353.087Z" fill="#5B9279"/>
<path d="M68.0564 342.178C67.8892 340.889 66.657 339.939 65.3677 340.106C64.0785 340.274 63.1291 341.506 63.2962 342.795C63.4634 344.084 64.6956 345.034 65.9848 344.867C67.2741 344.7 68.2235 343.467 68.0564 342.178Z" fill="#5B9279"/>
<path d="M121.508 435.581C121.675 436.87 122.908 437.82 124.197 437.653C125.486 437.486 126.435 436.253 126.268 434.964C126.101 433.675 124.869 432.725 123.58 432.893C122.29 433.06 121.328 434.193 121.508 435.581Z" fill="#5B9279"/>
<path d="M124.94 423.943C124.773 422.654 123.541 421.705 122.252 421.872C120.963 422.039 120.013 423.271 120.18 424.56C120.347 425.85 121.58 426.799 122.869 426.632C124.158 426.465 125.12 425.332 124.94 423.943Z" fill="#5B9279"/>
<path d="M123.526 413.035C123.359 411.745 122.127 410.796 120.838 410.963C119.548 411.13 118.599 412.363 118.766 413.652C118.933 414.941 120.165 415.89 121.455 415.723C122.744 415.556 123.693 414.324 123.526 413.035Z" fill="#5B9279"/>
<path d="M122.099 402.027C121.932 400.738 120.7 399.788 119.411 399.955C118.121 400.122 117.172 401.355 117.339 402.644C117.506 403.933 118.738 404.883 120.028 404.715C121.317 404.548 122.279 403.415 122.099 402.027Z" fill="#5B9279"/>
<path d="M120.685 391.118C120.518 389.829 119.286 388.879 117.996 389.047C116.707 389.214 115.758 390.446 115.925 391.735C116.092 393.024 117.324 393.974 118.613 393.807C119.903 393.64 120.852 392.407 120.685 391.118Z" fill="#5B9279"/>
<path d="M119.258 380.11C119.091 378.821 117.859 377.871 116.569 378.039C115.28 378.206 114.331 379.438 114.498 380.727C114.665 382.016 115.897 382.966 117.186 382.799C118.476 382.632 119.425 381.399 119.258 380.11Z" fill="#5B9279"/>
<path d="M117.831 369.102C117.664 367.813 116.431 366.864 115.142 367.031C113.853 367.198 112.904 368.43 113.071 369.719C113.238 371.009 114.47 371.958 115.759 371.791C117.061 371.723 118.011 370.491 117.831 369.102Z" fill="#5B9279"/>
<path d="M114.963 436.43C114.796 435.141 113.564 434.191 112.274 434.358C110.985 434.525 110.036 435.758 110.203 437.047C110.37 438.336 111.602 439.285 112.891 439.118C114.181 438.951 115.13 437.719 114.963 436.43Z" fill="#5B9279"/>
<path d="M113.536 425.422C113.369 424.133 112.136 423.183 110.847 423.35C109.558 423.517 108.609 424.75 108.776 426.039C108.943 427.328 110.175 428.278 111.464 428.11C112.754 427.943 113.716 426.81 113.536 425.422Z" fill="#5B9279"/>
<path d="M112.122 414.513C111.955 413.224 110.722 412.274 109.433 412.442C108.144 412.609 107.194 413.841 107.362 415.13C107.529 416.419 108.761 417.369 110.05 417.202C111.339 417.035 112.289 415.802 112.122 414.513Z" fill="#5B9279"/>
<path d="M110.695 403.505C110.528 402.216 109.295 401.267 108.006 401.434C106.717 401.601 105.767 402.833 105.934 404.122C106.102 405.412 107.334 406.361 108.623 406.194C109.912 406.027 110.875 404.894 110.695 403.505Z" fill="#5B9279"/>
<path d="M109.28 392.596C109.113 391.307 107.881 390.358 106.592 390.525C105.303 390.692 104.353 391.924 104.52 393.214C104.687 394.503 105.92 395.452 107.209 395.285C108.498 395.118 109.448 393.886 109.28 392.596Z" fill="#5B9279"/>
<path d="M107.853 381.589C107.686 380.299 106.454 379.35 105.165 379.517C103.876 379.684 102.926 380.917 103.093 382.206C103.26 383.495 104.493 384.444 105.782 384.277C107.071 384.11 108.021 382.878 107.853 381.589Z" fill="#5B9279"/>
<path d="M106.426 370.581C106.259 369.292 105.027 368.342 103.738 368.509C102.448 368.676 101.499 369.909 101.666 371.198C101.833 372.487 103.066 373.437 104.355 373.269C105.644 373.102 106.606 371.969 106.426 370.581Z" fill="#5B9279"/>
<path d="M103.558 437.908C103.391 436.619 102.159 435.67 100.87 435.837C99.5805 436.004 98.631 437.236 98.7982 438.525C98.9653 439.815 100.198 440.764 101.487 440.597C102.776 440.43 103.725 439.197 103.558 437.908Z" fill="#5B9279"/>
<path d="M102.131 426.9C101.964 425.611 100.732 424.662 99.4427 424.829C98.1535 424.996 97.204 426.228 97.3712 427.517C97.5383 428.807 98.7706 429.756 100.06 429.589C101.349 429.422 102.311 428.289 102.131 426.9Z" fill="#5B9279"/>
<path d="M100.717 415.992C100.55 414.702 99.3177 413.753 98.0285 413.92C96.7392 414.087 95.7898 415.32 95.9569 416.609C96.1241 417.898 97.3563 418.847 98.6456 418.68C99.9348 418.513 100.884 417.281 100.717 415.992Z" fill="#5B9279"/>
<path d="M99.2901 404.984C99.123 403.694 97.8907 402.745 96.6015 402.912C95.3122 403.079 94.3628 404.312 94.5299 405.601C94.6971 406.89 95.9293 407.839 97.2186 407.672C98.5078 407.505 99.4701 406.372 99.2901 404.984Z" fill="#5B9279"/>
<path d="M95.8044 396.764C97.1189 396.593 98.0463 395.389 97.8759 394.075C97.7055 392.761 96.5018 391.833 95.1873 392.003C93.8728 392.174 92.9453 393.378 93.1157 394.692C93.2861 396.007 94.4899 396.934 95.8044 396.764Z" fill="#5B9279"/>
<path d="M96.4489 383.067C96.2817 381.778 95.0494 380.828 93.7602 380.996C92.471 381.163 91.5215 382.395 91.6887 383.684C91.8558 384.973 93.0881 385.923 94.3773 385.756C95.6665 385.589 96.616 384.356 96.4489 383.067Z" fill="#5B9279"/>
<path d="M95.0218 372.059C94.8547 370.77 93.6224 369.821 92.3331 369.988C91.0439 370.155 90.0945 371.387 90.2616 372.676C90.4288 373.966 91.661 374.915 92.9502 374.748C94.2523 374.68 95.2018 373.448 95.0218 372.059Z" fill="#5B9279"/>
<path d="M92.253 439.374C92.0858 438.085 90.8536 437.135 89.5643 437.302C88.2751 437.469 87.3257 438.702 87.4928 439.991C87.6599 441.28 88.8922 442.23 90.1814 442.062C91.4707 441.895 92.4201 440.663 92.253 439.374Z" fill="#5B9279"/>
<path d="M90.8259 428.366C90.6588 427.077 89.4265 426.127 88.1373 426.294C86.8481 426.461 85.8986 427.694 86.0658 428.983C86.2329 430.272 87.4652 431.222 88.7544 431.055C90.0436 430.887 91.0059 429.754 90.8259 428.366Z" fill="#5B9279"/>
<path d="M89.4117 417.457C89.2446 416.168 88.0123 415.219 86.7231 415.386C85.4339 415.553 84.4844 416.785 84.6516 418.074C84.8187 419.364 86.051 420.313 87.3402 420.146C88.6294 419.979 89.5789 418.746 89.4117 417.457Z" fill="#5B9279"/>
<path d="M87.9847 406.449C87.8175 405.16 86.5852 404.211 85.296 404.378C84.0068 404.545 83.0574 405.777 83.2245 407.066C83.3916 408.356 84.6239 409.305 85.9131 409.138C87.2023 408.971 88.1646 407.838 87.9847 406.449Z" fill="#5B9279"/>
<path d="M86.5705 395.541C86.4033 394.251 85.1711 393.302 83.8818 393.469C82.5926 393.636 81.6432 394.868 81.8103 396.158C81.9775 397.447 83.2097 398.396 84.4989 398.229C85.7882 398.062 86.7376 396.83 86.5705 395.541Z" fill="#5B9279"/>
<path d="M85.1434 384.533C84.9763 383.244 83.744 382.294 82.4548 382.461C81.1656 382.628 80.2161 383.861 80.3833 385.15C80.5504 386.439 81.7827 387.389 83.0719 387.221C84.3611 387.054 85.3105 385.822 85.1434 384.533Z" fill="#5B9279"/>
<path d="M83.7164 373.525C83.5492 372.236 82.3169 371.286 81.0277 371.453C79.7385 371.62 78.7891 372.853 78.9562 374.142C79.1233 375.431 80.3556 376.381 81.6448 376.213C82.934 376.046 83.8963 374.913 83.7164 373.525Z" fill="#5B9279"/>
<path d="M80.8484 440.852C80.6813 439.563 79.449 438.614 78.1598 438.781C76.8706 438.948 75.9211 440.18 76.0883 441.469C76.2554 442.759 77.4877 443.708 78.7769 443.541C80.0661 443.374 81.0156 442.142 80.8484 440.852Z" fill="#5B9279"/>
<path d="M79.4214 429.844C79.2542 428.555 78.0219 427.606 76.7327 427.773C75.4435 427.94 74.4941 429.172 74.6612 430.461C74.8283 431.751 76.0606 432.7 77.3498 432.533C78.6391 432.366 79.6014 431.233 79.4214 429.844Z" fill="#5B9279"/>
<path d="M78.0072 418.936C77.84 417.646 76.6078 416.697 75.3186 416.864C74.0293 417.031 73.0799 418.264 73.247 419.553C73.4142 420.842 74.6464 421.791 75.9357 421.624C77.2249 421.457 78.1743 420.225 78.0072 418.936Z" fill="#5B9279"/>
<path d="M76.5801 407.928C76.413 406.639 75.1807 405.689 73.8915 405.856C72.6023 406.023 71.6528 407.256 71.82 408.545C71.9871 409.834 73.2194 410.784 74.5086 410.616C75.7978 410.449 76.7601 409.316 76.5801 407.928Z" fill="#5B9279"/>
<path d="M75.1659 397.019C74.9988 395.73 73.7665 394.78 72.4773 394.948C71.1881 395.115 70.2386 396.347 70.4058 397.636C70.5729 398.925 71.8052 399.875 73.0944 399.708C74.3836 399.541 75.3331 398.308 75.1659 397.019Z" fill="#5B9279"/>
<path d="M73.7389 386.011C73.5717 384.722 72.3395 383.772 71.0502 383.94C69.761 384.107 68.8116 385.339 68.9787 386.628C69.1458 387.917 70.3781 388.867 71.6673 388.7C72.9566 388.533 73.906 387.3 73.7389 386.011Z" fill="#5B9279"/>
<path d="M72.3118 375.003C72.1447 373.714 70.9124 372.765 69.6232 372.932C68.334 373.099 67.3845 374.331 67.5517 375.62C67.7188 376.91 68.9511 377.859 70.2403 377.692C71.5424 377.624 72.4918 376.392 72.3118 375.003Z" fill="#5B9279"/>
<path d="M106.582 347.671C106.415 346.381 105.183 345.432 103.894 345.599C102.604 345.766 101.655 346.999 101.822 348.288C101.989 349.577 103.221 350.526 104.511 350.359C105.8 350.192 106.749 348.96 106.582 347.671Z" fill="#80E895"/>
<path d="M105.155 336.663C104.988 335.374 103.756 334.424 102.467 334.591C101.177 334.758 100.228 335.991 100.395 337.28C100.562 338.569 101.794 339.519 103.084 339.351C104.373 339.184 105.335 338.051 105.155 336.663Z" fill="#80E895"/>
<path d="M103.741 325.754C103.574 324.465 102.342 323.515 101.052 323.683C99.7631 323.85 98.8137 325.082 98.9808 326.371C99.1479 327.66 100.38 328.61 101.669 328.443C102.959 328.276 103.908 327.043 103.741 325.754Z" fill="#80E895"/>
<path d="M95.1776 349.149C95.0105 347.86 93.7782 346.91 92.489 347.078C91.1998 347.245 90.2503 348.477 90.4174 349.766C90.5846 351.055 91.8169 352.005 93.1061 351.838C94.3953 351.671 95.3447 350.438 95.1776 349.149Z" fill="#80E895"/>
<path d="M93.7506 338.141C93.5835 336.852 92.3512 335.903 91.062 336.07C89.7728 336.237 88.8233 337.469 88.9904 338.758C89.1576 340.048 90.3899 340.997 91.6791 340.83C92.9683 340.663 93.9306 339.53 93.7506 338.141Z" fill="#80E895"/>
<path d="M92.3363 327.233C92.1692 325.943 90.9369 324.994 89.6477 325.161C88.3585 325.328 87.4091 326.56 87.5762 327.85C87.7433 329.139 88.9756 330.088 90.2648 329.921C91.554 329.754 92.5035 328.522 92.3363 327.233Z" fill="#80E895"/>
<path d="M83.8722 350.615C83.7051 349.326 82.4728 348.376 81.1836 348.543C79.8944 348.71 78.9449 349.943 79.1121 351.232C79.2792 352.521 80.5115 353.471 81.8007 353.303C83.0899 353.136 84.0394 351.904 83.8722 350.615Z" fill="#80E895"/>
<path d="M82.4452 339.607C82.278 338.318 81.0458 337.368 79.7565 337.535C78.4673 337.702 77.5179 338.935 77.685 340.224C77.8521 341.513 79.0844 342.463 80.3736 342.295C81.6629 342.128 82.6252 340.995 82.4452 339.607Z" fill="#80E895"/>
<path d="M81.031 328.698C80.8639 327.409 79.6316 326.459 78.3424 326.627C77.0531 326.794 76.1037 328.026 76.2708 329.315C76.438 330.604 77.6702 331.554 78.9595 331.387C80.2487 331.22 81.1981 329.987 81.031 328.698Z" fill="#80E895"/>
<path d="M72.4676 352.093C72.3005 350.804 71.0682 349.855 69.779 350.022C68.4898 350.189 67.5403 351.421 67.7075 352.71C67.8746 353.999 69.1069 354.949 70.3961 354.782C71.6853 354.615 72.6348 353.382 72.4676 352.093Z" fill="#80E895"/>
<path d="M71.0406 341.085C70.8735 339.796 69.6412 338.847 68.352 339.014C67.0628 339.181 66.1133 340.413 66.2805 341.702C66.4476 342.992 67.6799 343.941 68.9691 343.774C70.2583 343.607 71.2206 342.474 71.0406 341.085Z" fill="#80E895"/>
<path d="M69.6264 330.177C69.4593 328.887 68.227 327.938 66.9378 328.105C65.6485 328.272 64.6991 329.505 64.8662 330.794C65.0334 332.083 66.2656 333.032 67.5549 332.865C68.8441 332.698 69.7935 331.466 69.6264 330.177Z" fill="#80E895"/>
<path d="M61.1623 353.559C60.9951 352.27 59.7629 351.32 58.4736 351.487C57.1844 351.654 56.235 352.887 56.4021 354.176C56.5692 355.465 57.8015 356.415 59.0907 356.248C60.38 356.08 61.3294 354.848 61.1623 353.559Z" fill="#80E895"/>
<path d="M59.7352 342.551C59.5681 341.262 58.3358 340.312 57.0466 340.479C55.7574 340.647 54.8079 341.879 54.9751 343.168C55.1422 344.457 56.3745 345.407 57.6637 345.24C58.9529 345.072 59.9152 343.939 59.7352 342.551Z" fill="#80E895"/>
<path d="M58.321 331.642C58.1539 330.353 56.9216 329.404 55.6324 329.571C54.3432 329.738 53.3937 330.97 53.5609 332.259C53.728 333.549 54.9603 334.498 56.2495 334.331C57.5387 334.164 58.4882 332.931 58.321 331.642Z" fill="#80E895"/>
<path d="M111.674 425.058C111.841 426.348 113.073 427.297 114.362 427.13C115.651 426.963 116.601 425.73 116.434 424.441C116.267 423.152 115.034 422.203 113.745 422.37C112.456 422.537 111.494 423.67 111.674 425.058Z" fill="#80E895"/>
<path d="M113.034 416.109C114.349 415.939 115.276 414.735 115.106 413.42C114.936 412.106 113.732 411.179 112.417 411.349C111.103 411.519 110.175 412.723 110.346 414.038C110.516 415.352 111.72 416.28 113.034 416.109Z" fill="#80E895"/>
<path d="M113.692 402.512C113.525 401.223 112.292 400.273 111.003 400.44C109.714 400.607 108.764 401.84 108.932 403.129C109.099 404.418 110.331 405.368 111.62 405.2C112.909 405.033 113.859 403.801 113.692 402.512Z" fill="#80E895"/>
<path d="M110.193 394.192C111.508 394.022 112.435 392.818 112.265 391.504C112.094 390.189 110.891 389.262 109.576 389.432C108.262 389.603 107.334 390.806 107.505 392.121C107.675 393.435 108.879 394.363 110.193 394.192Z" fill="#80E895"/>
<path d="M108.766 383.185C110.081 383.014 111.008 381.81 110.838 380.496C110.667 379.182 109.463 378.254 108.149 378.424C106.835 378.595 105.907 379.799 106.077 381.113C106.248 382.428 107.452 383.355 108.766 383.185Z" fill="#80E895"/>
<path d="M109.423 369.587C109.256 368.298 108.024 367.349 106.735 367.516C105.446 367.683 104.496 368.915 104.663 370.204C104.83 371.494 106.063 372.443 107.352 372.276C108.641 372.109 109.591 370.877 109.423 369.587Z" fill="#80E895"/>
<path d="M105.925 361.268C107.239 361.098 108.167 359.894 107.996 358.579C107.826 357.265 106.622 356.337 105.308 356.508C103.993 356.678 103.066 357.882 103.236 359.196C103.407 360.511 104.61 361.438 105.925 361.268Z" fill="#80E895"/>
<path d="M105.128 425.907C104.961 424.618 103.729 423.668 102.44 423.835C101.151 424.002 100.201 425.235 100.368 426.524C100.535 427.813 101.768 428.763 103.057 428.595C104.346 428.428 105.296 427.196 105.128 425.907Z" fill="#80E895"/>
<path d="M101.63 417.588C102.944 417.417 103.872 416.213 103.701 414.899C103.531 413.584 102.327 412.657 101.013 412.827C99.6982 412.998 98.7708 414.202 98.9412 415.516C99.1116 416.831 100.315 417.758 101.63 417.588Z" fill="#80E895"/>
<path d="M102.287 403.99C102.12 402.701 100.888 401.752 99.5985 401.919C98.3093 402.086 97.3599 403.318 97.527 404.607C97.6941 405.897 98.9264 406.846 100.216 406.679C101.505 406.512 102.454 405.279 102.287 403.99Z" fill="#80E895"/>
<path d="M98.7886 395.671C100.103 395.501 101.03 394.297 100.86 392.982C100.69 391.668 99.4859 390.74 98.1715 390.911C96.857 391.081 95.9295 392.285 96.0999 393.599C96.2703 394.914 97.4741 395.841 98.7886 395.671Z" fill="#80E895"/>
<path d="M97.3615 384.663C98.676 384.493 99.6034 383.289 99.433 381.974C99.2626 380.66 98.0589 379.732 96.7444 379.903C95.4299 380.073 94.5025 381.277 94.6729 382.592C94.8433 383.906 96.047 384.833 97.3615 384.663Z" fill="#80E895"/>
<path d="M98.0188 371.066C97.8517 369.776 96.6194 368.827 95.3302 368.994C94.041 369.161 93.0916 370.394 93.2587 371.683C93.4258 372.972 94.6581 373.921 95.9473 373.754C97.2365 373.587 98.186 372.355 98.0188 371.066Z" fill="#80E895"/>
<path d="M94.5202 362.747C95.8347 362.576 96.7622 361.372 96.5918 360.058C96.4214 358.743 95.2176 357.816 93.9031 357.986C92.5887 358.157 91.6612 359.361 91.8316 360.675C92.002 361.989 93.2058 362.917 94.5202 362.747Z" fill="#80E895"/>
<path d="M93.823 427.372C93.6558 426.083 92.4236 425.134 91.1343 425.301C89.8451 425.468 88.8957 426.7 89.0628 427.99C89.23 429.279 90.4622 430.228 91.7515 430.061C93.0407 429.894 93.9901 428.662 93.823 427.372Z" fill="#80E895"/>
<path d="M92.396 416.365C92.2288 415.075 90.9966 414.126 89.7073 414.293C88.4181 414.46 87.4687 415.692 87.6358 416.982C87.803 418.271 89.0352 419.22 90.3245 419.053C91.6137 418.886 92.576 417.753 92.396 416.365Z" fill="#80E895"/>
<path d="M90.9817 405.456C90.8146 404.167 89.5823 403.217 88.2931 403.384C87.0039 403.551 86.0544 404.784 86.2216 406.073C86.3887 407.362 87.621 408.312 88.9102 408.145C90.1994 407.977 91.1489 406.745 90.9817 405.456Z" fill="#80E895"/>
<path d="M89.5547 394.448C89.3876 393.159 88.1553 392.209 86.8661 392.376C85.5769 392.544 84.6274 393.776 84.7946 395.065C84.9617 396.354 86.194 397.304 87.4832 397.137C88.7724 396.969 89.7219 395.737 89.5547 394.448Z" fill="#80E895"/>
<path d="M88.1277 383.44C87.9605 382.151 86.7282 381.201 85.439 381.369C84.1498 381.536 83.2004 382.768 83.3675 384.057C83.5346 385.346 84.7669 386.296 86.0561 386.129C87.3582 386.061 88.3077 384.828 88.1277 383.44Z" fill="#80E895"/>
<path d="M86.7135 372.531C86.5463 371.242 85.3141 370.293 84.0249 370.46C82.7356 370.627 81.7862 371.859 81.9533 373.149C82.1205 374.438 83.3527 375.387 84.642 375.22C85.9312 375.053 86.8806 373.821 86.7135 372.531Z" fill="#80E895"/>
<path d="M85.2864 361.523C85.1193 360.234 83.887 359.285 82.5978 359.452C81.3086 359.619 80.3591 360.851 80.5263 362.141C80.6934 363.43 81.9257 364.379 83.2149 364.212C84.517 364.144 85.4664 362.912 85.2864 361.523Z" fill="#80E895"/>
<path d="M82.4184 428.851C82.2513 427.562 81.019 426.612 79.7298 426.779C78.4406 426.946 77.4912 428.179 77.6583 429.468C77.8254 430.757 79.0577 431.707 80.3469 431.539C81.6361 431.372 82.5856 430.14 82.4184 428.851Z" fill="#80E895"/>
<path d="M80.9914 417.843C80.8242 416.554 79.592 415.604 78.3027 415.772C77.0135 415.939 76.0641 417.171 76.2312 418.46C76.3984 419.749 77.6306 420.699 78.9199 420.532C80.2091 420.365 81.1714 419.231 80.9914 417.843Z" fill="#80E895"/>
<path d="M79.5772 406.934C79.4101 405.645 78.1778 404.696 76.8886 404.863C75.5993 405.03 74.6499 406.262 74.817 407.551C74.9842 408.841 76.2165 409.79 77.5057 409.623C78.7949 409.456 79.7443 408.224 79.5772 406.934Z" fill="#80E895"/>
<path d="M78.1501 395.926C77.983 394.637 76.7507 393.688 75.4615 393.855C74.1723 394.022 73.2228 395.254 73.39 396.544C73.5571 397.833 74.7894 398.782 76.0786 398.615C77.3678 398.448 78.3173 397.216 78.1501 395.926Z" fill="#80E895"/>
<path d="M76.7231 384.918C76.556 383.629 75.3237 382.68 74.0345 382.847C72.7453 383.014 71.7958 384.246 71.963 385.536C72.1301 386.825 73.3624 387.774 74.6516 387.607C75.9537 387.539 76.9031 386.307 76.7231 384.918Z" fill="#80E895"/>
<path d="M75.3089 374.01C75.1417 372.721 73.9095 371.771 72.6203 371.938C71.331 372.105 70.3816 373.338 70.5487 374.627C70.7159 375.916 71.9481 376.866 73.2374 376.698C74.5266 376.531 75.476 375.299 75.3089 374.01Z" fill="#80E895"/>
<path d="M73.8819 363.002C73.7147 361.713 72.4825 360.763 71.1932 360.93C69.904 361.098 68.9546 362.33 69.1217 363.619C69.2889 364.908 70.5211 365.858 71.8103 365.691C73.1124 365.623 74.0619 364.39 73.8819 363.002Z" fill="#80E895"/>
<path d="M71.1131 430.317C70.9459 429.027 69.7137 428.078 68.4244 428.245C67.1352 428.412 66.1858 429.644 66.3529 430.934C66.5201 432.223 67.7523 433.172 69.0416 433.005C70.3308 432.838 71.2802 431.606 71.1131 430.317Z" fill="#80E895"/>
<path d="M69.686 419.309C69.5189 418.019 68.2866 417.07 66.9974 417.237C65.7082 417.404 64.7587 418.637 64.9259 419.926C65.093 421.215 66.3253 422.164 67.6145 421.997C68.9037 421.83 69.866 420.697 69.686 419.309Z" fill="#80E895"/>
<path d="M68.2718 408.4C68.1047 407.111 66.8724 406.161 65.5832 406.328C64.294 406.496 63.3445 407.728 63.5117 409.017C63.6788 410.306 64.9111 411.256 66.2003 411.089C67.4895 410.921 68.439 409.689 68.2718 408.4Z" fill="#80E895"/>
<path d="M66.8448 397.392C66.6776 396.103 65.4454 395.153 64.1561 395.32C62.8669 395.488 61.9175 396.72 62.0846 398.009C62.2517 399.298 63.484 400.248 64.7732 400.081C66.0625 399.914 67.0119 398.681 66.8448 397.392Z" fill="#80E895"/>
<path d="M65.4177 386.384C65.2506 385.095 64.0183 384.146 62.7291 384.313C61.4399 384.48 60.4904 385.712 60.6575 387.001C60.8247 388.291 62.057 389.24 63.3462 389.073C64.6354 388.906 65.5977 387.773 65.4177 386.384Z" fill="#80E895"/>
<path d="M64.0035 375.476C63.8364 374.186 62.6041 373.237 61.3149 373.404C60.0257 373.571 59.0762 374.803 59.2434 376.093C59.4105 377.382 60.6428 378.331 61.932 378.164C63.2212 377.997 64.1707 376.765 64.0035 375.476Z" fill="#80E895"/>
<path d="M62.5765 364.468C62.4093 363.178 61.177 362.229 59.8878 362.396C58.5986 362.563 57.6492 363.795 57.8163 365.085C57.9834 366.374 59.2157 367.323 60.5049 367.156C61.7941 366.989 62.7564 365.856 62.5765 364.468Z" fill="#80E895"/>
<path d="M307.575 187.897C308.875 189.197 311.075 189.197 312.475 187.897C313.775 186.597 313.775 184.397 312.475 182.997C311.175 181.697 308.975 181.697 307.575 182.997C306.275 184.397 306.275 186.497 307.575 187.897Z" fill="#5B9279"/>
<path d="M296.475 176.797C297.775 178.097 299.975 178.097 301.375 176.797C302.675 175.497 302.675 173.297 301.375 171.897C300.075 170.597 297.875 170.597 296.475 171.897C295.175 173.297 295.175 175.397 296.475 176.797Z" fill="#5B9279"/>
<path d="M290.275 160.797C288.975 159.497 286.775 159.497 285.375 160.797C284.075 162.097 284.075 164.297 285.375 165.697C286.675 166.997 288.875 166.997 290.275 165.697C291.575 164.297 291.575 162.197 290.275 160.797Z" fill="#5B9279"/>
<path d="M296.075 199.397C297.375 200.697 299.575 200.697 300.975 199.397C302.375 198.097 302.275 195.897 300.975 194.497C299.675 193.197 297.475 193.197 296.075 194.497C294.675 195.897 294.675 198.097 296.075 199.397Z" fill="#5B9279"/>
<path d="M284.975 188.297C286.275 189.597 288.475 189.597 289.875 188.297C291.175 186.997 291.175 184.797 289.875 183.397C288.575 182.097 286.375 182.097 284.975 183.397C283.575 184.797 283.575 186.997 284.975 188.297Z" fill="#5B9279"/>
<path d="M278.775 172.297C277.475 170.997 275.275 170.997 273.875 172.297C272.575 173.597 272.575 175.797 273.875 177.197C275.175 178.497 277.375 178.497 278.775 177.197C280.075 175.897 280.075 173.697 278.775 172.297Z" fill="#5B9279"/>
<path d="M289.475 210.897C290.775 209.597 290.775 207.397 289.475 205.997C288.175 204.697 285.975 204.697 284.575 205.997C283.275 207.297 283.275 209.497 284.575 210.897C285.875 212.297 288.075 212.197 289.475 210.897Z" fill="#5B9279"/>
<path d="M278.375 194.897C277.075 193.597 274.875 193.597 273.475 194.897C272.175 196.197 272.175 198.397 273.475 199.797C274.775 201.097 276.975 201.097 278.375 199.797C279.675 198.497 279.675 196.297 278.375 194.897Z" fill="#5B9279"/>
<path d="M267.275 183.797C265.975 182.497 263.775 182.497 262.375 183.797C261.075 185.097 261.075 187.297 262.375 188.697C263.675 189.997 265.875 189.997 267.275 188.697C268.575 187.397 268.575 185.197 267.275 183.797Z" fill="#5B9279"/>
<path d="M299.175 176.197C300.475 177.497 302.675 177.497 304.075 176.197C305.475 174.897 305.375 172.697 304.075 171.297C302.775 169.997 300.575 169.997 299.175 171.297C297.875 172.697 297.875 174.797 299.175 176.197Z" fill="#80E895"/>
<path d="M288.075 165.097C289.375 166.397 291.575 166.397 292.975 165.097C294.275 163.797 294.275 161.597 292.975 160.197C291.675 158.897 289.475 158.897 288.075 160.197C286.775 161.597 286.775 163.697 288.075 165.097Z" fill="#80E895"/>
<path d="M281.875 149.097C280.575 147.797 278.375 147.797 276.975 149.097C275.675 150.397 275.675 152.597 276.975 153.997C278.275 155.297 280.475 155.297 281.875 153.997C283.275 152.597 283.275 150.497 281.875 149.097Z" fill="#80E895"/>
<path d="M287.675 187.697C288.975 188.997 291.175 188.997 292.575 187.697C293.875 186.397 293.875 184.197 292.575 182.797C291.275 181.397 289.075 181.497 287.675 182.797C286.375 184.197 286.375 186.297 287.675 187.697Z" fill="#80E895"/>
<path d="M276.575 176.597C277.875 177.897 280.075 177.897 281.475 176.597C282.775 175.297 282.775 173.097 281.475 171.697C280.175 170.397 277.975 170.397 276.575 171.697C275.275 173.097 275.275 175.197 276.575 176.597Z" fill="#80E895"/>
<path d="M270.375 160.597C269.075 159.297 266.875 159.297 265.475 160.597C264.175 161.897 264.175 164.097 265.475 165.497C266.775 166.797 268.975 166.797 270.375 165.497C271.775 164.097 271.775 161.997 270.375 160.597Z" fill="#80E895"/>
<path d="M281.075 199.197C282.375 197.897 282.375 195.697 281.075 194.297C279.775 192.997 277.575 192.997 276.175 194.297C274.775 195.597 274.875 197.797 276.175 199.197C277.575 200.497 279.775 200.497 281.075 199.197Z" fill="#80E895"/>
<path d="M267.575 189.097C269.453 189.097 270.975 187.575 270.975 185.697C270.975 183.819 269.453 182.297 267.575 182.297C265.697 182.297 264.175 183.819 264.175 185.697C264.175 187.575 265.697 189.097 267.575 189.097Z" fill="#80E895"/>
<path d="M258.875 172.097C257.575 170.797 255.375 170.797 253.975 172.097C252.675 173.397 252.675 175.597 253.975 176.997C255.275 178.297 257.475 178.297 258.875 176.997C260.275 175.697 260.275 173.497 258.875 172.097Z" fill="#80E895"/>
<path d="M117.3 173.622L59.0001 231.822C60.6001 232.122 62.2001 232.422 63.8001 232.622L118 178.422C117.9 176.822 117.6 175.222 117.3 173.622Z" fill="#5B9279"/>
<path d="M113.9 163.522L49.0001 228.522C50.3001 229.122 51.6001 229.622 53.0001 230.122L115.6 167.522C115.1 166.222 114.5 164.822 113.9 163.522Z" fill="#5B9279"/>
<path d="M104.1 149.422C103.7 149.022 103.2 148.622 102.7 148.022L33.5001 217.222C34.0001 217.822 34.5001 218.222 34.9001 218.622C35.3001 219.022 35.8001 219.422 36.3001 220.022L105.5 150.822C104.9 150.222 104.5 149.822 104.1 149.422Z" fill="#5B9279"/>
<path d="M104.1 218.622C108.6 214.122 112.1 209.022 114.5 203.222L88.7001 229.022C94.4001 226.622 99.6001 223.122 104.1 218.622Z" fill="#5B9279"/>
<path d="M77.6 232.222L117.7 192.122C118 190.022 118.3 187.922 118.3 185.922L71.3 232.922C73.5 232.822 75.5 232.622 77.6 232.222Z" fill="#5B9279"/>
<path d="M85.9001 137.922L23.3 200.522C23.8 201.822 24.3 203.222 24.9 204.522L89.8 139.622C88.6 138.922 87.3001 138.422 85.9001 137.922Z" fill="#5B9279"/>
<path d="M61.2001 135.622L21 175.722C20.6 178.022 20.4 180.222 20.3 182.422L67.9001 134.822C65.7001 135.022 63.4001 135.222 61.2001 135.622Z" fill="#5B9279"/>
<path d="M34.8 149.422C30.3 153.922 26.8 159.022 24.4 164.822L50.2 139.022C44.5 141.422 39.3 144.922 34.8 149.422Z" fill="#5B9279"/>
<path d="M95.0001 142.222L27.7001 209.522C28.4001 210.722 29.2001 211.822 29.9001 212.822L98.3001 144.422C97.3001 143.722 96.2001 143.022 95.0001 142.222Z" fill="#5B9279"/>
<path d="M75 135.422L20.8 189.622C21 191.222 21.2 192.822 21.6 194.422L79.8001 136.222C78.3001 135.822 76.6 135.622 75 135.422Z" fill="#5B9279"/>
<path d="M108.9 155.122L40.5001 223.522C41.6001 224.322 42.7001 225.022 43.8001 225.722L111.1 158.422C110.5 157.322 109.7 156.122 108.9 155.122Z" fill="#5B9279"/>
<path d="M108.9 161.922L50.7 220.122C52.3 220.422 53.9 220.722 55.5 220.922L109.7 166.722C109.5 165.122 109.2 163.522 108.9 161.922Z" fill="#80E895"/>
<path d="M105.6 151.822L40.7 216.722C42 217.322 43.3 217.822 44.7 218.322L107.3 155.722C106.7 154.422 106.2 153.122 105.6 151.822Z" fill="#80E895"/>
<path d="M95.7 137.722C95.3 137.322 94.8 136.922 94.3 136.322L25.1 205.522C25.6 206.122 26.1 206.522 26.5 206.922C26.9 207.322 27.4 207.722 27.9 208.322L97.1 139.122C96.5 138.522 96.1 138.122 95.7 137.722Z" fill="#80E895"/>
<path d="M95.7 206.922C100.2 202.422 103.7 197.322 106.1 191.522L80.3 217.322C86.1 214.922 91.2 211.422 95.7 206.922Z" fill="#80E895"/>
<path d="M69.2 220.522L109.3 180.422C109.6 178.322 109.9 176.322 109.9 174.222L62.9 221.222C65.1 221.122 67.2 220.922 69.2 220.522Z" fill="#80E895"/>
<path d="M77.6 126.222L15 188.822C15.5 190.122 16 191.522 16.6 192.822L81.5 127.922C80.2 127.222 78.9 126.722 77.6 126.222Z" fill="#80E895"/>
<path d="M52.8 123.922L12.7 164.022C12.3 166.322 12.1 168.522 12 170.722L59.6 123.122C57.3 123.322 55 123.522 52.8 123.922Z" fill="#80E895"/>
<path d="M26.5 137.722C22 142.222 18.5 147.322 16.1 153.122L41.9 127.322C36.1 129.722 30.9 133.222 26.5 137.722Z" fill="#80E895"/>
<path d="M86.6 130.522L19.3 197.822C20 199.022 20.8 200.122 21.5 201.122L90 132.822C88.9 132.022 87.8 131.222 86.6 130.522Z" fill="#80E895"/>
<path d="M66.7 123.722L12.5 177.922C12.7 179.522 13 181.122 13.3 182.722L71.5 124.522C69.9 124.122 68.3 123.822 66.7 123.722Z" fill="#80E895"/>
<path d="M100.6 143.422L32.2 211.822C33.3 212.622 34.4 213.322 35.5 214.022L102.8 146.722C102.1 145.622 101.4 144.422 100.6 143.422Z" fill="#80E895"/>
<path d="M211.412 200.609L198.201 199.13L197.886 201.941L208.365 203.043L207.185 213.583L209.996 213.898L211.412 200.609Z" fill="#5B9279"/>
<path d="M199.457 210.157L186.246 208.679L185.932 211.49L196.332 212.654L195.231 223.132L198.042 223.446L199.457 210.157Z" fill="#5B9279"/>
<path d="M187.503 219.706L174.214 218.29L173.977 221.039L184.378 222.202L183.276 232.681L186.009 233.058L187.503 219.706Z" fill="#5B9279"/>
<path d="M175.47 229.317L162.259 227.839L161.944 230.65L172.423 231.751L171.244 242.292L174.054 242.606L175.47 229.317Z" fill="#5B9279"/>
<path d="M163.516 238.866L150.304 237.388L149.99 240.199L160.468 241.3L159.289 251.841L162.1 252.155L163.516 238.866Z" fill="#5B9279"/>
<path d="M151.561 248.414L138.35 246.936L138.035 249.747L148.514 250.848L147.334 261.389L150.145 261.704L151.561 248.414Z" fill="#5B9279"/>
<path d="M197.547 196.709L184.336 195.231L184.021 198.042L194.5 199.143L193.32 209.684L196.069 209.92L197.547 196.709Z" fill="#80E895"/>
<path d="M185.592 206.258L172.381 204.78L172.066 207.591L182.545 208.692L181.366 219.233L184.114 219.469L185.592 206.258Z" fill="#80E895"/>
<path d="M173.638 215.807L160.426 214.328L160.112 217.139L170.59 218.241L169.411 228.781L172.16 229.018L173.638 215.807Z" fill="#80E895"/>
<path d="M161.683 225.355L148.472 223.877L148.157 226.688L158.558 227.852L157.456 238.33L160.205 238.567L161.683 225.355Z" fill="#80E895"/>
<path d="M149.728 234.904L136.439 233.488L136.203 236.237L146.603 237.401L145.502 247.879L148.172 248.178L149.728 234.904Z" fill="#80E895"/>
<path d="M137.774 244.453L124.485 243.037L124.248 245.786L134.648 246.949L133.547 257.428L136.218 257.726L137.774 244.453Z" fill="#80E895"/>
<path d="M237.15 362.817L241.336 344.126L227.843 330.532L232.22 311.057C232.383 310.178 233.288 309.709 234.071 309.899C234.951 310.062 235.42 310.967 235.23 311.751L231.206 329.562L244.699 343.156L240.513 361.848L254.006 375.442L249.819 394.133L263.313 407.727L258.936 427.202C258.773 428.081 257.868 428.55 257.084 428.36C256.205 428.197 255.735 427.292 255.926 426.508L259.95 408.697L246.456 395.102L250.643 376.411L237.15 362.817Z" fill="#5B9279"/>
<path d="M223.889 366.639L228.076 347.948L214.583 334.354L218.96 314.88C219.122 314 220.028 313.531 220.811 313.721C221.691 313.884 222.16 314.79 221.97 315.573L217.946 333.385L231.439 346.979L227.253 365.67L240.746 379.264L236.559 397.955L250.053 411.55L245.676 431.024C245.513 431.903 244.607 432.373 243.824 432.182C242.945 432.019 242.475 431.114 242.666 430.33L246.69 412.519L233.196 398.925L237.383 380.234L223.889 366.639Z" fill="#5B9279"/>
<path d="M210.629 370.462L214.816 351.771L201.323 338.176L205.7 318.702C205.862 317.823 206.768 317.353 207.551 317.544C208.431 317.707 208.9 318.612 208.71 319.395L204.686 337.207L218.179 350.801L213.993 369.492L227.486 383.087L223.299 401.778L236.793 415.372L232.416 434.846C232.253 435.726 231.347 436.195 230.564 436.005C229.685 435.842 229.215 434.936 229.406 434.153L233.43 416.341L219.936 402.747L224.123 384.056L210.629 370.462Z" fill="#5B9279"/>
<path d="M197.369 374.284L201.556 355.593L188.063 341.999L192.44 322.525C192.602 321.645 193.508 321.176 194.291 321.366C195.171 321.529 195.64 322.435 195.449 323.218L191.426 341.029L204.919 354.624L200.732 373.315L214.226 386.909L210.039 405.6L223.533 419.194L219.156 438.669C218.993 439.548 218.087 440.018 217.304 439.827C216.424 439.664 215.955 438.759 216.146 437.975L220.17 420.164L206.676 406.57L210.863 387.879L197.369 374.284Z" fill="#5B9279"/>
<path d="M225.837 353.902L230.024 335.211L216.53 321.616L220.908 302.142C221.07 301.262 221.976 300.793 222.759 300.984C223.639 301.146 224.108 302.052 223.917 302.835L219.894 320.647L233.387 334.241L229.2 352.932L242.694 366.526L238.507 385.217L252.001 398.812L247.624 418.286C247.461 419.166 246.555 419.635 245.772 419.444C244.892 419.282 244.423 418.376 244.614 417.593L248.638 399.781L235.144 386.187L239.331 367.496L225.837 353.902Z" fill="#80E895"/>
<path d="M212.577 357.724L216.764 339.033L203.27 325.439L207.647 305.964C207.81 305.085 208.716 304.616 209.499 304.806C210.379 304.969 210.848 305.874 210.657 306.658L206.633 324.469L220.127 338.064L215.94 356.754L229.434 370.349L225.247 389.04L238.74 402.634L234.363 422.109C234.201 422.988 233.295 423.457 232.512 423.267C231.632 423.104 231.163 422.198 231.354 421.415L235.377 403.604L221.884 390.009L226.071 371.318L212.577 357.724Z" fill="#80E895"/>
<path d="M199.317 361.546L203.504 342.855L190.01 329.261L194.387 309.787C194.55 308.907 195.456 308.438 196.239 308.629C197.119 308.791 197.588 309.697 197.397 310.48L193.373 328.292L206.867 341.886L202.68 360.577L216.174 374.171L211.987 392.862L225.48 406.457L221.103 425.931C220.941 426.811 220.035 427.28 219.252 427.089C218.372 426.927 217.903 426.021 218.094 425.238L222.117 407.426L208.624 393.832L212.811 375.141L199.317 361.546Z" fill="#80E895"/>
<path d="M186.057 365.369L190.244 346.678L176.75 333.083L181.127 313.609C181.29 312.73 182.196 312.26 182.979 312.451C183.859 312.614 184.328 313.519 184.137 314.303L180.113 332.114L193.607 345.708L189.42 364.399L202.914 377.994L198.727 396.685L212.22 410.279L207.843 429.753C207.681 430.633 206.775 431.102 205.992 430.912C205.112 430.749 204.643 429.843 204.834 429.06L208.857 411.249L195.364 397.654L199.551 378.963L186.057 365.369Z" fill="#80E895"/>
<path d="M519.52 79.4497V64.7497H535.92V48.4497H550.62V64.8497H567.02V79.5497H550.62V95.9497H535.92V79.5497H519.52V79.4497ZM522.62 67.9497V76.3497H539.02V92.7497H547.42V76.3497H563.82V67.9497H547.42V51.5497H539.02V67.9497H522.62Z" fill="#5B9279"/>
<path d="M511.12 67.7498V53.0498H527.52V36.7498H542.22V53.1498H558.62V67.8498H542.22V84.2498H527.52V67.8498H511.12V67.7498ZM514.22 56.1498V64.5498H530.62V80.9498H539.02V64.5498H555.42V56.1498H539.02V39.8498H530.62V56.2498H514.22V56.1498Z" fill="#80E895"/>
<path d="M648.3 96.5999C648.3 78.4999 663 63.7 681.2 63.7C699.3 63.7 714.1 78.3999 714.1 96.5999C714.1 114.7 699.4 129.5 681.2 129.5C663.1 129.4 648.3 114.7 648.3 96.5999ZM710.9 96.5999C710.9 80.1999 697.6 66.9 681.2 66.9C664.8 66.9 651.5 80.1999 651.5 96.5999C651.5 113 664.8 126.3 681.2 126.3C697.6 126.3 710.9 113 710.9 96.5999ZM656.7 96.5999C656.7 83.0999 667.7 72.1 681.2 72.1C694.7 72.1 705.7 83.0999 705.7 96.5999C705.7 110.1 694.7 121.1 681.2 121.1C667.7 121.1 656.7 110.1 656.7 96.5999ZM702.6 96.5999C702.6 84.7999 693 75.2 681.2 75.2C669.4 75.2 659.8 84.7999 659.8 96.5999C659.8 108.4 669.4 118 681.2 118C693 117.9 702.6 108.4 702.6 96.5999Z" fill="#5B9279"/>
<path d="M640 84.9C640 66.8 654.7 52 672.9 52C691 52 705.8 66.7 705.8 84.9C705.8 103 691.1 117.8 672.9 117.8C654.7 117.7 640 103 640 84.9ZM702.6 84.9C702.6 68.5 689.3 55.2 672.9 55.2C656.5 55.2 643.2 68.5 643.2 84.9C643.2 101.3 656.5 114.6 672.9 114.6C689.3 114.6 702.6 101.2 702.6 84.9ZM648.3 84.9C648.3 71.4 659.3 60.4 672.8 60.4C686.3 60.4 697.3 71.4 697.3 84.9C697.3 98.4 686.3 109.4 672.8 109.4C659.3 109.4 648.3 98.4 648.3 84.9ZM694.2 84.9C694.2 73.1 684.6 63.5 672.8 63.5C661 63.5 651.4 73.1 651.4 84.9C651.4 96.7 661 106.3 672.8 106.3C684.6 106.2 694.2 96.6 694.2 84.9Z" fill="#80E895"/>
<path d="M308.578 555.029L234.809 545.998L243.84 472.229L317.609 481.26L308.578 555.029ZM240.38 541.783L304.344 549.614L312.175 485.649L248.21 477.819L240.38 541.783Z" fill="#5B9279"/>
<path d="M288.769 565.873L215 556.842L224.031 483.073L297.8 492.104L288.769 565.873ZM220.571 552.628L284.535 560.458L292.366 496.494L228.401 488.663L220.571 552.628Z" fill="#80E895"/>
<path d="M522.366 201.934C522.366 177.825 542.011 158.18 566.12 158.18C590.229 158.18 609.874 177.825 609.874 201.934C609.874 226.043 590.229 245.688 566.12 245.688C542.011 245.688 522.366 226.043 522.366 201.934ZM604.338 201.934C604.338 180.861 587.193 163.716 566.12 163.716C545.047 163.716 527.903 180.861 527.903 201.934C527.903 223.007 545.047 240.152 566.12 240.152C587.193 240.152 604.338 223.007 604.338 201.934Z" fill="#5B9279"/>
<path d="M507.365 181.039C507.365 156.93 527.01 137.286 551.119 137.286C575.228 137.286 594.873 156.93 594.873 181.039C594.873 205.149 575.228 224.793 551.119 224.793C527.01 224.793 507.365 205.149 507.365 181.039ZM589.337 181.039C589.337 159.966 572.192 142.822 551.119 142.822C530.046 142.822 512.901 159.966 512.901 181.039C512.901 202.113 530.046 219.257 551.119 219.257C572.192 219.257 589.337 202.113 589.337 181.039Z" fill="#80E895"/>
<path d="M471.445 525.201L433.345 487.101L471.445 449L509.546 487.101L471.445 525.201ZM440.244 487.101L471.445 518.303L502.647 487.101L471.445 455.899L440.244 487.101Z" fill="#5B9279"/>
<path d="M453.101 538.372L415 500.272L453.101 462.171L491.201 500.272L453.101 538.372ZM421.899 500.115L453.101 531.317L484.302 500.115L453.101 468.913L421.899 500.115Z" fill="#80E895"/>
<path d="M705.071 261.098L715.812 244.796L699.509 234.055L710.404 217.519L726.706 228.26L737.448 211.958L753.983 222.852L743.242 239.155L759.544 249.896L748.65 266.431L732.347 255.69L721.606 271.993L705.071 261.098ZM724.311 243.048L713.57 259.35L719.858 263.493L730.599 247.191L746.902 257.932L751.045 251.644L734.742 240.903L745.483 224.6L739.195 220.457L728.454 236.76L712.152 226.019L708.009 232.307L724.311 243.048Z" fill="#5B9279"/>
<path d="M684.197 241.834L694.938 225.532L678.635 214.791L689.53 198.255L705.832 208.997L716.573 192.694L733.109 203.589L722.368 219.891L738.67 230.632L727.776 247.168L711.473 236.427L700.732 252.729L684.197 241.834ZM703.437 223.784L692.696 240.087L698.984 244.23L709.725 227.927L726.028 238.668L730.171 232.38L713.868 221.639L724.609 205.336L718.321 201.193L707.58 217.496L691.278 206.755L687.135 213.043L703.437 223.784Z" fill="#80E895"/>
<path d="M330.487 378.705V317.105L383.787 347.905L330.487 378.705ZM333.587 322.605V373.305L377.487 347.905L333.587 322.605Z" fill="#5B9279"/>
<path d="M322.187 367.005V305.505L375.487 336.305L322.187 367.005ZM325.287 310.805V361.505L369.187 336.105L325.287 310.805Z" fill="#80E895"/>
<path d="M441.542 382.644L515.492 392.47" stroke="#5B9279" stroke-miterlimit="10"/>
<path d="M442.424 376.002L516.374 385.828" stroke="#5B9279" stroke-miterlimit="10"/>
<path d="M443.32 369.261L517.27 379.087" stroke="#5B9279" stroke-miterlimit="10"/>
<path d="M444.216 362.52L518.166 372.346" stroke="#5B9279" stroke-miterlimit="10"/>
<path d="M445.111 355.78L519.061 365.606" stroke="#5B9279" stroke-miterlimit="10"/>
<path d="M445.994 349.138L519.944 358.964" stroke="#5B9279" stroke-miterlimit="10"/>
<path d="M446.889 342.397L520.839 352.223" stroke="#5B9279" stroke-miterlimit="10"/>
<path d="M447.785 335.656L521.735 345.483" stroke="#5B9279" stroke-miterlimit="10"/>
<path d="M448.681 328.916L522.631 338.742" stroke="#5B9279" stroke-miterlimit="10"/>
<path d="M449.563 322.274L523.513 332.1" stroke="#5B9279" stroke-miterlimit="10"/>
<path d="M450.459 315.533L524.409 325.359" stroke="#5B9279" stroke-miterlimit="10"/>
<path d="M451.355 308.793L525.305 318.619" stroke="#5B9279" stroke-miterlimit="10"/>
<path d="M471.319 331.972L461.203 408.102L537.334 418.218L547.45 342.087L471.319 331.972Z" stroke="#80E895" stroke-miterlimit="10"/>
<path d="M598.641 332.641C597.441 333.941 595.341 334.041 594.041 332.841C592.741 331.641 592.641 329.541 593.841 328.241C595.041 326.941 597.141 326.841 598.441 328.041C599.841 329.241 599.941 331.341 598.641 332.641Z" fill="#80E895"/>
<path d="M640.741 371.441C639.541 372.741 637.441 372.841 636.141 371.641C634.841 370.441 634.741 368.341 635.941 367.041C637.141 365.741 639.241 365.641 640.541 366.841C641.841 368.041 641.941 370.141 640.741 371.441Z" fill="#80E895"/>
<path d="M654.741 384.441C653.541 385.741 651.441 385.841 650.141 384.641C648.841 383.441 648.741 381.341 649.941 380.041C651.141 378.741 653.241 378.641 654.541 379.841C655.941 381.041 655.941 383.041 654.741 384.441Z" fill="#5B9279"/>
<path d="M624.441 332.841C623.241 334.141 621.141 334.241 619.841 333.041C618.541 331.841 618.441 329.741 619.641 328.441C620.841 327.141 622.941 327.041 624.241 328.241C625.641 329.441 625.641 331.541 624.441 332.841Z" fill="#80E895"/>
<path d="M638.441 345.741C637.241 347.041 635.141 347.141 633.841 345.941C632.541 344.741 632.441 342.641 633.641 341.341C634.841 340.041 636.941 339.941 638.241 341.141C639.641 342.441 639.741 344.441 638.441 345.741Z" fill="#80E895"/>
<path d="M622.141 307.141C620.941 308.441 618.841 308.541 617.541 307.341C616.241 306.141 616.141 304.041 617.341 302.741C618.541 301.441 620.641 301.341 621.941 302.541C623.341 303.741 623.441 305.841 622.141 307.141Z" fill="#80E895"/>
<path d="M636.241 320.141C635.041 321.441 632.941 321.541 631.641 320.341C630.341 319.141 630.241 317.041 631.441 315.741C632.641 314.441 634.741 314.341 636.041 315.541C637.341 316.741 637.441 318.841 636.241 320.141Z" fill="#5B9279"/>
<path d="M650.241 333.041C649.041 334.341 646.941 334.441 645.641 333.241C644.341 332.041 644.241 329.941 645.441 328.641C646.641 327.341 648.741 327.241 650.041 328.441C651.341 329.641 651.441 331.741 650.241 333.041Z" fill="#80E895"/>
<path d="M664.241 346.041C663.041 347.341 660.941 347.441 659.641 346.241C658.341 345.041 658.241 342.941 659.441 341.641C660.641 340.341 662.741 340.241 664.041 341.441C665.341 342.641 665.441 344.641 664.241 346.041Z" fill="#80E895"/>
<path d="M678.241 358.941C677.041 360.241 674.941 360.341 673.641 359.141C672.341 357.941 672.241 355.841 673.441 354.541C674.641 353.241 676.741 353.141 678.041 354.341C679.441 355.541 679.441 357.641 678.241 358.941Z" fill="#80E895"/>
<path d="M633.941 294.441C632.741 295.741 630.641 295.841 629.341 294.641C628.041 293.441 627.941 291.341 629.141 290.041C630.341 288.741 632.441 288.641 633.741 289.841C635.041 291.041 635.141 293.141 633.941 294.441Z" fill="#5B9279"/>
<path d="M661.941 320.341C660.741 321.641 658.641 321.741 657.341 320.541C656.041 319.341 655.941 317.241 657.141 315.941C658.341 314.641 660.441 314.541 661.741 315.741C663.141 316.941 663.241 319.041 661.941 320.341Z" fill="#80E895"/>
<path d="M676.041 333.241C674.841 334.541 672.741 334.641 671.441 333.441C670.141 332.241 670.041 330.141 671.241 328.841C672.441 327.541 674.541 327.441 675.841 328.641C677.141 329.841 677.241 331.941 676.041 333.241Z" fill="#5B9279"/>
<path d="M680.617 592.705L600.304 560.122C598.978 559.584 598.359 558.12 598.953 556.927L631.536 476.614C632.074 475.288 633.538 474.669 634.731 475.263L715.044 507.846C716.37 508.383 716.989 509.848 716.395 511.041L683.813 591.354C683.275 592.68 681.81 593.299 680.617 592.705Z" stroke="#80E895" stroke-width="1.7707" stroke-miterlimit="10"/>
<path d="M626.958 457.991C627.693 457.681 628.037 456.832 627.727 456.097C627.416 455.362 626.568 455.018 625.832 455.329C625.097 455.64 624.753 456.488 625.064 457.223C625.375 457.958 626.223 458.302 626.958 457.991Z" fill="#5B9279"/>
<path d="M648.614 465.784C648.306 466.542 647.507 466.88 646.75 466.572C645.992 466.265 645.654 465.466 645.962 464.708C646.269 463.951 647.068 463.613 647.826 463.92C648.527 464.095 648.921 465.026 648.614 465.784Z" fill="#5B9279"/>
<path d="M669.45 474.237C669.142 474.995 668.343 475.333 667.586 475.025C666.828 474.718 666.49 473.919 666.798 473.161C667.105 472.404 667.904 472.066 668.662 472.373C669.363 472.548 669.757 473.479 669.45 474.237Z" fill="#5B9279"/>
<path d="M690.286 482.69C689.978 483.448 689.179 483.786 688.422 483.478C687.664 483.171 687.326 482.372 687.634 481.614C687.941 480.857 688.74 480.519 689.498 480.826C690.199 481.001 690.593 481.932 690.286 482.69Z" fill="#5B9279"/>
<path d="M710.358 491.937C711.094 491.626 711.438 490.778 711.127 490.043C710.816 489.307 709.968 488.963 709.233 489.274C708.497 489.585 708.153 490.433 708.464 491.168C708.775 491.904 709.623 492.248 710.358 491.937Z" fill="#5B9279"/>
<path d="M620.113 475.951C619.806 476.708 619.007 477.046 618.25 476.739C617.492 476.431 617.154 475.632 617.462 474.875C617.769 474.117 618.568 473.779 619.325 474.087C620.083 474.394 620.421 475.193 620.113 475.951Z" fill="#5B9279"/>
<path d="M640.186 485.197C640.922 484.886 641.266 484.038 640.955 483.303C640.644 482.568 639.796 482.224 639.061 482.534C638.325 482.845 637.981 483.693 638.292 484.429C638.603 485.164 639.451 485.508 640.186 485.197Z" fill="#5B9279"/>
<path d="M661.022 493.65C661.758 493.339 662.102 492.491 661.791 491.756C661.48 491.021 660.632 490.677 659.897 490.987C659.161 491.298 658.817 492.146 659.128 492.882C659.439 493.617 660.287 493.961 661.022 493.65Z" fill="#5B9279"/>
<path d="M681.858 502.103C682.594 501.792 682.938 500.944 682.627 500.209C682.316 499.474 681.468 499.13 680.733 499.44C679.997 499.751 679.653 500.599 679.964 501.335C680.275 502.07 681.123 502.414 681.858 502.103Z" fill="#5B9279"/>
<path d="M702.827 510.5C703.563 510.189 703.907 509.341 703.596 508.606C703.285 507.87 702.437 507.526 701.702 507.837C700.966 508.148 700.622 508.996 700.933 509.731C701.244 510.467 702.092 510.811 702.827 510.5Z" fill="#5B9279"/>
<path d="M612.582 494.513C612.275 495.271 611.476 495.609 610.719 495.301C609.961 494.994 609.623 494.195 609.931 493.438C610.238 492.68 611.037 492.342 611.794 492.65C612.552 492.957 612.89 493.756 612.582 494.513Z" fill="#5B9279"/>
<path d="M632.655 503.76C633.391 503.449 633.735 502.601 633.424 501.866C633.113 501.13 632.265 500.786 631.53 501.097C630.794 501.408 630.45 502.256 630.761 502.991C631.072 503.727 631.92 504.071 632.655 503.76Z" fill="#5B9279"/>
<path d="M653.491 512.213C654.227 511.902 654.571 511.054 654.26 510.319C653.949 509.583 653.101 509.239 652.366 509.55C651.63 509.861 651.286 510.709 651.597 511.444C651.908 512.18 652.756 512.524 653.491 512.213Z" fill="#5B9279"/>
<path d="M674.327 520.666C675.063 520.355 675.407 519.507 675.096 518.772C674.785 518.036 673.937 517.692 673.202 518.003C672.466 518.314 672.122 519.162 672.433 519.897C672.744 520.633 673.592 520.977 674.327 520.666Z" fill="#5B9279"/>
<path d="M695.926 528.326C695.619 529.083 694.82 529.421 694.063 529.114C693.305 528.806 692.967 528.007 693.275 527.25C693.582 526.492 694.381 526.154 695.138 526.462C695.896 526.769 696.234 527.568 695.926 528.326Z" fill="#5B9279"/>
<path d="M605.052 513.076C604.744 513.834 603.945 514.172 603.188 513.864C602.43 513.557 602.092 512.758 602.4 512.001C602.707 511.243 603.506 510.905 604.264 511.213C605.021 511.52 605.415 512.452 605.052 513.076Z" fill="#5B9279"/>
<path d="M625.944 521.662C625.637 522.42 624.838 522.758 624.08 522.45C623.322 522.143 622.985 521.344 623.292 520.587C623.599 519.829 624.398 519.491 625.156 519.799C625.857 519.973 626.251 520.905 625.944 521.662Z" fill="#5B9279"/>
<path d="M646.017 530.909C646.752 530.598 647.096 529.75 646.785 529.015C646.474 528.279 645.626 527.935 644.891 528.246C644.156 528.557 643.812 529.405 644.123 530.14C644.434 530.876 645.282 531.22 646.017 530.909Z" fill="#5B9279"/>
<path d="M667.616 538.569C667.309 539.326 666.51 539.664 665.752 539.357C664.994 539.049 664.657 538.25 664.964 537.493C665.272 536.735 666.07 536.397 666.828 536.705C667.529 536.879 667.923 537.811 667.616 538.569Z" fill="#5B9279"/>
<path d="M688.452 547.022C688.145 547.779 687.346 548.117 686.588 547.81C685.83 547.502 685.493 546.703 685.8 545.946C686.108 545.188 686.906 544.85 687.664 545.158C688.422 545.465 688.759 546.264 688.452 547.022Z" fill="#5B9279"/>
<path d="M597.444 531.829C597.137 532.587 596.338 532.924 595.58 532.617C594.822 532.309 594.485 531.511 594.792 530.753C595.099 529.995 595.898 529.658 596.656 529.965C597.414 530.272 597.751 531.071 597.444 531.829Z" fill="#5B9279"/>
<path d="M617.517 541.075C618.252 540.765 618.596 539.916 618.285 539.181C617.974 538.446 617.126 538.102 616.391 538.413C615.656 538.724 615.312 539.572 615.623 540.307C615.933 541.042 616.782 541.386 617.517 541.075Z" fill="#5B9279"/>
<path d="M638.353 549.528C639.088 549.218 639.432 548.369 639.121 547.634C638.81 546.899 637.962 546.555 637.227 546.866C636.492 547.177 636.148 548.025 636.459 548.76C636.77 549.495 637.618 549.839 638.353 549.528Z" fill="#5B9279"/>
<path d="M659.189 557.981C659.924 557.671 660.268 556.822 659.957 556.087C659.646 555.352 658.798 555.008 658.063 555.319C657.328 555.63 656.984 556.478 657.295 557.213C657.606 557.948 658.454 558.292 659.189 557.981Z" fill="#5B9279"/>
<path d="M680.921 565.585C680.614 566.343 679.815 566.68 679.057 566.373C678.3 566.065 677.962 565.267 678.269 564.509C678.577 563.751 679.375 563.414 680.133 563.721C680.758 564.085 681.095 564.883 680.921 565.585Z" fill="#5B9279"/>
<path d="M589.913 550.392C589.606 551.149 588.807 551.487 588.049 551.18C587.291 550.872 586.954 550.074 587.261 549.316C587.568 548.558 588.367 548.221 589.125 548.528C589.883 548.835 590.22 549.634 589.913 550.392Z" fill="#5B9279"/>
<path d="M609.986 559.638C610.721 559.327 611.065 558.479 610.754 557.744C610.443 557.009 609.595 556.665 608.86 556.976C608.125 557.286 607.781 558.135 608.092 558.87C608.402 559.605 609.251 559.949 609.986 559.638Z" fill="#5B9279"/>
<path d="M630.822 568.091C631.557 567.78 631.901 566.932 631.59 566.197C631.279 565.462 630.431 565.118 629.696 565.429C628.961 565.74 628.617 566.588 628.928 567.323C629.238 568.058 630.087 568.402 630.822 568.091Z" fill="#5B9279"/>
<path d="M651.658 576.544C652.393 576.233 652.737 575.385 652.426 574.65C652.115 573.915 651.267 573.571 650.532 573.882C649.797 574.193 649.453 575.041 649.764 575.776C650.074 576.511 650.923 576.855 651.658 576.544Z" fill="#5B9279"/>
<path d="M673.257 584.204C672.95 584.962 672.151 585.299 671.393 584.992C670.635 584.685 670.298 583.886 670.605 583.128C670.912 582.37 671.711 582.033 672.469 582.34C673.227 582.647 673.564 583.446 673.257 584.204Z" fill="#5B9279"/>
<path d="M121.5 460H172.8C173.6 460 174.3 460.7 174.3 461.5V512.8C174.3 513.6 173.6 514.3 172.8 514.3H121.5C120.7 514.3 120 513.6 120 512.8V461.5C120.1 460.7 120.7 460 121.5 460Z" stroke="#80E895" stroke-width="2" stroke-miterlimit="10"/>
<path d="M179 523.3C179 522.8 179.4 522.5 179.8 522.5C180.3 522.5 180.6 522.9 180.6 523.3C180.6 523.8 180.2 524.1 179.8 524.1C179.4 524.2 179 523.8 179 523.3Z" fill="#5B9279"/>
<path d="M165.7 523.3C165.7 522.8 166.1 522.5 166.5 522.5C166.9 522.5 167.3 522.9 167.3 523.3C167.3 523.8 166.9 524.1 166.5 524.1C166.1 524.1 165.7 523.8 165.7 523.3Z" fill="#5B9279"/>
<path d="M152.4 523.3C152.4 522.8 152.8 522.5 153.2 522.5C153.7 522.5 154 522.9 154 523.3C154 523.8 153.6 524.1 153.2 524.1C152.8 524.2 152.4 523.8 152.4 523.3Z" fill="#5B9279"/>
<path d="M139.1 523.3C139.1 522.8 139.5 522.5 139.9 522.5C140.4 522.5 140.7 522.9 140.7 523.3C140.7 523.8 140.3 524.1 139.9 524.1C139.5 524.2 139.1 523.8 139.1 523.3Z" fill="#5B9279"/>
<path d="M125.8 523.3C125.8 522.8 126.2 522.5 126.6 522.5C127.1 522.5 127.4 522.9 127.4 523.3C127.4 523.8 127 524.1 126.6 524.1C126.1 524.2 125.8 523.8 125.8 523.3Z" fill="#5B9279"/>
<path d="M179 511.4C179 510.9 179.4 510.6 179.8 510.6C180.3 510.6 180.6 511 180.6 511.4C180.6 511.9 180.2 512.2 179.8 512.2C179.4 512.3 179 511.9 179 511.4Z" fill="#5B9279"/>
<path d="M165.7 511.4C165.7 510.9 166.1 510.6 166.5 510.6C166.9 510.6 167.3 511 167.3 511.4C167.3 511.9 166.9 512.2 166.5 512.2C166.1 512.2 165.7 511.9 165.7 511.4Z" fill="#5B9279"/>
<path d="M152.4 511.4C152.4 510.9 152.8 510.6 153.2 510.6C153.7 510.6 154 511 154 511.4C154 511.9 153.6 512.2 153.2 512.2C152.8 512.3 152.4 511.9 152.4 511.4Z" fill="#5B9279"/>
<path d="M139.1 511.4C139.1 510.9 139.5 510.6 139.9 510.6C140.4 510.6 140.7 511 140.7 511.4C140.7 511.9 140.3 512.2 139.9 512.2C139.5 512.3 139.1 511.9 139.1 511.4Z" fill="#5B9279"/>
<path d="M125.8 511.4C125.8 510.9 126.2 510.6 126.6 510.6C127.1 510.6 127.4 511 127.4 511.4C127.4 511.9 127 512.2 126.6 512.2C126.1 512.3 125.8 511.9 125.8 511.4Z" fill="#5B9279"/>
<path d="M179 499.5C179 499 179.4 498.7 179.8 498.7C180.3 498.7 180.6 499.1 180.6 499.5C180.6 500 180.2 500.3 179.8 500.3C179.4 500.4 179 500 179 499.5Z" fill="#5B9279"/>
<path d="M166.5 500.3C166.942 500.3 167.3 499.942 167.3 499.5C167.3 499.058 166.942 498.7 166.5 498.7C166.058 498.7 165.7 499.058 165.7 499.5C165.7 499.942 166.058 500.3 166.5 500.3Z" fill="#5B9279"/>
<path d="M153.2 500.3C153.642 500.3 154 499.942 154 499.5C154 499.058 153.642 498.7 153.2 498.7C152.758 498.7 152.4 499.058 152.4 499.5C152.4 499.942 152.758 500.3 153.2 500.3Z" fill="#5B9279"/>
<path d="M139.1 499.5C139.1 499 139.5 498.7 139.9 498.7C140.4 498.7 140.7 499.1 140.7 499.5C140.7 500 140.3 500.3 139.9 500.3C139.5 500.4 139.1 500 139.1 499.5Z" fill="#5B9279"/>
<path d="M125.8 499.5C125.8 499 126.2 498.7 126.6 498.7C127.1 498.7 127.4 499.1 127.4 499.5C127.4 500 127 500.3 126.6 500.3C126.1 500.4 125.8 500 125.8 499.5Z" fill="#5B9279"/>
<path d="M179 487.7C179 487.2 179.4 486.9 179.8 486.9C180.3 486.9 180.6 487.3 180.6 487.7C180.6 488.1 180.2 488.5 179.8 488.5C179.4 488.5 179 488.1 179 487.7Z" fill="#5B9279"/>
<path d="M166.5 488.5C166.942 488.5 167.3 488.142 167.3 487.7C167.3 487.258 166.942 486.9 166.5 486.9C166.058 486.9 165.7 487.258 165.7 487.7C165.7 488.142 166.058 488.5 166.5 488.5Z" fill="#5B9279"/>
<path d="M153.2 488.5C153.642 488.5 154 488.142 154 487.7C154 487.258 153.642 486.9 153.2 486.9C152.758 486.9 152.4 487.258 152.4 487.7C152.4 488.142 152.758 488.5 153.2 488.5Z" fill="#5B9279"/>
<path d="M139.1 487.7C139.1 487.2 139.5 486.9 139.9 486.9C140.4 486.9 140.7 487.3 140.7 487.7C140.7 488.1 140.3 488.5 139.9 488.5C139.5 488.5 139.1 488.1 139.1 487.7Z" fill="#5B9279"/>
<path d="M125.8 487.7C125.8 487.2 126.2 486.9 126.6 486.9C127.1 486.9 127.4 487.3 127.4 487.7C127.4 488.1 127 488.5 126.6 488.5C126.1 488.5 125.8 488.1 125.8 487.7Z" fill="#5B9279"/>
<path d="M179 475.8C179 475.3 179.4 475 179.8 475C180.3 475 180.6 475.4 180.6 475.8C180.6 476.2 180.2 476.6 179.8 476.6C179.4 476.6 179 476.2 179 475.8Z" fill="#5B9279"/>
<path d="M166.5 476.6C166.942 476.6 167.3 476.242 167.3 475.8C167.3 475.358 166.942 475 166.5 475C166.058 475 165.7 475.358 165.7 475.8C165.7 476.242 166.058 476.6 166.5 476.6Z" fill="#5B9279"/>
<path d="M153.2 476.6C153.642 476.6 154 476.242 154 475.8C154 475.358 153.642 475 153.2 475C152.758 475 152.4 475.358 152.4 475.8C152.4 476.242 152.758 476.6 153.2 476.6Z" fill="#5B9279"/>
<path d="M139.1 475.8C139.1 475.3 139.5 475 139.9 475C140.4 475 140.7 475.4 140.7 475.8C140.7 476.2 140.3 476.6 139.9 476.6C139.5 476.6 139.1 476.2 139.1 475.8Z" fill="#5B9279"/>
<path d="M125.8 475.8C125.8 475.3 126.2 475 126.6 475C127.1 475 127.4 475.4 127.4 475.8C127.4 476.2 127 476.6 126.6 476.6C126.1 476.6 125.8 476.2 125.8 475.8Z" fill="#5B9279"/>
<path d="M179 463.9C179 463.4 179.4 463.1 179.8 463.1C180.3 463.1 180.6 463.5 180.6 463.9C180.6 464.4 180.2 464.7 179.8 464.7C179.4 464.7 179 464.3 179 463.9Z" fill="#5B9279"/>
<path d="M165.7 463.9C165.7 463.4 166.1 463.1 166.5 463.1C166.9 463.1 167.3 463.5 167.3 463.9C167.3 464.4 166.9 464.7 166.5 464.7C166.1 464.7 165.7 464.3 165.7 463.9Z" fill="#5B9279"/>
<path d="M152.4 463.9C152.4 463.4 152.8 463.1 153.2 463.1C153.7 463.1 154 463.5 154 463.9C154 464.4 153.6 464.7 153.2 464.7C152.8 464.7 152.4 464.3 152.4 463.9Z" fill="#5B9279"/>
<path d="M139.1 463.9C139.1 463.4 139.5 463.1 139.9 463.1C140.4 463.1 140.7 463.5 140.7 463.9C140.7 464.4 140.3 464.7 139.9 464.7C139.5 464.7 139.1 464.3 139.1 463.9Z" fill="#5B9279"/>
<path d="M125.8 463.9C125.8 463.4 126.2 463.1 126.6 463.1C127.1 463.1 127.4 463.5 127.4 463.9C127.4 464.4 127 464.7 126.6 464.7C126.1 464.7 125.8 464.3 125.8 463.9Z" fill="#5B9279"/>
</g>
</svg>
