<svg width="32" height="41" viewBox="0 0 32 41" fill="none" xmlns="http://www.w3.org/2000/svg">
<rect x="0.0526428" y="0.263168" width="31.4737" height="31.4737" rx="5.59532" fill="#252323"/>
<path fill-rule="evenodd" clip-rule="evenodd" d="M10.8079 9.94736C9.84856 9.94736 9.13871 10.787 9.1705 11.6976C9.201 12.5724 9.16137 13.7055 8.87614 14.6294C8.5899 15.556 8.10613 16.1432 7.3158 16.2186V17.0694C8.10613 17.145 8.5899 17.7318 8.87611 18.6586C9.16137 19.5825 9.20097 20.7156 9.17046 21.5904C9.13868 22.5009 9.84853 23.3406 10.808 23.3406H20.6379C21.5972 23.3406 22.3069 22.501 22.2751 21.5904C22.2446 20.7156 22.2842 19.5825 22.5695 18.6586C22.8557 17.7318 23.3383 17.1447 24.1287 17.0694V16.2186C23.3383 16.143 22.8557 15.5562 22.5695 14.6294C22.2842 13.7056 22.2446 12.5724 22.2751 11.6976C22.3069 10.7871 21.5972 9.94736 20.6379 9.94736H10.8077H10.8079ZM18.7144 18.1918C18.7144 19.4456 17.7791 20.2061 16.227 20.2061H13.585C13.5094 20.2061 13.4369 20.176 13.3835 20.1226C13.33 20.0692 13.3 19.9967 13.3 19.9211V13.3669C13.3 13.2914 13.33 13.2189 13.3835 13.1654C13.4369 13.112 13.5094 13.082 13.585 13.082H16.212C17.5062 13.082 18.3555 13.783 18.3555 14.8593C18.3555 15.6147 17.7841 16.291 17.0562 16.4095V16.4489C18.0471 16.5576 18.7144 17.2439 18.7144 18.1918ZM15.939 13.9853H14.4325V16.1132H15.7013C16.6822 16.1132 17.223 15.7182 17.223 15.0122C17.2229 14.3506 16.7579 13.9853 15.939 13.9853ZM14.4325 16.9575V19.3024H15.9944C17.0156 19.3024 17.5566 18.8927 17.5566 18.1225C17.5566 17.3524 17.0005 16.9573 15.9287 16.9573H14.4325V16.9575Z" fill="#F1F1EF"/>
<path d="M3.72818 36.1987H2.71646L2.70963 35.6689H3.64957C3.79084 35.6689 3.91617 35.637 4.02554 35.5732C4.13492 35.5094 4.22037 35.4182 4.28189 35.2997C4.34569 35.179 4.37759 35.0354 4.37759 34.8691C4.37759 34.6868 4.35025 34.5387 4.29556 34.4247C4.24315 34.3085 4.16226 34.2242 4.05289 34.1718C3.94579 34.1171 3.80907 34.0898 3.64273 34.0898H2.84976V38.5263H2.22086V33.5497H3.64273C3.85692 33.5497 4.04833 33.5759 4.21695 33.6284C4.38557 33.6785 4.52798 33.7582 4.6442 33.8676C4.76269 33.9747 4.85269 34.1114 4.91422 34.2778C4.97574 34.4441 5.0065 34.6435 5.0065 34.8759C5.0065 35.081 4.95979 35.2667 4.86636 35.433C4.77522 35.5971 4.64761 35.7315 4.48355 35.8364C4.31949 35.9412 4.13036 36.0084 3.91617 36.038L3.72818 36.1987ZM3.70425 38.5263H2.4567L2.82242 37.9897H3.70425C3.86832 37.9897 4.00731 37.9532 4.12125 37.8803C4.23518 37.8074 4.32177 37.7049 4.38101 37.5727C4.44254 37.4383 4.4733 37.2799 4.4733 37.0976C4.4733 36.913 4.44823 36.7535 4.3981 36.6191C4.34797 36.4846 4.26822 36.381 4.15884 36.308C4.04947 36.2351 3.90591 36.1987 3.72818 36.1987H2.91812L2.92496 35.6689H4.01871L4.15884 35.8603C4.36392 35.8808 4.53596 35.9492 4.67496 36.0654C4.81623 36.1793 4.92219 36.3251 4.99283 36.5029C5.06575 36.6806 5.1022 36.8766 5.1022 37.0908C5.1022 37.4007 5.0441 37.6627 4.92789 37.8769C4.81395 38.0888 4.65217 38.2506 4.44254 38.3622C4.2329 38.4716 3.98681 38.5263 3.70425 38.5263ZM5.83365 36.8549V36.5029C5.83365 36.2158 5.87011 35.964 5.94302 35.7475C6.01594 35.5287 6.11734 35.3465 6.24722 35.2006C6.37711 35.0548 6.52864 34.9454 6.70181 34.8725C6.87499 34.7973 7.0607 34.7597 7.25894 34.7597C7.46174 34.7597 7.64973 34.7973 7.82291 34.8725C7.99608 34.9454 8.14761 35.0548 8.2775 35.2006C8.40966 35.3465 8.5122 35.5287 8.58511 35.7475C8.65803 35.964 8.69449 36.2158 8.69449 36.5029V36.8549C8.69449 37.142 8.65803 37.395 8.58511 37.6137C8.5122 37.8302 8.4108 38.0113 8.28091 38.1572C8.15103 38.303 7.9995 38.4124 7.82632 38.4853C7.65315 38.5582 7.4663 38.5947 7.26578 38.5947C7.06526 38.5947 6.87841 38.5582 6.70523 38.4853C6.53205 38.4124 6.37938 38.303 6.24722 38.1572C6.11734 38.0113 6.01594 37.8302 5.94302 37.6137C5.87011 37.395 5.83365 37.142 5.83365 36.8549ZM6.43863 36.5029V36.8549C6.43863 37.0577 6.45914 37.2355 6.50015 37.3881C6.54117 37.5408 6.59927 37.6684 6.67447 37.7709C6.74966 37.8735 6.83739 37.9509 6.93765 38.0034C7.03791 38.0535 7.14729 38.0786 7.26578 38.0786C7.4025 38.0786 7.52213 38.0535 7.62466 38.0034C7.72948 37.9509 7.81607 37.8735 7.88443 37.7709C7.95279 37.6684 8.00406 37.5408 8.03824 37.3881C8.07242 37.2355 8.08951 37.0577 8.08951 36.8549V36.5029C8.08951 36.3001 8.069 36.1235 8.02798 35.9731C7.98697 35.8204 7.92886 35.6928 7.85367 35.5903C7.77847 35.4855 7.68961 35.408 7.58707 35.3578C7.48681 35.3054 7.37743 35.2792 7.25894 35.2792C7.14273 35.2792 7.0345 35.3054 6.93423 35.3578C6.83397 35.408 6.74625 35.4855 6.67105 35.5903C6.59813 35.6928 6.54117 35.8204 6.50015 35.9731C6.45914 36.1235 6.43863 36.3001 6.43863 36.5029ZM9.34732 36.8549V36.5029C9.34732 36.2158 9.38378 35.964 9.4567 35.7475C9.52961 35.5287 9.63101 35.3465 9.76089 35.2006C9.89078 35.0548 10.0423 34.9454 10.2155 34.8725C10.3887 34.7973 10.5744 34.7597 10.7726 34.7597C10.9754 34.7597 11.1634 34.7973 11.3366 34.8725C11.5098 34.9454 11.6613 35.0548 11.7912 35.2006C11.9233 35.3465 12.0259 35.5287 12.0988 35.7475C12.1717 35.964 12.2082 36.2158 12.2082 36.5029V36.8549C12.2082 37.142 12.1717 37.395 12.0988 37.6137C12.0259 37.8302 11.9245 38.0113 11.7946 38.1572C11.6647 38.303 11.5132 38.4124 11.34 38.4853C11.1668 38.5582 10.98 38.5947 10.7794 38.5947C10.5789 38.5947 10.3921 38.5582 10.2189 38.4853C10.0457 38.4124 9.89306 38.303 9.76089 38.1572C9.63101 38.0113 9.52961 37.8302 9.4567 37.6137C9.38378 37.395 9.34732 37.142 9.34732 36.8549ZM9.9523 36.5029V36.8549C9.9523 37.0577 9.97281 37.2355 10.0138 37.3881C10.0548 37.5408 10.1129 37.6684 10.1881 37.7709C10.2633 37.8735 10.3511 37.9509 10.4513 38.0034C10.5516 38.0535 10.661 38.0786 10.7794 38.0786C10.9162 38.0786 11.0358 38.0535 11.1383 38.0034C11.2432 37.9509 11.3297 37.8735 11.3981 37.7709C11.4665 37.6684 11.5177 37.5408 11.5519 37.3881C11.5861 37.2355 11.6032 37.0577 11.6032 36.8549V36.5029C11.6032 36.3001 11.5827 36.1235 11.5417 35.9731C11.5006 35.8204 11.4425 35.6928 11.3673 35.5903C11.2921 35.4855 11.2033 35.408 11.1007 35.3578C11.0005 35.3054 10.8911 35.2792 10.7726 35.2792C10.6564 35.2792 10.5482 35.3054 10.4479 35.3578C10.3476 35.408 10.2599 35.4855 10.1847 35.5903C10.1118 35.6928 10.0548 35.8204 10.0138 35.9731C9.97281 36.1235 9.9523 36.3001 9.9523 36.5029ZM14.3376 34.8281V35.3134H12.6115V34.8281H14.3376ZM13.1754 33.9291H13.7804V37.6103C13.7804 37.7356 13.7952 37.8302 13.8249 37.894C13.8568 37.9578 13.8966 37.9999 13.9445 38.0204C13.9923 38.041 14.0436 38.0512 14.0983 38.0512C14.1393 38.0512 14.1849 38.0467 14.235 38.0375C14.2851 38.0261 14.3193 38.017 14.3376 38.0102L14.3341 38.5263C14.2931 38.5423 14.2384 38.5571 14.1701 38.5707C14.1017 38.5867 14.0151 38.5947 13.9103 38.5947C13.7804 38.5947 13.6597 38.5639 13.548 38.5024C13.4364 38.4409 13.3463 38.3383 13.278 38.1948C13.2096 38.0489 13.1754 37.853 13.1754 37.6069V33.9291ZM16.8532 37.5795C16.8532 37.4861 16.8304 37.4041 16.7848 37.3334C16.7392 37.2628 16.6641 37.1944 16.5592 37.1284C16.4567 37.0623 16.3177 36.9916 16.1422 36.9164C15.9713 36.8458 15.8175 36.7763 15.6808 36.7079C15.5464 36.6373 15.4324 36.561 15.339 36.4789C15.2456 36.3969 15.1738 36.3023 15.1237 36.1953C15.0758 36.0859 15.0519 35.9571 15.0519 35.809C15.0519 35.6609 15.0793 35.5242 15.1339 35.3989C15.1909 35.2713 15.2707 35.1596 15.3732 35.0639C15.4757 34.9682 15.5988 34.8941 15.7423 34.8417C15.8859 34.787 16.0465 34.7597 16.2243 34.7597C16.4772 34.7597 16.6925 34.8087 16.8703 34.9067C17.048 35.0047 17.1836 35.1391 17.277 35.31C17.3727 35.4786 17.4206 35.6689 17.4206 35.8808H16.819C16.819 35.7783 16.7962 35.6814 16.7506 35.5903C16.7051 35.4991 16.6378 35.4251 16.549 35.3681C16.4601 35.3089 16.3519 35.2792 16.2243 35.2792C16.0898 35.2792 15.9805 35.3032 15.8961 35.351C15.8118 35.3989 15.7503 35.4615 15.7116 35.539C15.6751 35.6142 15.6569 35.6974 15.6569 35.7885C15.6569 35.8569 15.666 35.9161 15.6842 35.9662C15.7047 36.0141 15.7389 36.0597 15.7868 36.103C15.8346 36.144 15.8996 36.1873 15.9816 36.2328C16.0659 36.2761 16.173 36.3263 16.3029 36.3832C16.5535 36.4812 16.7643 36.5803 16.9352 36.6806C17.1061 36.7809 17.236 36.8982 17.3249 37.0327C17.4137 37.1671 17.4582 37.3334 17.4582 37.5317C17.4582 37.6935 17.4285 37.8404 17.3693 37.9726C17.3123 38.1025 17.2303 38.2141 17.1232 38.3076C17.0161 38.401 16.8874 38.4728 16.737 38.5229C16.5889 38.5707 16.4225 38.5947 16.2379 38.5947C15.96 38.5947 15.7241 38.54 15.5304 38.4306C15.339 38.3189 15.1932 38.1743 15.0929 37.9965C14.9949 37.8165 14.946 37.624 14.946 37.4189H15.5509C15.5578 37.5921 15.5965 37.7265 15.6671 37.8222C15.7401 37.9179 15.8278 37.984 15.9303 38.0204C16.0329 38.0569 16.1354 38.0751 16.2379 38.0751C16.3724 38.0751 16.4852 38.0558 16.5763 38.017C16.6675 37.976 16.7358 37.9179 16.7814 37.8427C16.8293 37.7675 16.8532 37.6798 16.8532 37.5795ZM19.6012 34.8281V35.3134H17.8752V34.8281H19.6012ZM18.4391 33.9291H19.0441V37.6103C19.0441 37.7356 19.0589 37.8302 19.0885 37.894C19.1204 37.9578 19.1603 37.9999 19.2082 38.0204C19.256 38.041 19.3073 38.0512 19.362 38.0512C19.403 38.0512 19.4486 38.0467 19.4987 38.0375C19.5488 38.0261 19.583 38.017 19.6012 38.0102L19.5978 38.5263C19.5568 38.5423 19.5021 38.5571 19.4337 38.5707C19.3654 38.5867 19.2788 38.5947 19.174 38.5947C19.0441 38.5947 18.9233 38.5639 18.8117 38.5024C18.7 38.4409 18.61 38.3383 18.5417 38.1948C18.4733 38.0489 18.4391 37.853 18.4391 37.6069V33.9291ZM20.9274 35.4091V38.5263H20.3224V34.8281H20.9069L20.9274 35.4091ZM21.8468 34.8076L21.8503 35.3954C21.8001 35.3841 21.7545 35.3772 21.7135 35.3749C21.6748 35.3704 21.6292 35.3681 21.5768 35.3681C21.4629 35.3681 21.3626 35.3909 21.276 35.4365C21.1917 35.482 21.1188 35.5458 21.0573 35.6279C20.9958 35.7099 20.9468 35.8079 20.9103 35.9218C20.8739 36.0335 20.8488 36.1565 20.8351 36.291L20.6779 36.3935C20.6779 36.1702 20.695 35.9606 20.7292 35.7646C20.7656 35.5686 20.8214 35.3954 20.8966 35.2451C20.9718 35.0924 21.0675 34.9739 21.1837 34.8896C21.3022 34.803 21.4435 34.7597 21.6076 34.7597C21.644 34.7597 21.6885 34.7654 21.7409 34.7768C21.7956 34.7859 21.8309 34.7962 21.8468 34.8076ZM24.13 37.894V35.8876C24.13 35.7418 24.1072 35.6245 24.0617 35.5356C24.0184 35.4467 23.9523 35.3818 23.8634 35.3408C23.7768 35.2997 23.6675 35.2792 23.5353 35.2792C23.4077 35.2792 23.2972 35.3054 23.2038 35.3578C23.1126 35.4103 23.042 35.4798 22.9919 35.5663C22.944 35.6529 22.9201 35.7486 22.9201 35.8535H22.3151C22.3151 35.7213 22.3436 35.5903 22.4005 35.4604C22.4598 35.3305 22.5441 35.2132 22.6535 35.1083C22.7628 35.0012 22.8939 34.9169 23.0465 34.8554C23.2015 34.7916 23.3747 34.7597 23.5661 34.7597C23.7939 34.7597 23.9956 34.7973 24.1711 34.8725C24.3465 34.9454 24.4844 35.065 24.5846 35.2314C24.6849 35.3977 24.735 35.6188 24.735 35.8945V37.7197C24.735 37.8427 24.7441 37.9737 24.7624 38.1127C24.7829 38.2517 24.8114 38.3714 24.8478 38.4716V38.5263H24.2223C24.1927 38.4534 24.1699 38.3565 24.154 38.2358C24.138 38.1127 24.13 37.9988 24.13 37.894ZM24.2257 36.2841L24.2326 36.7285H23.8122C23.6686 36.7285 23.5376 36.7444 23.4191 36.7763C23.3029 36.8082 23.2026 36.8549 23.1183 36.9164C23.034 36.9757 22.9691 37.0497 22.9235 37.1386C22.8802 37.2275 22.8586 37.3289 22.8586 37.4428C22.8586 37.5909 22.8791 37.7094 22.9201 37.7983C22.9611 37.8849 23.0226 37.9475 23.1046 37.9863C23.1867 38.025 23.2904 38.0444 23.4157 38.0444C23.5683 38.0444 23.7028 38.0091 23.819 37.9384C23.9352 37.8678 24.0252 37.7823 24.089 37.6821C24.1551 37.5818 24.1859 37.4884 24.1813 37.4018L24.3146 37.6855C24.3055 37.7744 24.2759 37.8712 24.2257 37.976C24.1779 38.0786 24.1107 38.1777 24.0241 38.2734C23.9375 38.3668 23.835 38.4443 23.7165 38.5058C23.6003 38.565 23.4692 38.5947 23.3234 38.5947C23.1092 38.5947 22.9212 38.5536 22.7594 38.4716C22.5999 38.3896 22.4757 38.2688 22.3869 38.1093C22.298 37.9498 22.2536 37.7527 22.2536 37.518C22.2536 37.3403 22.2843 37.1762 22.3459 37.0258C22.4074 36.8754 22.4985 36.7455 22.6193 36.6362C22.7401 36.5245 22.8916 36.4379 23.0739 36.3764C23.2585 36.3149 23.4715 36.2841 23.713 36.2841H24.2257ZM26.2799 35.539V39.9482H25.675V34.8281H26.2253L26.2799 35.539ZM28.3478 36.5097V36.8549C28.3478 37.1466 28.3205 37.4018 28.2658 37.6205C28.2134 37.837 28.1348 38.0182 28.0299 38.164C27.9274 38.3076 27.8009 38.4158 27.6505 38.4887C27.5002 38.5593 27.3281 38.5947 27.1344 38.5947C26.9407 38.5947 26.7721 38.5582 26.6286 38.4853C26.4873 38.4101 26.3677 38.3019 26.2697 38.1606C26.174 38.0193 26.0976 37.8495 26.0407 37.6513C25.986 37.4508 25.9484 37.2263 25.9279 36.978V36.4516C25.9484 36.1896 25.986 35.9549 26.0407 35.7475C26.0954 35.5379 26.1706 35.3601 26.2663 35.2143C26.3642 35.0662 26.4839 34.9534 26.6252 34.8759C26.7687 34.7984 26.9362 34.7597 27.1276 34.7597C27.3258 34.7597 27.5002 34.7939 27.6505 34.8622C27.8032 34.9306 27.9308 35.0366 28.0334 35.1801C28.1382 35.3214 28.2168 35.5025 28.2692 35.7236C28.3216 35.9423 28.3478 36.2044 28.3478 36.5097ZM27.7428 36.8549V36.5097C27.7428 36.3046 27.7269 36.1258 27.695 35.9731C27.6654 35.8204 27.6175 35.6939 27.5514 35.5937C27.4853 35.4934 27.4022 35.4182 27.3019 35.3681C27.2016 35.318 27.0809 35.2929 26.9396 35.2929C26.8188 35.2929 26.7117 35.318 26.6183 35.3681C26.5272 35.4182 26.4486 35.4866 26.3825 35.5732C26.3164 35.6575 26.2617 35.7543 26.2184 35.8637C26.1751 35.9708 26.1432 36.0825 26.1227 36.1987V37.2343C26.1614 37.3801 26.2127 37.518 26.2765 37.6479C26.3403 37.7755 26.4258 37.8792 26.5329 37.9589C26.6422 38.0387 26.7801 38.0786 26.9464 38.0786C27.0854 38.0786 27.2051 38.0535 27.3053 38.0034C27.4056 37.9532 27.4876 37.878 27.5514 37.7778C27.6175 37.6752 27.6654 37.5476 27.695 37.395C27.7269 37.24 27.7428 37.06 27.7428 36.8549Z" fill="#252323"/>
</svg>
