<svg width="31" height="31" viewBox="0 0 31 31" fill="none" xmlns="http://www.w3.org/2000/svg">
<path d="M5.62229 0.263186H25.1672C25.8712 0.262506 26.5684 0.404213 27.2189 0.680197C27.8694 0.956182 28.4604 1.36103 28.9582 1.87156C29.4559 2.38209 29.8507 2.98829 30.1198 3.65547C30.3888 4.32264 30.527 5.03769 30.5263 5.7597V25.0298C30.527 25.7518 30.3888 26.4669 30.1198 27.1341C29.8507 27.8012 29.4559 28.4074 28.9582 28.918C28.4604 29.4285 27.8694 29.8333 27.2189 30.1093C26.5684 30.3853 25.8712 30.527 25.1672 30.5263H5.62229C4.91833 30.527 4.22116 30.3853 3.57066 30.1093C2.92017 29.8333 2.32912 29.4285 1.83135 28.918C1.33358 28.4074 0.938857 27.8012 0.669772 27.1341C0.400687 26.4669 0.262522 25.7518 0.263186 25.0298V5.7597C0.262522 5.03769 0.400687 4.32264 0.669772 3.65547C0.938857 2.98829 1.33358 2.38209 1.83135 1.87156C2.32912 1.36103 2.92017 0.956182 3.57066 0.680197C4.22116 0.404213 4.91833 0.262506 5.62229 0.263186Z" fill="#252323"/>
<circle cx="15.2632" cy="15.2632" r="12" fill="#F1F1EF"/>
<path d="M9.79869 20.4549C8.81432 20.4549 7.96418 20.2504 7.24827 19.8413C6.53662 19.428 5.98904 18.8441 5.60551 18.0899C5.22199 17.3314 5.03023 16.4386 5.03023 15.4116C5.03023 14.4017 5.22199 13.5153 5.60551 12.7525C5.9933 11.9855 6.53449 11.3889 7.22909 10.9628C7.92369 10.5324 8.73975 10.3172 9.67725 10.3172C10.2824 10.3172 10.8534 10.4152 11.3903 10.6112C11.9315 10.803 12.4088 11.1013 12.8221 11.5061C13.2397 11.9109 13.5679 12.4265 13.8065 13.053C14.0451 13.6751 14.1645 14.4166 14.1645 15.2774V15.9869H6.11688V14.4272H11.9464C11.9422 13.9841 11.8463 13.5899 11.6588 13.2447C11.4713 12.8953 11.2092 12.6204 10.8726 12.4201C10.5402 12.2199 10.1524 12.1197 9.70921 12.1197C9.2362 12.1197 8.82071 12.2348 8.46276 12.4649C8.1048 12.6907 7.82568 12.989 7.6254 13.3598C7.42938 13.7263 7.32923 14.129 7.32497 14.5679V15.9294C7.32497 16.5004 7.42938 16.9905 7.63818 17.3995C7.84699 17.8044 8.13889 18.1155 8.51389 18.3328C8.88889 18.5459 9.32781 18.6524 9.83066 18.6524C10.1673 18.6524 10.472 18.6055 10.7447 18.5118C11.0174 18.4138 11.254 18.271 11.4542 18.0835C11.6545 17.896 11.8058 17.6638 11.9081 17.3868L14.0686 17.6297C13.9322 18.2007 13.6723 18.6993 13.2888 19.1254C12.9095 19.5473 12.4237 19.8754 11.8314 20.1098C11.239 20.3399 10.5615 20.4549 9.79869 20.4549ZM17.8031 10.445L19.7847 14.0693L21.7982 10.445H24.2463L21.2868 15.3541L24.2975 20.2632H21.8621L19.7847 16.7284L17.7264 20.2632H15.2719L18.2634 15.3541L15.3486 10.445H17.8031Z" fill="#252323"/>
</svg>
