<svg width="31" height="41" viewBox="0 0 31 41" fill="none" xmlns="http://www.w3.org/2000/svg">
<path d="M5.62226 0.263156H25.1672C25.8712 0.262475 26.5683 0.404182 27.2188 0.680167C27.8693 0.956151 28.4604 1.361 28.9581 1.87153C29.4559 2.38206 29.8506 2.98826 30.1197 3.65544C30.3888 4.32261 30.527 5.03766 30.5263 5.75967V25.0298C30.527 25.7518 30.3888 26.4668 30.1197 27.134C29.8506 27.8012 29.4559 28.4074 28.9581 28.9179C28.4604 29.4285 27.8693 29.8333 27.2188 30.1093C26.5683 30.3853 25.8712 30.527 25.1672 30.5263H5.62226C4.9183 30.527 4.22113 30.3853 3.57063 30.1093C2.92014 29.8333 2.32909 29.4285 1.83132 28.9179C1.33355 28.4074 0.938826 27.8012 0.669741 27.134C0.400656 26.4668 0.262492 25.7518 0.263155 25.0298V5.75967C0.262492 5.03766 0.400656 4.32261 0.669741 3.65544C0.938826 2.98826 1.33355 2.38206 1.83132 1.87153C2.32909 1.361 2.92014 0.956151 3.57063 0.680167C4.22113 0.404182 4.9183 0.262475 5.62226 0.263156Z" fill="#252323"/>
<circle cx="15.2632" cy="15.2632" r="12" fill="#F1F1EF"/>
<path d="M9.79866 20.4549C8.81429 20.4549 7.96415 20.2504 7.24824 19.8413C6.53659 19.4279 5.98901 18.8441 5.60548 18.0899C5.22196 17.3313 5.0302 16.4386 5.0302 15.4116C5.0302 14.4016 5.22196 13.5153 5.60548 12.7525C5.99327 11.9855 6.53446 11.3889 7.22906 10.9627C7.92366 10.5323 8.73972 10.3171 9.67722 10.3171C10.2823 10.3171 10.8534 10.4151 11.3903 10.6112C11.9315 10.8029 12.4088 11.1012 12.8221 11.5061C13.2397 11.9109 13.5678 12.4265 13.8065 13.0529C14.0451 13.6751 14.1644 14.4166 14.1644 15.2774V15.9869H6.11685V14.4272H11.9464C11.9421 13.984 11.8463 13.5899 11.6588 13.2447C11.4713 12.8953 11.2092 12.6204 10.8725 12.4201C10.5401 12.2198 10.1524 12.1197 9.70918 12.1197C9.23616 12.1197 8.82068 12.2347 8.46273 12.4649C8.10477 12.6907 7.82565 12.989 7.62537 13.3597C7.42935 13.7262 7.3292 14.1289 7.32494 14.5678V15.9293C7.32494 16.5004 7.42935 16.9904 7.63815 17.3995C7.84696 17.8043 8.13886 18.1154 8.51386 18.3328C8.88886 18.5458 9.32778 18.6524 9.83063 18.6524C10.1673 18.6524 10.472 18.6055 10.7447 18.5117C11.0174 18.4137 11.2539 18.271 11.4542 18.0835C11.6545 17.896 11.8058 17.6637 11.908 17.3867L14.0686 17.6296C13.9322 18.2007 13.6722 18.6992 13.2887 19.1254C12.9095 19.5472 12.4237 19.8754 11.8313 20.1097C11.239 20.3399 10.5614 20.4549 9.79866 20.4549ZM17.8031 10.445L19.7846 14.0693L21.7981 10.445H24.2463L21.2868 15.3541L24.2974 20.2632H21.8621L19.7846 16.7284L17.7264 20.2632H15.2719L18.2633 15.3541L15.3486 10.445H17.8031Z" fill="#252323"/>
<path d="M7.60764 37.9897V38.5263H5.44748V37.9897H7.60764ZM5.56027 33.5497V38.5263H4.93137V33.5497H5.56027ZM7.31711 35.6894V36.226H5.44748V35.6894H7.31711ZM7.57346 33.5497V34.0898H5.44748V33.5497H7.57346ZM8.77316 34.8281L9.39523 36.1747L10.0276 34.8281H10.7282L9.72678 36.6533L10.7556 38.5263H10.0617L9.40891 37.1386L8.75266 38.5263H8.05539L9.0842 36.6533L8.08273 34.8281H8.77316ZM12.01 35.539V39.9482H11.405V34.8281H11.9553L12.01 35.539ZM14.0779 36.5097V36.8549C14.0779 37.1466 14.0505 37.4018 13.9958 37.6205C13.9434 37.837 13.8648 38.0182 13.76 38.164C13.6574 38.3076 13.531 38.4158 13.3806 38.4887C13.2302 38.5593 13.0582 38.5947 12.8645 38.5947C12.6708 38.5947 12.5022 38.5582 12.3586 38.4853C12.2173 38.4101 12.0977 38.3019 11.9997 38.1606C11.904 38.0193 11.8277 37.8495 11.7707 37.6513C11.716 37.4508 11.6784 37.2263 11.6579 36.978V36.4516C11.6784 36.1896 11.716 35.9549 11.7707 35.7475C11.8254 35.5379 11.9006 35.3601 11.9963 35.2143C12.0943 35.0662 12.2139 34.9534 12.3552 34.8759C12.4987 34.7984 12.6662 34.7597 12.8576 34.7597C13.0559 34.7597 13.2302 34.7939 13.3806 34.8622C13.5333 34.9306 13.6609 35.0366 13.7634 35.1801C13.8682 35.3214 13.9468 35.5025 13.9992 35.7236C14.0516 35.9423 14.0779 36.2044 14.0779 36.5097ZM13.4729 36.8549V36.5097C13.4729 36.3046 13.4569 36.1258 13.425 35.9731C13.3954 35.8204 13.3475 35.6939 13.2815 35.5937C13.2154 35.4934 13.1322 35.4182 13.032 35.3681C12.9317 35.318 12.8109 35.2929 12.6696 35.2929C12.5489 35.2929 12.4418 35.318 12.3484 35.3681C12.2572 35.4182 12.1786 35.4866 12.1125 35.5732C12.0464 35.6575 11.9918 35.7543 11.9485 35.8637C11.9052 35.9708 11.8733 36.0825 11.8528 36.1987V37.2343C11.8915 37.3801 11.9428 37.518 12.0066 37.6479C12.0704 37.7755 12.1558 37.8792 12.2629 37.9589C12.3723 38.0387 12.5101 38.0786 12.6765 38.0786C12.8155 38.0786 12.9351 38.0535 13.0354 38.0034C13.1356 37.9532 13.2177 37.878 13.2815 37.7778C13.3475 37.6752 13.3954 37.5476 13.425 37.395C13.4569 37.24 13.4729 37.06 13.4729 36.8549ZM15.4621 35.4091V38.5263H14.8571V34.8281H15.4416L15.4621 35.4091ZM16.3816 34.8076L16.385 35.3954C16.3348 35.3841 16.2893 35.3772 16.2483 35.3749C16.2095 35.3704 16.164 35.3681 16.1115 35.3681C15.9976 35.3681 15.8973 35.3909 15.8108 35.4365C15.7265 35.482 15.6535 35.5458 15.592 35.6279C15.5305 35.7099 15.4815 35.8079 15.445 35.9218C15.4086 36.0335 15.3835 36.1565 15.3698 36.291L15.2126 36.3935C15.2126 36.1702 15.2297 35.9606 15.2639 35.7646C15.3003 35.5686 15.3562 35.3954 15.4314 35.2451C15.5066 35.0924 15.6023 34.9739 15.7185 34.8896C15.837 34.803 15.9782 34.7597 16.1423 34.7597C16.1788 34.7597 16.2232 34.7654 16.2756 34.7768C16.3303 34.7859 16.3656 34.7962 16.3816 34.8076ZM18.2444 38.5947C18.0233 38.5947 17.8239 38.5616 17.6462 38.4955C17.4685 38.4295 17.3169 38.3292 17.1916 38.1948C17.0663 38.058 16.9706 37.886 16.9045 37.6786C16.8384 37.4713 16.8054 37.2263 16.8054 36.9438V36.5268C16.8054 36.2009 16.843 35.9252 16.9182 35.6996C16.9957 35.4741 17.0993 35.2929 17.2292 35.1562C17.3591 35.0172 17.5061 34.9169 17.6701 34.8554C17.8342 34.7916 18.0028 34.7597 18.176 34.7597C18.4084 34.7597 18.6067 34.7973 18.7707 34.8725C18.9348 34.9477 19.0681 35.0593 19.1706 35.2075C19.2732 35.3556 19.3484 35.5379 19.3962 35.7543C19.4463 35.9708 19.4714 36.2203 19.4714 36.5029V36.8549H17.1609V36.3388H18.8664V36.2534C18.8573 36.062 18.8311 35.8933 18.7878 35.7475C18.7468 35.6017 18.6784 35.4877 18.5827 35.4057C18.487 35.3214 18.3515 35.2792 18.176 35.2792C18.0643 35.2792 17.9607 35.2986 17.865 35.3373C17.7715 35.3738 17.6906 35.4387 17.6223 35.5322C17.5562 35.6233 17.5038 35.7498 17.4651 35.9116C17.4286 36.0733 17.4104 36.2784 17.4104 36.5268V36.9438C17.4104 37.142 17.4286 37.3129 17.4651 37.4565C17.5038 37.5978 17.5596 37.7151 17.6325 37.8085C17.7077 37.8997 17.7989 37.968 17.906 38.0136C18.0154 38.0569 18.1395 38.0786 18.2785 38.0786C18.4813 38.0786 18.6488 38.0398 18.781 37.9623C18.9131 37.8826 19.0282 37.7812 19.1262 37.6581L19.4441 38.0375C19.378 38.131 19.2914 38.221 19.1843 38.3076C19.0795 38.3919 18.9496 38.4614 18.7946 38.5161C18.642 38.5685 18.4585 38.5947 18.2444 38.5947ZM21.9973 37.5795C21.9973 37.4861 21.9745 37.4041 21.9289 37.3334C21.8834 37.2628 21.8082 37.1944 21.7033 37.1284C21.6008 37.0623 21.4618 36.9916 21.2863 36.9164C21.1154 36.8458 20.9616 36.7763 20.8249 36.7079C20.6905 36.6373 20.5765 36.561 20.4831 36.4789C20.3897 36.3969 20.3179 36.3023 20.2678 36.1953C20.2199 36.0859 20.196 35.9571 20.196 35.809C20.196 35.6609 20.2234 35.5242 20.278 35.3989C20.335 35.2713 20.4148 35.1596 20.5173 35.0639C20.6198 34.9682 20.7429 34.8941 20.8864 34.8417C21.03 34.787 21.1906 34.7597 21.3684 34.7597C21.6213 34.7597 21.8366 34.8087 22.0144 34.9067C22.1921 35.0047 22.3277 35.1391 22.4211 35.31C22.5168 35.4786 22.5647 35.6689 22.5647 35.8808H21.9631C21.9631 35.7783 21.9403 35.6814 21.8947 35.5903C21.8492 35.4991 21.782 35.4251 21.6931 35.3681C21.6042 35.3089 21.496 35.2792 21.3684 35.2792C21.2339 35.2792 21.1246 35.3032 21.0403 35.351C20.9559 35.3989 20.8944 35.4615 20.8557 35.539C20.8192 35.6142 20.801 35.6974 20.801 35.7885C20.801 35.8569 20.8101 35.9161 20.8283 35.9662C20.8488 36.0141 20.883 36.0597 20.9309 36.103C20.9787 36.144 21.0437 36.1873 21.1257 36.2328C21.21 36.2761 21.3171 36.3263 21.447 36.3832C21.6976 36.4812 21.9084 36.5803 22.0793 36.6806C22.2502 36.7809 22.3801 36.8982 22.469 37.0327C22.5578 37.1671 22.6023 37.3334 22.6023 37.5317C22.6023 37.6935 22.5726 37.8404 22.5134 37.9726C22.4564 38.1025 22.3744 38.2141 22.2673 38.3076C22.1602 38.401 22.0315 38.4728 21.8811 38.5229C21.733 38.5707 21.5666 38.5947 21.382 38.5947C21.1041 38.5947 20.8682 38.54 20.6745 38.4306C20.4831 38.3189 20.3373 38.1743 20.237 37.9965C20.139 37.8165 20.0901 37.624 20.0901 37.4189H20.695C20.7019 37.5921 20.7406 37.7265 20.8112 37.8222C20.8842 37.9179 20.9719 37.984 21.0744 38.0204C21.177 38.0569 21.2795 38.0751 21.382 38.0751C21.5165 38.0751 21.6293 38.0558 21.7204 38.017C21.8116 37.976 21.8799 37.9179 21.9255 37.8427C21.9734 37.7675 21.9973 37.6798 21.9973 37.5795ZM25.1897 37.5795C25.1897 37.4861 25.1669 37.4041 25.1213 37.3334C25.0757 37.2628 25.0005 37.1944 24.8957 37.1284C24.7932 37.0623 24.6542 36.9916 24.4787 36.9164C24.3078 36.8458 24.154 36.7763 24.0173 36.7079C23.8829 36.6373 23.7689 36.561 23.6755 36.4789C23.5821 36.3969 23.5103 36.3023 23.4602 36.1953C23.4123 36.0859 23.3884 35.9571 23.3884 35.809C23.3884 35.6609 23.4157 35.5242 23.4704 35.3989C23.5274 35.2713 23.6071 35.1596 23.7097 35.0639C23.8122 34.9682 23.9353 34.8941 24.0788 34.8417C24.2224 34.787 24.383 34.7597 24.5608 34.7597C24.8137 34.7597 25.029 34.8087 25.2068 34.9067C25.3845 35.0047 25.5201 35.1391 25.6135 35.31C25.7092 35.4786 25.757 35.6689 25.757 35.8808H25.1555C25.1555 35.7783 25.1327 35.6814 25.0871 35.5903C25.0416 35.4991 24.9743 35.4251 24.8855 35.3681C24.7966 35.3089 24.6884 35.2792 24.5608 35.2792C24.4263 35.2792 24.3169 35.3032 24.2326 35.351C24.1483 35.3989 24.0868 35.4615 24.0481 35.539C24.0116 35.6142 23.9934 35.6974 23.9934 35.7885C23.9934 35.8569 24.0025 35.9161 24.0207 35.9662C24.0412 36.0141 24.0754 36.0597 24.1233 36.103C24.1711 36.144 24.2361 36.1873 24.3181 36.2328C24.4024 36.2761 24.5095 36.3263 24.6394 36.3832C24.89 36.4812 25.1008 36.5803 25.2717 36.6806C25.4426 36.7809 25.5725 36.8982 25.6613 37.0327C25.7502 37.1671 25.7946 37.3334 25.7946 37.5317C25.7946 37.6935 25.765 37.8404 25.7058 37.9726C25.6488 38.1025 25.5668 38.2141 25.4597 38.3076C25.3526 38.401 25.2238 38.4728 25.0735 38.5229C24.9253 38.5707 24.759 38.5947 24.5744 38.5947C24.2964 38.5947 24.0606 38.54 23.8669 38.4306C23.6755 38.3189 23.5297 38.1743 23.4294 37.9965C23.3314 37.8165 23.2824 37.624 23.2824 37.4189H23.8874C23.8943 37.5921 23.933 37.7265 24.0036 37.8222C24.0765 37.9179 24.1643 37.984 24.2668 38.0204C24.3694 38.0569 24.4719 38.0751 24.5744 38.0751C24.7089 38.0751 24.8217 38.0558 24.9128 38.017C25.004 37.976 25.0723 37.9179 25.1179 37.8427C25.1657 37.7675 25.1897 37.6798 25.1897 37.5795Z" fill="#252323"/>
</svg>
