<svg width="32" height="41" viewBox="0 0 32 41" fill="none" xmlns="http://www.w3.org/2000/svg">
<path d="M6.14859 2.43926e-06H25.6935C26.3975 -0.000678055 27.0947 0.141029 27.7452 0.417014C28.3957 0.692998 28.9867 1.09784 29.4845 1.60838C29.9823 2.11891 30.377 2.72511 30.6461 3.39229C30.9151 4.05946 31.0533 4.77451 31.0526 5.49652V24.7666C31.0533 25.4886 30.9151 26.2037 30.6461 26.8709C30.377 27.538 29.9823 28.1442 29.4845 28.6548C28.9867 29.1653 28.3957 29.5702 27.7452 29.8461C27.0947 30.1221 26.3975 30.2638 25.6935 30.2632H6.14859C5.44464 30.2638 4.74746 30.1221 4.09697 29.8461C3.44647 29.5702 2.85543 29.1653 2.35766 28.6548C1.85989 28.1442 1.46516 27.538 1.19608 26.8709C0.926993 26.2037 0.788829 25.4886 0.789492 24.7666V5.49652C0.788829 4.77451 0.926993 4.05946 1.19608 3.39229C1.46516 2.72511 1.85989 2.11891 2.35766 1.60838C2.85543 1.09784 3.44647 0.692998 4.09697 0.417014C4.74746 0.141029 5.44464 -0.000678055 6.14859 2.43926e-06Z" fill="#252323"/>
<g clip-path="url(#clip0_416_424)">
<path d="M22.7028 21.0667L20.958 9.98411C20.9232 9.77907 20.7514 9.62548 20.5432 9.62548C20.4276 9.62548 20.3231 9.67298 20.2463 9.75057L9.24451 21.0667L15.3324 24.5721C15.509 24.6759 15.7211 24.7368 15.9468 24.7368C16.1716 24.7368 16.383 24.6759 16.565 24.5698L22.7028 21.0667ZM12.3083 5.96323C12.237 5.82865 12.0985 5.73682 11.9378 5.73682C11.728 5.73682 11.5538 5.89436 11.5221 6.10177L9.69022 18.1446L14.2795 9.74265L12.309 5.96561L12.3083 5.96323ZM17.7557 11.3956L16.3458 8.63907C16.2737 8.50132 16.1344 8.40948 15.9737 8.40948C15.813 8.40948 15.6736 8.50132 15.6024 8.63669L15.6016 8.63907L9.41076 19.9741L17.7557 11.3956Z" fill="white"/>
</g>
<path d="M5.08661 33.2866V38.2632H4.4577V33.2866H5.08661ZM6.76483 35.5254V36.0654H4.96698V35.5254H6.76483ZM7.04852 33.2866V33.8266H4.96698V33.2866H7.04852ZM8.3952 34.5649V38.2632H7.79364V34.5649H8.3952ZM7.75946 33.584C7.75946 33.4814 7.78794 33.3948 7.84491 33.3242C7.90188 33.2536 7.98733 33.2182 8.10126 33.2182C8.21519 33.2182 8.30064 33.2536 8.3576 33.3242C8.41685 33.3948 8.44647 33.4814 8.44647 33.584C8.44647 33.6819 8.41685 33.7662 8.3576 33.8369C8.30064 33.9052 8.21519 33.9394 8.10126 33.9394C7.98733 33.9394 7.90188 33.9052 7.84491 33.8369C7.78794 33.7662 7.75946 33.6819 7.75946 33.584ZM9.95721 35.146V38.2632H9.35223V34.5649H9.93671L9.95721 35.146ZM10.8766 34.5444L10.8801 35.1323C10.8299 35.1209 10.7844 35.1141 10.7433 35.1118C10.7046 35.1072 10.659 35.1049 10.6066 35.1049C10.4927 35.1049 10.3924 35.1277 10.3058 35.1733C10.2215 35.2189 10.1486 35.2827 10.0871 35.3647C10.0256 35.4467 9.97658 35.5447 9.94012 35.6587C9.90367 35.7703 9.8786 35.8934 9.86493 36.0278L9.7077 36.1303C9.7077 35.907 9.72479 35.6974 9.75897 35.5014C9.79543 35.3055 9.85126 35.1323 9.92645 34.9819C10.0016 34.8292 10.0974 34.7107 10.2136 34.6264C10.3321 34.5398 10.4733 34.4966 10.6374 34.4966C10.6738 34.4966 10.7183 34.5022 10.7707 34.5136C10.8254 34.5228 10.8607 34.533 10.8766 34.5444ZM12.7394 38.3315C12.5184 38.3315 12.319 38.2985 12.1413 38.2324C11.9636 38.1663 11.812 38.0661 11.6867 37.9316C11.5614 37.7949 11.4657 37.6229 11.3996 37.4155C11.3335 37.2081 11.3005 36.9632 11.3005 36.6806V36.2636C11.3005 35.9378 11.3381 35.6621 11.4133 35.4365C11.4907 35.2109 11.5944 35.0298 11.7243 34.893C11.8542 34.754 12.0012 34.6538 12.1652 34.5923C12.3293 34.5285 12.4979 34.4966 12.6711 34.4966C12.9035 34.4966 13.1017 34.5341 13.2658 34.6093C13.4299 34.6845 13.5632 34.7962 13.6657 34.9443C13.7682 35.0924 13.8434 35.2747 13.8913 35.4912C13.9414 35.7077 13.9665 35.9572 13.9665 36.2397V36.5918H11.6559V36.0757H13.3615V35.9902C13.3524 35.7988 13.3262 35.6302 13.2829 35.4843C13.2419 35.3385 13.1735 35.2246 13.0778 35.1425C12.9821 35.0582 12.8465 35.0161 12.6711 35.0161C12.5594 35.0161 12.4557 35.0355 12.36 35.0742C12.2666 35.1106 12.1857 35.1756 12.1174 35.269C12.0513 35.3602 11.9989 35.4866 11.9601 35.6484C11.9237 35.8102 11.9055 36.0153 11.9055 36.2636V36.6806C11.9055 36.8789 11.9237 37.0498 11.9601 37.1933C11.9989 37.3346 12.0547 37.452 12.1276 37.5454C12.2028 37.6365 12.294 37.7049 12.4011 37.7505C12.5104 37.7938 12.6346 37.8154 12.7736 37.8154C12.9764 37.8154 13.1439 37.7767 13.2761 37.6992C13.4082 37.6194 13.5233 37.518 13.6213 37.395L13.9391 37.7744C13.8731 37.8678 13.7865 37.9578 13.6794 38.0444C13.5746 38.1287 13.4447 38.1982 13.2897 38.2529C13.1371 38.3053 12.9536 38.3315 12.7394 38.3315ZM14.6979 33.0132H15.3029V37.5454L15.2516 38.2632H14.6979V33.0132ZM17.3776 36.2466V36.5918C17.3776 36.8834 17.3503 37.1386 17.2956 37.3574C17.2432 37.5739 17.1646 37.755 17.0598 37.9008C16.9549 38.0444 16.8273 38.1526 16.6769 38.2256C16.5266 38.2962 16.3545 38.3315 16.1608 38.3315C15.9694 38.3315 15.8042 38.2928 15.6652 38.2153C15.5262 38.1378 15.41 38.0262 15.3166 37.8803C15.2232 37.7345 15.1491 37.5579 15.0944 37.3506C15.042 37.1432 15.0056 36.9096 14.985 36.6499V36.1884C15.0056 35.9264 15.042 35.6917 15.0944 35.4843C15.1468 35.2747 15.2197 35.097 15.3132 34.9511C15.4066 34.803 15.5228 34.6902 15.6618 34.6128C15.8008 34.5353 15.966 34.4966 16.1574 34.4966C16.3534 34.4966 16.5266 34.5307 16.6769 34.5991C16.8296 34.6674 16.9572 34.7734 17.0598 34.917C17.1646 35.0582 17.2432 35.2394 17.2956 35.4604C17.3503 35.6792 17.3776 35.9412 17.3776 36.2466ZM16.7726 36.5918V36.2466C16.7726 36.0415 16.759 35.8626 16.7316 35.7099C16.7066 35.5573 16.6644 35.4308 16.6052 35.3305C16.5459 35.2303 16.4662 35.1551 16.3659 35.1049C16.2679 35.0548 16.146 35.0298 16.0002 35.0298C15.8771 35.0298 15.7689 35.0548 15.6755 35.1049C15.5843 35.1551 15.5057 35.2234 15.4396 35.31C15.3736 35.3943 15.3189 35.4912 15.2756 35.6006C15.2323 35.7077 15.2004 35.8193 15.1799 35.9355V36.9062C15.2095 37.0543 15.2562 37.1967 15.32 37.3335C15.3861 37.4679 15.475 37.5784 15.5866 37.665C15.6983 37.7516 15.8373 37.7949 16.0036 37.7949C16.1426 37.7949 16.2599 37.771 16.3557 37.7231C16.4536 37.6753 16.5334 37.6023 16.5949 37.5044C16.6564 37.4041 16.7009 37.2788 16.7282 37.1284C16.7578 36.9757 16.7726 36.7968 16.7726 36.5918ZM19.9616 37.6308V35.6245C19.9616 35.4786 19.9388 35.3613 19.8932 35.2724C19.85 35.1836 19.7839 35.1186 19.695 35.0776C19.6084 35.0366 19.499 35.0161 19.3669 35.0161C19.2393 35.0161 19.1288 35.0423 19.0353 35.0947C18.9442 35.1471 18.8736 35.2166 18.8234 35.3032C18.7756 35.3898 18.7516 35.4855 18.7516 35.5903H18.1467C18.1467 35.4581 18.1752 35.3271 18.2321 35.1972C18.2914 35.0674 18.3757 34.95 18.485 34.8452C18.5944 34.7381 18.7254 34.6538 18.8781 34.5923C19.0331 34.5285 19.2062 34.4966 19.3976 34.4966C19.6255 34.4966 19.8272 34.5341 20.0026 34.6093C20.1781 34.6823 20.3159 34.8019 20.4162 34.9682C20.5165 35.1346 20.5666 35.3556 20.5666 35.6313V37.4565C20.5666 37.5796 20.5757 37.7106 20.5939 37.8496C20.6144 37.9886 20.6429 38.1082 20.6794 38.2085V38.2632H20.0539C20.0243 38.1902 20.0015 38.0934 19.9855 37.9726C19.9696 37.8496 19.9616 37.7356 19.9616 37.6308ZM20.0573 36.021L20.0641 36.4653H19.6437C19.5002 36.4653 19.3692 36.4813 19.2507 36.5132C19.1345 36.5451 19.0342 36.5918 18.9499 36.6533C18.8656 36.7125 18.8006 36.7866 18.7551 36.8755C18.7118 36.9643 18.6901 37.0657 18.6901 37.1797C18.6901 37.3278 18.7106 37.4463 18.7516 37.5351C18.7927 37.6217 18.8542 37.6844 18.9362 37.7231C19.0182 37.7619 19.1219 37.7812 19.2473 37.7812C19.3999 37.7812 19.5344 37.7459 19.6506 37.6753C19.7668 37.6046 19.8568 37.5192 19.9206 37.4189C19.9867 37.3187 20.0174 37.2252 20.0129 37.1386L20.1462 37.4223C20.1371 37.5112 20.1074 37.608 20.0573 37.7129C20.0095 37.8154 19.9422 37.9145 19.8557 38.0102C19.7691 38.1036 19.6665 38.1811 19.548 38.2426C19.4318 38.3019 19.3008 38.3315 19.155 38.3315C18.9408 38.3315 18.7528 38.2905 18.591 38.2085C18.4315 38.1264 18.3073 38.0057 18.2184 37.8462C18.1296 37.6867 18.0851 37.4896 18.0851 37.2549C18.0851 37.0771 18.1159 36.9131 18.1774 36.7627C18.239 36.6123 18.3301 36.4824 18.4509 36.373C18.5716 36.2614 18.7232 36.1748 18.9055 36.1133C19.09 36.0517 19.3031 36.021 19.5446 36.021H20.0573ZM23.301 37.3164C23.301 37.223 23.2782 37.1409 23.2326 37.0703C23.187 36.9996 23.1118 36.9313 23.007 36.8652C22.9045 36.7991 22.7655 36.7285 22.59 36.6533C22.4191 36.5827 22.2653 36.5132 22.1286 36.4448C21.9942 36.3742 21.8802 36.2978 21.7868 36.2158C21.6934 36.1338 21.6216 36.0392 21.5715 35.9321C21.5236 35.8227 21.4997 35.694 21.4997 35.5459C21.4997 35.3978 21.527 35.261 21.5817 35.1357C21.6387 35.0081 21.7184 34.8965 21.821 34.8008C21.9235 34.705 22.0466 34.631 22.1901 34.5786C22.3337 34.5239 22.4943 34.4966 22.6721 34.4966C22.925 34.4966 23.1403 34.5455 23.3181 34.6435C23.4958 34.7415 23.6314 34.8759 23.7248 35.0468C23.8205 35.2155 23.8683 35.4057 23.8683 35.6176H23.2668C23.2668 35.5151 23.244 35.4183 23.1984 35.3271C23.1529 35.236 23.0856 35.1619 22.9968 35.1049C22.9079 35.0457 22.7997 35.0161 22.6721 35.0161C22.5376 35.0161 22.4282 35.04 22.3439 35.0879C22.2596 35.1357 22.1981 35.1984 22.1594 35.2758C22.1229 35.351 22.1047 35.4342 22.1047 35.5254C22.1047 35.5937 22.1138 35.653 22.132 35.7031C22.1525 35.7509 22.1867 35.7965 22.2346 35.8398C22.2824 35.8808 22.3474 35.9241 22.4294 35.9697C22.5137 36.013 22.6208 36.0631 22.7507 36.1201C23.0013 36.2181 23.2121 36.3172 23.383 36.4174C23.5539 36.5177 23.6838 36.6351 23.7726 36.7695C23.8615 36.9039 23.9059 37.0703 23.9059 37.2685C23.9059 37.4303 23.8763 37.5773 23.8171 37.7094C23.7601 37.8393 23.6781 37.951 23.571 38.0444C23.4639 38.1378 23.3351 38.2096 23.1848 38.2597C23.0366 38.3076 22.8703 38.3315 22.6857 38.3315C22.4077 38.3315 22.1719 38.2768 21.9782 38.1674C21.7868 38.0558 21.641 37.9111 21.5407 37.7334C21.4427 37.5534 21.3937 37.3608 21.3937 37.1557H21.9987C22.0056 37.3289 22.0443 37.4633 22.1149 37.5591C22.1878 37.6548 22.2756 37.7208 22.3781 37.7573C22.4807 37.7938 22.5832 37.812 22.6857 37.812C22.8202 37.812 22.933 37.7926 23.0241 37.7539C23.1153 37.7129 23.1836 37.6548 23.2292 37.5796C23.277 37.5044 23.301 37.4166 23.301 37.3164ZM26.0217 38.3315C25.8006 38.3315 25.6013 38.2985 25.4235 38.2324C25.2458 38.1663 25.0943 38.0661 24.9689 37.9316C24.8436 37.7949 24.7479 37.6229 24.6818 37.4155C24.6157 37.2081 24.5827 36.9632 24.5827 36.6806V36.2636C24.5827 35.9378 24.6203 35.6621 24.6955 35.4365C24.773 35.2109 24.8766 35.0298 25.0065 34.893C25.1364 34.754 25.2834 34.6538 25.4474 34.5923C25.6115 34.5285 25.7801 34.4966 25.9533 34.4966C26.1857 34.4966 26.384 34.5341 26.548 34.6093C26.7121 34.6845 26.8454 34.7962 26.9479 34.9443C27.0505 35.0924 27.1257 35.2747 27.1735 35.4912C27.2237 35.7077 27.2487 35.9572 27.2487 36.2397V36.5918H24.9382V36.0757H26.6437V35.9902C26.6346 35.7988 26.6084 35.6302 26.5651 35.4843C26.5241 35.3385 26.4557 35.2246 26.36 35.1425C26.2643 35.0582 26.1288 35.0161 25.9533 35.0161C25.8417 35.0161 25.738 35.0355 25.6423 35.0742C25.5488 35.1106 25.468 35.1756 25.3996 35.269C25.3335 35.3602 25.2811 35.4866 25.2424 35.6484C25.2059 35.8102 25.1877 36.0153 25.1877 36.2636V36.6806C25.1877 36.8789 25.2059 37.0498 25.2424 37.1933C25.2811 37.3346 25.3369 37.452 25.4099 37.5454C25.485 37.6365 25.5762 37.7049 25.6833 37.7505C25.7927 37.7938 25.9168 37.8154 26.0558 37.8154C26.2586 37.8154 26.4261 37.7767 26.5583 37.6992C26.6905 37.6194 26.8055 37.518 26.9035 37.395L27.2214 37.7744C27.1553 37.8678 27.0687 37.9578 26.9616 38.0444C26.8568 38.1287 26.7269 38.1982 26.572 38.2529C26.4193 38.3053 26.2359 38.3315 26.0217 38.3315Z" fill="#252323"/>
<defs>
<clipPath id="clip0_416_424">
<rect width="19" height="19" fill="white" transform="translate(6.47369 5.73682)"/>
</clipPath>
</defs>
</svg>
