<svg width="32" height="31" viewBox="0 0 32 31" fill="none" xmlns="http://www.w3.org/2000/svg">
<path d="M6.14859 2.43926e-06H25.6935C26.3975 -0.000678055 27.0947 0.141029 27.7452 0.417014C28.3957 0.692998 28.9867 1.09784 29.4845 1.60838C29.9823 2.11891 30.377 2.72511 30.6461 3.39229C30.9151 4.05946 31.0533 4.77451 31.0526 5.49652V24.7666C31.0533 25.4886 30.9151 26.2037 30.6461 26.8709C30.377 27.538 29.9823 28.1442 29.4845 28.6548C28.9867 29.1653 28.3957 29.5702 27.7452 29.8461C27.0947 30.1221 26.3975 30.2638 25.6935 30.2632H6.14859C5.44464 30.2638 4.74746 30.1221 4.09697 29.8461C3.44647 29.5702 2.85543 29.1653 2.35766 28.6548C1.85989 28.1442 1.46516 27.538 1.19608 26.8709C0.926993 26.2037 0.788829 25.4886 0.789492 24.7666V5.49652C0.788829 4.77451 0.926993 4.05946 1.19608 3.39229C1.46516 2.72511 1.85989 2.11891 2.35766 1.60838C2.85543 1.09784 3.44647 0.692998 4.09697 0.417014C4.74746 0.141029 5.44464 -0.000678055 6.14859 2.43926e-06Z" fill="#252323"/>
<g clip-path="url(#clip0_451_372)">
<path d="M22.7028 21.0667L20.958 9.98411C20.9232 9.77907 20.7514 9.62548 20.5432 9.62548C20.4276 9.62548 20.3231 9.67298 20.2463 9.75057L9.24451 21.0667L15.3324 24.5721C15.509 24.6759 15.7211 24.7368 15.9468 24.7368C16.1716 24.7368 16.383 24.6759 16.565 24.5698L22.7028 21.0667ZM12.3083 5.96323C12.237 5.82865 12.0985 5.73682 11.9378 5.73682C11.728 5.73682 11.5538 5.89436 11.5221 6.10177L9.69022 18.1446L14.2795 9.74265L12.309 5.96561L12.3083 5.96323ZM17.7557 11.3956L16.3458 8.63907C16.2737 8.50132 16.1344 8.40948 15.9737 8.40948C15.813 8.40948 15.6736 8.50132 15.6024 8.63669L15.6016 8.63907L9.41076 19.9741L17.7557 11.3956Z" fill="white"/>
</g>
<defs>
<clipPath id="clip0_451_372">
<rect width="19" height="19" fill="white" transform="translate(6.47369 5.73682)"/>
</clipPath>
</defs>
</svg>
