<svg width="31" height="31" viewBox="0 0 31 31" fill="none" xmlns="http://www.w3.org/2000/svg">
<g clip-path="url(#clip0_401_347)">
<path d="M5.88541 2.43926e-06H25.4304C26.1343 -0.000678055 26.8315 0.141029 27.482 0.417014C28.1325 0.692998 28.7235 1.09784 29.2213 1.60838C29.7191 2.11891 30.1138 2.72511 30.3829 3.39229C30.652 4.05946 30.7901 4.77451 30.7895 5.49652V24.7666C30.7901 25.4886 30.652 26.2037 30.3829 26.8709C30.1138 27.538 29.7191 28.1442 29.2213 28.6548C28.7235 29.1653 28.1325 29.5702 27.482 29.8461C26.8315 30.1221 26.1343 30.2638 25.4304 30.2632H5.88541C5.18146 30.2638 4.48428 30.1221 3.83379 29.8461C3.18329 29.5702 2.59224 29.1653 2.09447 28.6548C1.5967 28.1442 1.20198 27.538 0.932894 26.8709C0.663809 26.2037 0.525645 25.4886 0.526309 24.7666V5.49652C0.525645 4.77451 0.663809 4.05946 0.932894 3.39229C1.20198 2.72511 1.5967 2.11891 2.09447 1.60838C2.59224 1.09784 3.18329 0.692998 3.83379 0.417014C4.48428 0.141029 5.18146 -0.000678055 5.88541 2.43926e-06Z" fill="#252323"/>
<path d="M20.9068 23.6797C21.5164 24.675 22.3095 25.4066 23.7122 25.4066C24.8905 25.4066 25.6433 24.8177 25.6433 24.004C25.6433 23.0288 24.8699 22.6834 23.5729 22.1161L22.8619 21.8111C20.8098 20.9368 19.4465 19.8416 19.4465 17.5262C19.4465 15.3934 21.0716 13.7697 23.6113 13.7697C25.4194 13.7697 26.7193 14.399 27.656 16.0467L25.4415 17.4686C24.9539 16.5943 24.4279 16.2499 23.6113 16.2499C22.7784 16.2499 22.2504 16.7783 22.2504 17.4686C22.2504 18.3217 22.7788 18.6671 23.999 19.1955L24.7099 19.5C27.1262 20.5362 28.4904 21.5925 28.4904 23.9675C28.4904 26.5278 26.4791 27.9305 23.778 27.9305C21.1369 27.9305 19.4307 26.6719 18.5958 25.0224L20.9068 23.6797ZM10.8609 23.9262C11.3077 24.7188 11.714 25.3889 12.6911 25.3889C13.6254 25.3889 14.2148 25.0233 14.2148 23.6019V13.9321H17.0586V23.6403C17.0586 26.585 15.3322 27.9252 12.8122 27.9252C10.5352 27.9252 9.21661 26.7469 8.54602 25.3276L10.8609 23.9262Z" fill="#F1F1EF"/>
</g>
<defs>
<clipPath id="clip0_401_347">
<rect width="30.2632" height="30.2632" fill="white" transform="translate(0.526306)"/>
</clipPath>
</defs>
</svg>
