<svg width="31" height="41" viewBox="0 0 31 41" fill="none" xmlns="http://www.w3.org/2000/svg">
<g clip-path="url(#clip0_401_346)">
<path d="M5.88541 2.43926e-06H25.4304C26.1343 -0.000678055 26.8315 0.141029 27.482 0.417014C28.1325 0.692998 28.7235 1.09784 29.2213 1.60838C29.7191 2.11891 30.1138 2.72511 30.3829 3.39229C30.652 4.05946 30.7901 4.77451 30.7895 5.49652V24.7666C30.7901 25.4886 30.652 26.2037 30.3829 26.8709C30.1138 27.538 29.7191 28.1442 29.2213 28.6548C28.7235 29.1653 28.1325 29.5702 27.482 29.8461C26.8315 30.1221 26.1343 30.2638 25.4304 30.2632H5.88541C5.18146 30.2638 4.48428 30.1221 3.83379 29.8461C3.18329 29.5702 2.59224 29.1653 2.09447 28.6548C1.5967 28.1442 1.20198 27.538 0.932894 26.8709C0.663809 26.2037 0.525645 25.4886 0.526309 24.7666V5.49652C0.525645 4.77451 0.663809 4.05946 0.932894 3.39229C1.20198 2.72511 1.5967 2.11891 2.09447 1.60838C2.59224 1.09784 3.18329 0.692998 3.83379 0.417014C4.48428 0.141029 5.18146 -0.000678055 5.88541 2.43926e-06V2.43926e-06Z" fill="#252323"/>
<path d="M20.9068 23.6797C21.5164 24.675 22.3095 25.4066 23.7122 25.4066C24.8905 25.4066 25.6433 24.8177 25.6433 24.004C25.6433 23.0288 24.8699 22.6834 23.5729 22.1161L22.8619 21.8111C20.8098 20.9368 19.4465 19.8416 19.4465 17.5262C19.4465 15.3934 21.0716 13.7697 23.6113 13.7697C25.4194 13.7697 26.7193 14.399 27.656 16.0467L25.4415 17.4686C24.9539 16.5943 24.4279 16.2499 23.6113 16.2499C22.7784 16.2499 22.2504 16.7783 22.2504 17.4686C22.2504 18.3217 22.7788 18.6671 23.999 19.1955L24.7099 19.5C27.1262 20.5362 28.4904 21.5925 28.4904 23.9675C28.4904 26.5278 26.4791 27.9305 23.778 27.9305C21.1369 27.9305 19.4307 26.6719 18.5958 25.0224L20.9068 23.6797ZM10.8609 23.9262C11.3077 24.7188 11.714 25.3889 12.6911 25.3889C13.6254 25.3889 14.2148 25.0233 14.2148 23.6019V13.9321H17.0586V23.6403C17.0586 26.585 15.3322 27.9252 12.8122 27.9252C10.5352 27.9252 9.21661 26.7469 8.54602 25.3276L10.8609 23.9262Z" fill="#F1F1EF"/>
</g>
<path d="M2.91376 36.8105V33.2866H3.53925V36.8105C3.53925 37.1386 3.48228 37.4155 3.36835 37.6411C3.25441 37.8667 3.09605 38.0387 2.89325 38.1572C2.69273 38.2734 2.46145 38.3315 2.1994 38.3315C1.94191 38.3315 1.71177 38.2791 1.50897 38.1743C1.30617 38.0695 1.14667 37.91 1.03046 37.6958C0.916524 37.4816 0.859558 37.2116 0.859558 36.8857H1.48846C1.48846 37.0953 1.51923 37.2674 1.58075 37.4018C1.64455 37.5363 1.73 37.6354 1.8371 37.6992C1.94419 37.763 2.06496 37.7949 2.1994 37.7949C2.33612 37.7949 2.45803 37.7584 2.56512 37.6855C2.67222 37.6103 2.75653 37.4998 2.81805 37.354C2.88186 37.2059 2.91376 37.0247 2.91376 36.8105ZM6.3078 37.6308V35.6245C6.3078 35.4786 6.28501 35.3613 6.23944 35.2724C6.19615 35.1836 6.13007 35.1186 6.0412 35.0776C5.95461 35.0366 5.84524 35.0161 5.71307 35.0161C5.58547 35.0161 5.47496 35.0423 5.38153 35.0947C5.29038 35.1471 5.21975 35.2166 5.16962 35.3032C5.12177 35.3898 5.09784 35.4855 5.09784 35.5903H4.49286C4.49286 35.4581 4.52134 35.3271 4.57831 35.1972C4.63755 35.0674 4.72186 34.95 4.83124 34.8452C4.94061 34.7381 5.07163 34.6538 5.2243 34.5923C5.37925 34.5285 5.55243 34.4966 5.74384 34.4966C5.9717 34.4966 6.17336 34.5341 6.34882 34.6093C6.52427 34.6823 6.66213 34.8019 6.76239 34.9682C6.86265 35.1346 6.91278 35.3556 6.91278 35.6313V37.4565C6.91278 37.5796 6.9219 37.7106 6.94012 37.8496C6.96063 37.9886 6.98912 38.1082 7.02557 38.2085V38.2632H6.40009C6.37046 38.1902 6.34768 38.0934 6.33173 37.9726C6.31578 37.8496 6.3078 37.7356 6.3078 37.6308ZM6.4035 36.021L6.41034 36.4653H5.98993C5.84637 36.4653 5.71535 36.4813 5.59686 36.5132C5.48065 36.5451 5.38039 36.5918 5.29608 36.6533C5.21177 36.7125 5.14683 36.7866 5.10126 36.8755C5.05796 36.9643 5.03632 37.0657 5.03632 37.1797C5.03632 37.3278 5.05682 37.4463 5.09784 37.5351C5.13885 37.6217 5.20038 37.6844 5.28241 37.7231C5.36444 37.7619 5.46812 37.7812 5.59344 37.7812C5.74611 37.7812 5.88055 37.7459 5.99677 37.6753C6.11298 37.6046 6.20298 37.5192 6.26678 37.4189C6.33287 37.3187 6.36363 37.2252 6.35907 37.1386L6.49237 37.4223C6.48326 37.5112 6.45363 37.608 6.4035 37.7129C6.35565 37.8154 6.28843 37.9145 6.20184 38.0102C6.11525 38.1036 6.01272 38.1811 5.89423 38.2426C5.77802 38.3019 5.64699 38.3315 5.50116 38.3315C5.28697 38.3315 5.09898 38.2905 4.93719 38.2085C4.77769 38.1264 4.6535 38.0057 4.56464 37.8462C4.47577 37.6867 4.43134 37.4896 4.43134 37.2549C4.43134 37.0771 4.4621 36.9131 4.52362 36.7627C4.58514 36.6123 4.67629 36.4824 4.79706 36.373C4.91783 36.2614 5.06936 36.1748 5.25165 36.1133C5.43622 36.0517 5.64927 36.021 5.89081 36.021H6.4035ZM8.75507 37.6924L9.54803 34.5649H10.1633L9.0661 38.2632H8.6662L8.75507 37.6924ZM8.11591 34.5649L8.94305 37.7094L9.008 38.2632H8.61151L7.50067 34.5649H8.11591ZM12.549 37.6308V35.6245C12.549 35.4786 12.5262 35.3613 12.4807 35.2724C12.4374 35.1836 12.3713 35.1186 12.2824 35.0776C12.1958 35.0366 12.0864 35.0161 11.9543 35.0161C11.8267 35.0161 11.7162 35.0423 11.6227 35.0947C11.5316 35.1471 11.461 35.2166 11.4108 35.3032C11.363 35.3898 11.3391 35.4855 11.3391 35.5903H10.7341C10.7341 35.4581 10.7626 35.3271 10.8195 35.1972C10.8788 35.0674 10.9631 34.95 11.0724 34.8452C11.1818 34.7381 11.3128 34.6538 11.4655 34.5923C11.6205 34.5285 11.7936 34.4966 11.985 34.4966C12.2129 34.4966 12.4146 34.5341 12.59 34.6093C12.7655 34.6823 12.9033 34.8019 13.0036 34.9682C13.1039 35.1346 13.154 35.3556 13.154 35.6313V37.4565C13.154 37.5796 13.1631 37.7106 13.1813 37.8496C13.2018 37.9886 13.2303 38.1082 13.2668 38.2085V38.2632H12.6413C12.6117 38.1902 12.5889 38.0934 12.5729 37.9726C12.557 37.8496 12.549 37.7356 12.549 37.6308ZM12.6447 36.021L12.6516 36.4653H12.2311C12.0876 36.4653 11.9566 36.4813 11.8381 36.5132C11.7219 36.5451 11.6216 36.5918 11.5373 36.6533C11.453 36.7125 11.388 36.7866 11.3425 36.8755C11.2992 36.9643 11.2775 37.0657 11.2775 37.1797C11.2775 37.3278 11.298 37.4463 11.3391 37.5351C11.3801 37.6217 11.4416 37.6844 11.5236 37.7231C11.6057 37.7619 11.7093 37.7812 11.8347 37.7812C11.9873 37.7812 12.1218 37.7459 12.238 37.6753C12.3542 37.6046 12.4442 37.5192 12.508 37.4189C12.5741 37.3187 12.6048 37.2252 12.6003 37.1386L12.7336 37.4223C12.7245 37.5112 12.6948 37.608 12.6447 37.7129C12.5969 37.8154 12.5296 37.9145 12.4431 38.0102C12.3565 38.1036 12.2539 38.1811 12.1354 38.2426C12.0192 38.3019 11.8882 38.3315 11.7424 38.3315C11.5282 38.3315 11.3402 38.2905 11.1784 38.2085C11.0189 38.1264 10.8947 38.0057 10.8058 37.8462C10.717 37.6867 10.6725 37.4896 10.6725 37.2549C10.6725 37.0771 10.7033 36.9131 10.7648 36.7627C10.8264 36.6123 10.9175 36.4824 11.0383 36.373C11.159 36.2614 11.3106 36.1748 11.4929 36.1133C11.6774 36.0517 11.8905 36.021 12.132 36.021H12.6447ZM16.3532 37.0053C16.3532 36.8891 16.3395 36.7866 16.3122 36.6977C16.2849 36.6066 16.237 36.5245 16.1686 36.4516C16.1003 36.3787 16.0046 36.3092 15.8815 36.2431C15.7585 36.1771 15.6024 36.1098 15.4133 36.0415C15.2082 35.9686 15.0225 35.8877 14.8561 35.7988C14.6898 35.7077 14.5474 35.604 14.4289 35.4878C14.3127 35.3716 14.2227 35.2383 14.1589 35.0879C14.0951 34.9375 14.0632 34.7654 14.0632 34.5717C14.0632 34.3781 14.0962 34.1992 14.1623 34.0351C14.2307 33.8711 14.3264 33.7286 14.4494 33.6079C14.5747 33.4848 14.7251 33.3891 14.9006 33.3208C15.076 33.2524 15.272 33.2182 15.4885 33.2182C15.812 33.2182 16.0843 33.29 16.3054 33.4336C16.5287 33.5748 16.6973 33.7605 16.8112 33.9907C16.9252 34.2186 16.9821 34.4624 16.9821 34.7221H16.3532C16.3532 34.5353 16.3224 34.3701 16.2609 34.2265C16.2017 34.0807 16.1083 33.9668 15.9807 33.8847C15.8553 33.8004 15.6913 33.7583 15.4885 33.7583C15.3062 33.7583 15.1558 33.7936 15.0373 33.8642C14.9211 33.9349 14.8345 34.0306 14.7775 34.1513C14.7228 34.2721 14.6955 34.41 14.6955 34.5649C14.6955 34.6697 14.7137 34.7654 14.7502 34.852C14.7866 34.9363 14.8425 35.0149 14.9177 35.0879C14.9951 35.1608 15.0908 35.228 15.2048 35.2895C15.321 35.351 15.4577 35.4103 15.6149 35.4673C15.8587 35.547 16.0672 35.6359 16.2404 35.7339C16.4136 35.8318 16.5549 35.9424 16.6642 36.0654C16.7736 36.1862 16.8534 36.324 16.9035 36.479C16.9559 36.6316 16.9821 36.8048 16.9821 36.9985C16.9821 37.2013 16.9479 37.3847 16.8796 37.5488C16.8135 37.7129 16.7167 37.853 16.5891 37.9692C16.4614 38.0854 16.3076 38.1754 16.1276 38.2392C15.9476 38.3008 15.7448 38.3315 15.5192 38.3315C15.3233 38.3315 15.1307 38.2996 14.9416 38.2358C14.7547 38.172 14.585 38.0763 14.4323 37.9487C14.2796 37.8211 14.1577 37.6639 14.0666 37.477C13.9754 37.2879 13.9299 37.0691 13.9299 36.8208H14.5588C14.5588 36.9917 14.5838 37.1386 14.634 37.2617C14.6841 37.3825 14.7536 37.4827 14.8425 37.5625C14.9313 37.6422 15.0327 37.7015 15.1467 37.7402C15.2629 37.7767 15.3871 37.7949 15.5192 37.7949C15.7015 37.7949 15.8542 37.763 15.9772 37.6992C16.1026 37.6354 16.196 37.5442 16.2575 37.4258C16.3213 37.3073 16.3532 37.1671 16.3532 37.0053ZM19.0056 37.8154C19.1263 37.8154 19.2357 37.7915 19.3337 37.7436C19.4339 37.6935 19.516 37.616 19.5798 37.5112C19.6436 37.4041 19.68 37.2651 19.6891 37.0942H20.2565C20.2474 37.3403 20.1848 37.5568 20.0685 37.7436C19.9546 37.9282 19.8042 38.0729 19.6174 38.1777C19.4328 38.2802 19.2289 38.3315 19.0056 38.3315C18.7663 38.3315 18.5578 38.2928 18.3801 38.2153C18.2046 38.1378 18.0588 38.0262 17.9426 37.8803C17.8286 37.7322 17.7432 37.5534 17.6862 37.3437C17.6293 37.1318 17.6008 36.8914 17.6008 36.6225V36.2055C17.6008 35.9367 17.6293 35.6974 17.6862 35.4878C17.7432 35.2758 17.8286 35.097 17.9426 34.9511C18.0588 34.803 18.2046 34.6902 18.3801 34.6128C18.5578 34.5353 18.7663 34.4966 19.0056 34.4966C19.2562 34.4966 19.4727 34.5501 19.655 34.6572C19.8395 34.762 19.9831 34.9147 20.0856 35.1152C20.1905 35.3134 20.2474 35.5538 20.2565 35.8364H19.6891C19.68 35.6541 19.647 35.5026 19.59 35.3818C19.5331 35.2588 19.4556 35.1676 19.3576 35.1084C19.2596 35.0468 19.1423 35.0161 19.0056 35.0161C18.846 35.0161 18.7139 35.0446 18.6091 35.1015C18.5065 35.1562 18.4256 35.236 18.3664 35.3408C18.3071 35.4456 18.265 35.5709 18.2399 35.7168C18.2171 35.8626 18.2057 36.0255 18.2057 36.2055V36.6225C18.2057 36.8025 18.2171 36.9666 18.2399 37.1147C18.265 37.2605 18.306 37.3859 18.363 37.4907C18.4222 37.5955 18.5043 37.6764 18.6091 37.7334C18.7139 37.7881 18.846 37.8154 19.0056 37.8154ZM21.5622 35.146V38.2632H20.9572V34.5649H21.5417L21.5622 35.146ZM22.4816 34.5444L22.485 35.1323C22.4349 35.1209 22.3893 35.1141 22.3483 35.1118C22.3096 35.1072 22.264 35.1049 22.2116 35.1049C22.0977 35.1049 21.9974 35.1277 21.9108 35.1733C21.8265 35.2189 21.7536 35.2827 21.6921 35.3647C21.6306 35.4467 21.5816 35.5447 21.5451 35.6587C21.5086 35.7703 21.4836 35.8934 21.4699 36.0278L21.3127 36.1303C21.3127 35.907 21.3298 35.6974 21.364 35.5014C21.4004 35.3055 21.4562 35.1323 21.5314 34.9819C21.6066 34.8292 21.7023 34.7107 21.8185 34.6264C21.937 34.5398 22.0783 34.4966 22.2424 34.4966C22.2788 34.4966 22.3233 34.5022 22.3757 34.5136C22.4304 34.5228 22.4657 34.533 22.4816 34.5444ZM23.7394 34.5649V38.2632H23.1379V34.5649H23.7394ZM23.1037 33.584C23.1037 33.4814 23.1322 33.3948 23.1891 33.3242C23.2461 33.2536 23.3316 33.2182 23.4455 33.2182C23.5594 33.2182 23.6449 33.2536 23.7018 33.3242C23.7611 33.3948 23.7907 33.4814 23.7907 33.584C23.7907 33.6819 23.7611 33.7662 23.7018 33.8369C23.6449 33.9052 23.5594 33.9394 23.4455 33.9394C23.3316 33.9394 23.2461 33.9052 23.1891 33.8369C23.1322 33.7662 23.1037 33.6819 23.1037 33.584ZM25.3015 35.2758V39.685H24.6965V34.5649H25.2468L25.3015 35.2758ZM27.3693 36.2466V36.5918C27.3693 36.8834 27.342 37.1386 27.2873 37.3574C27.2349 37.5739 27.1563 37.755 27.0515 37.9008C26.9489 38.0444 26.8224 38.1526 26.6721 38.2256C26.5217 38.2962 26.3496 38.3315 26.1559 38.3315C25.9623 38.3315 25.7936 38.2951 25.6501 38.2221C25.5088 38.1469 25.3892 38.0387 25.2912 37.8974C25.1955 37.7562 25.1192 37.5864 25.0622 37.3882C25.0075 37.1876 24.9699 36.9632 24.9494 36.7148V36.1884C24.9699 35.9264 25.0075 35.6917 25.0622 35.4843C25.1169 35.2747 25.1921 35.097 25.2878 34.9511C25.3858 34.803 25.5054 34.6902 25.6467 34.6128C25.7902 34.5353 25.9577 34.4966 26.1491 34.4966C26.3474 34.4966 26.5217 34.5307 26.6721 34.5991C26.8247 34.6674 26.9523 34.7734 27.0549 34.917C27.1597 35.0582 27.2383 35.2394 27.2907 35.4604C27.3431 35.6792 27.3693 35.9412 27.3693 36.2466ZM26.7643 36.5918V36.2466C26.7643 36.0415 26.7484 35.8626 26.7165 35.7099C26.6869 35.5573 26.639 35.4308 26.5729 35.3305C26.5069 35.2303 26.4237 35.1551 26.3234 35.1049C26.2232 35.0548 26.1024 35.0298 25.9611 35.0298C25.8404 35.0298 25.7333 35.0548 25.6398 35.1049C25.5487 35.1551 25.4701 35.2234 25.404 35.31C25.3379 35.3943 25.2832 35.4912 25.2399 35.6006C25.1966 35.7077 25.1647 35.8193 25.1442 35.9355V36.9712C25.183 37.117 25.2342 37.2549 25.298 37.3847C25.3618 37.5123 25.4473 37.616 25.5544 37.6958C25.6638 37.7755 25.8016 37.8154 25.968 37.8154C26.107 37.8154 26.2266 37.7903 26.3268 37.7402C26.4271 37.6901 26.5091 37.6149 26.5729 37.5146C26.639 37.4121 26.6869 37.2845 26.7165 37.1318C26.7484 36.9769 26.7643 36.7968 26.7643 36.5918ZM29.4987 34.5649V35.0503H27.7726V34.5649H29.4987ZM28.3366 33.666H28.9416V37.3471C28.9416 37.4725 28.9564 37.567 28.986 37.6308C29.0179 37.6946 29.0578 37.7368 29.1057 37.7573C29.1535 37.7778 29.2048 37.7881 29.2595 37.7881C29.3005 37.7881 29.346 37.7835 29.3962 37.7744C29.4463 37.763 29.4805 37.7539 29.4987 37.747L29.4953 38.2632C29.4543 38.2791 29.3996 38.2939 29.3312 38.3076C29.2629 38.3235 29.1763 38.3315 29.0715 38.3315C28.9416 38.3315 28.8208 38.3008 28.7092 38.2392C28.5975 38.1777 28.5075 38.0752 28.4391 37.9316C28.3708 37.7858 28.3366 37.5898 28.3366 37.3437V33.666Z" fill="#252323"/>
<defs>
<clipPath id="clip0_401_346">
<rect width="30.2632" height="30.2632" fill="white" transform="translate(0.526306)"/>
</clipPath>
</defs>
</svg>
