<svg width="31" height="41" viewBox="0 0 31 41" fill="none" xmlns="http://www.w3.org/2000/svg">
<path d="M5.88541 0.263156H25.4304C26.1343 0.262475 26.8315 0.404182 27.482 0.680167C28.1325 0.956151 28.7235 1.361 29.2213 1.87153C29.7191 2.38206 30.1138 2.98826 30.3829 3.65544C30.652 4.32261 30.7901 5.03766 30.7895 5.75967V25.0298C30.7901 25.7518 30.652 26.4668 30.3829 27.134C30.1138 27.8012 29.7191 28.4074 29.2213 28.9179C28.7235 29.4285 28.1325 29.8333 27.482 30.1093C26.8315 30.3853 26.1343 30.527 25.4304 30.5263H5.88541C5.18146 30.527 4.48428 30.3853 3.83379 30.1093C3.18329 29.8333 2.59224 29.4285 2.09447 28.9179C1.5967 28.4074 1.20198 27.8012 0.932894 27.134C0.663809 26.4668 0.525645 25.7518 0.526309 25.0298V5.75967C0.525645 5.03766 0.663809 4.32261 0.932894 3.65544C1.20198 2.98826 1.5967 2.38206 2.09447 1.87153C2.59224 1.361 3.18329 0.956151 3.83379 0.680167C4.48428 0.404182 5.18146 0.262475 5.88541 0.263156Z" fill="#252323"/>
<path fill-rule="evenodd" clip-rule="evenodd" d="M20.1506 23.0392C20.1823 22.9783 20.2126 22.9245 20.2385 22.8688C20.2548 22.8332 20.2799 22.826 20.3154 22.827C20.5278 22.833 20.7403 22.8395 20.9529 22.8416C21.1334 22.8435 21.3144 22.8401 21.4951 22.838C21.6988 22.8356 21.9024 22.8249 22.1058 22.8307C22.3768 22.8386 22.6408 22.8917 22.8858 23.0122C23.1785 23.1564 23.3999 23.376 23.5509 23.6653C23.6458 23.8487 23.705 24.0485 23.7254 24.254C23.7577 24.5555 23.7365 24.8501 23.6409 25.1385C23.5224 25.4958 23.2974 25.7694 22.9848 25.9743C22.7443 26.132 22.4804 26.2252 22.1977 26.2785C21.8984 26.3349 21.5983 26.3167 21.2981 26.3177C20.9688 26.319 20.6398 26.3118 20.3105 26.3081C20.2529 26.3075 20.2447 26.2967 20.2599 26.2417L20.2739 26.1911C20.306 26.0902 20.3233 26.0857 20.4256 26.0688C20.4982 26.0574 20.5676 26.031 20.6294 25.9914C20.6639 25.9685 20.6782 25.9089 20.6917 25.863C20.7033 25.8228 20.7039 25.7788 20.7043 25.7364C20.7089 25.0942 20.7138 24.4522 20.7164 23.8104C20.7172 23.6481 20.7131 23.4857 20.7043 23.3237C20.6979 23.2102 20.6373 23.1326 20.5023 23.1058C20.3973 23.085 20.2916 23.0688 20.186 23.0503L20.1506 23.0392ZM23.1648 24.5942C23.1506 24.4663 23.1436 24.3373 23.1208 24.2113C23.066 23.9088 22.9336 23.6454 22.7011 23.439C22.3252 23.1054 21.8726 23.054 21.3982 23.0938C21.2902 23.1028 21.2669 23.1397 21.2653 23.2507C21.2626 23.4082 21.26 23.5657 21.2598 23.7232C21.2591 24.2227 21.2591 24.7222 21.2598 25.2217C21.26 25.3638 21.2615 25.506 21.2656 25.6477C21.2701 25.7928 21.3228 25.9157 21.4649 25.9719C21.689 26.0606 21.9247 26.0711 22.1598 26.0349C22.5354 25.9773 22.7981 25.7585 22.9743 25.4306C23.1138 25.1703 23.1532 24.8863 23.1648 24.5942ZM24.0778 26.295C24.0733 26.2172 24.1051 26.1528 24.1445 26.0938C24.1552 26.0778 24.1919 26.0786 24.2173 26.0735L24.4321 26.031C24.5081 26.0148 24.548 25.9638 24.5587 25.8894C24.5658 25.8403 24.5726 25.7906 24.5731 25.7409C24.5782 25.3477 24.5819 24.9545 24.5842 24.5613C24.5861 24.1676 24.5846 23.7738 24.5846 23.3801L24.5829 23.3049C24.5752 23.1783 24.5141 23.1127 24.3884 23.0942L24.116 23.0527C24.0824 23.0482 24.0703 23.0321 24.0824 23.0023C24.1034 22.9515 24.1235 22.8988 24.1531 22.853C24.1642 22.8362 24.2015 22.8296 24.2266 22.8302C24.3568 22.832 24.4869 22.8418 24.617 22.8416L25.7497 22.8348C25.9679 22.8347 26.1787 22.8727 26.3744 22.9772C26.5899 23.0919 26.7104 23.2695 26.7449 23.5113C26.7809 23.7654 26.7039 23.9795 26.5183 24.1496C26.4419 24.2197 26.3431 24.2655 26.2546 24.3225L26.2258 24.3405C26.3079 24.3707 26.3861 24.3967 26.4622 24.4278C26.6849 24.5192 26.8621 24.6618 26.9559 24.8897C27.0299 25.0695 27.0299 25.257 26.9861 25.4433C26.9178 25.7351 26.7256 25.9292 26.4757 26.076C26.2411 26.2138 25.9873 26.294 25.7169 26.3075C25.4675 26.3201 25.217 26.3154 24.9671 26.3182L24.8223 26.319C24.5814 26.3134 24.3406 26.3074 24.0997 26.301L24.0778 26.295ZM25.1159 25.1533H25.1184C25.1184 25.2767 25.1167 25.4 25.1189 25.5234C25.1204 25.6033 25.1176 25.6854 25.1349 25.7623C25.1608 25.8772 25.2133 25.9809 25.3423 26.0139C25.5147 26.0592 25.6949 26.0672 25.8706 26.0372C26.0913 25.9987 26.2674 25.8881 26.3639 25.6779C26.4356 25.5217 26.4463 25.3562 26.4217 25.187C26.3891 24.9643 26.2708 24.8027 26.0741 24.6967C25.9451 24.6272 25.8074 24.5846 25.6608 24.579C25.4966 24.5728 25.3321 24.5724 25.1679 24.5673C25.1218 24.566 25.1154 24.5895 25.1156 24.6273C25.1165 24.8025 25.1159 24.9778 25.1159 25.1533ZM25.4656 24.3142C25.5554 24.3097 25.6571 24.3084 25.7581 24.2983C25.9516 24.279 26.0879 24.1817 26.159 23.9966C26.1952 23.9027 26.1937 23.8059 26.1946 23.7082C26.1974 23.4538 26.0489 23.2453 25.8073 23.159C25.6207 23.0925 25.4283 23.0913 25.2348 23.0966C25.1564 23.0987 25.1214 23.133 25.1203 23.2119L25.1086 24.2411C25.1081 24.282 25.1257 24.2996 25.1654 24.3009L25.4656 24.3142Z" fill="#F1F1EF"/>
<path fill-rule="evenodd" clip-rule="evenodd" d="M5.7663 26.0972L5.75261 26.2742C5.62511 26.2742 5.50755 26.2732 5.38999 26.2745C5.16855 26.2768 4.94711 26.2803 4.72549 26.2835L4.70411 26.2848C4.67242 26.2811 4.61486 26.2811 4.61336 26.2717C4.60399 26.219 4.60699 26.1637 4.60942 26.1092C4.60961 26.103 4.63117 26.0951 4.64374 26.0921L4.81605 26.0537C4.92349 26.0257 4.96136 25.9794 4.96642 25.8684C4.97224 25.7433 4.97805 25.6181 4.97861 25.493C4.9803 25.1852 4.97842 24.8777 4.97974 24.5698C4.97992 24.4978 4.95499 24.4442 4.88786 24.4149C4.8081 24.3795 4.72778 24.3454 4.64692 24.3125C4.60867 24.2972 4.55899 24.2887 4.56349 24.2373C4.56799 24.185 4.61617 24.1713 4.66155 24.161C4.84942 24.1181 5.03749 24.0763 5.2248 24.0305C5.28517 24.0157 5.34292 23.9908 5.41511 23.9657C5.41886 24.0047 5.4258 24.0418 5.42505 24.0789L5.41399 24.2553C5.4138 24.2752 5.42411 24.3018 5.43892 24.3129C5.44792 24.3198 5.47811 24.3073 5.49311 24.2957C5.65324 24.1738 5.82274 24.0686 6.01605 24.0073C6.31549 23.9122 6.57255 24.0003 6.75255 24.2585C6.81592 24.3495 6.81611 24.3495 6.90405 24.2859C7.05499 24.1762 7.21286 24.0795 7.38949 24.0157C7.77724 23.8757 8.1498 24.0534 8.28461 24.444C8.33374 24.5857 8.35249 24.7322 8.35211 24.8818L8.34855 25.8752C8.34836 25.9571 8.37555 26.0038 8.45355 26.0293C8.54111 26.058 8.63186 26.0777 8.73049 26.1035L8.70761 26.2743C8.59549 26.2743 8.49236 26.2736 8.38924 26.2745C8.13724 26.2768 7.88524 26.2781 7.63342 26.2839C7.58955 26.285 7.57811 26.2742 7.57586 26.2331C7.56855 26.1017 7.56743 26.1018 7.69117 26.0722L7.7328 26.0615C7.85374 26.0285 7.89405 25.9914 7.89499 25.8688C7.8978 25.5167 7.90511 25.1636 7.8873 24.8122C7.86874 24.4477 7.57942 24.2537 7.22617 24.347C7.11216 24.3782 7.00479 24.43 6.9093 24.4997C6.87649 24.5231 6.8703 24.5501 6.87292 24.5912C6.88286 24.7464 6.88905 24.9018 6.89036 25.0573C6.89261 25.3293 6.88924 25.6014 6.89036 25.8737C6.89074 25.9839 6.92842 26.0261 7.03736 26.0516L7.19917 26.0889L7.22917 26.0957C7.23142 26.1474 7.23349 26.1992 7.23105 26.2509C7.22955 26.2833 7.20442 26.2862 7.1763 26.2856C7.01899 26.2817 6.86149 26.2764 6.70417 26.2768C6.51274 26.2772 6.32149 26.2826 6.13024 26.286H6.08524C6.08524 26.231 6.08261 26.1785 6.08711 26.1262C6.08805 26.1137 6.11017 26.096 6.12536 26.0921L6.31399 26.0522C6.39405 26.0325 6.4323 25.9914 6.4368 25.91C6.45817 25.5332 6.47355 25.1561 6.43811 24.7794C6.42948 24.705 6.40883 24.6325 6.37699 24.5647C6.28042 24.3513 6.06311 24.2623 5.81242 24.3264C5.69336 24.3568 5.58592 24.4113 5.4843 24.4802C5.46214 24.4938 5.44394 24.513 5.4315 24.5359C5.41907 24.5587 5.41283 24.5844 5.41342 24.6105C5.41342 24.9864 5.41474 25.3623 5.41586 25.7381L5.41792 25.883C5.42017 25.9841 5.46311 26.0373 5.56342 26.0591C5.62792 26.0737 5.69317 26.0837 5.7663 26.0972Z" fill="#F1F1EF"/>
<path fill-rule="evenodd" clip-rule="evenodd" d="M17.1022 24.0041C17.1312 24.1455 17.1307 24.2726 17.0268 24.369C16.9237 24.4648 16.7932 24.4325 16.6659 24.4111C16.6777 24.4783 16.6908 24.5353 16.6972 24.593C16.7435 25.0222 16.5588 25.3408 16.1607 25.5228C16.0104 25.5915 15.8508 25.617 15.6879 25.6301C15.6069 25.6365 15.536 25.6983 15.5283 25.7649C15.5204 25.8324 15.5628 25.9018 15.6476 25.922C15.7475 25.9458 15.8517 25.9526 15.9543 25.9644C16.1744 25.9895 16.397 26.001 16.6145 26.0403C16.9434 26.0996 17.1269 26.3866 17.069 26.717C17.0174 27.011 16.8472 27.225 16.6098 27.389C16.2099 27.6661 15.7711 27.7471 15.3039 27.6058C15.0367 27.5248 14.8482 27.3491 14.7832 27.0648C14.7506 26.9225 14.7852 26.7937 14.8923 26.6971C15.0196 26.5828 15.1582 26.4808 15.2915 26.3728L15.3346 26.3295L15.2851 26.2948C15.1492 26.2303 15.0404 26.142 14.9982 25.9886C14.9838 25.9366 14.9988 25.9025 15.0429 25.8759C15.1179 25.8307 15.1925 25.7848 15.2666 25.7381C15.3014 25.7163 15.3359 25.6938 15.3684 25.6687C15.4126 25.635 15.4087 25.6098 15.3558 25.5903C15.2328 25.545 15.1235 25.4791 15.0387 25.3779C14.8972 25.209 14.8571 25.0078 14.8687 24.7953C14.8869 24.4635 15.0671 24.2448 15.3599 24.1042C15.7081 23.9371 16.0574 23.9266 16.4124 24.0789C16.5436 24.1351 16.682 24.1471 16.8228 24.1374C16.928 24.1299 17.0199 24.0901 17.1022 24.0041ZM15.8191 26.3818C15.5577 26.3795 15.4758 26.4118 15.3224 26.568C15.1507 26.7431 15.1516 26.9859 15.323 27.1618C15.4531 27.2951 15.6155 27.3575 15.7961 27.3763C16.007 27.398 16.2147 27.3892 16.4064 27.2836C16.6107 27.1706 16.7124 26.9606 16.6664 26.7491C16.6284 26.5745 16.4997 26.4946 16.3432 26.4487C16.1651 26.3966 15.9809 26.3866 15.8191 26.3818ZM15.3057 24.7115C15.3153 24.7841 15.3192 24.8576 15.3354 24.9286C15.3772 25.1128 15.4572 25.2746 15.6404 25.3565C15.8555 25.4531 16.1302 25.4116 16.2243 25.1098C16.2886 24.9089 16.2811 24.6919 16.2031 24.4959C16.1701 24.4063 16.1106 24.3289 16.0325 24.2739C15.8457 24.1436 15.5088 24.1263 15.3716 24.4143C15.3269 24.5079 15.3095 24.6075 15.3057 24.7115Z" fill="#F1F1EF"/>
<path fill-rule="evenodd" clip-rule="evenodd" d="M12.6676 23.9578C12.6745 23.9898 12.6884 24.0262 12.6888 24.0628C12.6894 24.1323 12.6819 24.2019 12.6779 24.2715V24.3318L12.7368 24.2868C12.898 24.1541 13.0713 24.041 13.273 23.9801C13.6372 23.8704 14.0009 24.0697 14.1196 24.4406C14.1646 24.5816 14.1824 24.7265 14.1841 24.8739C14.1879 25.2013 14.1901 25.5287 14.1935 25.856C14.1946 25.9736 14.2081 25.9946 14.3193 26.0285C14.3826 26.0474 14.4471 26.0618 14.5124 26.0715C14.5482 26.0771 14.5636 26.0912 14.5617 26.1262L14.5621 26.1585C14.5608 26.294 14.5514 26.3002 14.42 26.2998C14.1054 26.2993 13.7909 26.3012 13.4763 26.3038C13.3825 26.3045 13.3824 26.3073 13.373 26.2147L13.3711 26.1615C13.3769 26.0816 13.3788 26.0823 13.4574 26.0707C13.5102 26.0628 13.5627 26.0507 13.6143 26.0372C13.6674 26.0235 13.6929 25.9843 13.7 25.9318C13.7035 25.9052 13.7082 25.8785 13.708 25.8519C13.7035 25.4942 13.7094 25.136 13.6899 24.7788C13.6741 24.4899 13.4536 24.3178 13.1635 24.3375C13.0237 24.3472 12.8893 24.3954 12.7752 24.4768C12.6978 24.531 12.6822 24.6092 12.6826 24.6933C12.6841 25.0278 12.6873 25.3623 12.6909 25.697C12.6916 25.7703 12.6937 25.8437 12.7006 25.9164C12.7079 25.9959 12.7359 26.028 12.8139 26.0452C12.8885 26.0617 12.9646 26.0713 13.0443 26.0846L13.051 26.1461C13.0537 26.2895 13.0387 26.3002 12.8994 26.2997C12.574 26.2983 12.2487 26.3004 11.9236 26.304C11.8724 26.3047 11.8507 26.2886 11.852 26.2387L11.8512 26.2173C11.8428 26.0882 11.8465 26.0833 11.9688 26.0623L12.0265 26.0507C12.1589 26.0208 12.1929 25.9856 12.1947 25.8512C12.2009 25.4253 12.2032 24.9997 12.2075 24.5739C12.208 24.5128 12.185 24.4653 12.128 24.44C12.048 24.405 11.9675 24.371 11.8867 24.338C11.842 24.3197 11.791 24.308 11.7894 24.2463C11.7882 24.2028 11.8347 24.1644 11.8983 24.1515C12.026 24.1256 12.1548 24.104 12.281 24.0723C12.4066 24.041 12.53 23.999 12.6676 23.9578Z" fill="#F1F1EF"/>
<path fill-rule="evenodd" clip-rule="evenodd" d="M19.7017 25.07C19.6957 25.4677 19.5924 25.7893 19.3111 26.0306C18.9549 26.3368 18.3991 26.4408 17.9448 26.2119C17.7509 26.1142 17.6084 25.9644 17.5156 25.77C17.3733 25.4709 17.3377 25.1565 17.4119 24.8343C17.4854 24.5158 17.6784 24.285 17.9671 24.1355C18.2641 23.982 18.5769 23.922 18.9067 24.0026C19.3239 24.1044 19.6237 24.4445 19.6833 24.8776C19.694 24.9536 19.6981 25.0305 19.7017 25.07ZM19.2185 25.2855L19.2024 25.2836C19.2024 25.2461 19.2044 25.2086 19.202 25.1711C19.1883 24.9375 19.1358 24.7149 19.0004 24.5193C18.872 24.3341 18.6971 24.2248 18.4694 24.2088C18.2146 24.1908 18.0005 24.3333 17.9253 24.5936C17.8124 24.9843 17.8507 25.3651 18.0491 25.7231C18.1355 25.8791 18.2636 25.9942 18.4351 26.0548C18.7713 26.1731 19.0694 26.0199 19.157 25.6756C19.1892 25.5485 19.1986 25.4156 19.2185 25.2855Z" fill="#F1F1EF"/>
<path fill-rule="evenodd" clip-rule="evenodd" d="M11.443 25.1008C11.4361 25.3862 11.3688 25.65 11.1925 25.8793C11.0037 26.1249 10.7442 26.2562 10.4491 26.3115C10.1002 26.3767 9.77242 26.3175 9.4921 26.0833C9.35898 25.9719 9.26804 25.8292 9.20804 25.6668C9.1096 25.4006 9.08504 25.1278 9.1456 24.8497C9.21029 24.5522 9.37829 24.3247 9.63873 24.1721C9.93985 23.996 10.2648 23.9175 10.6119 23.9966C11.0581 24.0986 11.3157 24.3894 11.411 24.8297C11.4301 24.9185 11.4327 25.0104 11.443 25.1008ZM10.9544 25.289L10.9415 25.2872V25.2335C10.9342 24.9718 10.883 24.7224 10.7268 24.5049C10.6111 24.3435 10.4562 24.2422 10.2577 24.2139C9.93404 24.1678 9.72254 24.3598 9.65242 24.6206C9.56092 24.9613 9.5896 25.2978 9.73117 25.6209C9.81948 25.8223 9.95898 25.9792 10.1733 26.0553C10.5074 26.174 10.81 26.0169 10.8946 25.674C10.9257 25.5485 10.9351 25.4177 10.9544 25.289Z" fill="#F1F1EF"/>
<path fill-rule="evenodd" clip-rule="evenodd" d="M19.2323 10.5526C19.4624 11.2177 19.6278 11.8966 19.6823 12.6001C19.7498 13.4731 19.7191 14.3401 19.535 15.1987L19.5113 15.2673C19.4536 15.2675 19.3947 15.2602 19.3383 15.269C18.8615 15.344 18.3852 15.4216 17.9088 15.4989C17.4162 15.5788 16.9233 15.6555 16.4317 15.7406C16.2575 15.7706 16.0418 15.7348 15.9715 15.9755L15.9378 15.987L15.9616 14.5473L15.9374 11.0737L16.1669 11.0343C16.5421 10.973 16.9173 10.9106 17.293 10.8508C17.7412 10.7797 18.1897 10.7103 18.6382 10.641C18.8362 10.6106 19.0343 10.5823 19.2323 10.5526Z" fill="#F1F1EF"/>
<path fill-rule="evenodd" clip-rule="evenodd" d="M15.4642 20.184C15.2221 19.9759 14.9716 19.7769 14.7397 19.5579C13.4913 18.3804 12.578 16.9942 12.1282 15.323C12.0043 14.8633 11.9218 14.3959 11.8951 13.9207C11.8764 13.5881 11.8496 13.2527 11.8732 12.9217C11.9356 12.0418 12.0629 11.1703 12.3209 10.3226L12.3352 10.3029C12.3603 10.3363 12.3963 10.3659 12.4091 10.4036C12.6611 11.1454 12.911 11.8879 13.1598 12.6309C13.9415 14.9655 14.7223 17.3006 15.5053 19.6348C15.5206 19.6804 15.5602 19.7177 15.5887 19.7587L15.4642 20.184Z" fill="#F1F1EF"/>
<path fill-rule="evenodd" clip-rule="evenodd" d="M19.2324 10.5526C19.0342 10.5821 18.836 10.6106 18.6382 10.641C18.1897 10.7103 17.7412 10.7797 17.2931 10.8508C16.9175 10.9104 16.5423 10.9728 16.1669 11.0343L15.9374 11.0737L15.9356 10.9241C15.9279 10.8011 15.9151 10.6781 15.9134 10.5551L15.8877 8.20121C15.8817 7.71015 15.8727 7.21909 15.8628 6.72821C15.8577 6.42311 15.8489 6.11809 15.8364 5.81321C15.8289 5.64952 15.8024 5.48659 15.7919 5.3229C15.7857 5.22877 15.794 5.1339 15.7961 5.0394C15.9131 5.26609 16.0276 5.49446 16.1478 5.71946C16.3377 6.07515 16.6406 6.33727 16.9134 6.62321C17.9907 7.75402 18.7556 9.06802 19.2324 10.5526Z" fill="#F1F1EF"/>
<path fill-rule="evenodd" clip-rule="evenodd" d="M15.938 15.987L15.9717 15.9755C16.0421 15.7348 16.2577 15.7706 16.4319 15.7406C16.9235 15.6555 17.4164 15.5788 17.909 15.4989C18.3854 15.4218 18.8617 15.3442 19.3385 15.269C19.3949 15.2602 19.4538 15.2675 19.5116 15.2673C19.4225 15.5853 19.3524 15.9103 19.2393 16.2195C19.1109 16.5701 18.9556 16.9125 18.7908 17.2481C18.5439 17.7486 18.2385 18.218 17.8809 18.6465C17.606 18.9768 17.2996 19.2827 16.9927 19.5843C16.8228 19.751 16.6229 19.887 16.4366 20.037L16.3882 20.004L16.2144 19.8555L16.0346 19.461C15.9117 19.0009 15.8447 18.5278 15.8349 18.0517L15.8382 17.9715L15.8628 17.6238C15.8709 17.5052 15.8817 17.3867 15.8868 17.268C15.9048 16.8412 15.9209 16.4141 15.938 15.987Z" fill="#F1F1EF"/>
<path fill-rule="evenodd" clip-rule="evenodd" d="M15.938 15.987C15.9211 16.4141 15.905 16.8414 15.8868 17.2685C15.8817 17.3874 15.8711 17.5059 15.8628 17.6244L15.7533 17.6659C15.5099 16.9494 15.2664 16.2405 15.0282 15.5299C14.6343 14.354 14.2452 13.1765 13.8519 12.0004C13.5342 11.0511 13.2143 10.1026 12.8922 9.15485C12.877 9.1106 12.8339 9.07573 12.8039 9.03654L13.5052 7.7471C13.5294 7.78891 13.561 7.8281 13.5762 7.8731C13.9006 8.8331 14.2244 9.79329 14.5454 10.7544C14.9632 12.005 15.3781 13.2562 15.7955 14.507C15.8122 14.5569 15.8396 14.603 15.8658 14.6591L15.9618 14.5473L15.938 15.987Z" fill="#F1F1EF"/>
<path fill-rule="evenodd" clip-rule="evenodd" d="M12.8037 9.03653C12.8339 9.07572 12.8771 9.11059 12.8921 9.15484C13.2142 10.1026 13.5341 11.0511 13.8517 12.0003C14.2451 13.1765 14.6341 14.354 15.0281 15.5298C15.2662 16.2405 15.5097 16.9492 15.7531 17.6658L15.8626 17.6244L15.8381 17.972L15.8157 18.0521C15.7777 18.4325 15.7456 18.8137 15.6991 19.1934C15.6759 19.3837 15.6262 19.5705 15.5885 19.7587C15.5602 19.7177 15.5204 19.6803 15.5051 19.6348C14.7219 17.3006 13.9413 14.9655 13.1596 12.6309C12.9109 11.8879 12.6607 11.1455 12.4089 10.4036C12.3961 10.3659 12.3601 10.3363 12.335 10.3029L12.8037 9.03653Z" fill="#F1F1EF"/>
<path fill-rule="evenodd" clip-rule="evenodd" d="M15.9616 14.5473L15.8656 14.6591C15.8393 14.603 15.812 14.5569 15.7953 14.507C15.3779 13.2562 14.963 12.005 14.5452 10.7544C14.2238 9.79338 13.9008 8.83294 13.576 7.87307C13.5608 7.82807 13.5292 7.78889 13.505 7.74707L14.3722 6.60632C14.3995 6.6427 14.4385 6.67514 14.4526 6.7162C14.6933 7.4212 14.9318 8.12676 15.1692 8.83289C15.3908 9.49251 15.6091 10.1529 15.8333 10.8114C15.8483 10.8554 15.9007 10.8866 15.9355 10.9241L15.9374 11.0737L15.9616 14.5473Z" fill="#F1F1EF"/>
<path fill-rule="evenodd" clip-rule="evenodd" d="M15.9355 10.9241C15.9005 10.8868 15.8483 10.8556 15.8333 10.8114C15.6093 10.1529 15.3908 9.49252 15.1692 8.83289C14.932 8.12676 14.6932 7.4212 14.4526 6.71621C14.4385 6.67514 14.3995 6.64271 14.3722 6.60633C14.6542 6.33014 14.9273 6.04402 15.2208 5.78058C15.4816 5.54658 15.6912 5.29571 15.701 4.92577L15.7216 4.85208L15.7958 5.03921C15.794 5.13371 15.7855 5.22858 15.7917 5.32271C15.8024 5.48639 15.8288 5.64933 15.8362 5.81302C15.8498 6.11771 15.8564 6.42296 15.8626 6.72802C15.8725 7.21889 15.8815 7.70996 15.8875 8.20102L15.9132 10.5549C15.9151 10.6781 15.928 10.8011 15.9355 10.9241Z" fill="#F1F1EF"/>
<path fill-rule="evenodd" clip-rule="evenodd" d="M15.5887 19.7585C15.6264 19.5703 15.6761 19.3835 15.6993 19.1932C15.7458 18.8137 15.7779 18.4323 15.8159 18.0519L15.8255 18.0504L15.8349 18.0521C15.8446 18.5281 15.9117 19.0013 16.0346 19.4613C16.0092 19.4947 15.9738 19.5242 15.9603 19.5617C15.8562 19.8553 15.758 20.1513 15.6534 20.4448C15.6391 20.4849 15.599 20.5162 15.5711 20.5513L15.464 20.1838L15.5887 19.7585Z" fill="#F1F1EF"/>
<path fill-rule="evenodd" clip-rule="evenodd" d="M15.5711 20.5515C15.599 20.5162 15.6391 20.4851 15.6534 20.445C15.758 20.1515 15.8563 19.8555 15.9603 19.5618C15.9736 19.5243 16.0093 19.4949 16.0346 19.4615L16.2144 19.856C16.179 19.9063 16.1298 19.9518 16.1101 20.0079L15.7659 21.0189C15.7516 21.0596 15.7035 21.0881 15.6708 21.1224L15.5711 20.5515Z" fill="#F1F1EF"/>
<path fill-rule="evenodd" clip-rule="evenodd" d="M15.6708 21.1222C15.7032 21.0879 15.7516 21.0594 15.7659 21.0187L16.1101 20.0077C16.1296 19.9516 16.1789 19.9061 16.2144 19.8558L16.3884 20.0041C16.3044 20.0872 16.2577 20.1832 16.2858 20.3045L16.2329 20.4776C16.2089 20.5072 16.1741 20.5331 16.1622 20.567C16.0421 20.9113 15.9275 21.2574 15.8064 21.6015C15.791 21.645 15.7484 21.6793 15.7186 21.7179L15.6708 21.1222Z" fill="#F1F1EF"/>
<path fill-rule="evenodd" clip-rule="evenodd" d="M15.7184 21.7177C15.7484 21.6791 15.791 21.6448 15.8062 21.6013C15.9273 21.2572 16.042 20.9111 16.162 20.5668C16.1739 20.5329 16.2087 20.5072 16.2327 20.4774L16.1598 21.2717C16.1403 21.2942 16.1122 21.3138 16.1028 21.3399L15.8602 22.0352C15.8431 22.0826 15.8105 22.125 15.785 22.1694C15.7623 22.1398 15.7218 22.1111 15.7199 22.0803C15.7128 21.96 15.7179 21.8387 15.7184 21.7177Z" fill="#F1F1EF"/>
<path fill-rule="evenodd" clip-rule="evenodd" d="M15.7852 22.1696C15.8107 22.1251 15.8433 22.0828 15.8604 22.0353L16.103 21.3401C16.1124 21.3138 16.1407 21.2943 16.16 21.2718L16.1619 21.7931L15.9873 22.2406L15.7852 22.1696Z" fill="#F1F1EF"/>
<path fill-rule="evenodd" clip-rule="evenodd" d="M15.9873 22.2407L16.1619 21.7931L16.1979 22.3226L15.9873 22.2407Z" fill="#F1F1EF"/>
<path fill-rule="evenodd" clip-rule="evenodd" d="M16.2856 20.3045C16.2577 20.1834 16.3042 20.0874 16.3882 20.0042L16.4366 20.0371L16.2856 20.3045Z" fill="#F1F1EF"/>
<path fill-rule="evenodd" clip-rule="evenodd" d="M15.8349 18.0523L15.8255 18.0506L15.8159 18.0521L15.8382 17.972L15.8349 18.0523Z" fill="#F1F1EF"/>
<path d="M1.89276 33.5497H2.50116L3.80341 37.6069L5.10223 33.5497H5.71063L4.03925 38.5263H3.56073L1.89276 33.5497ZM1.69452 33.5497H2.22772L2.32001 36.5849V38.5263H1.69452V33.5497ZM5.37225 33.5497H5.90546V38.5263H5.27997V36.5849L5.37225 33.5497ZM6.77704 36.8549V36.5029C6.77704 36.2158 6.8135 35.964 6.88641 35.7475C6.95933 35.5287 7.06073 35.3465 7.19061 35.2006C7.3205 35.0548 7.47203 34.9454 7.6452 34.8725C7.81838 34.7973 8.00409 34.7597 8.20233 34.7597C8.40513 34.7597 8.59312 34.7973 8.7663 34.8725C8.93947 34.9454 9.091 35.0548 9.22089 35.2006C9.35305 35.3465 9.45559 35.5287 9.5285 35.7475C9.60142 35.964 9.63788 36.2158 9.63788 36.5029V36.8549C9.63788 37.142 9.60142 37.395 9.5285 37.6137C9.45559 37.8302 9.35419 38.0113 9.2243 38.1572C9.09442 38.303 8.94289 38.4124 8.76971 38.4853C8.59654 38.5582 8.40969 38.5947 8.20917 38.5947C8.00865 38.5947 7.8218 38.5582 7.64862 38.4853C7.47544 38.4124 7.32277 38.303 7.19061 38.1572C7.06073 38.0113 6.95933 37.8302 6.88641 37.6137C6.8135 37.395 6.77704 37.142 6.77704 36.8549ZM7.38202 36.5029V36.8549C7.38202 37.0577 7.40253 37.2355 7.44354 37.3881C7.48456 37.5408 7.54266 37.6684 7.61786 37.7709C7.69305 37.8735 7.78078 37.9509 7.88104 38.0034C7.9813 38.0535 8.09068 38.0786 8.20917 38.0786C8.34589 38.0786 8.46552 38.0535 8.56805 38.0034C8.67287 37.9509 8.75946 37.8735 8.82782 37.7709C8.89618 37.6684 8.94745 37.5408 8.98163 37.3881C9.01581 37.2355 9.0329 37.0577 9.0329 36.8549V36.5029C9.0329 36.3001 9.01239 36.1235 8.97137 35.9731C8.93036 35.8204 8.87225 35.6928 8.79706 35.5903C8.72186 35.4855 8.633 35.408 8.53046 35.3578C8.4302 35.3054 8.32082 35.2792 8.20233 35.2792C8.08612 35.2792 7.97788 35.3054 7.87762 35.3578C7.77736 35.408 7.68964 35.4855 7.61444 35.5903C7.54152 35.6928 7.48456 35.8204 7.44354 35.9731C7.40253 36.1235 7.38202 36.3001 7.38202 36.5029ZM11.0222 35.6176V38.5263H10.4172V34.8281H10.988L11.0222 35.6176ZM10.8752 36.537L10.6291 36.5268C10.6268 36.2739 10.6553 36.0403 10.7145 35.8261C10.7761 35.6096 10.8627 35.4217 10.9743 35.2621C11.0882 35.1026 11.2238 34.9796 11.381 34.893C11.5383 34.8041 11.7126 34.7597 11.904 34.7597C12.0544 34.7597 12.1911 34.7848 12.3141 34.8349C12.4372 34.8828 12.542 34.9602 12.6286 35.0673C12.7152 35.1744 12.7813 35.3134 12.8268 35.4843C12.8747 35.6529 12.8986 35.8592 12.8986 36.103V38.5263H12.2936V36.0961C12.2936 35.9024 12.272 35.7475 12.2287 35.6313C12.1877 35.5128 12.1239 35.4273 12.0373 35.3749C11.953 35.3203 11.8459 35.2929 11.716 35.2929C11.5975 35.2929 11.487 35.3259 11.3845 35.392C11.2819 35.4581 11.1919 35.5493 11.1144 35.6655C11.0392 35.7817 10.98 35.915 10.9367 36.0654C10.8957 36.2135 10.8752 36.3707 10.8752 36.537ZM15.8107 34.8281H16.3542V38.5571C16.3542 38.8829 16.2972 39.1518 16.1833 39.3637C16.0716 39.5756 15.9155 39.7317 15.715 39.832C15.5145 39.9345 15.2832 39.9858 15.0212 39.9858C14.9278 39.9858 14.8104 39.9687 14.6691 39.9345C14.5279 39.9003 14.3866 39.8479 14.2453 39.7773C14.104 39.7089 13.9878 39.6223 13.8967 39.5175L14.1462 39.0971C14.2761 39.2293 14.4139 39.3238 14.5598 39.3808C14.7056 39.4378 14.8446 39.4662 14.9767 39.4662C15.134 39.4662 15.2707 39.4378 15.3869 39.3808C15.5031 39.3238 15.5931 39.2304 15.6569 39.1005C15.7207 38.9729 15.7526 38.802 15.7526 38.5878V35.6415L15.8107 34.8281ZM13.6848 36.8549V36.5097C13.6848 36.2044 13.7132 35.9423 13.7702 35.7236C13.8272 35.5025 13.9092 35.3214 14.0163 35.1801C14.1257 35.0366 14.2567 34.9306 14.4094 34.8622C14.562 34.7939 14.7329 34.7597 14.9221 34.7597C15.1135 34.7597 15.2787 34.7984 15.4177 34.8759C15.5567 34.9534 15.6717 35.0662 15.7629 35.2143C15.8563 35.3601 15.9292 35.5379 15.9816 35.7475C16.0363 35.9549 16.0739 36.1896 16.0944 36.4516V36.913C16.0739 37.1728 16.0363 37.4064 15.9816 37.6137C15.9292 37.8211 15.8552 37.9977 15.7595 38.1435C15.666 38.2893 15.5498 38.401 15.4108 38.4785C15.2718 38.5559 15.1066 38.5947 14.9152 38.5947C14.7284 38.5947 14.5598 38.5593 14.4094 38.4887C14.259 38.4158 14.1291 38.3076 14.0197 38.164C13.9126 38.0182 13.8294 37.837 13.7702 37.6205C13.7132 37.4018 13.6848 37.1466 13.6848 36.8549ZM14.2897 36.5097V36.8549C14.2897 37.06 14.3045 37.2389 14.3342 37.3915C14.3638 37.5419 14.4094 37.6673 14.4709 37.7675C14.5347 37.8655 14.6156 37.9384 14.7136 37.9863C14.8138 38.0341 14.9335 38.058 15.0724 38.058C15.2411 38.058 15.3789 38.017 15.486 37.935C15.5931 37.853 15.6786 37.7447 15.7424 37.6103C15.8085 37.4736 15.8609 37.3266 15.8996 37.1694V36.1987C15.8768 36.0825 15.8438 35.9708 15.8005 35.8637C15.7595 35.7543 15.7059 35.6575 15.6398 35.5732C15.5738 35.4866 15.494 35.4182 15.4006 35.3681C15.3094 35.318 15.2023 35.2929 15.0793 35.2929C14.9403 35.2929 14.8207 35.318 14.7204 35.3681C14.6201 35.4182 14.5381 35.4934 14.4743 35.5937C14.4105 35.6939 14.3638 35.8204 14.3342 35.9731C14.3045 36.1258 14.2897 36.3046 14.2897 36.5097ZM17.1335 36.8549V36.5029C17.1335 36.2158 17.1699 35.964 17.2429 35.7475C17.3158 35.5287 17.4172 35.3465 17.5471 35.2006C17.6769 35.0548 17.8285 34.9454 18.0016 34.8725C18.1748 34.7973 18.3605 34.7597 18.5588 34.7597C18.7616 34.7597 18.9496 34.7973 19.1227 34.8725C19.2959 34.9454 19.4474 35.0548 19.5773 35.2006C19.7095 35.3465 19.812 35.5287 19.8849 35.7475C19.9579 35.964 19.9943 36.2158 19.9943 36.5029V36.8549C19.9943 37.142 19.9579 37.395 19.8849 37.6137C19.812 37.8302 19.7106 38.0113 19.5807 38.1572C19.4509 38.303 19.2993 38.4124 19.1262 38.4853C18.953 38.5582 18.7661 38.5947 18.5656 38.5947C18.3651 38.5947 18.1782 38.5582 18.0051 38.4853C17.8319 38.4124 17.6792 38.303 17.5471 38.1572C17.4172 38.0113 17.3158 37.8302 17.2429 37.6137C17.1699 37.395 17.1335 37.142 17.1335 36.8549ZM17.7385 36.5029V36.8549C17.7385 37.0577 17.759 37.2355 17.8 37.3881C17.841 37.5408 17.8991 37.6684 17.9743 37.7709C18.0495 37.8735 18.1372 37.9509 18.2375 38.0034C18.3377 38.0535 18.4471 38.0786 18.5656 38.0786C18.7023 38.0786 18.822 38.0535 18.9245 38.0034C19.0293 37.9509 19.1159 37.8735 19.1843 37.7709C19.2526 37.6684 19.3039 37.5408 19.3381 37.3881C19.3723 37.2355 19.3893 37.0577 19.3893 36.8549V36.5029C19.3893 36.3001 19.3688 36.1235 19.3278 35.9731C19.2868 35.8204 19.2287 35.6928 19.1535 35.5903C19.0783 35.4855 18.9894 35.408 18.8869 35.3578C18.7866 35.3054 18.6773 35.2792 18.5588 35.2792C18.4426 35.2792 18.3343 35.3054 18.2341 35.3578C18.1338 35.408 18.0461 35.4855 17.9709 35.5903C17.898 35.6928 17.841 35.8204 17.8 35.9731C17.759 36.1235 17.7385 36.3001 17.7385 36.5029ZM23.59 38.5263H22.7424L22.7492 37.9897H23.59C23.8885 37.9897 24.1312 37.9327 24.3181 37.8188C24.5049 37.7026 24.6428 37.5317 24.7316 37.3061C24.8205 37.0782 24.8649 36.7968 24.8649 36.4619V35.6108C24.8649 35.3465 24.8399 35.1186 24.7897 34.9272C24.7396 34.7358 24.6644 34.5786 24.5641 34.4555C24.4639 34.3325 24.3374 34.2413 24.1848 34.1821C24.0321 34.1205 23.8532 34.0898 23.6481 34.0898H22.7253V33.5497H23.6481C23.9284 33.5497 24.1813 33.5942 24.4069 33.683C24.6325 33.7696 24.8262 33.9007 24.988 34.0761C25.1498 34.2493 25.2728 34.4646 25.3571 34.7221C25.4437 34.9796 25.487 35.2781 25.487 35.6176V36.4619C25.487 36.8014 25.4437 37.0999 25.3571 37.3574C25.2728 37.6148 25.1486 37.8302 24.9846 38.0034C24.8205 38.1765 24.6211 38.3076 24.3864 38.3964C24.154 38.483 23.8885 38.5263 23.59 38.5263ZM23.091 33.5497V38.5263H22.4621V33.5497H23.091ZM27.9684 36.1987H26.9567L26.9499 35.6689H27.8898C28.0311 35.6689 28.1564 35.637 28.2658 35.5732C28.3752 35.5094 28.4606 35.4182 28.5222 35.2997C28.586 35.179 28.6179 35.0354 28.6179 34.8691C28.6179 34.6868 28.5905 34.5387 28.5358 34.4247C28.4834 34.3085 28.4025 34.2242 28.2932 34.1718C28.1861 34.1171 28.0493 34.0898 27.883 34.0898H27.09V38.5263H26.4611V33.5497H27.883C28.0972 33.5497 28.2886 33.5759 28.4572 33.6284C28.6258 33.6785 28.7682 33.7582 28.8845 33.8676C29.003 33.9747 29.093 34.1114 29.1545 34.2778C29.216 34.4441 29.2468 34.6435 29.2468 34.8759C29.2468 35.081 29.2001 35.2667 29.1066 35.433C29.0155 35.5971 28.8879 35.7315 28.7238 35.8364C28.5598 35.9412 28.3706 36.0084 28.1564 36.038L27.9684 36.1987ZM27.9445 38.5263H26.697L27.0627 37.9897H27.9445C28.1086 37.9897 28.2476 37.9532 28.3615 37.8803C28.4754 37.8074 28.562 37.7049 28.6213 37.5727C28.6828 37.4383 28.7136 37.2799 28.7136 37.0976C28.7136 36.913 28.6885 36.7535 28.6384 36.6191C28.5882 36.4846 28.5085 36.381 28.3991 36.308C28.2897 36.2351 28.1462 36.1987 27.9684 36.1987H27.1584L27.1652 35.6689H28.259L28.3991 35.8603C28.6042 35.8808 28.7762 35.9492 28.9152 36.0654C29.0565 36.1793 29.1625 36.3251 29.2331 36.5029C29.306 36.6806 29.3425 36.8766 29.3425 37.0908C29.3425 37.4007 29.2844 37.6627 29.1682 37.8769C29.0542 38.0888 28.8924 38.2506 28.6828 38.3622C28.4732 38.4716 28.2271 38.5263 27.9445 38.5263Z" fill="#252323"/>
</svg>
