<svg width="31" height="31" fill="none" xmlns="http://www.w3.org/2000/svg"><path d="M5.885.263H25.43c.704 0 1.401.141 2.052.417.65.276 1.242.681 1.74 1.192.497.51.892 1.116 1.16 1.783.27.668.408 1.383.407 2.105v19.27c.001.722-.137 1.437-.406 2.104a5.504 5.504 0 0 1-1.162 1.784 5.348 5.348 0 0 1-1.739 1.191 5.237 5.237 0 0 1-2.052.417H5.885a5.237 5.237 0 0 1-2.051-.417 5.348 5.348 0 0 1-1.74-1.191 5.504 5.504 0 0 1-1.161-1.784 5.614 5.614 0 0 1-.407-2.104V5.76c0-.722.138-1.437.407-2.105a5.503 5.503 0 0 1 1.161-1.783A5.347 5.347 0 0 1 3.834.68 5.238 5.238 0 0 1 5.885.263Z" fill="#252323"/><path fill-rule="evenodd" clip-rule="evenodd" d="M20.15 23.04c.032-.062.063-.116.088-.171.017-.036.042-.043.077-.042.213.006.425.013.638.015.18.002.361-.002.542-.004.204-.002.407-.013.61-.007.272.008.536.06.78.181.293.144.515.364.666.653.095.184.154.384.174.59a2.07 2.07 0 0 1-.084.884c-.119.357-.344.63-.656.835-.24.158-.505.251-.787.305-.3.056-.6.038-.9.039-.33.001-.658-.006-.987-.01-.058 0-.066-.011-.051-.066l.014-.05c.032-.102.05-.106.152-.123a.53.53 0 0 0 .203-.078c.035-.022.05-.082.063-.128a.477.477 0 0 0 .012-.127c.005-.642.01-1.284.012-1.926a8.23 8.23 0 0 0-.012-.486c-.006-.114-.067-.191-.202-.218-.105-.021-.21-.037-.316-.056l-.035-.01Zm3.015 1.554c-.014-.128-.021-.257-.044-.383a1.313 1.313 0 0 0-.42-.772c-.376-.334-.828-.385-1.303-.345-.108.009-.131.046-.133.157-.002.157-.005.315-.005.472v1.499c0 .142.002.284.006.426.004.145.057.268.199.324.224.089.46.1.695.063.375-.058.638-.276.814-.604.14-.26.18-.545.19-.837Zm.913 1.701a.324.324 0 0 1 .067-.201c.01-.016.047-.015.072-.02l.215-.043c.076-.016.116-.067.127-.142a1.12 1.12 0 0 0 .014-.148c.005-.393.009-.786.011-1.18.002-.393 0-.787 0-1.18l-.001-.076c-.008-.127-.069-.192-.195-.21l-.272-.042c-.034-.005-.046-.02-.034-.05.021-.052.041-.104.071-.15.011-.017.049-.023.074-.023.13.002.26.012.39.012l1.133-.007c.218 0 .429.038.624.142a.678.678 0 0 1 .37.534.69.69 0 0 1-.226.639c-.076.07-.175.116-.263.173l-.03.017c.083.03.161.057.237.088.223.091.4.234.494.462a.89.89 0 0 1 .03.553c-.068.292-.26.486-.51.633a1.646 1.646 0 0 1-.76.232c-.248.012-.499.007-.749.01l-.145.001-.722-.018-.022-.006Zm1.038-1.142h.002v.37c.002.08 0 .162.017.24.026.114.078.218.207.25.173.046.353.054.529.024.22-.038.396-.149.493-.36a.856.856 0 0 0 .058-.49.636.636 0 0 0-.348-.49.941.941 0 0 0-.413-.118c-.164-.006-.329-.007-.493-.012-.046 0-.053.023-.052.06v.526Zm.35-.839c.09-.004.191-.006.292-.016a.446.446 0 0 0 .401-.301c.036-.094.035-.191.036-.289a.563.563 0 0 0-.388-.549c-.186-.066-.379-.068-.572-.062-.079.002-.114.036-.115.115l-.011 1.03c0 .04.017.058.056.059l.3.013ZM5.766 26.097l-.013.177H5.39l-.665.01h-.02c-.033-.003-.09-.003-.092-.012-.009-.053-.006-.108-.004-.163 0-.006.022-.014.035-.017l.172-.038c.107-.028.145-.075.15-.186.006-.125.012-.25.013-.375v-.923c0-.072-.024-.126-.091-.155a8.09 8.09 0 0 0-.241-.102c-.038-.016-.088-.024-.084-.076.005-.052.053-.066.099-.076.187-.043.375-.085.563-.13.06-.015.118-.04.19-.065.004.039.01.076.01.113l-.011.176c0 .02.01.047.025.058.009.007.04-.006.054-.017.16-.122.33-.227.523-.289.3-.095.557-.007.737.252.063.09.063.09.151.027.151-.11.309-.207.485-.27.388-.14.76.037.896.428.049.142.067.288.067.438l-.003.993c0 .082.027.129.105.154.087.029.178.049.276.075l-.022.17h-.319c-.252.003-.504.004-.756.01-.043.001-.055-.01-.057-.05-.007-.132-.009-.132.115-.162l.042-.01c.12-.033.161-.07.162-.193.003-.352.01-.705-.008-1.057-.018-.364-.308-.558-.66-.465a.973.973 0 0 0-.318.153c-.033.023-.039.05-.036.091.01.155.016.31.017.466.003.272 0 .544 0 .817 0 .11.038.152.147.178l.162.037.03.007c.002.051.004.103.002.155-.001.032-.027.035-.055.035-.157-.004-.315-.01-.472-.01-.191.001-.383.007-.574.01h-.045c0-.055-.002-.107.002-.16.001-.012.023-.03.038-.034l.189-.04c.08-.02.118-.06.123-.142.021-.377.037-.754.001-1.13a.693.693 0 0 0-.061-.215c-.097-.214-.314-.303-.565-.239-.119.03-.226.085-.328.154a.148.148 0 0 0-.07.13c0 .376 0 .752.002 1.128l.002.145c.002.101.045.154.145.176.065.015.13.025.203.038ZM17.102 24.004c.03.141.029.269-.075.365-.103.096-.234.064-.361.042.012.067.025.124.031.182.047.43-.138.748-.536.93-.15.069-.31.094-.473.107-.081.007-.152.068-.16.135-.008.067.035.137.12.157.1.024.204.03.306.042.22.026.443.037.66.076.33.06.513.347.455.677-.052.294-.222.508-.46.672-.4.277-.838.358-1.305.217-.267-.081-.456-.257-.52-.541a.361.361 0 0 1 .108-.368c.128-.114.266-.216.4-.324l.043-.044-.05-.034c-.136-.065-.245-.153-.287-.306-.014-.052 0-.086.045-.113.075-.045.15-.091.224-.138a1.21 1.21 0 0 0 .101-.07c.045-.033.04-.058-.012-.078a.73.73 0 0 1-.317-.212c-.142-.169-.182-.37-.17-.583.018-.332.198-.55.49-.69a1.217 1.217 0 0 1 1.053-.026.87.87 0 0 0 .41.058.41.41 0 0 0 .28-.133Zm-1.283 2.378c-.261-.002-.343.03-.497.186a.407.407 0 0 0 .001.594c.13.133.293.196.473.214.211.022.419.013.61-.092a.49.49 0 0 0 .26-.535c-.038-.174-.166-.254-.323-.3a2.085 2.085 0 0 0-.524-.067Zm-.513-1.67c.01.072.013.146.03.217.041.184.121.346.304.428.215.096.49.055.584-.247a.91.91 0 0 0-.02-.614.47.47 0 0 0-.172-.222c-.186-.13-.523-.148-.66.14a.74.74 0 0 0-.066.298ZM12.668 23.958c.007.032.02.068.02.105.001.07-.006.139-.01.209v.06l.059-.045c.161-.133.334-.246.536-.307.364-.11.728.09.847.46.045.142.062.287.064.434l.01.982c0 .118.014.139.125.173.064.018.128.033.193.043.036.005.052.02.05.054v.032c-.001.136-.01.142-.142.142-.315 0-.63.001-.944.004-.094 0-.094.003-.103-.09l-.002-.052c.006-.08.008-.08.086-.091.053-.008.106-.02.157-.034.053-.014.079-.053.086-.105.004-.027.008-.053.008-.08-.005-.358.001-.716-.018-1.073-.016-.29-.236-.461-.526-.442a.76.76 0 0 0-.389.14c-.077.054-.093.132-.092.216.001.335.004.67.008 1.004 0 .073.003.147.01.22.007.079.035.111.113.128.075.017.15.026.23.04l.007.061c.003.144-.012.154-.152.154-.325-.002-.65 0-.975.004-.052 0-.073-.015-.072-.065v-.022c-.01-.129-.005-.134.117-.155l.058-.011c.132-.03.166-.065.168-.2.006-.426.008-.851.012-1.277.001-.061-.022-.109-.079-.134-.08-.035-.16-.069-.241-.102-.045-.018-.096-.03-.098-.092 0-.043.046-.082.11-.095.127-.025.256-.047.382-.079.126-.03.249-.073.387-.114ZM19.702 25.07c-.006.398-.11.72-.39.96-.357.307-.913.41-1.367.182a.93.93 0 0 1-.43-.442 1.397 1.397 0 0 1-.103-.936c.073-.318.266-.549.555-.698.297-.154.61-.214.94-.133.417.101.717.442.776.875.011.076.015.152.019.192Zm-.484.215-.016-.001c0-.038.002-.075 0-.113A1.24 1.24 0 0 0 19 24.52a.68.68 0 0 0-.53-.31.51.51 0 0 0-.545.385c-.113.39-.074.771.124 1.13a.7.7 0 0 0 .386.33c.336.12.634-.034.722-.378.032-.127.042-.26.061-.39ZM11.443 25.1c-.007.286-.074.55-.25.78-.19.245-.449.376-.744.431-.349.066-.677.006-.957-.228a.967.967 0 0 1-.284-.416 1.434 1.434 0 0 1-.062-.817c.064-.298.232-.525.493-.678.3-.176.626-.255.973-.175.446.102.704.392.799.833.02.089.022.18.032.27Zm-.489.19-.013-.003v-.053c-.007-.262-.058-.512-.214-.73a.677.677 0 0 0-.47-.29c-.323-.046-.534.146-.605.407a1.48 1.48 0 0 0 .08 1 .754.754 0 0 0 .441.434c.334.12.637-.038.722-.381.03-.125.04-.256.06-.385ZM19.232 10.553c.23.665.396 1.344.45 2.047.068.873.037 1.74-.147 2.599l-.024.068c-.057 0-.116-.007-.173.002-.477.075-.953.153-1.43.23-.492.08-.985.156-1.476.242-.174.03-.39-.006-.46.235l-.034.011.024-1.44-.025-3.473.23-.04c.375-.061.75-.123 1.126-.183.448-.071.897-.14 1.345-.21l.594-.088ZM15.464 20.184c-.242-.208-.492-.407-.724-.626-1.249-1.178-2.162-2.564-2.612-4.235a6.864 6.864 0 0 1-.233-1.402c-.019-.333-.045-.668-.022-1 .063-.88.19-1.75.448-2.598l.014-.02c.025.033.061.063.074.1.252.742.502 1.485.75 2.228.782 2.335 1.563 4.67 2.346 7.004.016.045.055.083.084.124l-.125.425Z" fill="#F1F1EF"/><path fill-rule="evenodd" clip-rule="evenodd" d="m19.232 10.553-.594.088c-.448.07-.897.139-1.345.21l-1.126.183-.23.04-.001-.15c-.008-.123-.02-.246-.023-.369l-.025-2.354c-.006-.49-.015-.982-.025-1.473-.005-.305-.014-.61-.027-.915-.007-.163-.034-.326-.044-.49-.006-.094.002-.19.004-.284.117.227.232.455.352.68.19.356.493.618.765.904a10.087 10.087 0 0 1 2.32 3.93ZM15.938 15.987l.034-.011c.07-.241.286-.205.46-.235.492-.085.984-.162 1.477-.242.476-.077.953-.155 1.43-.23.056-.009.115-.001.173-.002-.09.318-.16.643-.273.953-.128.35-.283.693-.448 1.028-.247.5-.553.97-.91 1.398-.275.33-.581.637-.888.938-.17.167-.37.303-.556.453l-.049-.033-.174-.149-.18-.394a5.933 5.933 0 0 1-.2-1.41l.004-.08.025-.347c.008-.119.019-.237.024-.356l.051-1.281Z" fill="#F1F1EF"/><path fill-rule="evenodd" clip-rule="evenodd" d="m15.938 15.987-.051 1.282c-.005.118-.016.237-.024.355l-.11.042c-.243-.717-.487-1.425-.725-2.136-.394-1.176-.783-2.353-1.176-3.53-.318-.949-.638-1.897-.96-2.845-.015-.044-.058-.08-.088-.118l.701-1.29c.024.042.056.081.071.126.325.96.648 1.92.97 2.881.417 1.251.832 2.502 1.25 3.753.016.05.044.096.07.152l.096-.112-.024 1.44Z" fill="#F1F1EF"/><path fill-rule="evenodd" clip-rule="evenodd" d="M12.804 9.037c.03.039.073.074.088.118.322.948.642 1.896.96 2.845.393 1.177.782 2.354 1.176 3.53.238.71.482 1.42.725 2.136l.11-.042-.025.348-.022.08c-.038.38-.07.762-.117 1.141-.023.19-.073.377-.11.566-.029-.041-.069-.079-.084-.124-.783-2.334-1.564-4.67-2.345-7.004-.25-.743-.5-1.486-.751-2.227-.013-.038-.049-.068-.074-.101l.469-1.266ZM15.962 14.547l-.096.112c-.027-.056-.054-.102-.07-.152-.418-1.25-.833-2.502-1.25-3.753-.322-.96-.645-1.921-.97-2.88-.015-.046-.047-.085-.071-.127l.867-1.14c.027.036.066.068.08.11.241.704.48 1.41.717 2.116.222.66.44 1.32.664 1.978.015.044.068.076.102.113l.002.15.025 3.473Z" fill="#F1F1EF"/><path fill-rule="evenodd" clip-rule="evenodd" d="M15.935 10.924c-.035-.037-.087-.068-.102-.113-.224-.658-.442-1.318-.664-1.978-.237-.706-.476-1.412-.716-2.117-.014-.04-.053-.073-.08-.11.281-.276.554-.562.848-.825.26-.234.47-.485.48-.855l.02-.074.075.187c-.002.095-.01.19-.004.284.01.163.037.326.044.49.014.305.02.61.027.915.01.49.019.982.024 1.473l.026 2.354c.002.123.015.246.022.37ZM15.589 19.759c.037-.189.087-.375.11-.566.047-.38.079-.76.117-1.141l.01-.002.009.002c.01.476.077.95.2 1.41-.026.033-.061.062-.075.1-.104.293-.202.59-.307.883-.014.04-.054.071-.082.106l-.107-.367.125-.425Z" fill="#F1F1EF"/><path fill-rule="evenodd" clip-rule="evenodd" d="M15.571 20.552c.028-.036.068-.067.082-.107.105-.294.203-.59.307-.883.014-.038.05-.067.075-.1l.18.394c-.036.05-.085.096-.105.152l-.344 1.01c-.014.042-.063.07-.095.104l-.1-.57Z" fill="#F1F1EF"/><path fill-rule="evenodd" clip-rule="evenodd" d="M15.67 21.122c.033-.034.082-.063.096-.103l.344-1.011c.02-.056.069-.102.104-.152l.174.148c-.084.083-.13.18-.102.3l-.053.174c-.024.03-.059.055-.07.09-.12.343-.236.69-.357 1.034-.015.043-.058.077-.087.116l-.048-.596Z" fill="#F1F1EF"/><path fill-rule="evenodd" clip-rule="evenodd" d="M15.718 21.718c.03-.039.073-.073.088-.117.121-.344.236-.69.356-1.034.012-.034.047-.06.07-.09l-.072.795c-.02.022-.048.042-.057.068l-.243.695c-.017.048-.05.09-.075.134-.023-.03-.063-.058-.065-.089-.007-.12-.002-.241-.002-.362Z" fill="#F1F1EF"/><path fill-rule="evenodd" clip-rule="evenodd" d="M15.785 22.17c.026-.045.058-.087.075-.135l.243-.695c.01-.026.038-.046.057-.068l.002.521-.175.448-.202-.071Z" fill="#F1F1EF"/><path fill-rule="evenodd" clip-rule="evenodd" d="m15.987 22.24.175-.447.036.53-.21-.082ZM16.286 20.305c-.028-.122.018-.218.102-.3l.049.032-.151.268ZM15.835 18.052l-.01-.001-.01.001.023-.08-.003.08Z" fill="#F1F1EF"/></svg>