<svg width="31" height="41" viewBox="0 0 31 41" fill="none" xmlns="http://www.w3.org/2000/svg">
<path fill-rule="evenodd" clip-rule="evenodd" d="M26.8874 29.0392C26.9191 28.9783 26.9495 28.9245 26.9753 28.8688C26.9916 28.8332 27.0168 28.826 27.0522 28.827C27.2646 28.833 27.4771 28.8395 27.6897 28.8416C27.8703 28.8435 28.0512 28.8401 28.232 28.838C28.4356 28.8356 28.6392 28.8249 28.8426 28.8307C29.1136 28.8386 29.3776 28.8917 29.6226 29.0122C29.9153 29.1564 30.1368 29.376 30.2877 29.6653C30.3826 29.8487 30.4418 30.0485 30.4623 30.254C30.4945 30.5555 30.4733 30.8501 30.3777 31.1385C30.2592 31.4958 30.0342 31.7694 29.7216 31.9743C29.4811 32.132 29.2173 32.2252 28.9345 32.2785C28.6353 32.3349 28.3351 32.3167 28.0349 32.3177C27.7056 32.319 27.3766 32.3118 27.0473 32.3081C26.9898 32.3075 26.9815 32.2967 26.9967 32.2417L27.0108 32.1911C27.0428 32.0902 27.0601 32.0857 27.1625 32.0688C27.235 32.0574 27.3044 32.031 27.3663 31.9914C27.4008 31.9685 27.415 31.9089 27.4285 31.863C27.4401 31.8228 27.4407 31.7788 27.4411 31.7364C27.4458 31.0942 27.4506 30.4522 27.4533 29.8104C27.454 29.6481 27.4499 29.4857 27.4411 29.3237C27.4347 29.2102 27.3741 29.1326 27.2391 29.1058C27.1341 29.085 27.0284 29.0688 26.9228 29.0503L26.8874 29.0392ZM29.9016 30.5942C29.8874 30.4663 29.8805 30.3373 29.8576 30.2113C29.8028 29.9088 29.6705 29.6454 29.438 29.439C29.062 29.1054 28.6094 29.054 28.135 29.0938C28.027 29.1028 28.0038 29.1397 28.0021 29.2507C27.9995 29.4082 27.9968 29.5657 27.9966 29.7232C27.9959 30.2227 27.9959 30.7222 27.9966 31.2217C27.9968 31.3638 27.9983 31.506 28.0025 31.6477C28.007 31.7928 28.0596 31.9157 28.2018 31.9719C28.4258 32.0606 28.6615 32.0711 28.8966 32.0349C29.2722 31.9773 29.5349 31.7585 29.7111 31.4306C29.8506 31.1703 29.89 30.8863 29.9016 30.5942ZM30.8146 32.295C30.8101 32.2172 30.842 32.1528 30.8813 32.0938C30.892 32.0778 30.9288 32.0786 30.9541 32.0735L31.169 32.031C31.2449 32.0148 31.2848 31.9638 31.2955 31.8894C31.3026 31.8403 31.3094 31.7906 31.31 31.7409C31.315 31.3477 31.3187 30.9545 31.321 30.5613C31.3229 30.1676 31.3214 29.7738 31.3214 29.3801L31.3197 29.3049C31.312 29.1783 31.2509 29.1127 31.1253 29.0942L30.8528 29.0527C30.8193 29.0482 30.8071 29.0321 30.8193 29.0023C30.8403 28.9515 30.8603 28.8988 30.89 28.853C30.901 28.8362 30.9383 28.8296 30.9635 28.8302C31.0936 28.832 31.2237 28.8418 31.3538 28.8416L32.4865 28.8348C32.7048 28.8347 32.9155 28.8727 33.1113 28.9772C33.3267 29.0919 33.4473 29.2695 33.4818 29.5113C33.5178 29.7654 33.4407 29.9795 33.2551 30.1496C33.1788 30.2197 33.08 30.2655 32.9915 30.3225L32.9626 30.3405C33.0447 30.3707 33.1229 30.3967 33.199 30.4278C33.4218 30.5192 33.599 30.6618 33.6927 30.8897C33.7668 31.0695 33.7668 31.257 33.7229 31.4433C33.6546 31.7351 33.4625 31.9292 33.2125 32.076C32.978 32.2138 32.7241 32.294 32.4537 32.3075C32.2043 32.3201 31.9538 32.3154 31.7039 32.3182L31.5591 32.319C31.3183 32.3134 31.0774 32.3074 30.8365 32.301L30.8146 32.295ZM31.8528 31.1533H31.8552C31.8552 31.2767 31.8535 31.4 31.8558 31.5234C31.8573 31.6033 31.8545 31.6854 31.8717 31.7623C31.8976 31.8772 31.9501 31.9809 32.0791 32.0139C32.2515 32.0592 32.4317 32.0672 32.6075 32.0372C32.8281 31.9987 33.0042 31.8881 33.1008 31.6779C33.1724 31.5217 33.1831 31.3562 33.1585 31.187C33.1259 30.9643 33.0076 30.8027 32.8109 30.6967C32.6819 30.6272 32.5443 30.5846 32.3976 30.579C32.2334 30.5728 32.069 30.5724 31.9047 30.5673C31.8586 30.566 31.8522 30.5895 31.8524 30.6273C31.8533 30.8025 31.8528 30.9778 31.8528 31.1533ZM32.2025 30.3142C32.2923 30.3097 32.3939 30.3084 32.495 30.2983C32.6885 30.279 32.8248 30.1817 32.8958 29.9966C32.932 29.9027 32.9305 29.8059 32.9315 29.7082C32.9343 29.4538 32.7858 29.2453 32.5441 29.159C32.3575 29.0925 32.1651 29.0913 31.9716 29.0966C31.8933 29.0987 31.8582 29.133 31.8571 29.2119L31.8455 30.2411C31.8449 30.282 31.8625 30.2996 31.9023 30.3009L32.2025 30.3142Z" fill="#F1F1EF"/>
<path fill-rule="evenodd" clip-rule="evenodd" d="M12.5031 32.0972L12.4894 32.2742C12.3619 32.2742 12.2444 32.2732 12.1268 32.2745C11.9054 32.2768 11.6839 32.2803 11.4623 32.2835L11.4409 32.2848C11.4092 32.2811 11.3517 32.2811 11.3502 32.2717C11.3408 32.219 11.3438 32.1637 11.3462 32.1092C11.3464 32.103 11.368 32.0951 11.3806 32.0921L11.5529 32.0537C11.6603 32.0257 11.6982 31.9794 11.7032 31.8684C11.7091 31.7433 11.7149 31.6181 11.7154 31.493C11.7171 31.1852 11.7152 30.8777 11.7166 30.5698C11.7167 30.4978 11.6918 30.4442 11.6247 30.4149C11.5449 30.3795 11.4646 30.3454 11.3837 30.3125C11.3455 30.2972 11.2958 30.2887 11.3003 30.2373C11.3048 30.185 11.353 30.1713 11.3984 30.161C11.5862 30.1181 11.7743 30.0763 11.9616 30.0305C12.022 30.0157 12.0797 29.9908 12.1519 29.9657C12.1557 30.0047 12.1626 30.0418 12.1619 30.0789L12.1508 30.2553C12.1506 30.2752 12.1609 30.3018 12.1757 30.3129C12.1847 30.3198 12.2149 30.3073 12.2299 30.2957C12.3901 30.1738 12.5596 30.0686 12.7529 30.0073C13.0523 29.9122 13.3094 30.0003 13.4894 30.2585C13.5527 30.3495 13.5529 30.3495 13.6409 30.2859C13.7918 30.1762 13.9497 30.0795 14.1263 30.0157C14.5141 29.8757 14.8866 30.0534 15.0214 30.444C15.0706 30.5857 15.0893 30.7322 15.0889 30.8818L15.0854 31.8752C15.0852 31.9571 15.1124 32.0038 15.1904 32.0293C15.2779 32.058 15.3687 32.0777 15.4673 32.1035L15.4444 32.2743C15.3323 32.2743 15.2292 32.2736 15.1261 32.2745C14.8741 32.2768 14.6221 32.2781 14.3702 32.2839C14.3264 32.285 14.3149 32.2742 14.3127 32.2331C14.3054 32.1017 14.3042 32.1018 14.428 32.0722L14.4696 32.0615C14.5906 32.0285 14.6309 31.9914 14.6318 31.8688C14.6346 31.5167 14.6419 31.1636 14.6241 30.8122C14.6056 30.4477 14.3162 30.2537 13.963 30.347C13.849 30.3782 13.7416 30.43 13.6461 30.4997C13.6133 30.5231 13.6071 30.5501 13.6097 30.5912C13.6197 30.7464 13.6259 30.9018 13.6272 31.0573C13.6294 31.3293 13.6261 31.6014 13.6272 31.8737C13.6276 31.9839 13.6652 32.0261 13.7742 32.0516L13.936 32.0889L13.966 32.0957C13.9682 32.1474 13.9703 32.1992 13.9679 32.2509C13.9664 32.2833 13.9412 32.2862 13.9131 32.2856C13.7558 32.2817 13.5983 32.2764 13.441 32.2768C13.2496 32.2772 13.0583 32.2826 12.8671 32.286H12.8221C12.8221 32.231 12.8194 32.1785 12.8239 32.1262C12.8249 32.1137 12.847 32.096 12.8622 32.0921L13.0508 32.0522C13.1309 32.0325 13.1691 31.9914 13.1736 31.91C13.195 31.5332 13.2104 31.1561 13.1749 30.7794C13.1663 30.705 13.1456 30.6325 13.1138 30.5647C13.0172 30.3513 12.7999 30.2623 12.5492 30.3264C12.4302 30.3568 12.3227 30.4113 12.2211 30.4802C12.199 30.4938 12.1808 30.513 12.1683 30.5359C12.1559 30.5587 12.1497 30.5844 12.1502 30.6105C12.1502 30.9864 12.1516 31.3623 12.1527 31.7381L12.1547 31.883C12.157 31.9841 12.1999 32.0373 12.3002 32.0591C12.3647 32.0737 12.43 32.0837 12.5031 32.0972Z" fill="#F1F1EF"/>
<path fill-rule="evenodd" clip-rule="evenodd" d="M23.839 30.0041C23.8681 30.1455 23.8675 30.2726 23.7636 30.369C23.6605 30.4648 23.53 30.4325 23.4027 30.4111C23.4145 30.4783 23.4276 30.5353 23.434 30.593C23.4803 31.0222 23.2956 31.3408 22.8976 31.5228C22.7472 31.5915 22.5876 31.617 22.4247 31.6301C22.3437 31.6365 22.2728 31.6983 22.2651 31.7649C22.2572 31.8324 22.2996 31.9018 22.3844 31.922C22.4843 31.9458 22.5886 31.9526 22.6911 31.9644C22.9112 31.9895 23.1338 32.001 23.3513 32.0403C23.6802 32.0996 23.8637 32.3866 23.8058 32.717C23.7542 33.011 23.584 33.225 23.3466 33.389C22.9467 33.6661 22.5079 33.7471 22.0407 33.6058C21.7735 33.5248 21.5851 33.3491 21.52 33.0648C21.4874 32.9225 21.5221 32.7937 21.6291 32.6971C21.7564 32.5828 21.895 32.4808 22.0283 32.3728L22.0714 32.3295L22.0219 32.2948C21.886 32.2303 21.7772 32.142 21.7351 31.9886C21.7206 31.9366 21.7356 31.9025 21.7797 31.8759C21.8547 31.8307 21.9293 31.7848 22.0034 31.7381C22.0382 31.7163 22.0727 31.6938 22.1052 31.6687C22.1494 31.635 22.1455 31.6098 22.0926 31.5903C21.9696 31.545 21.8603 31.4791 21.7756 31.3779C21.634 31.209 21.5939 31.0078 21.6055 30.7953C21.6237 30.4635 21.8039 30.2448 22.0967 30.1042C22.4449 29.9371 22.7942 29.9266 23.1492 30.0789C23.2804 30.1351 23.4188 30.1471 23.5596 30.1374C23.6648 30.1299 23.7567 30.0901 23.839 30.0041ZM22.5559 32.3818C22.2946 32.3795 22.2126 32.4118 22.0592 32.568C21.8875 32.7431 21.8884 32.9859 22.0598 33.1618C22.1899 33.2951 22.3523 33.3575 22.5329 33.3763C22.7438 33.398 22.9516 33.3892 23.1432 33.2836C23.3476 33.1706 23.4492 32.9606 23.4032 32.7491C23.3652 32.5745 23.2366 32.4946 23.08 32.4487C22.9019 32.3966 22.7177 32.3866 22.5559 32.3818ZM22.0426 30.7115C22.0521 30.7841 22.0561 30.8576 22.0722 30.9286C22.114 31.1128 22.1941 31.2746 22.3772 31.3565C22.5923 31.4531 22.867 31.4116 22.9611 31.1098C23.0254 30.9089 23.0179 30.6919 22.9399 30.4959C22.9069 30.4063 22.8474 30.3289 22.7693 30.2739C22.5826 30.1436 22.2456 30.1263 22.1084 30.4143C22.0637 30.5079 22.0463 30.6075 22.0426 30.7115Z" fill="#F1F1EF"/>
<path fill-rule="evenodd" clip-rule="evenodd" d="M19.4044 29.9578C19.4114 29.9898 19.4252 30.0262 19.4256 30.0628C19.4262 30.1323 19.4187 30.2019 19.4147 30.2715V30.3318L19.4736 30.2868C19.6349 30.1541 19.8081 30.041 20.0099 29.9801C20.374 29.8704 20.7377 30.0697 20.8564 30.4406C20.9014 30.5816 20.9192 30.7265 20.9209 30.8739C20.9247 31.2013 20.9269 31.5287 20.9303 31.856C20.9314 31.9736 20.9449 31.9946 21.0561 32.0285C21.1194 32.0474 21.1839 32.0618 21.2492 32.0715C21.285 32.0771 21.3004 32.0912 21.2985 32.1262L21.2989 32.1585C21.2976 32.294 21.2882 32.3002 21.1568 32.2998C20.8422 32.2993 20.5277 32.3012 20.2131 32.3038C20.1194 32.3045 20.1192 32.3073 20.1098 32.2147L20.1079 32.1615C20.1137 32.0816 20.1156 32.0823 20.1942 32.0707C20.247 32.0628 20.2995 32.0507 20.3511 32.0372C20.4042 32.0235 20.4297 31.9843 20.4368 31.9318C20.4404 31.9052 20.445 31.8785 20.4449 31.8519C20.4404 31.4942 20.4462 31.136 20.4267 30.7788C20.4109 30.4899 20.1904 30.3178 19.9004 30.3375C19.7605 30.3472 19.6261 30.3954 19.512 30.4768C19.4346 30.531 19.419 30.6092 19.4194 30.6933C19.4209 31.0278 19.4241 31.3623 19.4277 31.697C19.4284 31.7703 19.4305 31.8437 19.4374 31.9164C19.4447 31.9959 19.4727 32.028 19.5507 32.0452C19.6253 32.0617 19.7014 32.0713 19.7811 32.0846L19.7879 32.1461C19.7905 32.2895 19.7755 32.3002 19.6362 32.2997C19.3109 32.2983 18.9855 32.3004 18.6604 32.304C18.6092 32.3047 18.5875 32.2886 18.5888 32.2387L18.588 32.2173C18.5796 32.0882 18.5834 32.0833 18.7056 32.0623L18.7634 32.0507C18.8957 32.0208 18.9297 31.9856 18.9315 31.8512C18.9377 31.4253 18.94 30.9997 18.9443 30.5739C18.9449 30.5128 18.9218 30.4653 18.8648 30.44C18.7848 30.405 18.7044 30.371 18.6235 30.338C18.5789 30.3197 18.5279 30.308 18.5262 30.2463C18.525 30.2028 18.5715 30.1644 18.6351 30.1515C18.7628 30.1256 18.8916 30.104 19.0178 30.0723C19.1434 30.041 19.2668 29.999 19.4044 29.9578Z" fill="#F1F1EF"/>
<path fill-rule="evenodd" clip-rule="evenodd" d="M26.4385 31.07C26.4325 31.4677 26.3292 31.7893 26.0479 32.0306C25.6917 32.3368 25.1359 32.4408 24.6816 32.2119C24.4877 32.1142 24.3452 31.9644 24.2524 31.77C24.1101 31.4709 24.0745 31.1565 24.1487 30.8343C24.2222 30.5158 24.4152 30.285 24.7039 30.1355C25.0009 29.982 25.3137 29.922 25.6435 30.0026C26.0607 30.1044 26.3605 30.4445 26.4201 30.8776C26.4308 30.9536 26.4349 31.0305 26.4385 31.07ZM25.9553 31.2855L25.9392 31.2836C25.9392 31.2461 25.9412 31.2086 25.9388 31.1711C25.9251 30.9375 25.8726 30.7149 25.7372 30.5193C25.6088 30.3341 25.4339 30.2248 25.2062 30.2088C24.9514 30.1908 24.7373 30.3333 24.6621 30.5936C24.5492 30.9843 24.5875 31.3651 24.7859 31.7231C24.8723 31.8791 25.0004 31.9942 25.1719 32.0548C25.5081 32.1731 25.8062 32.0199 25.8938 31.6756C25.9261 31.5485 25.9354 31.4156 25.9553 31.2855Z" fill="#F1F1EF"/>
<path fill-rule="evenodd" clip-rule="evenodd" d="M18.1799 31.1008C18.1729 31.3862 18.1056 31.65 17.9294 31.8793C17.7405 32.1249 17.481 32.2562 17.1859 32.3115C16.837 32.3767 16.5092 32.3175 16.2289 32.0833C16.0958 31.9719 16.0049 31.8292 15.9449 31.6668C15.8464 31.4006 15.8219 31.1278 15.8824 30.8497C15.9471 30.5522 16.1151 30.3247 16.3755 30.1721C16.6767 29.996 17.0016 29.9175 17.3487 29.9966C17.7949 30.0986 18.0525 30.3894 18.1478 30.8297C18.1669 30.9185 18.1695 31.0104 18.1799 31.1008ZM17.6912 31.289L17.6783 31.2872V31.2335C17.671 30.9718 17.6198 30.7224 17.4636 30.5049C17.3479 30.3435 17.193 30.2422 16.9945 30.2139C16.6709 30.1678 16.4594 30.3598 16.3892 30.6206C16.2977 30.9613 16.3264 31.2978 16.468 31.6209C16.5563 31.8223 16.6958 31.9792 16.9101 32.0553C17.2442 32.174 17.5469 32.0169 17.6314 31.674C17.6625 31.5485 17.6719 31.4177 17.6912 31.289Z" fill="#F1F1EF"/>
<path fill-rule="evenodd" clip-rule="evenodd" d="M25.9692 16.5526C26.1992 17.2177 26.3646 17.8966 26.4192 18.6001C26.4867 19.4731 26.4559 20.3401 26.2718 21.1987L26.2482 21.2673C26.1904 21.2675 26.1315 21.2602 26.0751 21.269C25.5983 21.344 25.122 21.4216 24.6456 21.4989C24.153 21.5788 23.6601 21.6555 23.1685 21.7406C22.9943 21.7706 22.7787 21.7348 22.7083 21.9755L22.6746 21.987L22.6984 20.5473L22.6742 17.0737L22.9037 17.0343C23.2789 16.973 23.6541 16.9106 24.0298 16.8508C24.478 16.7797 24.9265 16.7103 25.375 16.641C25.573 16.6106 25.7712 16.5823 25.9692 16.5526Z" fill="#F1F1EF"/>
<path fill-rule="evenodd" clip-rule="evenodd" d="M22.201 26.184C21.9589 25.9758 21.7084 25.7769 21.4765 25.5579C20.2281 24.3804 19.3148 22.9942 18.865 21.323C18.7411 20.8633 18.6586 20.3958 18.6319 19.9207C18.6132 19.5881 18.5864 19.2527 18.61 18.9217C18.6724 18.0418 18.7998 17.1703 19.0578 16.3226L19.072 16.3029C19.0971 16.3363 19.1331 16.3659 19.1459 16.4036C19.3979 17.1453 19.6478 17.8878 19.8966 18.6309C20.6783 20.9655 21.4591 23.3006 22.2421 25.6348C22.2574 25.6803 22.297 25.7177 22.3255 25.7587L22.201 26.184Z" fill="#F1F1EF"/>
<path fill-rule="evenodd" clip-rule="evenodd" d="M25.9692 16.5526C25.771 16.5821 25.5728 16.6106 25.375 16.641C24.9265 16.7103 24.478 16.7797 24.0299 16.8508C23.6543 16.9104 23.2791 16.9728 22.9038 17.0343L22.6743 17.0737L22.6724 16.9241C22.6647 16.8011 22.6519 16.6781 22.6503 16.5551L22.6246 14.2012C22.6186 13.7101 22.6096 13.2191 22.5996 12.7282C22.5946 12.4231 22.5858 12.1181 22.5732 11.8132C22.5657 11.6495 22.5393 11.4866 22.5288 11.3229C22.5226 11.2288 22.5308 11.1339 22.5329 11.0394C22.6499 11.2661 22.7644 11.4945 22.8846 11.7195C23.0746 12.0751 23.3774 12.3373 23.6502 12.6232C24.7276 13.754 25.4924 15.068 25.9692 16.5526Z" fill="#F1F1EF"/>
<path fill-rule="evenodd" clip-rule="evenodd" d="M22.6748 21.987L22.7086 21.9755C22.7789 21.7348 22.9945 21.7706 23.1687 21.7406C23.6603 21.6555 24.1532 21.5788 24.6458 21.4989C25.1222 21.4218 25.5985 21.3442 26.0753 21.269C26.1317 21.2602 26.1906 21.2675 26.2484 21.2673C26.1593 21.5853 26.0892 21.9103 25.9761 22.2195C25.8477 22.5701 25.6924 22.9125 25.5276 23.2481C25.2807 23.7486 24.9753 24.218 24.6177 24.6465C24.3428 24.9768 24.0364 25.2827 23.7295 25.5843C23.5596 25.751 23.3597 25.887 23.1734 26.037L23.125 26.004L22.9512 25.8555L22.7714 25.461C22.6485 25.0009 22.5815 24.5278 22.5717 24.0517L22.5751 23.9715L22.5996 23.6238C22.6077 23.5052 22.6186 23.3867 22.6236 23.268C22.6416 22.8412 22.6577 22.4141 22.6748 21.987Z" fill="#F1F1EF"/>
<path fill-rule="evenodd" clip-rule="evenodd" d="M22.6748 21.987C22.6579 22.4141 22.6418 22.8414 22.6236 23.2685C22.6186 23.3874 22.6079 23.5059 22.5996 23.6244L22.4901 23.6659C22.2467 22.9494 22.0032 22.2405 21.7651 21.5299C21.3711 20.354 20.9821 19.1765 20.5887 18.0004C20.271 17.0511 19.9511 16.1026 19.6291 15.1549C19.6139 15.1106 19.5707 15.0757 19.5407 15.0365L20.242 13.7471C20.2662 13.7889 20.2979 13.8281 20.3131 13.8731C20.6374 14.8331 20.9612 15.7933 21.2822 16.7544C21.7 18.005 22.1149 19.2562 22.5323 20.507C22.549 20.5569 22.5764 20.603 22.6026 20.6591L22.6986 20.5473L22.6748 21.987Z" fill="#F1F1EF"/>
<path fill-rule="evenodd" clip-rule="evenodd" d="M19.5406 15.0365C19.5707 15.0757 19.6139 15.1106 19.6289 15.1548C19.951 16.1026 20.2709 17.0511 20.5885 18.0003C20.9819 19.1765 21.3709 20.354 21.7649 21.5298C22.003 22.2405 22.2466 22.9492 22.4899 23.6658L22.5994 23.6244L22.5749 23.972L22.5526 24.0521C22.5145 24.4325 22.4824 24.8137 22.4359 25.1934C22.4127 25.3837 22.363 25.5705 22.3253 25.7587C22.297 25.7177 22.2572 25.6803 22.2419 25.6348C21.4587 23.3006 20.6781 20.9655 19.8964 18.6309C19.6477 17.8879 19.3975 17.1455 19.1457 16.4036C19.1329 16.3659 19.0969 16.3363 19.0718 16.3029L19.5406 15.0365Z" fill="#F1F1EF"/>
<path fill-rule="evenodd" clip-rule="evenodd" d="M22.6984 20.5473L22.6024 20.6591C22.5762 20.603 22.5488 20.5569 22.5321 20.507C22.1147 19.2562 21.6998 18.005 21.282 16.7544C20.9607 15.7934 20.6376 14.833 20.3129 13.8731C20.2977 13.8281 20.266 13.7889 20.2418 13.7471L21.109 12.6063C21.1364 12.6427 21.1754 12.6752 21.1894 12.7162C21.4302 13.4212 21.6687 14.1268 21.906 14.8329C22.1277 15.4925 22.3459 16.1529 22.5702 16.8114C22.5852 16.8555 22.6375 16.8866 22.6724 16.9241L22.6742 17.0737L22.6984 20.5473Z" fill="#F1F1EF"/>
<path fill-rule="evenodd" clip-rule="evenodd" d="M22.6724 16.9241C22.6373 16.8868 22.5852 16.8557 22.5702 16.8114C22.3461 16.1529 22.1277 15.4925 21.906 14.8329C21.6689 14.1268 21.43 13.4212 21.1894 12.7162C21.1754 12.6752 21.1364 12.6427 21.109 12.6063C21.391 12.3302 21.6642 12.044 21.9576 11.7806C22.2184 11.5466 22.428 11.2957 22.4378 10.9258L22.4584 10.8521L22.5327 11.0392C22.5308 11.1337 22.5224 11.2286 22.5285 11.3227C22.5392 11.4864 22.5657 11.6493 22.573 11.813C22.5867 12.1177 22.5932 12.423 22.5994 12.728C22.6094 13.2189 22.6184 13.71 22.6244 14.201L22.65 16.5549C22.6519 16.6781 22.6649 16.8011 22.6724 16.9241Z" fill="#F1F1EF"/>
<path fill-rule="evenodd" clip-rule="evenodd" d="M22.3255 25.7585C22.3632 25.5703 22.4129 25.3835 22.4361 25.1932C22.4826 24.8137 22.5147 24.4323 22.5527 24.0519L22.5623 24.0504L22.5717 24.0521C22.5815 24.5281 22.6485 25.0013 22.7714 25.4613C22.7461 25.4947 22.7106 25.5242 22.6971 25.5617C22.5931 25.8553 22.4948 26.1513 22.3902 26.4448C22.3759 26.4849 22.3358 26.5162 22.3079 26.5513L22.2008 26.1838L22.3255 25.7585Z" fill="#F1F1EF"/>
<path fill-rule="evenodd" clip-rule="evenodd" d="M22.3079 26.5515C22.3358 26.5162 22.376 26.4851 22.3902 26.445C22.4948 26.1515 22.5931 25.8555 22.6971 25.5618C22.7105 25.5243 22.7461 25.4949 22.7714 25.4615L22.9512 25.856C22.9158 25.9063 22.8666 25.9518 22.847 26.0079L22.5027 27.0189C22.4885 27.0596 22.4403 27.0881 22.4076 27.1224L22.3079 26.5515Z" fill="#F1F1EF"/>
<path fill-rule="evenodd" clip-rule="evenodd" d="M22.4076 27.1222C22.4401 27.0879 22.4884 27.0594 22.5027 27.0187L22.8469 26.0077C22.8664 25.9516 22.9157 25.9061 22.9512 25.8558L23.1252 26.0041C23.0412 26.0872 22.9945 26.1832 23.0226 26.3045L22.9697 26.4776C22.9457 26.5072 22.9109 26.5331 22.8991 26.567C22.7789 26.9113 22.6643 27.2574 22.5432 27.6015C22.5278 27.645 22.4852 27.6793 22.4554 27.7179L22.4076 27.1222Z" fill="#F1F1EF"/>
<path fill-rule="evenodd" clip-rule="evenodd" d="M22.4552 27.7177C22.4852 27.6791 22.5278 27.6448 22.543 27.6013C22.6641 27.2572 22.7789 26.9111 22.8989 26.5668C22.9107 26.5329 22.9456 26.5072 22.9696 26.4774L22.8966 27.2717C22.8771 27.2942 22.849 27.3138 22.8396 27.3399L22.597 28.0352C22.5799 28.0826 22.5473 28.125 22.5218 28.1694C22.4991 28.1398 22.4586 28.1111 22.4567 28.0803C22.4496 27.96 22.4547 27.8387 22.4552 27.7177Z" fill="#F1F1EF"/>
<path fill-rule="evenodd" clip-rule="evenodd" d="M22.522 28.1696C22.5475 28.1251 22.5801 28.0828 22.5972 28.0353L22.8398 27.3401C22.8492 27.3138 22.8775 27.2943 22.8968 27.2718L22.8987 27.7931L22.7241 28.2406L22.522 28.1696Z" fill="#F1F1EF"/>
<path fill-rule="evenodd" clip-rule="evenodd" d="M22.7241 28.2407L22.8987 27.7931L22.9347 28.3226L22.7241 28.2407Z" fill="#F1F1EF"/>
<path fill-rule="evenodd" clip-rule="evenodd" d="M23.0224 26.3045C22.9945 26.1834 23.041 26.0874 23.125 26.0042L23.1734 26.0371L23.0224 26.3045Z" fill="#F1F1EF"/>
<path fill-rule="evenodd" clip-rule="evenodd" d="M22.5717 24.0523L22.5623 24.0506L22.5527 24.0521L22.575 23.972L22.5717 24.0523Z" fill="#F1F1EF"/>
<path d="M8.89276 39.5498H9.50116L10.8034 43.6069L12.1022 39.5498H12.7106L11.0392 44.5263H10.5607L8.89276 39.5498ZM8.69452 39.5498H9.22772L9.32001 42.5849V44.5263H8.69452V39.5498ZM12.3723 39.5498H12.9055V44.5263H12.28V42.5849L12.3723 39.5498ZM13.777 42.8549V42.5029C13.777 42.2158 13.8135 41.964 13.8864 41.7475C13.9593 41.5288 14.0607 41.3465 14.1906 41.2007C14.3205 41.0548 14.472 40.9454 14.6452 40.8725C14.8184 40.7973 15.0041 40.7597 15.2023 40.7597C15.4051 40.7597 15.5931 40.7973 15.7663 40.8725C15.9395 40.9454 16.091 41.0548 16.2209 41.2007C16.353 41.3465 16.4556 41.5288 16.5285 41.7475C16.6014 41.964 16.6379 42.2158 16.6379 42.5029V42.8549C16.6379 43.1421 16.6014 43.395 16.5285 43.6137C16.4556 43.8302 16.3542 44.0114 16.2243 44.1572C16.0944 44.303 15.9429 44.4124 15.7697 44.4853C15.5965 44.5582 15.4097 44.5947 15.2092 44.5947C15.0086 44.5947 14.8218 44.5582 14.6486 44.4853C14.4754 44.4124 14.3228 44.303 14.1906 44.1572C14.0607 44.0114 13.9593 43.8302 13.8864 43.6137C13.8135 43.395 13.777 43.1421 13.777 42.8549ZM14.382 42.5029V42.8549C14.382 43.0577 14.4025 43.2355 14.4435 43.3882C14.4846 43.5408 14.5427 43.6684 14.6179 43.771C14.6931 43.8735 14.7808 43.951 14.881 44.0034C14.9813 44.0535 15.0907 44.0786 15.2092 44.0786C15.3459 44.0786 15.4655 44.0535 15.5681 44.0034C15.6729 43.951 15.7595 43.8735 15.8278 43.771C15.8962 43.6684 15.9474 43.5408 15.9816 43.3882C16.0158 43.2355 16.0329 43.0577 16.0329 42.8549V42.5029C16.0329 42.3001 16.0124 42.1235 15.9714 41.9731C15.9304 41.8204 15.8723 41.6928 15.7971 41.5903C15.7219 41.4855 15.633 41.408 15.5305 41.3579C15.4302 41.3055 15.3208 41.2793 15.2023 41.2793C15.0861 41.2793 14.9779 41.3055 14.8776 41.3579C14.7774 41.408 14.6896 41.4855 14.6144 41.5903C14.5415 41.6928 14.4846 41.8204 14.4435 41.9731C14.4025 42.1235 14.382 42.3001 14.382 42.5029ZM18.0222 41.6176V44.5263H17.4172V40.8281H17.988L18.0222 41.6176ZM17.8752 42.5371L17.6291 42.5268C17.6268 42.2739 17.6553 42.0403 17.7145 41.8261C17.7761 41.6097 17.8627 41.4217 17.9743 41.2622C18.0882 41.1027 18.2238 40.9796 18.381 40.893C18.5383 40.8042 18.7126 40.7597 18.904 40.7597C19.0544 40.7597 19.1911 40.7848 19.3141 40.8349C19.4372 40.8828 19.542 40.9603 19.6286 41.0674C19.7152 41.1744 19.7813 41.3134 19.8268 41.4843C19.8747 41.653 19.8986 41.8592 19.8986 42.103V44.5263H19.2936V42.0962C19.2936 41.9025 19.272 41.7475 19.2287 41.6313C19.1877 41.5128 19.1239 41.4274 19.0373 41.375C18.953 41.3203 18.8459 41.2929 18.716 41.2929C18.5975 41.2929 18.487 41.326 18.3845 41.3921C18.2819 41.4581 18.1919 41.5493 18.1144 41.6655C18.0392 41.7817 17.98 41.915 17.9367 42.0654C17.8957 42.2135 17.8752 42.3707 17.8752 42.5371ZM22.8107 40.8281H23.3542V44.5571C23.3542 44.8829 23.2972 45.1518 23.1833 45.3637C23.0716 45.5757 22.9155 45.7317 22.715 45.832C22.5145 45.9345 22.2832 45.9858 22.0212 45.9858C21.9278 45.9858 21.8104 45.9687 21.6691 45.9345C21.5279 45.9004 21.3866 45.848 21.2453 45.7773C21.104 45.709 20.9878 45.6224 20.8967 45.5175L21.1462 45.0971C21.2761 45.2293 21.4139 45.3239 21.5598 45.3808C21.7056 45.4378 21.8446 45.4663 21.9767 45.4663C22.134 45.4663 22.2707 45.4378 22.3869 45.3808C22.5031 45.3239 22.5931 45.2304 22.6569 45.1006C22.7207 44.973 22.7526 44.8021 22.7526 44.5879V41.6416L22.8107 40.8281ZM20.6848 42.8549V42.5097C20.6848 42.2044 20.7132 41.9424 20.7702 41.7236C20.8272 41.5026 20.9092 41.3214 21.0163 41.1801C21.1257 41.0366 21.2567 40.9306 21.4094 40.8623C21.562 40.7939 21.7329 40.7597 21.9221 40.7597C22.1135 40.7597 22.2787 40.7985 22.4177 40.8759C22.5567 40.9534 22.6717 41.0662 22.7629 41.2143C22.8563 41.3602 22.9292 41.5379 22.9816 41.7475C23.0363 41.9549 23.0739 42.1896 23.0944 42.4516V42.9131C23.0739 43.1728 23.0363 43.4064 22.9816 43.6137C22.9292 43.8211 22.8552 43.9977 22.7595 44.1435C22.666 44.2894 22.5498 44.401 22.4108 44.4785C22.2718 44.556 22.1066 44.5947 21.9152 44.5947C21.7284 44.5947 21.5598 44.5594 21.4094 44.4887C21.259 44.4158 21.1291 44.3076 21.0197 44.164C20.9126 44.0182 20.8294 43.837 20.7702 43.6206C20.7132 43.4018 20.6848 43.1466 20.6848 42.8549ZM21.2897 42.5097V42.8549C21.2897 43.06 21.3045 43.2389 21.3342 43.3916C21.3638 43.542 21.4094 43.6673 21.4709 43.7675C21.5347 43.8655 21.6156 43.9384 21.7136 43.9863C21.8138 44.0341 21.9335 44.0581 22.0724 44.0581C22.2411 44.0581 22.3789 44.0171 22.486 43.935C22.5931 43.853 22.6786 43.7448 22.7424 43.6103C22.8085 43.4736 22.8609 43.3266 22.8996 43.1694V42.1987C22.8768 42.0825 22.8438 41.9708 22.8005 41.8637C22.7595 41.7544 22.7059 41.6575 22.6398 41.5732C22.5738 41.4866 22.494 41.4183 22.4006 41.3681C22.3094 41.318 22.2023 41.2929 22.0793 41.2929C21.9403 41.2929 21.8207 41.318 21.7204 41.3681C21.6201 41.4183 21.5381 41.4935 21.4743 41.5937C21.4105 41.694 21.3638 41.8204 21.3342 41.9731C21.3045 42.1258 21.2897 42.3047 21.2897 42.5097ZM24.1335 42.8549V42.5029C24.1335 42.2158 24.1699 41.964 24.2429 41.7475C24.3158 41.5288 24.4172 41.3465 24.5471 41.2007C24.6769 41.0548 24.8285 40.9454 25.0016 40.8725C25.1748 40.7973 25.3605 40.7597 25.5588 40.7597C25.7616 40.7597 25.9496 40.7973 26.1227 40.8725C26.2959 40.9454 26.4474 41.0548 26.5773 41.2007C26.7095 41.3465 26.812 41.5288 26.8849 41.7475C26.9579 41.964 26.9943 42.2158 26.9943 42.5029V42.8549C26.9943 43.1421 26.9579 43.395 26.8849 43.6137C26.812 43.8302 26.7106 44.0114 26.5807 44.1572C26.4509 44.303 26.2993 44.4124 26.1262 44.4853C25.953 44.5582 25.7661 44.5947 25.5656 44.5947C25.3651 44.5947 25.1782 44.5582 25.0051 44.4853C24.8319 44.4124 24.6792 44.303 24.5471 44.1572C24.4172 44.0114 24.3158 43.8302 24.2429 43.6137C24.1699 43.395 24.1335 43.1421 24.1335 42.8549ZM24.7385 42.5029V42.8549C24.7385 43.0577 24.759 43.2355 24.8 43.3882C24.841 43.5408 24.8991 43.6684 24.9743 43.771C25.0495 43.8735 25.1372 43.951 25.2375 44.0034C25.3377 44.0535 25.4471 44.0786 25.5656 44.0786C25.7023 44.0786 25.822 44.0535 25.9245 44.0034C26.0293 43.951 26.1159 43.8735 26.1843 43.771C26.2526 43.6684 26.3039 43.5408 26.3381 43.3882C26.3723 43.2355 26.3893 43.0577 26.3893 42.8549V42.5029C26.3893 42.3001 26.3688 42.1235 26.3278 41.9731C26.2868 41.8204 26.2287 41.6928 26.1535 41.5903C26.0783 41.4855 25.9894 41.408 25.8869 41.3579C25.7866 41.3055 25.6773 41.2793 25.5588 41.2793C25.4426 41.2793 25.3343 41.3055 25.2341 41.3579C25.1338 41.408 25.0461 41.4855 24.9709 41.5903C24.898 41.6928 24.841 41.8204 24.8 41.9731C24.759 42.1235 24.7385 42.3001 24.7385 42.5029ZM30.59 44.5263H29.7424L29.7492 43.9897H30.59C30.8885 43.9897 31.1312 43.9327 31.3181 43.8188C31.5049 43.7026 31.6428 43.5317 31.7316 43.3061C31.8205 43.0783 31.8649 42.7968 31.8649 42.4619V41.6108C31.8649 41.3465 31.8399 41.1186 31.7897 40.9272C31.7396 40.7358 31.6644 40.5786 31.5641 40.4555C31.4639 40.3325 31.3374 40.2413 31.1848 40.1821C31.0321 40.1206 30.8532 40.0898 30.6481 40.0898H29.7253V39.5498H30.6481C30.9284 39.5498 31.1813 39.5942 31.4069 39.6831C31.6325 39.7697 31.8262 39.9007 31.988 40.0761C32.1498 40.2493 32.2728 40.4647 32.3571 40.7221C32.4437 40.9796 32.487 41.2781 32.487 41.6176V42.4619C32.487 42.8014 32.4437 43.0999 32.3571 43.3574C32.2728 43.6149 32.1486 43.8302 31.9846 44.0034C31.8205 44.1766 31.6211 44.3076 31.3864 44.3965C31.154 44.483 30.8885 44.5263 30.59 44.5263ZM30.091 39.5498V44.5263H29.4621V39.5498H30.091ZM34.9684 42.1987H33.9567L33.9499 41.6689H34.8898C35.0311 41.6689 35.1564 41.637 35.2658 41.5732C35.3752 41.5094 35.4606 41.4183 35.5222 41.2998C35.586 41.179 35.6179 41.0355 35.6179 40.8691C35.6179 40.6868 35.5905 40.5387 35.5358 40.4248C35.4834 40.3086 35.4025 40.2243 35.2932 40.1718C35.1861 40.1172 35.0493 40.0898 34.883 40.0898H34.09V44.5263H33.4611V39.5498H34.883C35.0972 39.5498 35.2886 39.576 35.4572 39.6284C35.6258 39.6785 35.7682 39.7583 35.8845 39.8676C36.003 39.9747 36.093 40.1115 36.1545 40.2778C36.216 40.4441 36.2468 40.6435 36.2468 40.8759C36.2468 41.081 36.2001 41.2667 36.1066 41.4331C36.0155 41.5971 35.8879 41.7316 35.7238 41.8364C35.5598 41.9412 35.3706 42.0084 35.1564 42.0381L34.9684 42.1987ZM34.9445 44.5263H33.697L34.0627 43.9897H34.9445C35.1086 43.9897 35.2476 43.9533 35.3615 43.8803C35.4754 43.8074 35.562 43.7049 35.6213 43.5727C35.6828 43.4383 35.7136 43.2799 35.7136 43.0976C35.7136 42.9131 35.6885 42.7536 35.6384 42.6191C35.5882 42.4847 35.5085 42.381 35.3991 42.3081C35.2897 42.2352 35.1462 42.1987 34.9684 42.1987H34.1584L34.1652 41.6689H35.259L35.3991 41.8603C35.6042 41.8808 35.7762 41.9492 35.9152 42.0654C36.0565 42.1793 36.1625 42.3252 36.2331 42.5029C36.306 42.6806 36.3425 42.8766 36.3425 43.0908C36.3425 43.4007 36.2844 43.6627 36.1682 43.8769C36.0542 44.0888 35.8924 44.2506 35.6828 44.3623C35.4732 44.4716 35.2271 44.5263 34.9445 44.5263Z" fill="#252323"/>
<defs>
<filter id="filter0_d_401_425" x="0.754768" y="0.278709" width="43.7135" height="43.7135" filterUnits="userSpaceOnUse" color-interpolation-filters="sRGB">
<feFlood flood-opacity="0" result="BackgroundImageFix"/>
<feColorMatrix in="SourceAlpha" type="matrix" values="0 0 0 0 0 0 0 0 0 0 0 0 0 0 0 0 0 0 127 0" result="hardAlpha"/>
<feOffset dy="0.672515"/>
<feGaussianBlur stdDeviation="3.36258"/>
<feComposite in2="hardAlpha" operator="out"/>
<feColorMatrix type="matrix" values="0 0 0 0 0.0367917 0 0 0 0 0.0348958 0 0 0 0 0.0484375 0 0 0 0.1 0"/>
<feBlend mode="normal" in2="BackgroundImageFix" result="effect1_dropShadow_401_425"/>
<feBlend mode="normal" in="SourceGraphic" in2="effect1_dropShadow_401_425" result="shape"/>
</filter>
</defs>
</svg>
