<svg width="31" height="41" viewBox="0 0 31 41" fill="none" xmlns="http://www.w3.org/2000/svg">
<path d="M5.3591 2.43926e-06H24.9041C25.608 -0.000678055 26.3052 0.141029 26.9557 0.417014C27.6062 0.692998 28.1972 1.09784 28.695 1.60838C29.1928 2.11891 29.5875 2.72511 29.8566 3.39229C30.1257 4.05946 30.2638 4.77451 30.2632 5.49652V24.7666C30.2638 25.4886 30.1257 26.2037 29.8566 26.8709C29.5875 27.538 29.1928 28.1442 28.695 28.6548C28.1972 29.1653 27.6062 29.5702 26.9557 29.8461C26.3052 30.1221 25.608 30.2638 24.9041 30.2632H5.3591C4.65515 30.2638 3.95797 30.1221 3.30748 29.8461C2.65698 29.5702 2.06594 29.1653 1.56817 28.6548C1.0704 28.1442 0.675673 27.538 0.406588 26.8709C0.137503 26.2037 -0.000661103 25.4886 2.37828e-06 24.7666V5.49652C-0.000661103 4.77451 0.137503 4.05946 0.406588 3.39229C0.675673 2.72511 1.0704 2.11891 1.56817 1.60838C2.06594 1.09784 2.65698 0.692998 3.30748 0.417014C3.95797 0.141029 4.65515 -0.000678055 5.3591 2.43926e-06V2.43926e-06Z" fill="#252323"/>
<path d="M19.8041 23.7015C19.7299 23.7408 19.7361 23.7532 19.8072 23.7171C19.8302 23.7077 19.8496 23.6946 19.8664 23.679C19.8664 23.666 19.8664 23.666 19.8041 23.7015ZM19.9537 23.6205C19.9181 23.6498 19.9181 23.6498 19.9605 23.6304C19.983 23.6173 20.0029 23.6049 20.0029 23.6011C20.0029 23.5843 19.9929 23.588 19.9537 23.6205ZM20.0509 23.5619C20.0154 23.5912 20.0154 23.5912 20.0578 23.5718C20.0808 23.5587 20.1001 23.545 20.1001 23.5419C20.1001 23.5263 20.0902 23.5294 20.0509 23.5619ZM20.1494 23.5039C20.1139 23.5332 20.1139 23.5332 20.155 23.5132C20.1781 23.5008 20.1974 23.4877 20.1974 23.4839C20.1974 23.4684 20.1874 23.4715 20.1494 23.5039ZM20.2822 23.416C20.2142 23.4615 20.1905 23.4908 20.2529 23.4584C20.2946 23.4328 20.3657 23.3767 20.3532 23.3767C20.3264 23.3867 20.304 23.4035 20.2815 23.416H20.2822ZM14.321 5.00458C14.2755 5.0077 14.139 5.02017 14.0193 5.03014C11.1843 5.28696 8.53193 6.81293 6.85074 9.16361C5.92132 10.4521 5.31791 11.9488 5.09039 13.5202C5.00997 14.0688 5 14.2309 5 14.9745C5 15.7176 5.00997 15.8771 5.09039 16.4257C5.63333 20.1727 8.29879 23.3181 11.9118 24.4838C12.5619 24.6914 13.2432 24.8347 14.0193 24.9226C14.321 24.9551 15.6257 24.9551 15.9274 24.9226C17.2689 24.773 18.4015 24.442 19.5223 23.8704C19.6943 23.7831 19.7268 23.7601 19.7037 23.7408C19.1551 23.017 18.6166 22.2927 18.0774 21.5621L16.4834 19.4097L14.4868 16.4519C13.8211 15.462 13.1529 14.4746 12.474 13.4947C12.4672 13.4947 12.4584 14.8093 12.4547 16.4126C12.4478 19.2208 12.4478 19.3349 12.4123 19.3997C12.3768 19.4776 12.3182 19.5425 12.2403 19.5786C12.1786 19.6079 12.1231 19.6142 11.8282 19.6142H11.491L11.4031 19.5593C11.3482 19.5238 11.3027 19.4745 11.2734 19.4165L11.2311 19.3287L11.2342 15.4196L11.241 11.5105L11.3027 11.4326C11.342 11.3846 11.3906 11.3453 11.4455 11.3161C11.5271 11.2768 11.5596 11.2705 11.8968 11.2705C12.2926 11.2705 12.3581 11.2861 12.4622 11.4002C13.27 12.6045 14.0754 13.812 14.8677 15.0231C16.1637 16.988 17.9327 19.669 18.8023 20.9843L20.3838 23.3773L20.4617 23.3256C21.2216 22.8188 21.9129 22.2154 22.5094 21.5272C23.7661 20.0885 24.5814 18.3188 24.8576 16.4301C24.938 15.8815 24.948 15.7188 24.948 14.9758C24.948 14.2321 24.938 14.0731 24.8576 13.5246C24.3147 9.77761 21.6492 6.63216 18.0362 5.46586C17.3605 5.25205 16.6655 5.10619 15.9617 5.03139C15.7728 5.01206 14.4837 4.989 14.3216 5.00583L14.321 5.00458ZM18.4021 11.0368C18.4963 11.0817 18.5673 11.1664 18.5997 11.2637C18.6166 11.3161 18.6197 12.4001 18.6166 14.8417L18.6097 18.3475L17.9932 17.4L17.373 16.4519V13.9067C17.373 12.2567 17.3798 11.3316 17.3886 11.2861C17.4179 11.182 17.4889 11.0948 17.5837 11.0399C17.661 11.0006 17.6909 10.9975 17.9994 10.9975C18.2881 10.9975 18.3373 11.0006 18.4021 11.0368Z" fill="white"/>
<path d="M8.42212 33.2866V38.2632H7.78979L5.79712 34.4248V38.2632H5.16821V33.2866H5.79712L7.80005 37.1352V33.2866H8.42212ZM10.7498 38.3315C10.5287 38.3315 10.3293 38.2985 10.1516 38.2324C9.97388 38.1663 9.82235 38.0661 9.69702 37.9316C9.5717 37.7949 9.47599 37.6229 9.40991 37.4155C9.34383 37.2081 9.31079 36.9632 9.31079 36.6806V36.2636C9.31079 35.9378 9.34839 35.6621 9.42358 35.4365C9.50106 35.2109 9.60474 35.0298 9.73462 34.893C9.8645 34.754 10.0115 34.6538 10.1755 34.5923C10.3396 34.5285 10.5082 34.4966 10.6814 34.4966C10.9138 34.4966 11.1121 34.5341 11.2761 34.6093C11.4402 34.6845 11.5735 34.7962 11.676 34.9443C11.7786 35.0924 11.8538 35.2747 11.9016 35.4912C11.9517 35.7077 11.9768 35.9572 11.9768 36.2397V36.5918H9.66626V36.0757H11.3718V35.9902C11.3627 35.7988 11.3365 35.6302 11.2932 35.4843C11.2522 35.3385 11.1838 35.2246 11.0881 35.1425C10.9924 35.0582 10.8569 35.0161 10.6814 35.0161C10.5697 35.0161 10.4661 35.0355 10.3704 35.0742C10.2769 35.1106 10.196 35.1756 10.1277 35.269C10.0616 35.3602 10.0092 35.4866 9.97046 35.6484C9.934 35.8102 9.91577 36.0153 9.91577 36.2636V36.6806C9.91577 36.8789 9.934 37.0498 9.97046 37.1933C10.0092 37.3346 10.065 37.452 10.1379 37.5454C10.2131 37.6365 10.3043 37.7049 10.4114 37.7505C10.5208 37.7938 10.6449 37.8154 10.7839 37.8154C10.9867 37.8154 11.1542 37.7767 11.2864 37.6992C11.4185 37.6194 11.5336 37.518 11.6316 37.395L11.9495 37.7744C11.8834 37.8678 11.7968 37.9578 11.6897 38.0444C11.5849 38.1287 11.455 38.1982 11.3 38.2529C11.1474 38.3053 10.9639 38.3315 10.7498 38.3315ZM13.1526 34.5649L13.7747 35.9116L14.407 34.5649H15.1077L14.1062 36.3901L15.135 38.2632H14.4412L13.7883 36.8755L13.1321 38.2632H12.4348L13.4636 36.3901L12.4622 34.5649H13.1526ZM17.1345 34.5649V35.0503H15.4084V34.5649H17.1345ZM15.9724 33.666H16.5774V37.3471C16.5774 37.4725 16.5922 37.567 16.6218 37.6308C16.6537 37.6946 16.6936 37.7368 16.7415 37.7573C16.7893 37.7778 16.8406 37.7881 16.8953 37.7881C16.9363 37.7881 16.9819 37.7835 17.032 37.7744C17.0821 37.763 17.1163 37.7539 17.1345 37.747L17.1311 38.2632C17.0901 38.2791 17.0354 38.2939 16.967 38.3076C16.8987 38.3235 16.8121 38.3315 16.7073 38.3315C16.5774 38.3315 16.4566 38.3008 16.345 38.2392C16.2333 38.1777 16.1433 38.0752 16.075 37.9316C16.0066 37.7858 15.9724 37.5898 15.9724 37.3437V33.666ZM21.2634 36.8105V33.2866H21.8889V36.8105C21.8889 37.1386 21.8319 37.4155 21.718 37.6411C21.6041 37.8667 21.4457 38.0387 21.2429 38.1572C21.0424 38.2734 20.8111 38.3315 20.5491 38.3315C20.2916 38.3315 20.0614 38.2791 19.8586 38.1743C19.6558 38.0695 19.4963 37.91 19.3801 37.6958C19.2662 37.4816 19.2092 37.2116 19.2092 36.8857H19.8381C19.8381 37.0953 19.8689 37.2674 19.9304 37.4018C19.9942 37.5363 20.0797 37.6354 20.1868 37.6992C20.2939 37.763 20.4146 37.7949 20.5491 37.7949C20.6858 37.7949 20.8077 37.7584 20.9148 37.6855C21.0219 37.6103 21.1062 37.4998 21.1677 37.354C21.2315 37.2059 21.2634 37.0247 21.2634 36.8105ZM24.6404 37.3164C24.6404 37.223 24.6176 37.1409 24.572 37.0703C24.5264 36.9996 24.4513 36.9313 24.3464 36.8652C24.2439 36.7991 24.1049 36.7285 23.9294 36.6533C23.7585 36.5827 23.6047 36.5132 23.468 36.4448C23.3336 36.3742 23.2196 36.2978 23.1262 36.2158C23.0328 36.1338 22.961 36.0392 22.9109 35.9321C22.863 35.8227 22.8391 35.694 22.8391 35.5459C22.8391 35.3978 22.8665 35.261 22.9211 35.1357C22.9781 35.0081 23.0579 34.8965 23.1604 34.8008C23.2629 34.705 23.386 34.631 23.5295 34.5786C23.6731 34.5239 23.8337 34.4966 24.0115 34.4966C24.2644 34.4966 24.4797 34.5455 24.6575 34.6435C24.8352 34.7415 24.9708 34.8759 25.0642 35.0468C25.1599 35.2155 25.2078 35.4057 25.2078 35.6176H24.6062C24.6062 35.5151 24.5834 35.4183 24.5378 35.3271C24.4923 35.236 24.425 35.1619 24.3362 35.1049C24.2473 35.0457 24.1391 35.0161 24.0115 35.0161C23.877 35.0161 23.7677 35.04 23.6833 35.0879C23.599 35.1357 23.5375 35.1984 23.4988 35.2758C23.4623 35.351 23.4441 35.4342 23.4441 35.5254C23.4441 35.5937 23.4532 35.653 23.4714 35.7031C23.4919 35.7509 23.5261 35.7965 23.574 35.8398C23.6218 35.8808 23.6868 35.9241 23.7688 35.9697C23.8531 36.013 23.9602 36.0631 24.0901 36.1201C24.3407 36.2181 24.5515 36.3172 24.7224 36.4174C24.8933 36.5177 25.0232 36.6351 25.1121 36.7695C25.2009 36.9039 25.2454 37.0703 25.2454 37.2685C25.2454 37.4303 25.2157 37.5773 25.1565 37.7094C25.0995 37.8393 25.0175 37.951 24.9104 38.0444C24.8033 38.1378 24.6746 38.2096 24.5242 38.2597C24.3761 38.3076 24.2097 38.3315 24.0251 38.3315C23.7472 38.3315 23.5113 38.2768 23.3176 38.1674C23.1262 38.0558 22.9804 37.9111 22.8801 37.7334C22.7821 37.5534 22.7332 37.3608 22.7332 37.1557H23.3381C23.345 37.3289 23.3837 37.4633 23.4543 37.5591C23.5273 37.6548 23.615 37.7208 23.7175 37.7573C23.8201 37.7938 23.9226 37.812 24.0251 37.812C24.1596 37.812 24.2724 37.7926 24.3635 37.7539C24.4547 37.7129 24.523 37.6548 24.5686 37.5796C24.6165 37.5044 24.6404 37.4166 24.6404 37.3164Z" fill="#252323"/>
</svg>
