<svg width="31" height="31" viewBox="0 0 31 31" fill="none" xmlns="http://www.w3.org/2000/svg">
<path d="M5.3591 2.43926e-06H24.9041C25.608 -0.000678055 26.3052 0.141029 26.9557 0.417014C27.6062 0.692998 28.1972 1.09784 28.695 1.60838C29.1928 2.11891 29.5875 2.72511 29.8566 3.39229C30.1257 4.05946 30.2638 4.77451 30.2632 5.49652V24.7666C30.2638 25.4886 30.1257 26.2037 29.8566 26.8709C29.5875 27.538 29.1928 28.1442 28.695 28.6548C28.1972 29.1653 27.6062 29.5702 26.9557 29.8461C26.3052 30.1221 25.608 30.2638 24.9041 30.2632H5.3591C4.65515 30.2638 3.95797 30.1221 3.30748 29.8461C2.65698 29.5702 2.06594 29.1653 1.56817 28.6548C1.0704 28.1442 0.675673 27.538 0.406588 26.8709C0.137503 26.2037 -0.000661103 25.4886 2.37828e-06 24.7666V5.49652C-0.000661103 4.77451 0.137503 4.05946 0.406588 3.39229C0.675673 2.72511 1.0704 2.11891 1.56817 1.60838C2.06594 1.09784 2.65698 0.692998 3.30748 0.417014C3.95797 0.141029 4.65515 -0.000678055 5.3591 2.43926e-06Z" fill="#252323"/>
<path d="M19.8041 23.7015C19.7299 23.7408 19.7361 23.7532 19.8072 23.7171C19.8302 23.7077 19.8496 23.6946 19.8664 23.679C19.8664 23.666 19.8664 23.666 19.8041 23.7015ZM19.9537 23.6205C19.9181 23.6497 19.9181 23.6497 19.9605 23.6304C19.983 23.6173 20.0029 23.6049 20.0029 23.6011C20.0029 23.5843 19.9929 23.588 19.9537 23.6205ZM20.0509 23.5619C20.0154 23.5912 20.0154 23.5912 20.0578 23.5718C20.0808 23.5587 20.1002 23.545 20.1002 23.5419C20.1002 23.5263 20.0902 23.5294 20.0509 23.5619ZM20.1494 23.5039C20.1139 23.5332 20.1139 23.5332 20.155 23.5132C20.1781 23.5008 20.1974 23.4877 20.1974 23.4839C20.1974 23.4684 20.1874 23.4715 20.1494 23.5039ZM20.2822 23.416C20.2142 23.4615 20.1905 23.4908 20.2529 23.4584C20.2946 23.4328 20.3657 23.3767 20.3532 23.3767C20.3264 23.3867 20.304 23.4035 20.2815 23.416H20.2822ZM14.321 5.00458C14.2755 5.0077 14.139 5.02017 14.0193 5.03014C11.1843 5.28696 8.53193 6.81293 6.85074 9.16361C5.92132 10.4521 5.31791 11.9488 5.09039 13.5202C5.00997 14.0688 5 14.2309 5 14.9745C5 15.7176 5.00997 15.8771 5.09039 16.4257C5.63333 20.1727 8.29879 23.3181 11.9118 24.4838C12.5619 24.6914 13.2432 24.8347 14.0193 24.9226C14.321 24.9551 15.6257 24.9551 15.9274 24.9226C17.2689 24.773 18.4015 24.442 19.5223 23.8704C19.6943 23.7831 19.7268 23.7601 19.7037 23.7408C19.1551 23.017 18.6166 22.2927 18.0774 21.5621L16.4834 19.4097L14.4868 16.4519C13.8211 15.462 13.1529 14.4746 12.474 13.4947C12.4672 13.4947 12.4584 14.8093 12.4547 16.4126C12.4478 19.2208 12.4478 19.3349 12.4123 19.3997C12.3768 19.4776 12.3182 19.5425 12.2403 19.5786C12.1786 19.6079 12.1231 19.6142 11.8282 19.6142H11.491L11.4031 19.5593C11.3482 19.5238 11.3027 19.4745 11.2734 19.4165L11.2311 19.3287L11.2342 15.4196L11.241 11.5105L11.3027 11.4326C11.342 11.3846 11.3906 11.3453 11.4455 11.3161C11.5271 11.2768 11.5596 11.2705 11.8968 11.2705C12.2926 11.2705 12.3581 11.2861 12.4622 11.4002C13.27 12.6045 14.0754 13.812 14.8677 15.0231C16.1637 16.988 17.9327 19.669 18.8023 20.9843L20.3838 23.3773L20.4617 23.3256C21.2216 22.8188 21.9129 22.2154 22.5094 21.5272C23.7661 20.0885 24.5814 18.3188 24.8576 16.4301C24.938 15.8815 24.948 15.7188 24.948 14.9758C24.948 14.2321 24.938 14.0731 24.8576 13.5246C24.3147 9.77761 21.6492 6.63216 18.0362 5.46586C17.3605 5.25205 16.6655 5.10619 15.9617 5.03139C15.7728 5.01206 14.4837 4.989 14.3216 5.00583L14.321 5.00458ZM18.4021 11.0368C18.4963 11.0817 18.5673 11.1664 18.5997 11.2637C18.6166 11.3161 18.6197 12.4001 18.6166 14.8417L18.6097 18.3475L17.9932 17.4L17.373 16.4519V13.9067C17.373 12.2567 17.3798 11.3316 17.3886 11.2861C17.4179 11.182 17.4889 11.0948 17.5837 11.0399C17.661 11.0006 17.6909 10.9975 17.9994 10.9975C18.2881 10.9975 18.3373 11.0006 18.4021 11.0368Z" fill="white"/>
</svg>
