<svg width="31" height="31" viewBox="0 0 31 31" fill="none" xmlns="http://www.w3.org/2000/svg">
<path d="M5.3591 0.263186H24.9041C25.608 0.262506 26.3052 0.404213 26.9557 0.680197C27.6062 0.956182 28.1972 1.36103 28.695 1.87156C29.1928 2.38209 29.5875 2.98829 29.8566 3.65547C30.1257 4.32264 30.2638 5.03769 30.2632 5.7597V25.0298C30.2638 25.7518 30.1257 26.4669 29.8566 27.1341C29.5875 27.8012 29.1928 28.4074 28.695 28.918C28.1972 29.4285 27.6062 29.8333 26.9557 30.1093C26.3052 30.3853 25.608 30.527 24.9041 30.5263H5.3591C4.65515 30.527 3.95797 30.3853 3.30748 30.1093C2.65698 29.8333 2.06594 29.4285 1.56817 28.918C1.0704 28.4074 0.675673 27.8012 0.406588 27.1341C0.137503 26.4669 -0.000661103 25.7518 2.37828e-06 25.0298V5.7597C-0.000661103 5.03769 0.137503 4.32264 0.406588 3.65547C0.675673 2.98829 1.0704 2.38209 1.56817 1.87156C2.06594 1.36103 2.65698 0.956182 3.30748 0.680197C3.95797 0.404213 4.65515 0.262506 5.3591 0.263186Z" fill="#252323"/>
<path d="M27.866 14.9599C27.9489 14.9111 28 14.822 28 14.7252V14.0972C28 14.0006 27.9492 13.9115 27.866 13.8627L25.6515 12.5673C25.6105 12.5433 25.564 12.5306 25.5166 12.5305C25.4693 12.5304 25.4227 12.5429 25.3817 12.5667L23.1534 13.863C23.1125 13.8868 23.0786 13.921 23.055 13.9622C23.0313 14.0034 23.0189 14.0501 23.0189 14.0977V16.6896C23.0189 16.787 23.0707 16.8772 23.1549 16.9255L25.3692 18.1966C25.4508 18.2438 25.5509 18.2441 25.6332 18.1982L26.9724 17.4481C26.9933 17.4364 27.0107 17.4194 27.0228 17.3987C27.035 17.3781 27.0415 17.3545 27.0417 17.3305C27.0418 17.3065 27.0356 17.2828 27.0238 17.262C27.0119 17.2412 26.9947 17.2239 26.974 17.212L24.7319 15.9155C24.7114 15.9037 24.6943 15.8866 24.6824 15.866C24.6705 15.8454 24.6642 15.8219 24.6641 15.7981V14.9855C24.6641 14.937 24.6898 14.8924 24.7314 14.8684L25.4296 14.4629C25.45 14.451 25.4731 14.4447 25.4967 14.4447C25.5203 14.4447 25.5435 14.451 25.5638 14.4629L26.262 14.8684C26.2825 14.8802 26.2995 14.8973 26.3114 14.9178C26.3232 14.9384 26.3295 14.9617 26.3296 14.9855V15.6247C26.3294 15.6486 26.3356 15.6721 26.3474 15.6928C26.3592 15.7136 26.3762 15.7308 26.3968 15.7427C26.4174 15.7546 26.4407 15.7608 26.4644 15.7607C26.4881 15.7606 26.5114 15.7542 26.5318 15.7421L27.866 14.9599ZM25.4836 14.8383C25.4915 14.8338 25.5004 14.8315 25.5094 14.8315C25.5185 14.8315 25.5274 14.8338 25.5352 14.8383L25.9628 15.0872C25.9787 15.0965 25.9885 15.1138 25.9885 15.1322V15.6298C25.9885 15.6484 25.9787 15.6655 25.9628 15.6749L25.5352 15.9235C25.5274 15.9281 25.5185 15.9305 25.5094 15.9305C25.5004 15.9305 25.4915 15.9281 25.4836 15.9235L25.0563 15.6749C25.0484 15.6703 25.0418 15.6638 25.0373 15.6558C25.0327 15.6479 25.0303 15.6389 25.0303 15.6298V15.1322C25.0303 15.1138 25.0401 15.0965 25.0563 15.0872L25.4836 14.8383ZM19.6848 15.8733C19.6848 15.8973 19.6721 15.9197 19.6512 15.932L18.886 16.3765C18.8758 16.3825 18.8642 16.3857 18.8524 16.3857C18.8406 16.3857 18.829 16.3825 18.8188 16.3765L18.0536 15.932C18.0434 15.926 18.0349 15.9175 18.029 15.9072C18.0231 15.8969 18.02 15.8852 18.02 15.8733V14.9829C18.02 14.9588 18.0329 14.9362 18.0536 14.9239L18.8188 14.4789C18.829 14.4728 18.8406 14.4695 18.8525 14.4695C18.8644 14.4695 18.8761 14.4728 18.8863 14.4789L19.6518 14.9239C19.6619 14.93 19.6703 14.9386 19.6761 14.9489C19.682 14.9593 19.6851 14.971 19.6851 14.9829L19.6848 15.8733ZM19.8916 9.27988C19.8711 9.26858 19.848 9.26284 19.8247 9.2632C19.8013 9.26356 19.7784 9.27003 19.7582 9.28196C19.7381 9.29389 19.7213 9.31088 19.7096 9.33127C19.6979 9.35166 19.6917 9.37477 19.6915 9.39832V12.8436C19.6914 12.8603 19.687 12.8766 19.6788 12.891C19.6706 12.9054 19.6588 12.9174 19.6446 12.9258C19.6302 12.9341 19.614 12.9384 19.5975 12.9384C19.5809 12.9384 19.5647 12.9341 19.5503 12.9258L18.9922 12.6017C18.9513 12.578 18.905 12.5655 18.8578 12.5655C18.8107 12.5655 18.7643 12.578 18.7235 12.6017L16.4946 13.8976C16.4537 13.9215 16.4197 13.9557 16.396 13.997C16.3723 14.0382 16.3599 14.085 16.3598 14.1327V16.7254C16.3598 16.8222 16.4112 16.9116 16.4944 16.9604L18.7232 18.2572C18.8063 18.3057 18.9091 18.3057 18.9925 18.2572L21.2218 16.9604C21.2627 16.9365 21.2966 16.9022 21.3202 16.861C21.3438 16.8198 21.3563 16.773 21.3564 16.7254V10.2624C21.3564 10.1642 21.3034 10.0735 21.2184 10.0255L19.8916 9.27988ZM12.0475 12.5529C12.0884 12.529 12.1348 12.5165 12.182 12.5165C12.2292 12.5165 12.2756 12.529 12.3165 12.5529L14.5454 13.8486C14.6285 13.8971 14.6799 13.9867 14.6799 14.0836V16.6771C14.6799 16.7739 14.6285 16.8636 14.5454 16.9121L12.3168 18.2089C12.2758 18.2326 12.2294 18.2451 12.1821 18.2451C12.1349 18.2451 12.0885 18.2326 12.0475 18.2089L9.81946 16.9121C9.77859 16.8882 9.74467 16.8539 9.72106 16.8127C9.69746 16.7715 9.68501 16.7247 9.68495 16.6771V14.0833C9.68495 13.9867 9.73632 13.8971 9.81946 13.8486L12.0475 12.5529ZM7.99439 14.062C7.99439 13.9643 7.94355 13.8747 7.85988 13.8264L5.63183 12.5345C5.59441 12.5126 5.55221 12.5004 5.50898 12.499H5.48594C5.44272 12.5004 5.40052 12.5126 5.36309 12.5345L3.13477 13.8264C3.09378 13.8503 3.05975 13.8847 3.03609 13.926C3.01244 13.9674 2.99999 14.0142 3 14.062L3.00477 17.5406C3.00477 17.5892 3.02992 17.6343 3.07202 17.6577C3.09218 17.6701 3.1153 17.6766 3.13887 17.6766C3.16245 17.6766 3.18557 17.6701 3.20573 17.6577L4.52959 16.8937C4.61325 16.8436 4.66435 16.7553 4.66435 16.6584V15.0333C4.66435 14.9362 4.71519 14.8468 4.79859 14.7982L5.36256 14.4712C5.40332 14.4471 5.44978 14.4344 5.49706 14.4346C5.54313 14.4346 5.59026 14.4464 5.6313 14.4712L6.19473 14.7982C6.27814 14.8468 6.3295 14.9362 6.3295 15.0333V16.6584C6.3295 16.7553 6.38113 16.8441 6.46427 16.8937L7.78813 17.6577C7.80855 17.6695 7.83166 17.6756 7.85517 17.6756C7.87868 17.6755 7.90177 17.6693 7.92213 17.6574C7.94249 17.6456 7.95941 17.6286 7.97121 17.6081C7.983 17.5876 7.98926 17.5643 7.98936 17.5406L7.99439 14.062Z" fill="#F1F1EF"/>
<path d="M15.1964 28.1804C15.289 28.2351 15.3939 28.2632 15.4996 28.2632C15.6064 28.2635 15.7113 28.2351 15.8036 28.1808L18.6964 26.4883C18.7886 26.4338 18.8652 26.3557 18.9184 26.2619C18.9717 26.168 18.9998 26.0617 19 25.9535V22.57C19 22.3506 18.8837 22.1456 18.6964 22.0359L15.8036 20.3416C15.7104 20.2901 15.606 20.2632 15.4998 20.2632C15.3937 20.2632 15.2892 20.2901 15.196 20.3416L12.3032 22.0359C12.1155 22.1452 12 22.3502 12 22.57V25.9535C12 26.0617 12.028 26.1681 12.0812 26.2619C12.1344 26.3558 12.211 26.4338 12.3032 26.4883L13.0617 26.9308C13.4291 27.1141 13.5607 27.1141 13.7279 27.1141C14.2721 27.1141 14.5845 26.7805 14.5845 26.1991V22.8581C14.5845 22.8112 14.5465 22.7739 14.501 22.7739H14.134C14.0877 22.7739 14.0501 22.8112 14.0501 22.8581V26.1991C14.0501 26.4569 13.7866 26.7133 13.3566 26.4957L12.5642 26.0314C12.5365 26.0163 12.5186 25.9856 12.5186 25.9531V22.5696C12.5189 22.5534 12.5232 22.5375 12.5311 22.5234C12.5391 22.5093 12.5505 22.4975 12.5642 22.4891L15.4555 20.7981C15.4692 20.7905 15.4846 20.7865 15.5002 20.7865C15.5158 20.7865 15.5312 20.7905 15.5448 20.7981L18.4365 22.4887C18.4502 22.4972 18.4616 22.5091 18.4694 22.5232C18.4773 22.5374 18.4814 22.5534 18.4814 22.5696V25.9531C18.4814 25.9691 18.4774 25.9849 18.4696 25.9988C18.4618 26.0128 18.4505 26.0244 18.4369 26.0325L15.5441 27.7246C15.5303 27.7321 15.5149 27.736 15.4993 27.736C15.4836 27.736 15.4682 27.7321 15.4544 27.7246L14.7127 27.2781C14.6905 27.2648 14.6625 27.2603 14.6409 27.2725C14.4358 27.39 14.3968 27.4059 14.2043 27.4738C14.1566 27.4904 14.0862 27.5196 14.2306 27.6013L15.1964 28.1804Z" fill="#F1F1EF"/>
<path d="M14.8622 24.849C14.8622 25.3429 15.1271 25.9321 16.3937 25.9321C17.31 25.9321 17.8355 25.566 17.8352 24.9259C17.8352 24.2924 17.4127 24.124 16.5238 24.0047C15.6254 23.8842 15.5343 23.8222 15.5343 23.6091C15.5343 23.4336 15.6115 23.1983 16.2767 23.1983C16.8711 23.1983 17.0898 23.328 17.1802 23.7343C17.1843 23.753 17.1946 23.7698 17.2093 23.7819C17.2241 23.7939 17.2425 23.8004 17.2615 23.8004H17.6373C17.6487 23.8003 17.66 23.7978 17.6706 23.7932C17.6811 23.7885 17.6906 23.7818 17.6985 23.7734C17.7063 23.7647 17.7123 23.7544 17.716 23.7432C17.7198 23.732 17.7213 23.7202 17.7203 23.7084C17.6624 23.0088 17.2039 22.6827 16.277 22.6827C15.4526 22.6827 14.9606 23.0358 14.9606 23.6272C14.9606 24.2695 15.4501 24.4464 16.2417 24.5258C17.1886 24.62 17.2622 24.76 17.2622 24.9491C17.2622 25.2772 17.0027 25.4168 16.3937 25.4168C15.6279 25.4168 15.4592 25.2221 15.4031 24.8361C15.3999 24.8161 15.3898 24.7979 15.3746 24.7847C15.3593 24.7716 15.34 24.7644 15.32 24.7645H14.946C14.9238 24.7645 14.9026 24.7734 14.8869 24.7892C14.8711 24.8051 14.8623 24.8266 14.8622 24.849Z" fill="#F1F1EF"/>
</svg>
