<svg width="31" height="41" viewBox="0 0 31 41" fill="none" xmlns="http://www.w3.org/2000/svg">
<path d="M5.3591 0.263156H24.9041C25.608 0.262475 26.3052 0.404182 26.9557 0.680167C27.6062 0.956151 28.1972 1.361 28.695 1.87153C29.1928 2.38206 29.5875 2.98826 29.8566 3.65544C30.1257 4.32261 30.2638 5.03766 30.2632 5.75967V25.0298C30.2638 25.7518 30.1257 26.4668 29.8566 27.134C29.5875 27.8012 29.1928 28.4074 28.695 28.9179C28.1972 29.4285 27.6062 29.8333 26.9557 30.1093C26.3052 30.3853 25.608 30.527 24.9041 30.5263H5.3591C4.65515 30.527 3.95797 30.3853 3.30748 30.1093C2.65698 29.8333 2.06594 29.4285 1.56817 28.9179C1.0704 28.4074 0.675673 27.8012 0.406588 27.134C0.137503 26.4668 -0.000661103 25.7518 2.37828e-06 25.0298V5.75967C-0.000661103 5.03766 0.137503 4.32261 0.406588 3.65544C0.675673 2.98826 1.0704 2.38206 1.56817 1.87153C2.06594 1.361 2.65698 0.956151 3.30748 0.680167C3.95797 0.404182 4.65515 0.262475 5.3591 0.263156Z" fill="#252323"/>
<path d="M27.866 14.9599C27.9489 14.9111 28 14.822 28 14.7251V14.0972C28 14.0006 27.9492 13.9115 27.866 13.8627L25.6515 12.5672C25.6105 12.5432 25.564 12.5306 25.5166 12.5305C25.4693 12.5304 25.4227 12.5429 25.3817 12.5667L23.1534 13.8629C23.1125 13.8868 23.0786 13.921 23.055 13.9622C23.0313 14.0034 23.0189 14.0501 23.0189 14.0977V16.6896C23.0189 16.787 23.0707 16.8771 23.1549 16.9254L25.3692 18.1966C25.4508 18.2438 25.5509 18.2441 25.6332 18.1982L26.9724 17.448C26.9933 17.4364 27.0107 17.4193 27.0228 17.3987C27.035 17.378 27.0415 17.3545 27.0417 17.3305C27.0418 17.3064 27.0356 17.2828 27.0238 17.262C27.0119 17.2411 26.9947 17.2239 26.974 17.2119L24.7319 15.9154C24.7114 15.9036 24.6943 15.8866 24.6824 15.8659C24.6705 15.8453 24.6642 15.8219 24.6641 15.7981V14.9855C24.6641 14.9369 24.6898 14.8924 24.7314 14.8684L25.4296 14.4629C25.45 14.451 25.4731 14.4447 25.4967 14.4447C25.5203 14.4447 25.5435 14.451 25.5638 14.4629L26.262 14.8684C26.2825 14.8802 26.2995 14.8972 26.3114 14.9178C26.3232 14.9384 26.3295 14.9617 26.3296 14.9855V15.6247C26.3294 15.6486 26.3356 15.6721 26.3474 15.6928C26.3592 15.7135 26.3762 15.7307 26.3968 15.7427C26.4174 15.7546 26.4407 15.7608 26.4644 15.7607C26.4881 15.7606 26.5114 15.7542 26.5318 15.742L27.866 14.9599ZM25.4836 14.8382C25.4915 14.8338 25.5004 14.8315 25.5094 14.8315C25.5185 14.8315 25.5274 14.8338 25.5352 14.8382L25.9628 15.0871C25.9787 15.0965 25.9885 15.1138 25.9885 15.1322V15.6297C25.9885 15.6484 25.9787 15.6655 25.9628 15.6748L25.5352 15.9234C25.5274 15.928 25.5185 15.9305 25.5094 15.9305C25.5004 15.9305 25.4915 15.928 25.4836 15.9234L25.0563 15.6748C25.0484 15.6703 25.0418 15.6637 25.0373 15.6558C25.0327 15.6479 25.0303 15.6389 25.0303 15.6297V15.1322C25.0303 15.1138 25.0401 15.0965 25.0563 15.0871L25.4836 14.8382ZM19.6848 15.8733C19.6848 15.8973 19.6721 15.9197 19.6512 15.932L18.886 16.3764C18.8758 16.3824 18.8642 16.3856 18.8524 16.3856C18.8406 16.3856 18.829 16.3824 18.8188 16.3764L18.0536 15.932C18.0434 15.926 18.0349 15.9175 18.029 15.9072C18.0231 15.8969 18.02 15.8852 18.02 15.8733V14.9828C18.02 14.9588 18.0329 14.9361 18.0536 14.9239L18.8188 14.4789C18.829 14.4727 18.8406 14.4695 18.8525 14.4695C18.8644 14.4695 18.8761 14.4727 18.8863 14.4789L19.6518 14.9239C19.6619 14.93 19.6703 14.9386 19.6761 14.9489C19.682 14.9592 19.6851 14.9709 19.6851 14.9828L19.6848 15.8733ZM19.8916 9.27985C19.8711 9.26855 19.848 9.2628 19.8247 9.26317C19.8013 9.26353 19.7784 9.27 19.7582 9.28193C19.7381 9.29386 19.7213 9.31085 19.7096 9.33124C19.6979 9.35163 19.6917 9.37473 19.6915 9.39829V12.8436C19.6914 12.8602 19.687 12.8765 19.6788 12.8909C19.6706 12.9053 19.6588 12.9173 19.6446 12.9258C19.6302 12.934 19.614 12.9384 19.5975 12.9384C19.5809 12.9384 19.5647 12.934 19.5503 12.9258L18.9922 12.6016C18.9513 12.5779 18.905 12.5655 18.8578 12.5655C18.8107 12.5655 18.7643 12.5779 18.7235 12.6016L16.4946 13.8976C16.4537 13.9214 16.4197 13.9557 16.396 13.9969C16.3723 14.0382 16.3599 14.085 16.3598 14.1326V16.7254C16.3598 16.8222 16.4112 16.9116 16.4944 16.9604L18.7232 18.2571C18.8063 18.3057 18.9091 18.3057 18.9925 18.2571L21.2218 16.9604C21.2627 16.9365 21.2966 16.9022 21.3202 16.861C21.3438 16.8197 21.3563 16.773 21.3564 16.7254V10.2624C21.3564 10.1642 21.3034 10.0735 21.2184 10.0255L19.8916 9.27985ZM12.0475 12.5528C12.0884 12.529 12.1348 12.5164 12.182 12.5164C12.2292 12.5164 12.2756 12.529 12.3165 12.5528L14.5454 13.8485C14.6285 13.8971 14.6799 13.9867 14.6799 14.0835V16.6771C14.6799 16.7739 14.6285 16.8635 14.5454 16.9121L12.3168 18.2089C12.2758 18.2326 12.2294 18.2451 12.1821 18.2451C12.1349 18.2451 12.0885 18.2326 12.0475 18.2089L9.81946 16.9121C9.77859 16.8882 9.74467 16.8539 9.72106 16.8127C9.69746 16.7714 9.68501 16.7247 9.68495 16.6771V14.0833C9.68495 13.9867 9.73632 13.8971 9.81946 13.8485L12.0475 12.5528ZM7.99439 14.0619C7.99439 13.9643 7.94355 13.8747 7.85988 13.8264L5.63183 12.5344C5.59441 12.5126 5.55221 12.5004 5.50898 12.4989H5.48594C5.44272 12.5004 5.40052 12.5126 5.36309 12.5344L3.13477 13.8264C3.09378 13.8503 3.05975 13.8846 3.03609 13.926C3.01244 13.9673 2.99999 14.0142 3 14.0619L3.00477 17.5406C3.00477 17.5892 3.02992 17.6342 3.07202 17.6577C3.09218 17.67 3.1153 17.6765 3.13887 17.6765C3.16245 17.6765 3.18557 17.67 3.20573 17.6577L4.52959 16.8937C4.61325 16.8435 4.66435 16.7552 4.66435 16.6584V15.0332C4.66435 14.9361 4.71519 14.8468 4.79859 14.7982L5.36256 14.4712C5.40332 14.447 5.44978 14.4344 5.49706 14.4346C5.54313 14.4346 5.59026 14.4464 5.6313 14.4712L6.19473 14.7982C6.27814 14.8468 6.3295 14.9361 6.3295 15.0332V16.6584C6.3295 16.7552 6.38113 16.8441 6.46427 16.8937L7.78813 17.6577C7.80855 17.6695 7.83166 17.6756 7.85517 17.6756C7.87868 17.6755 7.90177 17.6692 7.92213 17.6574C7.94249 17.6455 7.95941 17.6285 7.97121 17.608C7.983 17.5875 7.98926 17.5643 7.98936 17.5406L7.99439 14.0619Z" fill="#F1F1EF"/>
<path d="M15.1964 28.1804C15.289 28.2351 15.3939 28.2631 15.4996 28.2631C15.6064 28.2635 15.7113 28.2351 15.8036 28.1808L18.6964 26.4883C18.7886 26.4337 18.8652 26.3557 18.9184 26.2618C18.9717 26.168 18.9998 26.0617 19 25.9535V22.57C19 22.3506 18.8837 22.1456 18.6964 22.0359L15.8036 20.3415C15.7104 20.2901 15.606 20.2632 15.4998 20.2632C15.3937 20.2632 15.2892 20.2901 15.196 20.3415L12.3032 22.0359C12.1155 22.1452 12 22.3502 12 22.57V25.9535C12 26.0617 12.028 26.168 12.0812 26.2619C12.1344 26.3557 12.211 26.4338 12.3032 26.4883L13.0617 26.9308C13.4291 27.114 13.5607 27.114 13.7279 27.114C14.2721 27.114 14.5845 26.7805 14.5845 26.1991V22.8581C14.5845 22.8112 14.5465 22.7739 14.501 22.7739H14.134C14.0877 22.7739 14.0501 22.8112 14.0501 22.8581V26.1991C14.0501 26.4569 13.7866 26.7133 13.3566 26.4957L12.5642 26.0314C12.5365 26.0162 12.5186 25.9856 12.5186 25.9531V22.5696C12.5189 22.5534 12.5232 22.5375 12.5311 22.5234C12.5391 22.5093 12.5505 22.4975 12.5642 22.4891L15.4555 20.7981C15.4692 20.7905 15.4846 20.7865 15.5002 20.7865C15.5158 20.7865 15.5312 20.7905 15.5448 20.7981L18.4365 22.4887C18.4502 22.4972 18.4616 22.509 18.4694 22.5232C18.4773 22.5374 18.4814 22.5534 18.4814 22.5696V25.9531C18.4814 25.9691 18.4774 25.9849 18.4696 25.9988C18.4618 26.0127 18.4505 26.0244 18.4369 26.0325L15.5441 27.7246C15.5303 27.7321 15.5149 27.736 15.4993 27.736C15.4836 27.736 15.4682 27.7321 15.4544 27.7246L14.7127 27.278C14.6905 27.2647 14.6625 27.2603 14.6409 27.2725C14.4358 27.3899 14.3968 27.4058 14.2043 27.4738C14.1566 27.4904 14.0862 27.5196 14.2306 27.6012L15.1964 28.1804Z" fill="#F1F1EF"/>
<path d="M14.8622 24.849C14.8622 25.3429 15.1271 25.932 16.3937 25.932C17.31 25.932 17.8355 25.566 17.8352 24.9258C17.8352 24.2924 17.4127 24.1239 16.5238 24.0046C15.6254 23.8842 15.5343 23.8222 15.5343 23.609C15.5343 23.4336 15.6115 23.1983 16.2767 23.1983C16.8711 23.1983 17.0898 23.3279 17.1802 23.7342C17.1843 23.753 17.1946 23.7698 17.2093 23.7818C17.2241 23.7938 17.2425 23.8004 17.2615 23.8004H17.6373C17.6487 23.8002 17.66 23.7978 17.6706 23.7931C17.6811 23.7885 17.6906 23.7818 17.6985 23.7734C17.7063 23.7646 17.7123 23.7544 17.716 23.7432C17.7198 23.732 17.7213 23.7202 17.7203 23.7084C17.6624 23.0088 17.2039 22.6826 16.277 22.6826C15.4526 22.6826 14.9606 23.0358 14.9606 23.6271C14.9606 24.2695 15.4501 24.4464 16.2417 24.5258C17.1886 24.62 17.2622 24.76 17.2622 24.9491C17.2622 25.2771 17.0027 25.4167 16.3937 25.4167C15.6279 25.4167 15.4592 25.2221 15.4031 24.8361C15.3999 24.8161 15.3898 24.7978 15.3746 24.7847C15.3593 24.7715 15.34 24.7644 15.32 24.7644H14.946C14.9238 24.7644 14.9026 24.7733 14.8869 24.7892C14.8711 24.805 14.8623 24.8265 14.8622 24.849Z" fill="#F1F1EF"/>
<path d="M7.42212 33.5497V38.5263H6.78979L4.79712 34.6879V38.5263H4.16821V33.5497H4.79712L6.80005 37.3984V33.5497H7.42212ZM8.30054 36.8549V36.5029C8.30054 36.2158 8.337 35.964 8.40991 35.7475C8.48283 35.5287 8.58423 35.3465 8.71411 35.2006C8.84399 35.0548 8.99552 34.9454 9.1687 34.8725C9.34188 34.7973 9.52759 34.7597 9.72583 34.7597C9.92863 34.7597 10.1166 34.7973 10.2898 34.8725C10.463 34.9454 10.6145 35.0548 10.7444 35.2006C10.8765 35.3465 10.9791 35.5287 11.052 35.7475C11.1249 35.964 11.1614 36.2158 11.1614 36.5029V36.8549C11.1614 37.142 11.1249 37.395 11.052 37.6137C10.9791 37.8302 10.8777 38.0113 10.7478 38.1572C10.6179 38.303 10.4664 38.4124 10.2932 38.4853C10.12 38.5582 9.93319 38.5947 9.73267 38.5947C9.53215 38.5947 9.3453 38.5582 9.17212 38.4853C8.99894 38.4124 8.84627 38.303 8.71411 38.1572C8.58423 38.0113 8.48283 37.8302 8.40991 37.6137C8.337 37.395 8.30054 37.142 8.30054 36.8549ZM8.90552 36.5029V36.8549C8.90552 37.0577 8.92603 37.2355 8.96704 37.3881C9.00806 37.5408 9.06616 37.6684 9.14136 37.7709C9.21655 37.8735 9.30428 37.9509 9.40454 38.0034C9.5048 38.0535 9.61418 38.0786 9.73267 38.0786C9.86938 38.0786 9.98901 38.0535 10.0916 38.0034C10.1964 37.9509 10.283 37.8735 10.3513 37.7709C10.4197 37.6684 10.4709 37.5408 10.5051 37.3881C10.5393 37.2355 10.5564 37.0577 10.5564 36.8549V36.5029C10.5564 36.3001 10.5359 36.1235 10.4949 35.9731C10.4539 35.8204 10.3958 35.6928 10.3206 35.5903C10.2454 35.4855 10.1565 35.408 10.054 35.3578C9.95369 35.3054 9.84432 35.2792 9.72583 35.2792C9.60962 35.2792 9.50138 35.3054 9.40112 35.3578C9.30086 35.408 9.21313 35.4855 9.13794 35.5903C9.06502 35.6928 9.00806 35.8204 8.96704 35.9731C8.92603 36.1235 8.90552 36.3001 8.90552 36.5029ZM13.8787 37.8085V33.2763H14.4802V38.5263H13.9299L13.8787 37.8085ZM11.8108 36.8549V36.5097C11.8108 36.2044 11.8404 35.9423 11.8997 35.7236C11.9589 35.5025 12.0432 35.3214 12.1526 35.1801C12.262 35.0366 12.393 34.9306 12.5457 34.8622C12.6983 34.7939 12.8669 34.7597 13.0515 34.7597C13.2429 34.7597 13.407 34.7984 13.5437 34.8759C13.6827 34.9534 13.7989 35.0662 13.8923 35.2143C13.9858 35.3601 14.0587 35.5379 14.1111 35.7475C14.1658 35.9549 14.2022 36.1896 14.2205 36.4516V36.913C14.2 37.1728 14.1624 37.4064 14.1077 37.6137C14.0553 37.8211 13.9823 37.9977 13.8889 38.1435C13.7955 38.2893 13.6793 38.401 13.5403 38.4785C13.4013 38.5559 13.2361 38.5947 13.0447 38.5947C12.8624 38.5947 12.696 38.5593 12.5457 38.4887C12.3953 38.4158 12.2642 38.3076 12.1526 38.164C12.0432 38.0182 11.9589 37.837 11.8997 37.6205C11.8404 37.4018 11.8108 37.1466 11.8108 36.8549ZM12.4158 36.5097V36.8549C12.4158 37.06 12.4306 37.2389 12.4602 37.3915C12.4898 37.5419 12.5365 37.6673 12.6003 37.7675C12.6641 37.8655 12.745 37.9384 12.843 37.9863C12.9433 38.0341 13.0629 38.058 13.2019 38.058C13.3705 38.058 13.5084 38.017 13.6155 37.935C13.7226 37.853 13.808 37.7447 13.8718 37.6103C13.9379 37.4736 13.9903 37.3266 14.0291 37.1694V36.1987C14.0063 36.0825 13.9732 35.9708 13.9299 35.8637C13.8866 35.7543 13.8319 35.6575 13.7659 35.5732C13.7021 35.4866 13.6235 35.4182 13.53 35.3681C13.4389 35.318 13.3318 35.2929 13.2087 35.2929C13.0697 35.2929 12.949 35.318 12.8464 35.3681C12.7462 35.4182 12.6641 35.4934 12.6003 35.5937C12.5388 35.6939 12.4921 35.8204 12.4602 35.9731C12.4306 36.1258 12.4158 36.3046 12.4158 36.5097ZM16.7361 38.5947C16.5151 38.5947 16.3157 38.5616 16.1379 38.4955C15.9602 38.4295 15.8087 38.3292 15.6833 38.1948C15.558 38.058 15.4623 37.886 15.3962 37.6786C15.3302 37.4713 15.2971 37.2263 15.2971 36.9438V36.5268C15.2971 36.2009 15.3347 35.9252 15.4099 35.6996C15.4874 35.4741 15.5911 35.2929 15.7209 35.1562C15.8508 35.0172 15.9978 34.9169 16.1619 34.8554C16.3259 34.7916 16.4945 34.7597 16.6677 34.7597C16.9001 34.7597 17.0984 34.7973 17.2625 34.8725C17.4265 34.9477 17.5598 35.0593 17.6624 35.2075C17.7649 35.3556 17.8401 35.5379 17.8879 35.7543C17.9381 35.9708 17.9631 36.2203 17.9631 36.5029V36.8549H15.6526V36.3388H17.3582V36.2534C17.349 36.062 17.3228 35.8933 17.2795 35.7475C17.2385 35.6017 17.1702 35.4877 17.0745 35.4057C16.9788 35.3214 16.8432 35.2792 16.6677 35.2792C16.5561 35.2792 16.4524 35.2986 16.3567 35.3373C16.2633 35.3738 16.1824 35.4387 16.114 35.5322C16.0479 35.6233 15.9955 35.7498 15.9568 35.9116C15.9203 36.0733 15.9021 36.2784 15.9021 36.5268V36.9438C15.9021 37.142 15.9203 37.3129 15.9568 37.4565C15.9955 37.5978 16.0514 37.7151 16.1243 37.8085C16.1995 37.8997 16.2906 37.968 16.3977 38.0136C16.5071 38.0569 16.6313 38.0786 16.7703 38.0786C16.9731 38.0786 17.1405 38.0398 17.2727 37.9623C17.4049 37.8826 17.5199 37.7812 17.6179 37.6581L17.9358 38.0375C17.8697 38.131 17.7831 38.221 17.676 38.3076C17.5712 38.3919 17.4413 38.4614 17.2864 38.5161C17.1337 38.5685 16.9503 38.5947 16.7361 38.5947ZM22.1023 37.0737V33.5497H22.7278V37.0737C22.7278 37.4018 22.6708 37.6786 22.5569 37.9042C22.443 38.1298 22.2846 38.3019 22.0818 38.4203C21.8813 38.5366 21.65 38.5947 21.3879 38.5947C21.1305 38.5947 20.9003 38.5423 20.6975 38.4374C20.4947 38.3326 20.3352 38.1731 20.219 37.9589C20.1051 37.7447 20.0481 37.4747 20.0481 37.1489H20.677C20.677 37.3585 20.7078 37.5305 20.7693 37.665C20.8331 37.7994 20.9185 37.8985 21.0256 37.9623C21.1327 38.0261 21.2535 38.058 21.3879 38.058C21.5247 38.058 21.6466 38.0216 21.7537 37.9487C21.8608 37.8735 21.9451 37.763 22.0066 37.6171C22.0704 37.469 22.1023 37.2879 22.1023 37.0737ZM25.4792 37.5795C25.4792 37.4861 25.4565 37.4041 25.4109 37.3334C25.3653 37.2628 25.2901 37.1944 25.1853 37.1284C25.0828 37.0623 24.9438 36.9916 24.7683 36.9164C24.5974 36.8458 24.4436 36.7763 24.3069 36.7079C24.1724 36.6373 24.0585 36.561 23.9651 36.4789C23.8717 36.3969 23.7999 36.3023 23.7498 36.1953C23.7019 36.0859 23.678 35.9571 23.678 35.809C23.678 35.6609 23.7053 35.5242 23.76 35.3989C23.817 35.2713 23.8967 35.1596 23.9993 35.0639C24.1018 34.9682 24.2249 34.8941 24.3684 34.8417C24.512 34.787 24.6726 34.7597 24.8503 34.7597C25.1033 34.7597 25.3186 34.8087 25.4963 34.9067C25.6741 35.0047 25.8097 35.1391 25.9031 35.31C25.9988 35.4786 26.0466 35.6689 26.0466 35.8808H25.4451C25.4451 35.7783 25.4223 35.6814 25.3767 35.5903C25.3311 35.4991 25.2639 35.4251 25.175 35.3681C25.0862 35.3089 24.9779 35.2792 24.8503 35.2792C24.7159 35.2792 24.6065 35.3032 24.5222 35.351C24.4379 35.3989 24.3764 35.4615 24.3376 35.539C24.3012 35.6142 24.283 35.6974 24.283 35.7885C24.283 35.8569 24.2921 35.9161 24.3103 35.9662C24.3308 36.0141 24.365 36.0597 24.4128 36.103C24.4607 36.144 24.5256 36.1873 24.6077 36.2328C24.692 36.2761 24.7991 36.3263 24.929 36.3832C25.1796 36.4812 25.3904 36.5803 25.5613 36.6806C25.7322 36.7809 25.8621 36.8982 25.9509 37.0327C26.0398 37.1671 26.0842 37.3334 26.0842 37.5317C26.0842 37.6935 26.0546 37.8404 25.9954 37.9726C25.9384 38.1025 25.8564 38.2141 25.7493 38.3076C25.6422 38.401 25.5134 38.4728 25.363 38.5229C25.2149 38.5707 25.0486 38.5947 24.864 38.5947C24.586 38.5947 24.3502 38.54 24.1565 38.4306C23.9651 38.3189 23.8193 38.1743 23.719 37.9965C23.621 37.8165 23.572 37.624 23.572 37.4189H24.177C24.1838 37.5921 24.2226 37.7265 24.2932 37.8222C24.3661 37.9179 24.4539 37.984 24.5564 38.0204C24.6589 38.0569 24.7615 38.0751 24.864 38.0751C24.9985 38.0751 25.1112 38.0558 25.2024 38.017C25.2935 37.976 25.3619 37.9179 25.4075 37.8427C25.4553 37.7675 25.4792 37.6798 25.4792 37.5795Z" fill="#252323"/>
</svg>
