<svg width="31" height="41" viewBox="0 0 31 41" fill="none" xmlns="http://www.w3.org/2000/svg">
<g clip-path="url(#clip0_401_338)">
<path d="M5.62226 2.43926e-06H25.1672C25.8712 -0.000678055 26.5683 0.141029 27.2188 0.417014C27.8693 0.692998 28.4604 1.09784 28.9581 1.60838C29.4559 2.11891 29.8506 2.72511 30.1197 3.39229C30.3888 4.05946 30.527 4.77451 30.5263 5.49652V24.7666C30.527 25.4886 30.3888 26.2037 30.1197 26.8709C29.8506 27.538 29.4559 28.1442 28.9581 28.6548C28.4604 29.1653 27.8693 29.5702 27.2188 29.8461C26.5683 30.1221 25.8712 30.2638 25.1672 30.2632H5.62226C4.9183 30.2638 4.22113 30.1221 3.57063 29.8461C2.92014 29.5702 2.32909 29.1653 1.83132 28.6548C1.33355 28.1442 0.938826 27.538 0.669741 26.8709C0.400656 26.2037 0.262492 25.4886 0.263155 24.7666V5.49652C0.262492 4.77451 0.400656 4.05946 0.669741 3.39229C0.938826 2.72511 1.33355 2.11891 1.83132 1.60838C2.32909 1.09784 2.92014 0.692998 3.57063 0.417014C4.22113 0.141029 4.9183 -0.000678055 5.62226 2.43926e-06V2.43926e-06Z" fill="#252323"/>
<g clip-path="url(#clip1_401_338)">
<path d="M15.3948 17.1326C16.5568 17.1326 17.4987 16.2028 17.4987 15.0559C17.4987 13.9089 16.5568 12.9792 15.3948 12.9792C14.2328 12.9792 13.2908 13.9089 13.2908 15.0559C13.2908 16.2028 14.2328 17.1326 15.3948 17.1326Z" fill="#F1F1EF"/>
<path fill-rule="evenodd" clip-rule="evenodd" d="M5.32201 13.7601C4.81153 14.215 4.59708 14.6537 4.59708 15.0559C4.59708 15.4582 4.81153 15.8969 5.32201 16.3518C5.83244 16.8066 6.59866 17.2384 7.58733 17.611C9.56128 18.355 12.3215 18.8253 15.3948 18.8253C18.4681 18.8253 21.2283 18.355 23.2022 17.611C24.1909 17.2384 24.9571 16.8066 25.4675 16.3518C25.978 15.8969 26.1925 15.4582 26.1925 15.0559C26.1925 14.6537 25.978 14.215 25.4675 13.7601C24.9571 13.3053 24.1909 12.8735 23.2022 12.5008C21.2283 11.7569 18.4681 11.2866 15.3948 11.2866C12.3215 11.2866 9.56128 11.7569 7.58733 12.5008C6.59866 12.8735 5.83244 13.3053 5.32201 13.7601ZM7.23649 11.5939C9.34852 10.7979 12.233 10.3158 15.3948 10.3158C18.5565 10.3158 21.441 10.7979 23.5531 11.5939C24.6074 11.9912 25.4945 12.4762 26.1266 13.0395C26.7587 13.6027 27.176 14.2833 27.176 15.0559C27.176 15.8286 26.7587 16.5092 26.1266 17.0724C25.4945 17.6356 24.6074 18.1206 23.5531 18.518C21.441 19.314 18.5565 19.7961 15.3948 19.7961C12.233 19.7961 9.34852 19.314 7.23649 18.518C6.18217 18.1206 5.29508 17.6356 4.66296 17.0724C4.03088 16.5092 3.61353 15.8286 3.61353 15.0559C3.61353 14.2833 4.03088 13.6027 4.66296 13.0395C5.29508 12.4762 6.18217 11.9912 7.23649 11.5939Z" fill="#F1F1EF"/>
<path fill-rule="evenodd" clip-rule="evenodd" d="M11.4953 5.79761C10.841 5.58867 10.3488 5.62471 9.99589 5.82584C9.64296 6.02696 9.36527 6.42964 9.22143 7.09344C9.0776 7.75717 9.08182 8.62807 9.24924 9.65951C9.5835 11.7189 10.551 14.3135 12.0876 16.9406C13.6242 19.5677 15.417 21.692 17.0567 23.0074C17.8779 23.6663 18.6399 24.1053 19.2942 24.3142C19.9485 24.5232 20.4407 24.4871 20.7936 24.286C21.1465 24.0849 21.4242 23.6822 21.568 23.0184C21.7119 22.3547 21.7076 21.4838 21.5402 20.4523C21.206 18.393 20.2385 15.7984 18.7019 13.1713C17.1652 10.5442 15.3725 8.41983 13.7328 7.10442C12.9115 6.44559 12.1495 6.00653 11.4953 5.79761ZM14.3531 6.35104C16.1075 7.75846 17.9728 9.98314 19.5536 12.6858C21.1345 15.3886 22.1538 18.0954 22.5114 20.2988C22.6899 21.3987 22.708 22.3995 22.5298 23.2215C22.3517 24.0434 21.9633 24.7404 21.2854 25.1268C20.6074 25.5131 19.8016 25.4966 18.9914 25.2379C18.1812 24.9792 17.3121 24.4634 16.4364 23.7608C14.682 22.3534 12.8167 20.1287 11.2358 17.426C9.65496 14.7233 8.63571 12.0165 8.27807 9.81309C8.09954 8.71315 8.08151 7.71236 8.25963 6.89038C8.43773 6.06847 8.82619 5.37141 9.50411 4.98507C10.182 4.59874 10.9878 4.61521 11.798 4.87392C12.6083 5.13265 13.4773 5.64846 14.3531 6.35104Z" fill="#F1F1EF"/>
<path fill-rule="evenodd" clip-rule="evenodd" d="M21.5681 7.09341C21.4242 6.42961 21.1465 6.02694 20.7936 5.82581C20.4407 5.62468 19.9485 5.58865 19.2942 5.79759C18.64 6.00651 17.878 6.44557 17.0567 7.1044C15.417 8.4198 13.6243 10.5441 12.0876 13.1712C10.551 15.7983 9.58353 18.393 9.24927 20.4523C9.08185 21.4838 9.07763 22.3547 9.22146 23.0184C9.3653 23.6822 9.64299 24.0849 9.99592 24.286C10.3488 24.4871 10.841 24.5232 11.4953 24.3142C12.1496 24.1053 12.9116 23.6662 13.7328 23.0074C15.3725 21.692 17.1653 19.5677 18.7019 16.9406C20.2385 14.3135 21.206 11.7188 21.5403 9.65948C21.7077 8.62804 21.7119 7.75714 21.5681 7.09341ZM22.5114 9.81306C22.1538 12.0165 21.1345 14.7233 19.5537 17.426C17.9728 20.1287 16.1075 22.3534 14.3531 23.7608C13.4774 24.4634 12.6083 24.9792 11.7981 25.2379C10.9879 25.4966 10.1821 25.5131 9.50414 25.1268C8.82622 24.7404 8.43777 24.0434 8.25966 23.2214C8.08154 22.3995 8.09957 21.3987 8.2781 20.2987C8.63575 18.0953 9.65499 15.3885 11.2359 12.6858C12.8167 9.98311 14.682 7.75843 16.4364 6.35101C17.3122 5.64843 18.1812 5.13262 18.9915 4.87389C19.8017 4.61518 20.6075 4.59872 21.2854 4.98505C21.9633 5.37138 22.3518 6.06844 22.5299 6.89035C22.708 7.71233 22.69 8.71313 22.5114 9.81306Z" fill="#F1F1EF"/>
</g>
</g>
<path d="M3.93478 33.2866H5.3259C5.64946 33.2866 5.92062 33.3436 6.13937 33.4575C6.3604 33.5714 6.52674 33.74 6.6384 33.9633C6.75233 34.1844 6.8093 34.4567 6.8093 34.7802C6.8093 35.0081 6.7717 35.2166 6.6965 35.4057C6.62131 35.5926 6.51193 35.7521 6.36838 35.8842C6.22482 36.0141 6.05051 36.111 5.84543 36.1748L5.67453 36.2466H4.43381L4.42697 35.7099H5.31906C5.51047 35.7099 5.66997 35.6689 5.79758 35.5869C5.92518 35.5026 6.02088 35.3898 6.08469 35.2485C6.14849 35.1072 6.18039 34.9511 6.18039 34.7802C6.18039 34.5888 6.15191 34.4214 6.09494 34.2778C6.03797 34.1342 5.94683 34.0237 5.8215 33.9463C5.69846 33.8665 5.53325 33.8266 5.3259 33.8266H4.56369V38.2632H3.93478V33.2866ZM6.32394 38.2632L5.33273 36.0073L5.98557 36.0039L6.99728 38.2221V38.2632H6.32394ZM8.89084 38.3315C8.66981 38.3315 8.47043 38.2985 8.29269 38.2324C8.11496 38.1663 7.96343 38.0661 7.8381 37.9316C7.71278 37.7949 7.61708 37.6229 7.55099 37.4155C7.48491 37.2081 7.45187 36.9632 7.45187 36.6806V36.2636C7.45187 35.9378 7.48947 35.6621 7.56467 35.4365C7.64214 35.2109 7.74582 35.0298 7.8757 34.893C8.00558 34.754 8.15256 34.6538 8.31662 34.5923C8.48068 34.5285 8.6493 34.4966 8.82248 34.4966C9.0549 34.4966 9.25314 34.5341 9.41721 34.6093C9.58127 34.6845 9.71457 34.7962 9.81711 34.9443C9.91965 35.0924 9.99484 35.2747 10.0427 35.4912C10.0928 35.7077 10.1179 35.9572 10.1179 36.2397V36.5918H7.80734V36.0757H9.51291V35.9902C9.50379 35.7988 9.47759 35.6302 9.4343 35.4843C9.39328 35.3385 9.32492 35.2246 9.22922 35.1425C9.13351 35.0582 8.99793 35.0161 8.82248 35.0161C8.71083 35.0161 8.60715 35.0355 8.51144 35.0742C8.41802 35.1106 8.33713 35.1756 8.26877 35.269C8.20269 35.3602 8.15028 35.4866 8.11154 35.6484C8.07508 35.8102 8.05685 36.0153 8.05685 36.2636V36.6806C8.05685 36.8789 8.07508 37.0498 8.11154 37.1933C8.15028 37.3346 8.20611 37.452 8.27902 37.5454C8.35422 37.6365 8.44536 37.7049 8.55246 37.7505C8.66183 37.7938 8.78602 37.8154 8.92502 37.8154C9.12782 37.8154 9.2953 37.7767 9.42746 37.6992C9.55962 37.6194 9.67469 37.518 9.77267 37.395L10.0905 37.7744C10.0245 37.8678 9.93788 37.9578 9.83078 38.0444C9.72596 38.1287 9.59608 38.1982 9.44113 38.2529C9.28846 38.3053 9.10503 38.3315 8.89084 38.3315ZM12.6609 37.6308V35.6245C12.6609 35.4786 12.6381 35.3613 12.5925 35.2724C12.5492 35.1836 12.4831 35.1186 12.3943 35.0776C12.3077 35.0366 12.1983 35.0161 12.0661 35.0161C11.9385 35.0161 11.828 35.0423 11.7346 35.0947C11.6434 35.1471 11.5728 35.2166 11.5227 35.3032C11.4748 35.3898 11.4509 35.4855 11.4509 35.5903H10.8459C10.8459 35.4581 10.8744 35.3271 10.9314 35.1972C10.9906 35.0674 11.0749 34.95 11.1843 34.8452C11.2937 34.7381 11.4247 34.6538 11.5774 34.5923C11.7323 34.5285 11.9055 34.4966 12.0969 34.4966C12.3248 34.4966 12.5264 34.5341 12.7019 34.6093C12.8773 34.6823 13.0152 34.8019 13.1154 34.9682C13.2157 35.1346 13.2658 35.3556 13.2658 35.6313V37.4565C13.2658 37.5796 13.275 37.7106 13.2932 37.8496C13.3137 37.9886 13.3422 38.1082 13.3786 38.2085V38.2632H12.7531C12.7235 38.1902 12.7007 38.0934 12.6848 37.9726C12.6688 37.8496 12.6609 37.7356 12.6609 37.6308ZM12.7566 36.021L12.7634 36.4653H12.343C12.1994 36.4653 12.0684 36.4813 11.9499 36.5132C11.8337 36.5451 11.7334 36.5918 11.6491 36.6533C11.5648 36.7125 11.4999 36.7866 11.4543 36.8755C11.411 36.9643 11.3894 37.0657 11.3894 37.1797C11.3894 37.3278 11.4099 37.4463 11.4509 37.5351C11.4919 37.6217 11.5534 37.6844 11.6355 37.7231C11.7175 37.7619 11.8212 37.7812 11.9465 37.7812C12.0992 37.7812 12.2336 37.7459 12.3498 37.6753C12.466 37.6046 12.556 37.5192 12.6198 37.4189C12.6859 37.3187 12.7167 37.2252 12.7121 37.1386L12.8454 37.4223C12.8363 37.5112 12.8067 37.608 12.7566 37.7129C12.7087 37.8154 12.6415 37.9145 12.5549 38.0102C12.4683 38.1036 12.3658 38.1811 12.2473 38.2426C12.1311 38.3019 12.0001 38.3315 11.8542 38.3315C11.64 38.3315 11.452 38.2905 11.2903 38.2085C11.1307 38.1264 11.0066 38.0057 10.9177 37.8462C10.8288 37.6867 10.7844 37.4896 10.7844 37.2549C10.7844 37.0771 10.8152 36.9131 10.8767 36.7627C10.9382 36.6123 11.0293 36.4824 11.1501 36.373C11.2709 36.2614 11.4224 36.1748 11.6047 36.1133C11.7893 36.0517 12.0023 36.021 12.2439 36.021H12.7566ZM15.4875 37.8154C15.6083 37.8154 15.7177 37.7915 15.8156 37.7436C15.9159 37.6935 15.9979 37.616 16.0617 37.5112C16.1255 37.4041 16.162 37.2651 16.1711 37.0942H16.7385C16.7294 37.3403 16.6667 37.5568 16.5505 37.7436C16.4366 37.9282 16.2862 38.0729 16.0993 38.1777C15.9148 38.2802 15.7108 38.3315 15.4875 38.3315C15.2483 38.3315 15.0398 38.2928 14.862 38.2153C14.6866 38.1378 14.5407 38.0262 14.4245 37.8803C14.3106 37.7322 14.2251 37.5534 14.1682 37.3437C14.1112 37.1318 14.0827 36.8914 14.0827 36.6225V36.2055C14.0827 35.9367 14.1112 35.6974 14.1682 35.4878C14.2251 35.2758 14.3106 35.097 14.4245 34.9511C14.5407 34.803 14.6866 34.6902 14.862 34.6128C15.0398 34.5353 15.2483 34.4966 15.4875 34.4966C15.7382 34.4966 15.9546 34.5501 16.1369 34.6572C16.3215 34.762 16.4651 34.9147 16.5676 35.1152C16.6724 35.3134 16.7294 35.5538 16.7385 35.8364H16.1711C16.162 35.6541 16.129 35.5026 16.072 35.3818C16.015 35.2588 15.9376 35.1676 15.8396 35.1084C15.7416 35.0468 15.6242 35.0161 15.4875 35.0161C15.328 35.0161 15.1959 35.0446 15.091 35.1015C14.9885 35.1562 14.9076 35.236 14.8484 35.3408C14.7891 35.4456 14.747 35.5709 14.7219 35.7168C14.6991 35.8626 14.6877 36.0255 14.6877 36.2055V36.6225C14.6877 36.8025 14.6991 36.9666 14.7219 37.1147C14.747 37.2605 14.788 37.3859 14.8449 37.4907C14.9042 37.5955 14.9862 37.6764 15.091 37.7334C15.1959 37.7881 15.328 37.8154 15.4875 37.8154ZM18.7893 34.5649V35.0503H17.0632V34.5649H18.7893ZM17.6272 33.666H18.2321V37.3471C18.2321 37.4725 18.247 37.567 18.2766 37.6308C18.3085 37.6946 18.3484 37.7368 18.3962 37.7573C18.4441 37.7778 18.4953 37.7881 18.55 37.7881C18.591 37.7881 18.6366 37.7835 18.6867 37.7744C18.7369 37.763 18.771 37.7539 18.7893 37.747L18.7859 38.2632C18.7448 38.2791 18.6902 38.2939 18.6218 38.3076C18.5534 38.3235 18.4668 38.3315 18.362 38.3315C18.2321 38.3315 18.1114 38.3008 17.9997 38.2392C17.8881 38.1777 17.7981 38.0752 17.7297 37.9316C17.6613 37.7858 17.6272 37.5898 17.6272 37.3437V33.666ZM22.9182 36.8105V33.2866H23.5437V36.8105C23.5437 37.1386 23.4867 37.4155 23.3728 37.6411C23.2588 37.8667 23.1005 38.0387 22.8977 38.1572C22.6972 38.2734 22.4659 38.3315 22.2038 38.3315C21.9463 38.3315 21.7162 38.2791 21.5134 38.1743C21.3106 38.0695 21.1511 37.91 21.0349 37.6958C20.9209 37.4816 20.864 37.2116 20.864 36.8857H21.4929C21.4929 37.0953 21.5237 37.2674 21.5852 37.4018C21.649 37.5363 21.7344 37.6354 21.8415 37.6992C21.9486 37.763 22.0694 37.7949 22.2038 37.7949C22.3405 37.7949 22.4625 37.7584 22.5695 37.6855C22.6766 37.6103 22.761 37.4998 22.8225 37.354C22.8863 37.2059 22.9182 37.0247 22.9182 36.8105ZM26.2951 37.3164C26.2951 37.223 26.2723 37.1409 26.2268 37.0703C26.1812 36.9996 26.106 36.9313 26.0012 36.8652C25.8987 36.7991 25.7597 36.7285 25.5842 36.6533C25.4133 36.5827 25.2595 36.5132 25.1228 36.4448C24.9883 36.3742 24.8744 36.2978 24.781 36.2158C24.6876 36.1338 24.6158 36.0392 24.5656 35.9321C24.5178 35.8227 24.4939 35.694 24.4939 35.5459C24.4939 35.3978 24.5212 35.261 24.5759 35.1357C24.6329 35.0081 24.7126 34.8965 24.8152 34.8008C24.9177 34.705 25.0407 34.631 25.1843 34.5786C25.3279 34.5239 25.4885 34.4966 25.6662 34.4966C25.9192 34.4966 26.1345 34.5455 26.3122 34.6435C26.49 34.7415 26.6255 34.8759 26.719 35.0468C26.8147 35.2155 26.8625 35.4057 26.8625 35.6176H26.261C26.261 35.5151 26.2382 35.4183 26.1926 35.3271C26.147 35.236 26.0798 35.1619 25.9909 35.1049C25.9021 35.0457 25.7938 35.0161 25.6662 35.0161C25.5318 35.0161 25.4224 35.04 25.3381 35.0879C25.2538 35.1357 25.1923 35.1984 25.1535 35.2758C25.1171 35.351 25.0988 35.4342 25.0988 35.5254C25.0988 35.5937 25.108 35.653 25.1262 35.7031C25.1467 35.7509 25.1809 35.7965 25.2287 35.8398C25.2766 35.8808 25.3415 35.9241 25.4236 35.9697C25.5079 36.013 25.615 36.0631 25.7448 36.1201C25.9955 36.2181 26.2063 36.3172 26.3772 36.4174C26.5481 36.5177 26.6779 36.6351 26.7668 36.7695C26.8557 36.9039 26.9001 37.0703 26.9001 37.2685C26.9001 37.4303 26.8705 37.5773 26.8112 37.7094C26.7543 37.8393 26.6723 37.951 26.5652 38.0444C26.4581 38.1378 26.3293 38.2096 26.1789 38.2597C26.0308 38.3076 25.8645 38.3315 25.6799 38.3315C25.4019 38.3315 25.1661 38.2768 24.9724 38.1674C24.781 38.0558 24.6351 37.9111 24.5349 37.7334C24.4369 37.5534 24.3879 37.3608 24.3879 37.1557H24.9929C24.9997 37.3289 25.0385 37.4633 25.1091 37.5591C25.182 37.6548 25.2697 37.7208 25.3723 37.7573C25.4748 37.7938 25.5774 37.812 25.6799 37.812C25.8143 37.812 25.9271 37.7926 26.0183 37.7539C26.1094 37.7129 26.1778 37.6548 26.2234 37.5796C26.2712 37.5044 26.2951 37.4166 26.2951 37.3164Z" fill="#252323"/>
<defs>
<clipPath id="clip0_401_338">
<rect width="30.2632" height="30.2632" fill="white" transform="translate(0.263153)"/>
</clipPath>
<clipPath id="clip1_401_338">
<rect width="23.6053" height="20.7303" fill="white" transform="translate(3.5921 4.6908)"/>
</clipPath>
</defs>
</svg>
