<svg width="31" height="31" viewBox="0 0 31 31" fill="none" xmlns="http://www.w3.org/2000/svg">
<g clip-path="url(#clip0_401_351)">
<path d="M5.62226 2.43926e-06H25.1672C25.8712 -0.000678055 26.5683 0.141029 27.2188 0.417014C27.8693 0.692998 28.4604 1.09784 28.9581 1.60838C29.4559 2.11891 29.8506 2.72511 30.1197 3.39229C30.3888 4.05946 30.527 4.77451 30.5263 5.49652V24.7666C30.527 25.4886 30.3888 26.2037 30.1197 26.8709C29.8506 27.538 29.4559 28.1442 28.9581 28.6548C28.4604 29.1653 27.8693 29.5702 27.2188 29.8461C26.5683 30.1221 25.8712 30.2638 25.1672 30.2632H5.62226C4.9183 30.2638 4.22113 30.1221 3.57063 29.8461C2.92014 29.5702 2.32909 29.1653 1.83132 28.6548C1.33355 28.1442 0.938826 27.538 0.669741 26.8709C0.400656 26.2037 0.262492 25.4886 0.263155 24.7666V5.49652C0.262492 4.77451 0.400656 4.05946 0.669741 3.39229C0.938826 2.72511 1.33355 2.11891 1.83132 1.60838C2.32909 1.09784 2.92014 0.692998 3.57063 0.417014C4.22113 0.141029 4.9183 -0.000678055 5.62226 2.43926e-06Z" fill="#252323"/>
<g clip-path="url(#clip1_401_351)">
<path d="M15.3948 17.1326C16.5568 17.1326 17.4987 16.2028 17.4987 15.0559C17.4987 13.9089 16.5568 12.9792 15.3948 12.9792C14.2328 12.9792 13.2908 13.9089 13.2908 15.0559C13.2908 16.2028 14.2328 17.1326 15.3948 17.1326Z" fill="#F1F1EF"/>
<path fill-rule="evenodd" clip-rule="evenodd" d="M5.32201 13.7601C4.81153 14.215 4.59708 14.6537 4.59708 15.0559C4.59708 15.4582 4.81153 15.8969 5.32201 16.3518C5.83244 16.8066 6.59866 17.2384 7.58733 17.611C9.56129 18.355 12.3215 18.8253 15.3948 18.8253C18.4681 18.8253 21.2283 18.355 23.2022 17.611C24.1909 17.2384 24.9571 16.8066 25.4675 16.3518C25.978 15.8969 26.1925 15.4582 26.1925 15.0559C26.1925 14.6537 25.978 14.215 25.4675 13.7601C24.9571 13.3053 24.1909 12.8735 23.2022 12.5008C21.2283 11.7569 18.4681 11.2866 15.3948 11.2866C12.3215 11.2866 9.56129 11.7569 7.58733 12.5008C6.59866 12.8735 5.83244 13.3053 5.32201 13.7601ZM7.23649 11.5939C9.34852 10.7979 12.233 10.3158 15.3948 10.3158C18.5565 10.3158 21.441 10.7979 23.5531 11.5939C24.6074 11.9912 25.4945 12.4762 26.1266 13.0395C26.7587 13.6027 27.176 14.2833 27.176 15.0559C27.176 15.8286 26.7587 16.5092 26.1266 17.0724C25.4945 17.6356 24.6074 18.1206 23.5531 18.518C21.441 19.314 18.5565 19.7961 15.3948 19.7961C12.233 19.7961 9.34852 19.314 7.23649 18.518C6.18217 18.1206 5.29508 17.6356 4.66296 17.0724C4.03088 16.5092 3.61353 15.8286 3.61353 15.0559C3.61353 14.2833 4.03088 13.6027 4.66296 13.0395C5.29508 12.4762 6.18217 11.9912 7.23649 11.5939Z" fill="#F1F1EF"/>
<path fill-rule="evenodd" clip-rule="evenodd" d="M11.4953 5.79761C10.841 5.58867 10.3488 5.62471 9.99589 5.82584C9.64296 6.02696 9.36527 6.42964 9.22143 7.09344C9.0776 7.75717 9.08182 8.62807 9.24924 9.65951C9.5835 11.7189 10.551 14.3135 12.0876 16.9406C13.6242 19.5677 15.417 21.692 17.0567 23.0074C17.8779 23.6663 18.6399 24.1053 19.2942 24.3142C19.9485 24.5232 20.4407 24.4871 20.7936 24.286C21.1465 24.0849 21.4242 23.6822 21.568 23.0184C21.7119 22.3547 21.7076 21.4838 21.5402 20.4523C21.206 18.393 20.2385 15.7984 18.7019 13.1713C17.1652 10.5442 15.3725 8.41983 13.7328 7.10442C12.9115 6.44559 12.1495 6.00653 11.4953 5.79761ZM14.3531 6.35104C16.1075 7.75846 17.9728 9.98314 19.5536 12.6858C21.1345 15.3886 22.1538 18.0954 22.5114 20.2988C22.6899 21.3987 22.708 22.3995 22.5298 23.2215C22.3517 24.0434 21.9633 24.7404 21.2854 25.1268C20.6074 25.5131 19.8016 25.4966 18.9914 25.2379C18.1812 24.9792 17.3121 24.4634 16.4363 23.7608C14.682 22.3534 12.8167 20.1287 11.2358 17.426C9.65496 14.7233 8.63571 12.0165 8.27807 9.81309C8.09954 8.71315 8.08151 7.71236 8.25963 6.89038C8.43773 6.06847 8.82619 5.37141 9.50411 4.98507C10.182 4.59874 10.9878 4.61521 11.798 4.87392C12.6083 5.13265 13.4773 5.64846 14.3531 6.35104Z" fill="#F1F1EF"/>
<path fill-rule="evenodd" clip-rule="evenodd" d="M21.5681 7.09341C21.4242 6.42961 21.1465 6.02694 20.7936 5.82581C20.4407 5.62468 19.9485 5.58865 19.2942 5.79759C18.64 6.00651 17.878 6.44556 17.0567 7.1044C15.417 8.4198 13.6243 10.5441 12.0876 13.1712C10.551 15.7983 9.58353 18.393 9.24927 20.4523C9.08185 21.4838 9.07763 22.3547 9.22146 23.0184C9.3653 23.6822 9.64299 24.0849 9.99592 24.286C10.3488 24.4871 10.841 24.5232 11.4953 24.3142C12.1496 24.1053 12.9116 23.6662 13.7328 23.0074C15.3725 21.692 17.1653 19.5677 18.7019 16.9406C20.2385 14.3135 21.206 11.7188 21.5403 9.65948C21.7077 8.62804 21.7119 7.75714 21.5681 7.09341ZM22.5114 9.81306C22.1538 12.0165 21.1345 14.7233 19.5537 17.426C17.9728 20.1287 16.1075 22.3534 14.3531 23.7608C13.4774 24.4634 12.6083 24.9792 11.7981 25.2379C10.9879 25.4966 10.1821 25.5131 9.50414 25.1268C8.82623 24.7404 8.43777 24.0434 8.25966 23.2214C8.08154 22.3995 8.09957 21.3987 8.2781 20.2987C8.63575 18.0953 9.65499 15.3885 11.2359 12.6858C12.8167 9.98311 14.682 7.75843 16.4364 6.35101C17.3122 5.64843 18.1812 5.13262 18.9915 4.87389C19.8017 4.61518 20.6075 4.59872 21.2854 4.98505C21.9633 5.37138 22.3518 6.06844 22.5299 6.89035C22.708 7.71233 22.69 8.71313 22.5114 9.81306Z" fill="#F1F1EF"/>
</g>
</g>
<defs>
<clipPath id="clip0_401_351">
<rect width="30.2632" height="30.2632" fill="white" transform="translate(0.263153)"/>
</clipPath>
<clipPath id="clip1_401_351">
<rect width="23.6053" height="20.7303" fill="white" transform="translate(3.5921 4.6908)"/>
</clipPath>
</defs>
</svg>
