<svg width="32" height="41" viewBox="0 0 32 41" fill="none" xmlns="http://www.w3.org/2000/svg">
<path d="M6.14859 0.263156H25.6935C26.3975 0.262475 27.0947 0.404182 27.7452 0.680167C28.3957 0.956151 28.9867 1.361 29.4845 1.87153C29.9823 2.38206 30.377 2.98826 30.6461 3.65544C30.9151 4.32261 31.0533 5.03766 31.0526 5.75967V25.0298C31.0533 25.7518 30.9151 26.4668 30.6461 27.134C30.377 27.8012 29.9823 28.4074 29.4845 28.9179C28.9867 29.4285 28.3957 29.8333 27.7452 30.1093C27.0947 30.3853 26.3975 30.527 25.6935 30.5263H6.14859C5.44464 30.527 4.74746 30.3853 4.09697 30.1093C3.44647 29.8333 2.85543 29.4285 2.35766 28.9179C1.85989 28.4074 1.46516 27.8012 1.19608 27.134C0.926993 26.4668 0.788829 25.7518 0.789492 25.0298V5.75967C0.788829 5.03766 0.926993 4.32261 1.19608 3.65544C1.46516 2.98826 1.85989 2.38206 2.35766 1.87153C2.85543 1.361 3.44647 0.956151 4.09697 0.680167C4.74746 0.404182 5.44464 0.262475 6.14859 0.263156Z" fill="#252323"/>
<path d="M14.4239 18.1354C13.8321 18.5818 11.8995 18.9088 9.60644 18.9088C7.31342 18.9088 5.38122 18.5818 4.78949 18.1354V20.8777C4.78949 20.954 4.80097 21.028 4.82162 21.0979C4.80051 21.1372 4.78949 21.1774 4.78949 21.2181C4.78949 21.7955 6.94617 22.2636 9.6069 22.2636C12.2676 22.2636 14.4243 21.7955 14.4243 21.2181C14.4243 21.1774 14.4133 21.1372 14.3922 21.0979C14.4128 21.028 14.4243 20.9545 14.4243 20.8777V18.1354H14.4239ZM5.39408 19.4177C5.29446 19.4177 5.21366 19.3363 5.21366 19.2359C5.21366 19.1355 5.29446 19.0541 5.39408 19.0541C5.49369 19.0541 5.57449 19.1355 5.57449 19.2359C5.57449 19.3363 5.49369 19.4177 5.39408 19.4177Z" fill="#F1F1EF"/>
<path d="M9.6069 14.8023C7.31388 14.8023 5.38122 14.4753 4.78949 14.0289V17.3184C4.78949 17.3184 4.87763 17.4984 4.93088 17.4688C5.64977 17.868 7.4718 18.1516 9.60644 18.1516C11.7411 18.1516 13.5631 17.868 14.282 17.4688C14.3353 17.4984 14.4234 17.3184 14.4234 17.3184V14.0289C13.8317 14.4753 11.899 14.8023 9.60598 14.8023H9.6069ZM5.39408 15.5753C5.29446 15.5753 5.21366 15.4939 5.21366 15.3935C5.21366 15.2932 5.29446 15.2117 5.39408 15.2117C5.49369 15.2117 5.57449 15.2932 5.57449 15.3935C5.57449 15.4939 5.49369 15.5753 5.39408 15.5753Z" fill="#F1F1EF"/>
<path d="M9.6069 9.26315C6.94617 9.26315 4.78949 9.7313 4.78949 10.3086V13.3891C4.78949 13.3891 4.81107 13.4367 4.82254 13.4284C5.45054 13.8623 7.35474 14.1778 9.60644 14.1778C11.8582 14.1778 13.7623 13.8623 14.3903 13.4284C14.4023 13.4367 14.4234 13.403 14.4234 13.403V10.3086C14.4239 9.7313 12.2672 9.26315 9.6069 9.26315ZM5.39408 11.9023C5.29446 11.9023 5.21366 11.8209 5.21366 11.7205C5.21366 11.6201 5.29446 11.5387 5.39408 11.5387C5.49369 11.5387 5.57449 11.6201 5.57449 11.7205C5.57449 11.8209 5.49369 11.9023 5.39408 11.9023ZM9.64179 10.8221C7.24686 10.8221 5.30502 10.5496 5.30502 10.2138C5.30502 9.87795 7.24686 9.60548 9.64179 9.60548C12.0367 9.60548 13.9786 9.87795 13.9786 10.2138C13.9786 10.5496 12.0372 10.8221 9.64179 10.8221Z" fill="#F1F1EF"/>
<path d="M19.351 15.7479H17.6703V15.1692C17.6703 14.899 17.6488 14.7269 17.6061 14.6529C17.5629 14.5789 17.4913 14.5419 17.3912 14.5419C17.2824 14.5419 17.1998 14.5919 17.1443 14.6918C17.0883 14.7917 17.0602 14.943 17.0602 15.1456C17.0602 15.406 17.0915 15.6026 17.1544 15.7345C17.2145 15.8663 17.3848 16.0255 17.6658 16.2119C18.4714 16.7485 18.9787 17.1889 19.188 17.5326C19.3973 17.8768 19.502 18.4314 19.502 19.1966C19.502 19.7531 19.4442 20.163 19.328 20.4266C19.2119 20.6903 18.9879 20.9114 18.655 21.09C18.3227 21.2686 17.9357 21.3579 17.4945 21.3579C17.0102 21.3579 16.5966 21.2552 16.2541 21.0493C15.9117 20.8434 15.6872 20.5816 15.5811 20.2629C15.4751 19.9446 15.4223 19.4926 15.4223 18.9075V18.3963H17.1034V19.3465C17.1034 19.6393 17.1268 19.8271 17.1741 19.9108C17.2214 19.9946 17.3054 20.0362 17.4257 20.0362C17.5459 20.0362 17.6355 19.983 17.6942 19.8771C17.753 19.7711 17.7824 19.6134 17.7824 19.4043C17.7824 18.9445 17.7263 18.6438 17.6148 18.5022C17.5 18.3607 17.2177 18.1243 16.7678 17.7931C16.3179 17.4586 16.02 17.2157 15.8736 17.0649C15.7276 16.9136 15.6064 16.705 15.5104 16.4376C15.4145 16.1707 15.3663 15.8298 15.3663 15.4148C15.3663 14.8167 15.4342 14.3795 15.5706 14.1029C15.7065 13.8263 15.9268 13.6102 16.2303 13.4543C16.5342 13.2984 16.901 13.2202 17.3306 13.2202C17.8007 13.2202 18.201 13.3054 18.532 13.4761C18.863 13.6468 19.0824 13.8614 19.1898 14.12C19.2973 14.3791 19.351 14.8185 19.351 15.4393V15.7479Z" fill="#F1F1EF"/>
<path d="M24.2047 17.9573C24.2047 18.7419 24.1881 19.2974 24.1551 19.624C24.122 19.9506 24.0187 20.2485 23.8457 20.5187C23.6721 20.7889 23.438 20.9961 23.1428 21.1409C22.8477 21.2857 22.5038 21.3579 22.1113 21.3579C21.7188 21.3579 21.4044 21.2894 21.1074 21.1529C20.8108 21.0165 20.5721 20.8111 20.3917 20.5381C20.2113 20.2647 20.1039 19.9673 20.0694 19.6458C20.035 19.3243 20.018 18.7613 20.018 17.9577V16.6218C20.018 15.8372 20.0345 15.2816 20.0676 14.955C20.1006 14.6289 20.2035 14.3305 20.377 14.0603C20.5505 13.7902 20.7846 13.5829 21.0798 13.4381C21.375 13.2933 21.7188 13.2212 22.1113 13.2212C22.4836 13.2212 22.8183 13.2896 23.1153 13.4261C23.4119 13.563 23.6506 13.768 23.831 14.0409C24.0114 14.3143 24.1188 14.6118 24.1532 14.9333C24.1877 15.2548 24.2047 15.8178 24.2047 16.6218V17.9577V17.9573ZM22.395 15.3912C22.395 15.0281 22.3771 14.7954 22.3413 14.6941C22.3055 14.5928 22.2316 14.5424 22.1201 14.5424C22.0255 14.5424 21.953 14.5835 21.9029 14.6654C21.8529 14.7473 21.8276 14.9892 21.8276 15.3912V19.0379C21.8276 19.4913 21.8442 19.7711 21.8772 19.8771C21.9103 19.983 21.9869 20.0362 22.1072 20.0362C22.2275 20.0362 22.3092 19.9751 22.3436 19.853C22.3781 19.7309 22.395 19.4399 22.395 18.9801V15.3912Z" fill="#F1F1EF"/>
<path d="M26.6891 13.3845V19.631H27.7895V21.1936H24.879V13.3845H26.6887H26.6891Z" fill="#F1F1EF"/>
<path d="M24.0914 21.3616L22.3452 20.1477L21.7929 20.9546L23.539 22.1684L24.0914 21.3616Z" fill="#F1F1EF"/>
<path d="M12.6349 37.2685C12.6349 37.1523 12.6213 37.0497 12.5939 36.9609C12.5666 36.8697 12.5187 36.7877 12.4504 36.7148C12.382 36.6419 12.2863 36.5724 12.1633 36.5063C12.0402 36.4402 11.8841 36.373 11.695 36.3046C11.4899 36.2317 11.3042 36.1508 11.1379 36.062C10.9715 35.9708 10.8291 35.8671 10.7106 35.7509C10.5944 35.6347 10.5044 35.5014 10.4406 35.351C10.3768 35.2006 10.3449 35.0286 10.3449 34.8349C10.3449 34.6412 10.378 34.4623 10.444 34.2983C10.5124 34.1342 10.6081 33.9918 10.7311 33.871C10.8565 33.748 11.0069 33.6523 11.1823 33.5839C11.3578 33.5156 11.5537 33.4814 11.7702 33.4814C12.0938 33.4814 12.3661 33.5532 12.5871 33.6967C12.8104 33.838 12.979 34.0237 13.093 34.2538C13.2069 34.4817 13.2639 34.7255 13.2639 34.9853H12.6349C12.6349 34.7984 12.6042 34.6332 12.5427 34.4897C12.4834 34.3439 12.39 34.2299 12.2624 34.1479C12.1371 34.0636 11.973 34.0214 11.7702 34.0214C11.5879 34.0214 11.4375 34.0567 11.319 34.1274C11.2028 34.198 11.1162 34.2937 11.0593 34.4145C11.0046 34.5353 10.9772 34.6731 10.9772 34.8281C10.9772 34.9329 10.9955 35.0286 11.0319 35.1152C11.0684 35.1995 11.1242 35.2781 11.1994 35.351C11.2769 35.4239 11.3726 35.4911 11.4865 35.5527C11.6027 35.6142 11.7394 35.6734 11.8967 35.7304C12.1405 35.8102 12.349 35.899 12.5222 35.997C12.6953 36.095 12.8366 36.2055 12.946 36.3286C13.0554 36.4493 13.1351 36.5872 13.1852 36.7421C13.2377 36.8948 13.2639 37.068 13.2639 37.2617C13.2639 37.4645 13.2297 37.6479 13.1613 37.812C13.0952 37.976 12.9984 38.1161 12.8708 38.2324C12.7432 38.3486 12.5894 38.4386 12.4094 38.5024C12.2293 38.5639 12.0266 38.5947 11.801 38.5947C11.605 38.5947 11.4125 38.5628 11.2233 38.499C11.0365 38.4352 10.8667 38.3395 10.7141 38.2119C10.5614 38.0842 10.4395 37.927 10.3483 37.7402C10.2572 37.551 10.2116 37.3323 10.2116 37.0839H10.8405C10.8405 37.2548 10.8656 37.4018 10.9157 37.5248C10.9658 37.6456 11.0353 37.7459 11.1242 37.8256C11.2131 37.9054 11.3145 37.9646 11.4284 38.0034C11.5446 38.0398 11.6688 38.058 11.801 38.058C11.9833 38.058 12.1359 38.0261 12.259 37.9623C12.3843 37.8985 12.4777 37.8074 12.5392 37.6889C12.603 37.5704 12.6349 37.4303 12.6349 37.2685ZM16.2614 37.9555L17.3654 38.957L16.9382 39.3671L15.8581 38.3793L16.2614 37.9555ZM17.2971 35.6074V36.4687C17.2971 36.8219 17.2583 37.1318 17.1808 37.3984C17.1057 37.6627 16.9951 37.8837 16.8493 38.0615C16.7035 38.2392 16.5269 38.3725 16.3195 38.4614C16.1144 38.5502 15.8832 38.5947 15.6257 38.5947C15.3773 38.5947 15.1506 38.5502 14.9455 38.4614C14.7404 38.3725 14.5638 38.2392 14.4157 38.0615C14.2676 37.8837 14.1525 37.6627 14.0705 37.3984C13.9907 37.1318 13.9509 36.8219 13.9509 36.4687V35.6074C13.9509 35.2542 13.9907 34.9454 14.0705 34.6811C14.1502 34.4168 14.2642 34.1957 14.4123 34.018C14.5604 33.838 14.737 33.7036 14.9421 33.6147C15.1472 33.5258 15.3739 33.4814 15.6223 33.4814C15.8797 33.4814 16.111 33.5258 16.3161 33.6147C16.5235 33.7036 16.7001 33.838 16.8459 34.018C16.9917 34.1957 17.1034 34.4168 17.1808 34.6811C17.2583 34.9454 17.2971 35.2542 17.2971 35.6074ZM16.675 36.4687V35.6005C16.675 35.3271 16.6522 35.0924 16.6066 34.8964C16.5611 34.6982 16.4927 34.5364 16.4016 34.4111C16.3127 34.2857 16.2033 34.1935 16.0734 34.1342C15.9435 34.0727 15.7932 34.0419 15.6223 34.0419C15.4627 34.0419 15.3181 34.0727 15.1882 34.1342C15.0606 34.1935 14.9512 34.2857 14.86 34.4111C14.7689 34.5364 14.6983 34.6982 14.6481 34.8964C14.6003 35.0924 14.5764 35.3271 14.5764 35.6005V36.4687C14.5764 36.7444 14.6003 36.9814 14.6481 37.1796C14.6983 37.3779 14.7689 37.5408 14.86 37.6684C14.9535 37.7937 15.064 37.8871 15.1916 37.9487C15.3215 38.0079 15.4662 38.0375 15.6257 38.0375C15.7966 38.0375 15.947 38.0079 16.0768 37.9487C16.209 37.8871 16.3195 37.7937 16.4084 37.6684C16.4973 37.5408 16.5633 37.3779 16.6066 37.1796C16.6522 36.9814 16.675 36.7444 16.675 36.4687ZM20.8791 37.9897V38.5263H18.8146V37.9897H20.8791ZM18.9274 33.5497V38.5263H18.2985V33.5497H18.9274Z" fill="#252323"/>
</svg>
