<svg width="32" height="31" viewBox="0 0 32 31" fill="none" xmlns="http://www.w3.org/2000/svg">
<path d="M6.14859 0.263186H25.6935C26.3975 0.262506 27.0947 0.404213 27.7452 0.680197C28.3957 0.956182 28.9867 1.36103 29.4845 1.87156C29.9823 2.38209 30.377 2.98829 30.6461 3.65547C30.9151 4.32264 31.0533 5.03769 31.0526 5.7597V25.0298C31.0533 25.7518 30.9151 26.4669 30.6461 27.1341C30.377 27.8012 29.9823 28.4074 29.4845 28.918C28.9867 29.4285 28.3957 29.8333 27.7452 30.1093C27.0947 30.3853 26.3975 30.527 25.6935 30.5263H6.14859C5.44464 30.527 4.74746 30.3853 4.09697 30.1093C3.44647 29.8333 2.85543 29.4285 2.35766 28.918C1.85989 28.4074 1.46516 27.8012 1.19608 27.1341C0.926993 26.4669 0.788829 25.7518 0.789492 25.0298V5.7597C0.788829 5.03769 0.926993 4.32264 1.19608 3.65547C1.46516 2.98829 1.85989 2.38209 2.35766 1.87156C2.85543 1.36103 3.44647 0.956182 4.09697 0.680197C4.74746 0.404213 5.44464 0.262506 6.14859 0.263186Z" fill="#252323"/>
<path d="M14.4239 18.1354C13.8321 18.5818 11.8995 18.9089 9.60644 18.9089C7.31342 18.9089 5.38122 18.5818 4.78949 18.1354V20.8777C4.78949 20.954 4.80097 21.028 4.82162 21.0979C4.80051 21.1372 4.78949 21.1775 4.78949 21.2182C4.78949 21.7955 6.94617 22.2637 9.6069 22.2637C12.2676 22.2637 14.4243 21.7955 14.4243 21.2182C14.4243 21.1775 14.4133 21.1372 14.3922 21.0979C14.4128 21.028 14.4243 20.9545 14.4243 20.8777V18.1354H14.4239ZM5.39408 19.4177C5.29446 19.4177 5.21366 19.3363 5.21366 19.2359C5.21366 19.1355 5.29446 19.0541 5.39408 19.0541C5.49369 19.0541 5.57449 19.1355 5.57449 19.2359C5.57449 19.3363 5.49369 19.4177 5.39408 19.4177Z" fill="#F1F1EF"/>
<path d="M9.6069 14.8024C7.31388 14.8024 5.38122 14.4753 4.78949 14.0289V17.3185C4.78949 17.3185 4.87763 17.4984 4.93088 17.4688C5.64977 17.868 7.4718 18.1516 9.60644 18.1516C11.7411 18.1516 13.5631 17.868 14.282 17.4688C14.3353 17.4984 14.4234 17.3185 14.4234 17.3185V14.0289C13.8317 14.4753 11.899 14.8024 9.60598 14.8024H9.6069ZM5.39408 15.5754C5.29446 15.5754 5.21366 15.494 5.21366 15.3936C5.21366 15.2932 5.29446 15.2118 5.39408 15.2118C5.49369 15.2118 5.57449 15.2932 5.57449 15.3936C5.57449 15.494 5.49369 15.5754 5.39408 15.5754Z" fill="#F1F1EF"/>
<path d="M9.6069 9.26318C6.94617 9.26318 4.78949 9.73134 4.78949 10.3087V13.3891C4.78949 13.3891 4.81107 13.4368 4.82254 13.4284C5.45054 13.8624 7.35474 14.1779 9.60644 14.1779C11.8582 14.1779 13.7623 13.8624 14.3903 13.4284C14.4023 13.4368 14.4234 13.403 14.4234 13.403V10.3087C14.4239 9.73134 12.2672 9.26318 9.6069 9.26318ZM5.39408 11.9023C5.29446 11.9023 5.21366 11.8209 5.21366 11.7205C5.21366 11.6201 5.29446 11.5387 5.39408 11.5387C5.49369 11.5387 5.57449 11.6201 5.57449 11.7205C5.57449 11.8209 5.49369 11.9023 5.39408 11.9023ZM9.64179 10.8221C7.24686 10.8221 5.30502 10.5497 5.30502 10.2138C5.30502 9.87798 7.24686 9.60551 9.64179 9.60551C12.0367 9.60551 13.9786 9.87798 13.9786 10.2138C13.9786 10.5497 12.0372 10.8221 9.64179 10.8221Z" fill="#F1F1EF"/>
<path d="M19.351 15.7479H17.6704V15.1692C17.6704 14.8991 17.6488 14.727 17.6061 14.6529C17.563 14.5789 17.4913 14.5419 17.3913 14.5419C17.2825 14.5419 17.1998 14.5919 17.1443 14.6918C17.0883 14.7917 17.0603 14.943 17.0603 15.1456C17.0603 15.4061 17.0915 15.6027 17.1544 15.7345C17.2145 15.8664 17.3848 16.0255 17.6658 16.2119C18.4714 16.7485 18.9787 17.1889 19.188 17.5326C19.3974 17.8768 19.502 18.4315 19.502 19.1966C19.502 19.7531 19.4442 20.163 19.3281 20.4267C19.2119 20.6903 18.9879 20.9115 18.6551 21.09C18.3227 21.2686 17.9357 21.3579 17.4946 21.3579C17.0102 21.3579 16.5966 21.2552 16.2542 21.0493C15.9117 20.8435 15.6872 20.5816 15.5812 20.2629C15.4751 19.9446 15.4223 19.4927 15.4223 18.9075V18.3963H17.1034V19.3465C17.1034 19.6393 17.1268 19.8271 17.1741 19.9109C17.2214 19.9946 17.3054 20.0362 17.4257 20.0362C17.546 20.0362 17.6355 19.983 17.6942 19.8771C17.753 19.7712 17.7824 19.6134 17.7824 19.4043C17.7824 18.9445 17.7264 18.6438 17.6148 18.5022C17.5001 18.3607 17.2177 18.1243 16.7679 17.7931C16.318 17.4586 16.02 17.2158 15.8736 17.0649C15.7276 16.9137 15.6064 16.705 15.5105 16.4377C15.4145 16.1707 15.3663 15.8298 15.3663 15.4149C15.3663 14.8167 15.4343 14.3796 15.5706 14.1029C15.7065 13.8263 15.9268 13.6102 16.2303 13.4544C16.5342 13.2985 16.901 13.2203 17.3307 13.2203C17.8007 13.2203 18.2011 13.3054 18.532 13.4761C18.863 13.6468 19.0825 13.8614 19.1899 14.12C19.2973 14.3791 19.351 14.8186 19.351 15.4394V15.7479Z" fill="#F1F1EF"/>
<path d="M24.2047 17.9573C24.2047 18.7419 24.1881 19.2975 24.1551 19.6241C24.122 19.9507 24.0187 20.2486 23.8457 20.5187C23.6721 20.7889 23.438 20.9961 23.1428 21.1409C22.8477 21.2857 22.5038 21.3579 22.1113 21.3579C21.7188 21.3579 21.4044 21.2894 21.1074 21.153C20.8108 21.0165 20.5721 20.8111 20.3917 20.5382C20.2113 20.2648 20.1039 19.9673 20.0694 19.6458C20.035 19.3243 20.018 18.7613 20.018 17.9578V16.6218C20.018 15.8372 20.0345 15.2816 20.0676 14.955C20.1006 14.6289 20.2035 14.3305 20.377 14.0604C20.5505 13.7902 20.7846 13.583 21.0798 13.4382C21.375 13.2934 21.7188 13.2212 22.1113 13.2212C22.4836 13.2212 22.8183 13.2897 23.1153 13.4261C23.4119 13.5631 23.6506 13.768 23.831 14.0409C24.0114 14.3143 24.1188 14.6118 24.1532 14.9333C24.1877 15.2548 24.2047 15.8178 24.2047 16.6218V17.9578V17.9573ZM22.395 15.3913C22.395 15.0281 22.3771 14.7954 22.3413 14.6941C22.3055 14.5928 22.2316 14.5424 22.1201 14.5424C22.0255 14.5424 21.953 14.5836 21.9029 14.6654C21.8529 14.7473 21.8276 14.9893 21.8276 15.3913V19.0379C21.8276 19.4913 21.8442 19.7712 21.8772 19.8771C21.9103 19.983 21.9869 20.0362 22.1072 20.0362C22.2275 20.0362 22.3092 19.9752 22.3436 19.853C22.3781 19.7309 22.395 19.4399 22.395 18.9801V15.3913Z" fill="#F1F1EF"/>
<path d="M26.6891 13.3845V19.631H27.7895V21.1937H24.879V13.3845H26.6887H26.6891Z" fill="#F1F1EF"/>
<path d="M24.0914 21.3616L22.3453 20.1477L21.7929 20.9546L23.539 22.1685L24.0914 21.3616Z" fill="#F1F1EF"/>
</svg>
