<svg width="45" height="46" viewBox="0 0 45 46" fill="none" xmlns="http://www.w3.org/2000/svg">
<g filter="url(#filter0_d_401_360)">
<rect x="7.11151" y="6.06821" width="30.2632" height="30.2632" rx="5.38012" fill="#252323"/>
<rect x="7.19558" y="6.15227" width="30.0951" height="30.0951" rx="5.29606" stroke="#252323" stroke-width="0.168129"/>
</g>
<path d="M22.1586 14.8004C18.9586 14.8004 16.9593 16.3998 16.1586 19.5998C17.3583 18.0003 18.7587 17.4004 20.3583 17.8004C21.2716 18.028 21.9243 18.6903 22.6471 19.4241C23.8234 20.6179 25.1851 22 28.1586 22C31.3585 22 33.358 20.4004 34.1586 17.1996C32.9588 18.8001 31.5586 19.3999 29.9588 19C29.0457 18.7722 28.3938 18.1101 27.67 17.3763C26.4944 16.1824 25.1331 14.8004 22.1586 14.8004ZM16.1586 22C12.9588 22 10.9593 23.5996 10.1586 26.8004C11.3583 25.1999 12.7585 24.6001 14.3583 25C15.2716 25.2278 15.9243 25.8899 16.6471 26.6238C17.8234 27.8176 19.1851 29.1996 22.1586 29.1996C25.3585 29.1996 27.358 27.6003 28.1586 24.4002C26.9588 25.9998 25.5586 26.5996 23.9588 26.1996C23.0457 25.972 22.3938 25.3098 21.67 24.5759C20.4944 23.3821 19.1331 22 16.1586 22Z" fill="#F1F1EF"/>
<path d="M8.62054 39.9976V44.2632H8.08734V39.9976H8.62054ZM9.74261 39.9976V40.4604H6.9682V39.9976H9.74261ZM11.5209 43.7212V42.0015C11.5209 41.8765 11.5014 41.7759 11.4623 41.6997C11.4252 41.6235 11.3686 41.5679 11.2924 41.5327C11.2182 41.4976 11.1245 41.48 11.0112 41.48C10.9018 41.48 10.8071 41.5024 10.727 41.5474C10.6489 41.5923 10.5883 41.6519 10.5453 41.7261C10.5043 41.8003 10.4838 41.8823 10.4838 41.9722H9.96527C9.96527 41.8589 9.98969 41.7466 10.0385 41.6353C10.0893 41.5239 10.1616 41.4233 10.2553 41.3335C10.3491 41.2417 10.4614 41.1694 10.5922 41.1167C10.725 41.062 10.8735 41.0347 11.0375 41.0347C11.2328 41.0347 11.4057 41.0669 11.5561 41.1313C11.7065 41.1938 11.8246 41.2964 11.9106 41.439C11.9965 41.5815 12.0395 41.771 12.0395 42.0073V43.5718C12.0395 43.6772 12.0473 43.7896 12.0629 43.9087C12.0805 44.0278 12.1049 44.1304 12.1362 44.2163V44.2632H11.6C11.5746 44.2007 11.5551 44.1177 11.5414 44.0142C11.5278 43.9087 11.5209 43.811 11.5209 43.7212ZM11.603 42.3413L11.6088 42.7222H11.2485C11.1254 42.7222 11.0131 42.7358 10.9116 42.7632C10.812 42.7905 10.726 42.8306 10.6537 42.8833C10.5815 42.9341 10.5258 42.9976 10.4868 43.0737C10.4496 43.1499 10.4311 43.2368 10.4311 43.3345C10.4311 43.4614 10.4487 43.563 10.4838 43.6392C10.519 43.7134 10.5717 43.7671 10.642 43.8003C10.7123 43.8335 10.8012 43.8501 10.9086 43.8501C11.0395 43.8501 11.1547 43.8198 11.2543 43.7593C11.3539 43.6987 11.4311 43.6255 11.4858 43.5396C11.5424 43.4536 11.5688 43.3735 11.5649 43.2993L11.6791 43.5425C11.6713 43.6187 11.6459 43.7017 11.603 43.7915C11.562 43.8794 11.5043 43.9644 11.4301 44.0464C11.3559 44.1265 11.268 44.1929 11.1664 44.2456C11.0668 44.2964 10.9545 44.3218 10.8295 44.3218C10.6459 44.3218 10.4848 44.2866 10.3461 44.2163C10.2094 44.146 10.103 44.0425 10.0268 43.9058C9.95062 43.769 9.91254 43.6001 9.91254 43.3989C9.91254 43.2466 9.9389 43.106 9.99164 42.9771C10.0444 42.8481 10.1225 42.7368 10.226 42.6431C10.3295 42.5474 10.4594 42.4731 10.6157 42.4204C10.7739 42.3677 10.9565 42.3413 11.1635 42.3413H11.603ZM13.4018 41.0933V44.2632H12.8862V41.0933H13.4018ZM12.8569 40.2524C12.8569 40.1646 12.8813 40.0903 12.9301 40.0298C12.9789 39.9692 13.0522 39.939 13.1498 39.939C13.2475 39.939 13.3207 39.9692 13.3696 40.0298C13.4203 40.0903 13.4457 40.1646 13.4457 40.2524C13.4457 40.3364 13.4203 40.4087 13.3696 40.4692C13.3207 40.5278 13.2475 40.5571 13.1498 40.5571C13.0522 40.5571 12.9789 40.5278 12.9301 40.4692C12.8813 40.4087 12.8569 40.3364 12.8569 40.2524ZM14.7787 39.7632V44.2632H14.2631V39.7632H14.7787ZM16.2495 43.7007L16.9496 41.0933H17.2866L17.2485 41.6118L16.5453 44.2632H16.2202L16.2495 43.7007ZM15.8686 41.0933L16.4575 43.73L16.4721 44.2632H16.1293L15.3559 41.0933H15.8686ZM17.8871 43.7095L18.4438 41.0933H18.9536L18.1801 44.2632H17.8432L17.8871 43.7095ZM17.3598 41.0933L18.0424 43.6567L18.0893 44.2632H17.767L17.0405 41.606L17.0024 41.0933H17.3598ZM20.058 41.0933V44.2632H19.5424V41.0933H20.058ZM19.5131 40.2524C19.5131 40.1646 19.5375 40.0903 19.5864 40.0298C19.6352 39.9692 19.7084 39.939 19.8061 39.939C19.9037 39.939 19.977 39.9692 20.0258 40.0298C20.0766 40.0903 20.102 40.1646 20.102 40.2524C20.102 40.3364 20.0766 40.4087 20.0258 40.4692C19.977 40.5278 19.9037 40.5571 19.8061 40.5571C19.7084 40.5571 19.6352 40.5278 19.5864 40.4692C19.5375 40.4087 19.5131 40.3364 19.5131 40.2524ZM21.3969 41.77V44.2632H20.8784V41.0933H21.3676L21.3969 41.77ZM21.2709 42.5581L21.06 42.5493C21.058 42.3325 21.0825 42.1323 21.1332 41.9487C21.186 41.7632 21.2602 41.6021 21.3559 41.4653C21.4536 41.3286 21.5698 41.2231 21.7045 41.1489C21.8393 41.0728 21.9887 41.0347 22.1528 41.0347C22.2817 41.0347 22.3989 41.0562 22.5043 41.0991C22.6098 41.1401 22.6996 41.2065 22.7739 41.2983C22.8481 41.3901 22.9047 41.5093 22.9438 41.6558C22.9848 41.8003 23.0053 41.9771 23.0053 42.186V44.2632H22.4868V42.1802C22.4868 42.0142 22.4682 41.8813 22.4311 41.7817C22.3959 41.6802 22.3412 41.6069 22.267 41.562C22.1948 41.5151 22.103 41.4917 21.9916 41.4917C21.8901 41.4917 21.7953 41.52 21.7075 41.5767C21.6196 41.6333 21.5424 41.7114 21.476 41.811C21.4116 41.9106 21.3608 42.0249 21.3237 42.1538C21.2885 42.2808 21.2709 42.4155 21.2709 42.5581ZM25.4457 43.6479V39.7632H25.9614V44.2632H25.4897L25.4457 43.6479ZM23.6733 42.8306V42.5347C23.6733 42.2729 23.6987 42.0483 23.7495 41.8608C23.8002 41.6714 23.8725 41.5161 23.9662 41.395C24.06 41.272 24.1723 41.1812 24.3032 41.1226C24.434 41.064 24.5786 41.0347 24.7368 41.0347C24.9008 41.0347 25.0414 41.0679 25.1586 41.1343C25.2778 41.2007 25.3774 41.2974 25.4575 41.4243C25.5375 41.5493 25.6 41.7017 25.645 41.8813C25.6918 42.0591 25.7231 42.2603 25.7387 42.4849V42.8804C25.7211 43.103 25.6889 43.3032 25.642 43.481C25.5971 43.6587 25.5346 43.8101 25.4545 43.9351C25.3745 44.0601 25.2748 44.1558 25.1557 44.2222C25.0366 44.2886 24.895 44.3218 24.7309 44.3218C24.5746 44.3218 24.4321 44.2915 24.3032 44.231C24.1743 44.1685 24.062 44.0757 23.9662 43.9526C23.8725 43.8276 23.8002 43.6724 23.7495 43.4868C23.6987 43.2993 23.6733 43.0806 23.6733 42.8306ZM24.1918 42.5347V42.8306C24.1918 43.0063 24.2045 43.1597 24.2299 43.2905C24.2553 43.4194 24.2953 43.5269 24.35 43.6128C24.4047 43.6968 24.4741 43.7593 24.558 43.8003C24.644 43.8413 24.7465 43.8618 24.8657 43.8618C25.0102 43.8618 25.1284 43.8267 25.2202 43.7563C25.312 43.686 25.3852 43.5933 25.4399 43.478C25.4965 43.3608 25.5414 43.2349 25.5746 43.1001V42.2681C25.5551 42.1685 25.5268 42.0728 25.4897 41.981C25.4526 41.8872 25.4057 41.8042 25.3491 41.7319C25.2944 41.6577 25.227 41.5991 25.1469 41.5562C25.0688 41.5132 24.977 41.4917 24.8715 41.4917C24.7524 41.4917 24.6489 41.5132 24.561 41.5562C24.475 41.5991 24.4047 41.6636 24.35 41.7495C24.2973 41.8354 24.2573 41.9438 24.2299 42.0747C24.2045 42.2056 24.1918 42.3589 24.1918 42.5347ZM30.3442 42.9067H30.8832C30.8696 43.1997 30.81 43.4526 30.7045 43.6655C30.601 43.8765 30.4496 44.0386 30.2504 44.1519C30.0532 44.2651 29.8061 44.3218 29.5092 44.3218C29.2963 44.3218 29.1039 44.2798 28.9321 44.1958C28.7602 44.1118 28.6127 43.9917 28.4897 43.8354C28.3686 43.6772 28.2758 43.4878 28.2114 43.2671C28.1469 43.0464 28.1147 42.7983 28.1147 42.5229V41.7349C28.1147 41.4614 28.1469 41.2144 28.2114 40.9937C28.2778 40.7729 28.3725 40.5845 28.4955 40.4282C28.6205 40.27 28.7719 40.1489 28.9496 40.0649C29.1293 39.981 29.3325 39.939 29.559 39.939C29.8364 39.939 30.0707 39.9946 30.2621 40.106C30.4555 40.2153 30.6039 40.3765 30.7075 40.5894C30.8129 40.8003 30.8715 41.0591 30.8832 41.3657H30.3442C30.3305 41.1411 30.2953 40.9585 30.2387 40.8179C30.1821 40.6753 30.0981 40.5708 29.9868 40.5044C29.8774 40.436 29.7348 40.4019 29.559 40.4019C29.4028 40.4019 29.267 40.4331 29.1518 40.4956C29.0385 40.5581 28.9448 40.6479 28.8705 40.7651C28.7983 40.8804 28.7436 41.02 28.7065 41.1841C28.6713 41.3462 28.6537 41.5278 28.6537 41.729V42.5229C28.6537 42.7104 28.6684 42.8853 28.6977 43.0474C28.7289 43.2095 28.7778 43.3521 28.8442 43.4751C28.9125 43.5962 29.0014 43.6909 29.1108 43.7593C29.2202 43.8276 29.353 43.8618 29.5092 43.8618C29.7065 43.8618 29.8627 43.8296 29.978 43.7651C30.0932 43.7007 30.1782 43.5981 30.2328 43.4575C30.2895 43.3169 30.3266 43.1333 30.3442 42.9067ZM33.4789 43.1851C33.4789 43.0854 33.4672 42.9976 33.4438 42.9214C33.4203 42.8433 33.3793 42.7729 33.3207 42.7104C33.2621 42.6479 33.1801 42.5884 33.0746 42.5317C32.9692 42.4751 32.8354 42.4175 32.6733 42.3589C32.4975 42.2964 32.3383 42.2271 32.1957 42.1509C32.0532 42.0728 31.9311 41.9839 31.8295 41.8843C31.7299 41.7847 31.6528 41.6704 31.5981 41.5415C31.5434 41.4126 31.5161 41.2651 31.5161 41.0991C31.5161 40.9331 31.5444 40.7798 31.601 40.6392C31.6596 40.4985 31.7416 40.3765 31.8471 40.2729C31.9545 40.1675 32.0834 40.0854 32.2338 40.0269C32.3842 39.9683 32.5522 39.939 32.7377 39.939C33.0151 39.939 33.2485 40.0005 33.4379 40.1235C33.6293 40.2446 33.7739 40.4038 33.8715 40.6011C33.9692 40.7964 34.018 41.0054 34.018 41.228H33.4789C33.4789 41.0679 33.4526 40.9263 33.3998 40.8032C33.3491 40.6782 33.269 40.5806 33.1596 40.5103C33.0522 40.438 32.9116 40.4019 32.7377 40.4019C32.5815 40.4019 32.4526 40.4321 32.351 40.4927C32.2514 40.5532 32.1772 40.6353 32.1284 40.7388C32.0815 40.8423 32.058 40.9604 32.058 41.0933C32.058 41.1831 32.0737 41.2651 32.1049 41.3394C32.1362 41.4116 32.184 41.479 32.2485 41.5415C32.3149 41.604 32.3969 41.6616 32.4946 41.7144C32.5942 41.7671 32.7114 41.8179 32.8461 41.8667C33.0551 41.9351 33.2338 42.0112 33.3823 42.0952C33.5307 42.1792 33.6518 42.2739 33.7455 42.3794C33.8393 42.4829 33.9077 42.6011 33.9506 42.7339C33.9955 42.8647 34.018 43.0132 34.018 43.1792C34.018 43.353 33.9887 43.5103 33.9301 43.6509C33.8735 43.7915 33.7905 43.9116 33.6811 44.0112C33.5717 44.1108 33.4399 44.188 33.2856 44.2427C33.1313 44.2954 32.9575 44.3218 32.7641 44.3218C32.5961 44.3218 32.4311 44.2944 32.269 44.2397C32.1088 44.1851 31.9633 44.103 31.8325 43.9937C31.7016 43.8843 31.5971 43.7495 31.519 43.5894C31.4409 43.4272 31.4018 43.2397 31.4018 43.0269H31.9409C31.9409 43.1733 31.9623 43.2993 32.0053 43.4048C32.0483 43.5083 32.1078 43.5942 32.184 43.6626C32.2602 43.731 32.3471 43.7817 32.4448 43.8149C32.5444 43.8462 32.6508 43.8618 32.7641 43.8618C32.9203 43.8618 33.0512 43.8345 33.1567 43.7798C33.2641 43.7251 33.3442 43.647 33.3969 43.5454C33.4516 43.4438 33.4789 43.3237 33.4789 43.1851ZM36.5903 43.1851C36.5903 43.0854 36.5786 42.9976 36.5551 42.9214C36.5317 42.8433 36.4907 42.7729 36.4321 42.7104C36.3735 42.6479 36.2914 42.5884 36.186 42.5317C36.0805 42.4751 35.9467 42.4175 35.7846 42.3589C35.6088 42.2964 35.4496 42.2271 35.3071 42.1509C35.1645 42.0728 35.0424 41.9839 34.9409 41.8843C34.8412 41.7847 34.7641 41.6704 34.7094 41.5415C34.6547 41.4126 34.6274 41.2651 34.6274 41.0991C34.6274 40.9331 34.6557 40.7798 34.7123 40.6392C34.7709 40.4985 34.853 40.3765 34.9584 40.2729C35.0659 40.1675 35.1948 40.0854 35.3452 40.0269C35.4955 39.9683 35.6635 39.939 35.8491 39.939C36.1264 39.939 36.3598 40.0005 36.5493 40.1235C36.7407 40.2446 36.8852 40.4038 36.9828 40.6011C37.0805 40.7964 37.1293 41.0054 37.1293 41.228H36.5903C36.5903 41.0679 36.5639 40.9263 36.5112 40.8032C36.4604 40.6782 36.3803 40.5806 36.2709 40.5103C36.1635 40.438 36.0229 40.4019 35.8491 40.4019C35.6928 40.4019 35.5639 40.4321 35.4623 40.4927C35.3627 40.5532 35.2885 40.6353 35.2397 40.7388C35.1928 40.8423 35.1694 40.9604 35.1694 41.0933C35.1694 41.1831 35.185 41.2651 35.2162 41.3394C35.2475 41.4116 35.2953 41.479 35.3598 41.5415C35.4262 41.604 35.5082 41.6616 35.6059 41.7144C35.7055 41.7671 35.8227 41.8179 35.9575 41.8667C36.1664 41.9351 36.3452 42.0112 36.4936 42.0952C36.642 42.1792 36.7631 42.2739 36.8569 42.3794C36.9506 42.4829 37.019 42.6011 37.062 42.7339C37.1069 42.8647 37.1293 43.0132 37.1293 43.1792C37.1293 43.353 37.1 43.5103 37.0414 43.6509C36.9848 43.7915 36.9018 43.9116 36.7924 44.0112C36.683 44.1108 36.5512 44.188 36.3969 44.2427C36.2426 44.2954 36.0688 44.3218 35.8754 44.3218C35.7075 44.3218 35.5424 44.2944 35.3803 44.2397C35.2202 44.1851 35.0746 44.103 34.9438 43.9937C34.8129 43.8843 34.7084 43.7495 34.6303 43.5894C34.5522 43.4272 34.5131 43.2397 34.5131 43.0269H35.0522C35.0522 43.1733 35.0737 43.2993 35.1166 43.4048C35.1596 43.5083 35.2192 43.5942 35.2953 43.6626C35.3715 43.731 35.4584 43.7817 35.5561 43.8149C35.6557 43.8462 35.7621 43.8618 35.8754 43.8618C36.0317 43.8618 36.1625 43.8345 36.268 43.7798C36.3754 43.7251 36.4555 43.647 36.5082 43.5454C36.5629 43.4438 36.5903 43.3237 36.5903 43.1851Z" fill="#252323"/>
<defs>
<filter id="filter0_d_401_360" x="0.38636" y="0.0155708" width="43.7135" height="43.7135" filterUnits="userSpaceOnUse" color-interpolation-filters="sRGB">
<feFlood flood-opacity="0" result="BackgroundImageFix"/>
<feColorMatrix in="SourceAlpha" type="matrix" values="0 0 0 0 0 0 0 0 0 0 0 0 0 0 0 0 0 0 127 0" result="hardAlpha"/>
<feOffset dy="0.672515"/>
<feGaussianBlur stdDeviation="3.36258"/>
<feComposite in2="hardAlpha" operator="out"/>
<feColorMatrix type="matrix" values="0 0 0 0 0.0367917 0 0 0 0 0.0348958 0 0 0 0 0.0484375 0 0 0 0.1 0"/>
<feBlend mode="normal" in2="BackgroundImageFix" result="effect1_dropShadow_401_360"/>
<feBlend mode="normal" in="SourceGraphic" in2="effect1_dropShadow_401_360" result="shape"/>
</filter>
</defs>
</svg>
