<svg width="31" height="31" viewBox="0 0 31 31" fill="none" xmlns="http://www.w3.org/2000/svg">
<path d="M5.517 2.43926e-06H25.062C25.7659 -0.000678055 26.4631 0.141029 27.1136 0.417014C27.7641 0.692998 28.3551 1.09784 28.8529 1.60838C29.3507 2.11891 29.7454 2.72511 30.0145 3.39229C30.2836 4.05946 30.4217 4.77451 30.4211 5.49652V24.7666C30.4217 25.4886 30.2836 26.2037 30.0145 26.8709C29.7454 27.538 29.3507 28.1442 28.8529 28.6548C28.3551 29.1653 27.7641 29.5702 27.1136 29.8461C26.4631 30.1221 25.7659 30.2638 25.062 30.2632H5.517C4.81305 30.2638 4.11587 30.1221 3.46538 29.8461C2.81488 29.5702 2.22384 29.1653 1.72606 28.6548C1.22829 28.1442 0.833571 27.538 0.564486 26.8709C0.295401 26.2037 0.157237 25.4886 0.1579 24.7666V5.49652C0.157237 4.77451 0.295401 4.05946 0.564486 3.39229C0.833571 2.72511 1.22829 2.11891 1.72606 1.60838C2.22384 1.09784 2.81488 0.692998 3.46538 0.417014C4.11587 0.141029 4.81305 -0.000678055 5.517 2.43926e-06Z" fill="#252323"/>
<path d="M16 9C12.7999 9 10.8006 10.5994 10 13.7994C11.1996 12.1999 12.6001 11.6001 14.1996 12C15.1129 12.2276 15.7656 12.8899 16.4884 13.6237C17.6648 14.8176 19.0264 16.1996 22 16.1996C25.1999 16.1996 27.1994 14.6001 28 11.3992C26.8002 12.9997 25.3999 13.5996 23.8002 13.1996C22.8871 12.9718 22.2351 12.3097 21.5114 11.5759C20.3357 10.3821 18.9745 9 16 9ZM10 16.1996C6.80012 16.1996 4.80062 17.7992 4 21C5.19962 19.3995 6.59987 18.7997 8.19963 19.1996C9.11294 19.4274 9.76562 20.0895 10.4884 20.8234C11.6648 22.0172 13.0264 23.3993 16 23.3993C19.1999 23.3993 21.1994 21.7999 22 18.5998C20.8002 20.1994 19.3999 20.7992 17.8002 20.3993C16.8871 20.1716 16.2351 19.5094 15.5114 18.7755C14.3357 17.5817 12.9745 16.1996 10 16.1996Z" fill="#F1F1EF"/>
</svg>
