<svg width="32" height="40" viewBox="0 0 32 40" fill="none" xmlns="http://www.w3.org/2000/svg">
<path d="M6.517 2.43926e-06H26.062C26.7659 -0.000678055 27.4631 0.141029 28.1136 0.417014C28.7641 0.692998 29.3551 1.09784 29.8529 1.60838C30.3507 2.11891 30.7454 2.72511 31.0145 3.39229C31.2836 4.05946 31.4217 4.77451 31.4211 5.49652V24.7666C31.4217 25.4886 31.2836 26.2037 31.0145 26.8709C30.7454 27.538 30.3507 28.1442 29.8529 28.6548C29.3551 29.1653 28.7641 29.5702 28.1136 29.8461C27.4631 30.1221 26.7659 30.2638 26.062 30.2632H6.517C5.81305 30.2638 5.11587 30.1221 4.46538 29.8461C3.81488 29.5702 3.22384 29.1653 2.72606 28.6548C2.22829 28.1442 1.83357 27.538 1.56449 26.8709C1.2954 26.2037 1.15724 25.4886 1.1579 24.7666V5.49652C1.15724 4.77451 1.2954 4.05946 1.56449 3.39229C1.83357 2.72511 2.22829 2.11891 2.72606 1.60838C3.22384 1.09784 3.81488 0.692998 4.46538 0.417014C5.11587 0.141029 5.81305 -0.000678055 6.517 2.43926e-06Z" fill="#252323"/>
<path d="M17 9C13.7999 9 11.8006 10.5994 11 13.7994C12.1996 12.1999 13.6001 11.6001 15.1996 12C16.1129 12.2276 16.7656 12.8899 17.4884 13.6237C18.6648 14.8176 20.0264 16.1996 23 16.1996C26.1999 16.1996 28.1994 14.6001 29 11.3992C27.8002 12.9997 26.3999 13.5996 24.8002 13.1996C23.8871 12.9718 23.2351 12.3097 22.5114 11.5759C21.3357 10.3821 19.9745 9 17 9ZM11 16.1996C7.80012 16.1996 5.80062 17.7992 5 21C6.19962 19.3995 7.59987 18.7997 9.19963 19.1996C10.1129 19.4274 10.7656 20.0895 11.4884 20.8234C12.6648 22.0172 14.0264 23.3993 17 23.3993C20.1999 23.3993 22.1994 21.7999 23 18.5998C21.8002 20.1994 20.3999 20.7992 18.8002 20.3993C17.8871 20.1716 17.2351 19.5094 16.5114 18.7755C15.3357 17.5817 13.9745 16.1996 11 16.1996Z" fill="#F1F1EF"/>
<path d="M2.62054 33.9975V38.2632H2.08734V33.9975H2.62054ZM3.74261 33.9975V34.4604H0.968201V33.9975H3.74261ZM5.52094 37.7212V36.0014C5.52094 35.8764 5.5014 35.7758 5.46234 35.6997C5.42523 35.6235 5.36859 35.5678 5.29242 35.5327C5.2182 35.4975 5.12445 35.4799 5.01117 35.4799C4.90179 35.4799 4.80707 35.5024 4.72699 35.5473C4.64886 35.5923 4.58832 35.6518 4.54535 35.726C4.50433 35.8003 4.48383 35.8823 4.48383 35.9721H3.96527C3.96527 35.8589 3.98969 35.7466 4.03851 35.6352C4.08929 35.5239 4.16156 35.4233 4.25531 35.3335C4.34906 35.2417 4.46136 35.1694 4.59222 35.1167C4.72504 35.062 4.87347 35.0346 5.03754 35.0346C5.23285 35.0346 5.4057 35.0669 5.55609 35.1313C5.70648 35.1938 5.82465 35.2964 5.91058 35.4389C5.99652 35.5815 6.03949 35.771 6.03949 36.0073V37.5717C6.03949 37.6772 6.0473 37.7895 6.06293 37.9087C6.08051 38.0278 6.10492 38.1303 6.13617 38.2163V38.2632H5.60004C5.57465 38.2007 5.55511 38.1176 5.54144 38.0141C5.52777 37.9087 5.52094 37.811 5.52094 37.7212ZM5.60297 36.3413L5.60883 36.7221H5.24847C5.12543 36.7221 5.01312 36.7358 4.91156 36.7632C4.81195 36.7905 4.72601 36.8305 4.65375 36.8833C4.58148 36.9341 4.52582 36.9975 4.48676 37.0737C4.44965 37.1499 4.43109 37.2368 4.43109 37.3344C4.43109 37.4614 4.44867 37.563 4.48383 37.6391C4.51898 37.7133 4.57172 37.7671 4.64203 37.8003C4.71234 37.8335 4.80121 37.8501 4.90863 37.8501C5.03949 37.8501 5.15472 37.8198 5.25433 37.7592C5.35394 37.6987 5.43109 37.6255 5.48578 37.5395C5.54242 37.4536 5.56879 37.3735 5.56488 37.2993L5.67914 37.5424C5.67133 37.6186 5.64594 37.7016 5.60297 37.7915C5.56195 37.8794 5.50433 37.9643 5.43011 38.0464C5.3559 38.1264 5.26801 38.1928 5.16644 38.2456C5.06683 38.2964 4.95453 38.3217 4.82953 38.3217C4.64594 38.3217 4.4848 38.2866 4.34613 38.2163C4.20941 38.146 4.10297 38.0424 4.02679 37.9057C3.95062 37.769 3.91254 37.6001 3.91254 37.3989C3.91254 37.2466 3.9389 37.1059 3.99164 36.977C4.04437 36.8481 4.1225 36.7368 4.22601 36.643C4.32953 36.5473 4.45941 36.4731 4.61566 36.4204C4.77386 36.3676 4.95648 36.3413 5.16351 36.3413H5.60297ZM7.40179 35.0932V38.2632H6.88617V35.0932H7.40179ZM6.85687 34.2524C6.85687 34.1645 6.88129 34.0903 6.93011 34.0298C6.97894 33.9692 7.05219 33.9389 7.14984 33.9389C7.2475 33.9389 7.32074 33.9692 7.36957 34.0298C7.42035 34.0903 7.44574 34.1645 7.44574 34.2524C7.44574 34.3364 7.42035 34.4087 7.36957 34.4692C7.32074 34.5278 7.2475 34.5571 7.14984 34.5571C7.05219 34.5571 6.97894 34.5278 6.93011 34.4692C6.88129 34.4087 6.85687 34.3364 6.85687 34.2524ZM8.77875 33.7632V38.2632H8.26312V33.7632H8.77875ZM10.2495 37.7007L10.9496 35.0932H11.2866L11.2485 35.6118L10.5453 38.2632H10.2202L10.2495 37.7007ZM9.86859 35.0932L10.4575 37.7299L10.4721 38.2632H10.1293L9.3559 35.0932H9.86859ZM11.8871 37.7094L12.4438 35.0932H12.9536L12.1801 38.2632H11.8432L11.8871 37.7094ZM11.3598 35.0932L12.0424 37.6567L12.0893 38.2632H11.767L11.0405 35.6059L11.0024 35.0932H11.3598ZM14.058 35.0932V38.2632H13.5424V35.0932H14.058ZM13.5131 34.2524C13.5131 34.1645 13.5375 34.0903 13.5864 34.0298C13.6352 33.9692 13.7084 33.9389 13.8061 33.9389C13.9037 33.9389 13.977 33.9692 14.0258 34.0298C14.0766 34.0903 14.102 34.1645 14.102 34.2524C14.102 34.3364 14.0766 34.4087 14.0258 34.4692C13.977 34.5278 13.9037 34.5571 13.8061 34.5571C13.7084 34.5571 13.6352 34.5278 13.5864 34.4692C13.5375 34.4087 13.5131 34.3364 13.5131 34.2524ZM15.3969 35.77V38.2632H14.8784V35.0932H15.3676L15.3969 35.77ZM15.2709 36.5581L15.06 36.5493C15.058 36.3325 15.0825 36.1323 15.1332 35.9487C15.186 35.7632 15.2602 35.602 15.3559 35.4653C15.4536 35.3286 15.5698 35.2231 15.7045 35.1489C15.8393 35.0727 15.9887 35.0346 16.1528 35.0346C16.2817 35.0346 16.3989 35.0561 16.5043 35.0991C16.6098 35.1401 16.6996 35.2065 16.7739 35.2983C16.8481 35.3901 16.9047 35.5092 16.9438 35.6557C16.9848 35.8003 17.0053 35.977 17.0053 36.186V38.2632H16.4868V36.1801C16.4868 36.0141 16.4682 35.8813 16.4311 35.7817C16.3959 35.6801 16.3412 35.6069 16.267 35.562C16.1948 35.5151 16.103 35.4917 15.9916 35.4917C15.8901 35.4917 15.7953 35.52 15.7075 35.5766C15.6196 35.6333 15.5424 35.7114 15.476 35.811C15.4116 35.9106 15.3608 36.0249 15.3237 36.1538C15.2885 36.2807 15.2709 36.4155 15.2709 36.5581ZM19.4457 37.6479V33.7632H19.9614V38.2632H19.4897L19.4457 37.6479ZM17.6733 36.8305V36.5346C17.6733 36.2729 17.6987 36.0483 17.7495 35.8608C17.8002 35.6714 17.8725 35.5161 17.9662 35.395C18.06 35.2719 18.1723 35.1811 18.3032 35.1225C18.434 35.0639 18.5786 35.0346 18.7368 35.0346C18.9008 35.0346 19.0414 35.0678 19.1586 35.1342C19.2778 35.2007 19.3774 35.2973 19.4575 35.4243C19.5375 35.5493 19.6 35.7016 19.645 35.8813C19.6918 36.0591 19.7231 36.2602 19.7387 36.4848V36.8803C19.7211 37.103 19.6889 37.3032 19.642 37.4809C19.5971 37.6587 19.5346 37.81 19.4545 37.935C19.3745 38.06 19.2748 38.1557 19.1557 38.2221C19.0366 38.2885 18.895 38.3217 18.7309 38.3217C18.5746 38.3217 18.4321 38.2915 18.3032 38.2309C18.1743 38.1684 18.062 38.0757 17.9662 37.9526C17.8725 37.8276 17.8002 37.6723 17.7495 37.4868C17.6987 37.2993 17.6733 37.0805 17.6733 36.8305ZM18.1918 36.5346V36.8305C18.1918 37.0063 18.2045 37.1596 18.2299 37.2905C18.2553 37.4194 18.2953 37.5268 18.35 37.6128C18.4047 37.6967 18.4741 37.7592 18.558 37.8003C18.644 37.8413 18.7465 37.8618 18.8657 37.8618C19.0102 37.8618 19.1284 37.8266 19.2202 37.7563C19.312 37.686 19.3852 37.5932 19.4399 37.478C19.4965 37.3608 19.5414 37.2348 19.5746 37.1001V36.268C19.5551 36.1684 19.5268 36.0727 19.4897 35.9809C19.4526 35.8872 19.4057 35.8042 19.3491 35.7319C19.2944 35.6577 19.227 35.5991 19.1469 35.5561C19.0688 35.5132 18.977 35.4917 18.8715 35.4917C18.7524 35.4917 18.6489 35.5132 18.561 35.5561C18.475 35.5991 18.4047 35.6635 18.35 35.7495C18.2973 35.8354 18.2573 35.9438 18.2299 36.0747C18.2045 36.2055 18.1918 36.3589 18.1918 36.5346ZM24.3442 36.9067H24.8832C24.8696 37.1997 24.81 37.4526 24.7045 37.6655C24.601 37.8764 24.4496 38.0385 24.2504 38.1518C24.0532 38.2651 23.8061 38.3217 23.5092 38.3217C23.2963 38.3217 23.1039 38.2798 22.9321 38.1958C22.7602 38.1118 22.6127 37.9917 22.4897 37.8354C22.3686 37.6772 22.2758 37.4878 22.2114 37.2671C22.1469 37.0464 22.1147 36.7983 22.1147 36.5229V35.7348C22.1147 35.4614 22.1469 35.2143 22.2114 34.9936C22.2778 34.7729 22.3725 34.5844 22.4955 34.4282C22.6205 34.27 22.7719 34.1489 22.9496 34.0649C23.1293 33.9809 23.3325 33.9389 23.559 33.9389C23.8364 33.9389 24.0707 33.9946 24.2621 34.1059C24.4555 34.2153 24.6039 34.3764 24.7075 34.5893C24.8129 34.8003 24.8715 35.0591 24.8832 35.3657H24.3442C24.3305 35.1411 24.2953 34.9585 24.2387 34.8178C24.1821 34.6753 24.0981 34.5708 23.9868 34.5044C23.8774 34.436 23.7348 34.4018 23.559 34.4018C23.4028 34.4018 23.267 34.4331 23.1518 34.4956C23.0385 34.5581 22.9448 34.6479 22.8705 34.7651C22.7983 34.8803 22.7436 35.02 22.7065 35.1841C22.6713 35.3462 22.6537 35.5278 22.6537 35.729V36.5229C22.6537 36.7104 22.6684 36.8852 22.6977 37.0473C22.7289 37.2094 22.7778 37.352 22.8442 37.4751C22.9125 37.5962 23.0014 37.6909 23.1108 37.7592C23.2202 37.8276 23.353 37.8618 23.5092 37.8618C23.7065 37.8618 23.8627 37.8296 23.978 37.7651C24.0932 37.7007 24.1782 37.5981 24.2328 37.4575C24.2895 37.3169 24.3266 37.1333 24.3442 36.9067ZM27.4789 37.185C27.4789 37.0854 27.4672 36.9975 27.4438 36.9214C27.4203 36.8432 27.3793 36.7729 27.3207 36.7104C27.2621 36.6479 27.1801 36.5883 27.0746 36.5317C26.9692 36.4751 26.8354 36.4174 26.6733 36.3589C26.4975 36.2964 26.3383 36.227 26.1957 36.1508C26.0532 36.0727 25.9311 35.9839 25.8295 35.8842C25.7299 35.7846 25.6528 35.6704 25.5981 35.5415C25.5434 35.4126 25.5161 35.2651 25.5161 35.0991C25.5161 34.9331 25.5444 34.7798 25.601 34.6391C25.6596 34.4985 25.7416 34.3764 25.8471 34.2729C25.9545 34.1674 26.0834 34.0854 26.2338 34.0268C26.3842 33.9682 26.5522 33.9389 26.7377 33.9389C27.0151 33.9389 27.2485 34.0005 27.4379 34.1235C27.6293 34.2446 27.7739 34.4038 27.8715 34.601C27.9692 34.7964 28.018 35.0053 28.018 35.228H27.4789C27.4789 35.0678 27.4526 34.9262 27.3998 34.8032C27.3491 34.6782 27.269 34.5805 27.1596 34.5102C27.0522 34.438 26.9116 34.4018 26.7377 34.4018C26.5815 34.4018 26.4526 34.4321 26.351 34.4926C26.2514 34.5532 26.1772 34.6352 26.1284 34.7387C26.0815 34.8423 26.058 34.9604 26.058 35.0932C26.058 35.1831 26.0737 35.2651 26.1049 35.3393C26.1362 35.4116 26.184 35.479 26.2485 35.5415C26.3149 35.604 26.3969 35.6616 26.4946 35.7143C26.5942 35.7671 26.7114 35.8178 26.8461 35.8667C27.0551 35.935 27.2338 36.0112 27.3823 36.0952C27.5307 36.1792 27.6518 36.2739 27.7455 36.3794C27.8393 36.4829 27.9077 36.601 27.9506 36.7339C27.9955 36.8647 28.018 37.0132 28.018 37.1792C28.018 37.353 27.9887 37.5102 27.9301 37.6508C27.8735 37.7915 27.7905 37.9116 27.6811 38.0112C27.5717 38.1108 27.4399 38.188 27.2856 38.2426C27.1313 38.2954 26.9575 38.3217 26.7641 38.3217C26.5961 38.3217 26.4311 38.2944 26.269 38.2397C26.1088 38.185 25.9633 38.103 25.8325 37.9936C25.7016 37.8842 25.5971 37.7495 25.519 37.5893C25.4409 37.4272 25.4018 37.2397 25.4018 37.0268H25.9409C25.9409 37.1733 25.9623 37.2993 26.0053 37.4048C26.0483 37.5083 26.1078 37.5942 26.184 37.6626C26.2602 37.7309 26.3471 37.7817 26.4448 37.8149C26.5444 37.8462 26.6508 37.8618 26.7641 37.8618C26.9203 37.8618 27.0512 37.8344 27.1567 37.7798C27.2641 37.7251 27.3442 37.6469 27.3969 37.5454C27.4516 37.4438 27.4789 37.3237 27.4789 37.185ZM30.5903 37.185C30.5903 37.0854 30.5786 36.9975 30.5551 36.9214C30.5317 36.8432 30.4907 36.7729 30.4321 36.7104C30.3735 36.6479 30.2914 36.5883 30.186 36.5317C30.0805 36.4751 29.9467 36.4174 29.7846 36.3589C29.6088 36.2964 29.4496 36.227 29.3071 36.1508C29.1645 36.0727 29.0424 35.9839 28.9409 35.8842C28.8412 35.7846 28.7641 35.6704 28.7094 35.5415C28.6547 35.4126 28.6274 35.2651 28.6274 35.0991C28.6274 34.9331 28.6557 34.7798 28.7123 34.6391C28.7709 34.4985 28.853 34.3764 28.9584 34.2729C29.0659 34.1674 29.1948 34.0854 29.3452 34.0268C29.4955 33.9682 29.6635 33.9389 29.8491 33.9389C30.1264 33.9389 30.3598 34.0005 30.5493 34.1235C30.7407 34.2446 30.8852 34.4038 30.9828 34.601C31.0805 34.7964 31.1293 35.0053 31.1293 35.228H30.5903C30.5903 35.0678 30.5639 34.9262 30.5112 34.8032C30.4604 34.6782 30.3803 34.5805 30.2709 34.5102C30.1635 34.438 30.0229 34.4018 29.8491 34.4018C29.6928 34.4018 29.5639 34.4321 29.4623 34.4926C29.3627 34.5532 29.2885 34.6352 29.2397 34.7387C29.1928 34.8423 29.1694 34.9604 29.1694 35.0932C29.1694 35.1831 29.185 35.2651 29.2162 35.3393C29.2475 35.4116 29.2953 35.479 29.3598 35.5415C29.4262 35.604 29.5082 35.6616 29.6059 35.7143C29.7055 35.7671 29.8227 35.8178 29.9575 35.8667C30.1664 35.935 30.3452 36.0112 30.4936 36.0952C30.642 36.1792 30.7631 36.2739 30.8569 36.3794C30.9506 36.4829 31.019 36.601 31.062 36.7339C31.1069 36.8647 31.1293 37.0132 31.1293 37.1792C31.1293 37.353 31.1 37.5102 31.0414 37.6508C30.9848 37.7915 30.9018 37.9116 30.7924 38.0112C30.683 38.1108 30.5512 38.188 30.3969 38.2426C30.2426 38.2954 30.0688 38.3217 29.8754 38.3217C29.7075 38.3217 29.5424 38.2944 29.3803 38.2397C29.2202 38.185 29.0746 38.103 28.9438 37.9936C28.8129 37.8842 28.7084 37.7495 28.6303 37.5893C28.5522 37.4272 28.5131 37.2397 28.5131 37.0268H29.0522C29.0522 37.1733 29.0737 37.2993 29.1166 37.4048C29.1596 37.5083 29.2192 37.5942 29.2953 37.6626C29.3715 37.7309 29.4584 37.7817 29.5561 37.8149C29.6557 37.8462 29.7621 37.8618 29.8754 37.8618C30.0317 37.8618 30.1625 37.8344 30.268 37.7798C30.3754 37.7251 30.4555 37.6469 30.5082 37.5454C30.5629 37.4438 30.5903 37.3237 30.5903 37.185Z" fill="#252323"/>
</svg>
