<svg width="30" height="30" viewBox="0 0 30 30" fill="none" xmlns="http://www.w3.org/2000/svg">
<path d="M25.4379 29.2969H4.14105C1.93191 29.2969 0.141052 27.506 0.141052 25.2969V4C0.141052 1.79086 1.93191 0 4.14105 0H25.4379C27.6471 0 29.4379 1.79086 29.4379 4V25.2969C29.4379 27.506 27.6471 29.2969 25.4379 29.2969Z" fill="#252323"/>
<path d="M5.32334 14.6604V12.3362H16.2739V14.6604H12.1918V25.6695H9.40538V14.6604H5.32334ZM24.302 16.1708C24.2499 15.6457 24.0264 15.2377 23.6314 14.9469C23.2365 14.6561 22.7004 14.5107 22.0233 14.5107C21.5633 14.5107 21.1748 14.5758 20.858 14.706C20.5411 14.8319 20.2981 15.0076 20.1288 15.2333C19.9639 15.459 19.8814 15.7151 19.8814 16.0016C19.8727 16.2403 19.9226 16.4486 20.0312 16.6266C20.144 16.8045 20.2981 16.9586 20.4934 17.0888C20.6887 17.2147 20.9144 17.3253 21.1705 17.4208C21.4266 17.512 21.7 17.5901 21.9908 17.6552L23.1887 17.9417C23.7703 18.0719 24.3042 18.2455 24.7903 18.4625C25.2764 18.6795 25.6974 18.9464 26.0533 19.2633C26.4092 19.5801 26.6848 19.9534 26.8801 20.3831C27.0798 20.8128 27.1818 21.3054 27.1861 21.8609C27.1818 22.6769 26.9734 23.3844 26.5611 23.9833C26.1531 24.5779 25.5628 25.0402 24.7903 25.37C24.022 25.6956 23.0954 25.8583 22.0103 25.8583C20.9339 25.8583 19.9964 25.6934 19.1978 25.3635C18.4036 25.0337 17.7829 24.5454 17.3358 23.8987C16.8931 23.2477 16.6609 22.4425 16.6392 21.4833H19.3671C19.3975 21.9304 19.5255 22.3036 19.7512 22.6031C19.9812 22.8983 20.2872 23.1218 20.6692 23.2737C21.0555 23.4213 21.4917 23.495 21.9778 23.495C22.4552 23.495 22.8697 23.4256 23.2213 23.2867C23.5772 23.1478 23.8528 22.9547 24.0481 22.7073C24.2434 22.4599 24.3411 22.1756 24.3411 21.8544C24.3411 21.5549 24.2521 21.3032 24.0741 21.0992C23.9005 20.8952 23.6444 20.7216 23.3059 20.5784C22.9717 20.4351 22.5615 20.3049 22.0754 20.1878L20.6236 19.8232C19.4995 19.5497 18.6119 19.1222 17.9608 18.5406C17.3098 17.959 16.9865 17.1756 16.9908 16.1904C16.9865 15.3831 17.2013 14.6778 17.6353 14.0745C18.0737 13.4712 18.6748 13.0003 19.4387 12.6617C20.2026 12.3232 21.0707 12.1539 22.0429 12.1539C23.0325 12.1539 23.8962 12.3232 24.634 12.6617C25.3762 13.0003 25.9535 13.4712 26.3658 14.0745C26.7781 14.6778 26.9908 15.3766 27.0038 16.1708H24.302Z" fill="#F1F1EF"/>
</svg>
