<svg width="31" height="40" viewBox="0 0 31 40" fill="none" xmlns="http://www.w3.org/2000/svg">
<path d="M26.4379 29.2969H5.14105C2.93191 29.2969 1.14105 27.506 1.14105 25.2969V4C1.14105 1.79086 2.93191 0 5.14105 0H26.4379C28.6471 0 30.4379 1.79086 30.4379 4V25.2969C30.4379 27.506 28.6471 29.2969 26.4379 29.2969Z" fill="#252323"/>
<path d="M6.32334 14.6604V12.3362H17.2739V14.6604H13.1918V25.6695H10.4054V14.6604H6.32334ZM25.302 16.1708C25.2499 15.6457 25.0264 15.2377 24.6314 14.9469C24.2365 14.6561 23.7004 14.5107 23.0233 14.5107C22.5633 14.5107 22.1748 14.5758 21.858 14.706C21.5411 14.8319 21.2981 15.0076 21.1288 15.2333C20.9639 15.459 20.8814 15.7151 20.8814 16.0016C20.8727 16.2403 20.9226 16.4486 21.0312 16.6266C21.144 16.8045 21.2981 16.9586 21.4934 17.0888C21.6887 17.2147 21.9144 17.3253 22.1705 17.4208C22.4266 17.512 22.7 17.5901 22.9908 17.6552L24.1887 17.9417C24.7703 18.0719 25.3042 18.2455 25.7903 18.4625C26.2764 18.6795 26.6974 18.9464 27.0533 19.2633C27.4092 19.5801 27.6848 19.9534 27.8801 20.3831C28.0798 20.8128 28.1818 21.3054 28.1861 21.8609C28.1818 22.6769 27.9734 23.3844 27.5611 23.9833C27.1531 24.5779 26.5628 25.0402 25.7903 25.37C25.022 25.6956 24.0954 25.8583 23.0103 25.8583C21.9339 25.8583 20.9964 25.6934 20.1978 25.3635C19.4036 25.0337 18.7829 24.5454 18.3358 23.8987C17.8931 23.2477 17.6609 22.4425 17.6392 21.4833H20.3671C20.3975 21.9304 20.5255 22.3036 20.7512 22.6031C20.9812 22.8983 21.2872 23.1218 21.6692 23.2737C22.0555 23.4213 22.4917 23.495 22.9778 23.495C23.4552 23.495 23.8697 23.4256 24.2213 23.2867C24.5772 23.1478 24.8528 22.9547 25.0481 22.7073C25.2434 22.4599 25.3411 22.1756 25.3411 21.8544C25.3411 21.5549 25.2521 21.3032 25.0741 21.0992C24.9005 20.8952 24.6444 20.7216 24.3059 20.5784C23.9717 20.4351 23.5615 20.3049 23.0754 20.1878L21.6236 19.8232C20.4995 19.5497 19.6119 19.1222 18.9608 18.5406C18.3098 17.959 17.9865 17.1756 17.9908 16.1904C17.9865 15.3831 18.2013 14.6778 18.6353 14.0745C19.0737 13.4712 19.6748 13.0003 20.4387 12.6617C21.2026 12.3232 22.0707 12.1539 23.0429 12.1539C24.0325 12.1539 24.8962 12.3232 25.634 12.6617C26.3762 13.0003 26.9535 13.4712 27.3658 14.0745C27.7781 14.6778 27.9908 15.3766 28.0038 16.1708H25.302Z" fill="#F1F1EF"/>
<path d="M2.92572 32.693V37.6695H2.30365V32.693H2.92572ZM4.2348 32.693V33.233H0.997986V32.693H4.2348ZM5.49945 37.2867L6.32318 33.9713H6.96576L5.74554 38.2403C5.71592 38.3315 5.67605 38.4295 5.62592 38.5343C5.57806 38.6414 5.51654 38.7428 5.44135 38.8385C5.36615 38.9342 5.27614 39.0116 5.17133 39.0709C5.06651 39.1324 4.94346 39.1632 4.80219 39.1632C4.75889 39.1632 4.70306 39.1563 4.6347 39.1427C4.56862 39.129 4.52077 39.1176 4.49115 39.1085V38.5958C4.50482 38.5981 4.52647 38.6004 4.55609 38.6026C4.58571 38.6072 4.60736 38.6095 4.62103 38.6095C4.73952 38.6095 4.83978 38.5901 4.92181 38.5514C5.00612 38.5149 5.0779 38.4522 5.13715 38.3634C5.19639 38.2768 5.24652 38.1572 5.28754 38.0045L5.49945 37.2867ZM4.96625 33.9713L5.70111 36.8424L5.85834 37.5089L5.42767 37.7413L4.30658 33.9713H4.96625ZM8.16547 34.6822V39.0914H7.56049V33.9713H8.11078L8.16547 34.6822ZM10.2333 35.6529V35.9981C10.2333 36.2898 10.206 36.545 10.1513 36.7638C10.0989 36.9802 10.0203 37.1614 9.91547 37.3072C9.81293 37.4508 9.68646 37.559 9.53607 37.6319C9.38568 37.7026 9.21364 37.7379 9.01996 37.7379C8.82627 37.7379 8.65765 37.7014 8.5141 37.6285C8.37282 37.5533 8.25319 37.4451 8.15521 37.3038C8.05951 37.1625 7.98317 36.9928 7.92621 36.7945C7.87152 36.594 7.83392 36.3696 7.81342 36.1212V35.5948C7.83392 35.3328 7.87152 35.0981 7.92621 34.8907C7.9809 34.6811 8.05609 34.5033 8.15179 34.3575C8.24978 34.2094 8.36941 34.0966 8.51068 34.0191C8.65424 33.9417 8.82172 33.9029 9.01312 33.9029C9.21136 33.9029 9.38568 33.9371 9.53607 34.0055C9.68874 34.0738 9.81635 34.1798 9.91888 34.3233C10.0237 34.4646 10.1023 34.6458 10.1547 34.8668C10.2071 35.0855 10.2333 35.3476 10.2333 35.6529ZM9.62836 35.9981V35.6529C9.62836 35.4478 9.61241 35.269 9.58051 35.1163C9.55088 34.9636 9.50303 34.8372 9.43695 34.7369C9.37087 34.6366 9.2877 34.5615 9.18744 34.5113C9.08718 34.4612 8.96641 34.4361 8.82513 34.4361C8.70437 34.4361 8.59727 34.4612 8.50385 34.5113C8.4127 34.5615 8.33409 34.6298 8.26801 34.7164C8.20192 34.8007 8.14724 34.8976 8.10394 35.0069C8.06065 35.114 8.02875 35.2257 8.00824 35.3419V36.3775C8.04698 36.5234 8.09825 36.6612 8.16205 36.7911C8.22585 36.9187 8.3113 37.0224 8.4184 37.1021C8.52777 37.1819 8.66563 37.2218 8.83197 37.2218C8.97097 37.2218 9.0906 37.1967 9.19086 37.1466C9.29112 37.0964 9.37315 37.0213 9.43695 36.921C9.50303 36.8185 9.55088 36.6908 9.58051 36.5382C9.61241 36.3832 9.62836 36.2032 9.62836 35.9981ZM12.3354 37.7379C12.1144 37.7379 11.915 37.7048 11.7372 37.6388C11.5595 37.5727 11.408 37.4724 11.2827 37.338C11.1573 37.2013 11.0616 37.0292 10.9955 36.8219C10.9295 36.6145 10.8964 36.3696 10.8964 36.087V35.67C10.8964 35.3442 10.934 35.0685 11.0092 34.8429C11.0867 34.6173 11.1904 34.4361 11.3203 34.2994C11.4501 34.1604 11.5971 34.0602 11.7612 33.9986C11.9252 33.9348 12.0939 33.9029 12.267 33.9029C12.4995 33.9029 12.6977 33.9405 12.8618 34.0157C13.0258 34.0909 13.1591 34.2026 13.2617 34.3507C13.3642 34.4988 13.4394 34.6811 13.4872 34.8976C13.5374 35.114 13.5624 35.3635 13.5624 35.6461V35.9981H11.2519V35.482H12.9575V35.3966C12.9483 35.2052 12.9221 35.0365 12.8788 34.8907C12.8378 34.7449 12.7695 34.631 12.6738 34.5489C12.5781 34.4646 12.4425 34.4225 12.267 34.4225C12.1554 34.4225 12.0517 34.4418 11.956 34.4806C11.8626 34.517 11.7817 34.582 11.7133 34.6754C11.6472 34.7665 11.5948 34.893 11.5561 35.0548C11.5196 35.2166 11.5014 35.4216 11.5014 35.67V36.087C11.5014 36.2852 11.5196 36.4561 11.5561 36.5997C11.5948 36.741 11.6507 36.8583 11.7236 36.9518C11.7988 37.0429 11.8899 37.1113 11.997 37.1568C12.1064 37.2001 12.2306 37.2218 12.3696 37.2218C12.5724 37.2218 12.7398 37.183 12.872 37.1056C13.0042 37.0258 13.1192 36.9244 13.2172 36.8014L13.5351 37.1808C13.469 37.2742 13.3824 37.3642 13.2753 37.4508C13.1705 37.5351 13.0406 37.6046 12.8857 37.6593C12.733 37.7117 12.5496 37.7379 12.3354 37.7379ZM16.5532 36.4117C16.5532 36.2955 16.5395 36.193 16.5121 36.1041C16.4848 36.0129 16.437 35.9309 16.3686 35.858C16.3002 35.7851 16.2045 35.7156 16.0815 35.6495C15.9584 35.5834 15.8023 35.5162 15.6132 35.4478C15.4081 35.3749 15.2224 35.294 15.0561 35.2052C14.8898 35.114 14.7473 35.0103 14.6288 34.8941C14.5126 34.7779 14.4226 34.6446 14.3588 34.4942C14.295 34.3438 14.2631 34.1718 14.2631 33.9781C14.2631 33.7844 14.2962 33.6056 14.3622 33.4415C14.4306 33.2774 14.5263 33.135 14.6494 33.0143C14.7747 32.8912 14.9251 32.7955 15.1005 32.7271C15.276 32.6588 15.4719 32.6246 15.6884 32.6246C16.012 32.6246 16.2843 32.6964 16.5053 32.8399C16.7286 32.9812 16.8972 33.1669 17.0112 33.3971C17.1251 33.6249 17.1821 33.8687 17.1821 34.1285H16.5532C16.5532 33.9417 16.5224 33.7765 16.4609 33.6329C16.4016 33.4871 16.3082 33.3731 16.1806 33.2911C16.0553 33.2068 15.8912 33.1646 15.6884 33.1646C15.5061 33.1646 15.3557 33.2 15.2372 33.2706C15.121 33.3412 15.0344 33.4369 14.9775 33.5577C14.9228 33.6785 14.8954 33.8163 14.8954 33.9713C14.8954 34.0761 14.9137 34.1718 14.9501 34.2584C14.9866 34.3427 15.0424 34.4213 15.1176 34.4942C15.1951 34.5671 15.2908 34.6344 15.4047 34.6959C15.5209 34.7574 15.6577 34.8167 15.8149 34.8736C16.0587 34.9534 16.2672 35.0422 16.4404 35.1402C16.6135 35.2382 16.7548 35.3487 16.8642 35.4718C16.9736 35.5925 17.0533 35.7304 17.1035 35.8853C17.1559 36.038 17.1821 36.2112 17.1821 36.4049C17.1821 36.6077 17.1479 36.7911 17.0795 36.9552C17.0134 37.1192 16.9166 37.2594 16.789 37.3756C16.6614 37.4918 16.5076 37.5818 16.3276 37.6456C16.1476 37.7071 15.9448 37.7379 15.7192 37.7379C15.5232 37.7379 15.3307 37.706 15.1415 37.6422C14.9547 37.5784 14.7849 37.4827 14.6323 37.3551C14.4796 37.2275 14.3577 37.0702 14.2665 36.8834C14.1754 36.6943 14.1298 36.4755 14.1298 36.2271H14.7587C14.7587 36.398 14.7838 36.545 14.8339 36.6681C14.8841 36.7888 14.9536 36.8891 15.0424 36.9688C15.1313 37.0486 15.2327 37.1078 15.3466 37.1466C15.4628 37.183 15.587 37.2013 15.7192 37.2013C15.9015 37.2013 16.0541 37.1694 16.1772 37.1056C16.3025 37.0418 16.3959 36.9506 16.4575 36.8321C16.5213 36.7136 16.5532 36.5735 16.5532 36.4117ZM19.2055 37.2218C19.3263 37.2218 19.4356 37.1978 19.5336 37.15C19.6339 37.0999 19.7159 37.0224 19.7797 36.9176C19.8435 36.8105 19.88 36.6715 19.8891 36.5006H20.4565C20.4474 36.7467 20.3847 36.9631 20.2685 37.15C20.1546 37.3346 20.0042 37.4793 19.8173 37.5841C19.6328 37.6866 19.4288 37.7379 19.2055 37.7379C18.9662 37.7379 18.7578 37.6991 18.58 37.6217C18.4046 37.5442 18.2587 37.4325 18.1425 37.2867C18.0286 37.1386 17.9431 36.9597 17.8862 36.7501C17.8292 36.5382 17.8007 36.2978 17.8007 36.0289V35.6119C17.8007 35.343 17.8292 35.1038 17.8862 34.8941C17.9431 34.6822 18.0286 34.5033 18.1425 34.3575C18.2587 34.2094 18.4046 34.0966 18.58 34.0191C18.7578 33.9417 18.9662 33.9029 19.2055 33.9029C19.4562 33.9029 19.6726 33.9565 19.8549 34.0636C20.0395 34.1684 20.183 34.3211 20.2856 34.5216C20.3904 34.7198 20.4474 34.9602 20.4565 35.2428H19.8891C19.88 35.0605 19.8469 34.9089 19.79 34.7882C19.733 34.6651 19.6555 34.574 19.5576 34.5147C19.4596 34.4532 19.3422 34.4225 19.2055 34.4225C19.046 34.4225 18.9138 34.4509 18.809 34.5079C18.7065 34.5626 18.6256 34.6423 18.5663 34.7472C18.5071 34.852 18.4649 34.9773 18.4399 35.1231C18.4171 35.269 18.4057 35.4319 18.4057 35.6119V36.0289C18.4057 36.2089 18.4171 36.373 18.4399 36.5211C18.4649 36.6669 18.506 36.7922 18.5629 36.8971C18.6222 37.0019 18.7042 37.0828 18.809 37.1397C18.9138 37.1944 19.046 37.2218 19.2055 37.2218ZM21.7621 34.5523V37.6695H21.1572V33.9713H21.7416L21.7621 34.5523ZM22.6816 33.9508L22.685 34.5387C22.6349 34.5273 22.5893 34.5204 22.5483 34.5182C22.5095 34.5136 22.464 34.5113 22.4116 34.5113C22.2976 34.5113 22.1974 34.5341 22.1108 34.5797C22.0265 34.6253 21.9536 34.6891 21.892 34.7711C21.8305 34.8531 21.7815 34.9511 21.7451 35.065C21.7086 35.1767 21.6835 35.2997 21.6699 35.4342L21.5126 35.5367C21.5126 35.3134 21.5297 35.1038 21.5639 34.9078C21.6004 34.7118 21.6562 34.5387 21.7314 34.3883C21.8066 34.2356 21.9023 34.1171 22.0185 34.0328C22.137 33.9462 22.2783 33.9029 22.4423 33.9029C22.4788 33.9029 22.5232 33.9086 22.5756 33.92C22.6303 33.9291 22.6656 33.9394 22.6816 33.9508ZM23.9394 33.9713V37.6695H23.3378V33.9713H23.9394ZM23.3036 32.9903C23.3036 32.8878 23.3321 32.8012 23.3891 32.7306C23.4461 32.6599 23.5315 32.6246 23.6454 32.6246C23.7594 32.6246 23.8448 32.6599 23.9018 32.7306C23.961 32.8012 23.9907 32.8878 23.9907 32.9903C23.9907 33.0883 23.961 33.1726 23.9018 33.2433C23.8448 33.3116 23.7594 33.3458 23.6454 33.3458C23.5315 33.3458 23.4461 33.3116 23.3891 33.2433C23.3321 33.1726 23.3036 33.0883 23.3036 32.9903ZM25.5014 34.6822V39.0914H24.8964V33.9713H25.4467L25.5014 34.6822ZM27.5693 35.6529V35.9981C27.5693 36.2898 27.5419 36.545 27.4872 36.7638C27.4348 36.9802 27.3562 37.1614 27.2514 37.3072C27.1489 37.4508 27.0224 37.559 26.872 37.6319C26.7216 37.7026 26.5496 37.7379 26.3559 37.7379C26.1622 37.7379 25.9936 37.7014 25.85 37.6285C25.7088 37.5533 25.5891 37.4451 25.4911 37.3038C25.3954 37.1625 25.3191 36.9928 25.2621 36.7945C25.2075 36.594 25.1699 36.3696 25.1494 36.1212V35.5948C25.1699 35.3328 25.2075 35.0981 25.2621 34.8907C25.3168 34.6811 25.392 34.5033 25.4877 34.3575C25.5857 34.2094 25.7053 34.0966 25.8466 34.0191C25.9902 33.9417 26.1577 33.9029 26.3491 33.9029C26.5473 33.9029 26.7216 33.9371 26.872 34.0055C27.0247 34.0738 27.1523 34.1798 27.2548 34.3233C27.3596 34.4646 27.4383 34.6458 27.4907 34.8668C27.5431 35.0855 27.5693 35.3476 27.5693 35.6529ZM26.9643 35.9981V35.6529C26.9643 35.4478 26.9483 35.269 26.9164 35.1163C26.8868 34.9636 26.839 34.8372 26.7729 34.7369C26.7068 34.6366 26.6236 34.5615 26.5234 34.5113C26.4231 34.4612 26.3023 34.4361 26.1611 34.4361C26.0403 34.4361 25.9332 34.4612 25.8398 34.5113C25.7486 34.5615 25.67 34.6298 25.6039 34.7164C25.5379 34.8007 25.4832 34.8976 25.4399 35.0069C25.3966 35.114 25.3647 35.2257 25.3442 35.3419V36.3775C25.3829 36.5234 25.4342 36.6612 25.498 36.7911C25.5618 36.9187 25.6472 37.0224 25.7543 37.1021C25.8637 37.1819 26.0016 37.2218 26.1679 37.2218C26.3069 37.2218 26.4265 37.1967 26.5268 37.1466C26.6271 37.0964 26.7091 37.0213 26.7729 36.921C26.839 36.8185 26.8868 36.6908 26.9164 36.5382C26.9483 36.3832 26.9643 36.2032 26.9643 35.9981ZM29.6987 33.9713V34.4566H27.9726V33.9713H29.6987ZM28.5366 33.0724H29.1415V36.7535C29.1415 36.8788 29.1564 36.9734 29.186 37.0372C29.2179 37.101 29.2578 37.1432 29.3056 37.1637C29.3535 37.1842 29.4047 37.1944 29.4594 37.1944C29.5004 37.1944 29.546 37.1899 29.5961 37.1808C29.6463 37.1694 29.6804 37.1602 29.6987 37.1534L29.6953 37.6695C29.6542 37.6855 29.5995 37.7003 29.5312 37.714C29.4628 37.7299 29.3762 37.7379 29.2714 37.7379C29.1415 37.7379 29.0208 37.7071 28.9091 37.6456C28.7975 37.5841 28.7075 37.4815 28.6391 37.338C28.5707 37.1921 28.5366 36.9962 28.5366 36.7501V33.0724Z" fill="#252323"/>
</svg>
